<svg id="Capa_1" data-name="Capa 1" xmlns="http://www.w3.org/2000/svg" viewBox="0 0 141.15 85.28"><defs><style>.cls-1{fill:#3d3d3d;}.cls-2{fill:none;stroke:#3d3d3d;stroke-miterlimit:22.93;stroke-width:0.22px;}.cls-3{fill:#ccc;}</style></defs><title>1-Curtis-Blue</title><path class="cls-1" d="M97.38,38v.11c0,.2.29.31.77.31,1.21,0,2.73-.8,4.53-2.39a8.23,8.23,0,0,1,.66-1.35v-.83a3.47,3.47,0,0,0-.22-.93h-.44q-5.31,4-5.3,5.08Zm6.41-15.76c1.33.24,2,.86,2,1.87-.37,1.65-.85,2.49-1.44,2.49a.83.83,0,0,0-.33.11,1,1,0,0,1-.89-.63,6.35,6.35,0,0,0,.44-2q0-.21-.23-.21c-1.32.18-2,.56-2,1.14a7.55,7.55,0,0,0,2,4.77l.23.11a19.56,19.56,0,0,1,2.21-1.35A14.24,14.24,0,0,1,112,26.32a4.53,4.53,0,0,1,2.11-.83l.11.2V26A6,6,0,0,0,112,27.46q-2.24,1.15-7,3.68l-.44.51a5.69,5.69,0,0,1,.89,3.11,6.19,6.19,0,0,1-3,3.52A8.74,8.74,0,0,1,98.16,40c-2-.27-3-.89-3-1.87v-.51c0-.58.56-1.3,1.66-2.18a29.78,29.78,0,0,1,5-4.15l.11-.2v-.21q-2.65-3.57-2.65-5.7c.14-1.59.7-2.39,1.66-2.39a13.61,13.61,0,0,1,2.85-.58ZM90.28,24.63h.22a.94.94,0,0,1,.89.52v.31a11.79,11.79,0,0,0-1.88,5.39V32a1.17,1.17,0,0,0,.66,1.14h.89c1,0,2.71-1,5.2-3.11q.33,0,.66-.63a29,29,0,0,0,3-2.9c.1,0,.22-.2.33-.62a2.25,2.25,0,0,1,1-.42h.11a.2.2,0,0,1,.22.21,16.69,16.69,0,0,1-3.76,5.81A14.49,14.49,0,0,1,92.17,35l-1.11.21c-2.58-.28-3.87-1.45-3.87-3.53-.09,0-.17-.2-.23-.62q.84-4.1,2.44-5.5Zm6.09-8.5,1.21.21v.31q-.38,1.17-3.65,3.21a5.65,5.65,0,0,1-2.44.94q-1.11-.13-1.1-1t3.54-2.39a12,12,0,0,1,2.44-1.29Zm-12.94-7,.56.13.63-.13a1.69,1.69,0,0,1,.5.89q0,.7-2.21,4.23a.3.3,0,0,0,.3.34H85c.38-.16,3.52-.45,9.46-.89l1.75-.23.56-.13a12.5,12.5,0,0,0,1.68.13,6.06,6.06,0,0,1,2.19-.36,5.51,5.51,0,0,0,1.11.12h.44a.93.93,0,0,0,.44-.1l.19.1a10.74,10.74,0,0,1,1.69-.26,4,4,0,0,1,1.32.26,1.82,1.82,0,0,1,.89-.26h1.33a.84.84,0,0,0,.44-.11.79.79,0,0,0,.44.11h.77a3.5,3.5,0,0,0,.88-.11,3.63,3.63,0,0,0,.89.11c-1,.11-.43.16,1.8.16h.22a1.19,1.19,0,0,1,.63-.24L116,13v-.08l.8.21,3.65-.24.67.11,1.38-.23.11.26L124,12.9h1.45c.12,0,.19,0,.19.13s-.06,0-.06-.13l1.19-.12a13.37,13.37,0,0,0,1.47.12v.39l-.73-.39h.7a4.69,4.69,0,0,0,1-.12l.23.12,1.68-.26.53.26a.86.86,0,0,0,.39-.12c.15,0,.22,0,.22.12a17,17,0,0,1,1.75-.12c13.11,0,4.47,1.9,1.69,1.52a1.33,1.33,0,0,0-.69-.23h-.11a7.66,7.66,0,0,0-1.55.59l-.2-.1h-2.46a6,6,0,0,0-1,.1,1.09,1.09,0,0,0-.47-.1c-.43,0-.63.06-.63.18a1.64,1.64,0,0,0-.8-.18h-.67a7.1,7.1,0,0,0-.88.23h-.44a4.53,4.53,0,0,1-1-.23l-1.55.36a.79.79,0,0,1-.3-.13c-2.27.16-4.19.23-5.78.23h-.44a4.65,4.65,0,0,0-1,.13l-.52-.23-3.24.23-.56-.13c-.27.11-.42.19-.42.24l-1-.11h-1.57a7.33,7.33,0,0,0-1.66.26.89.89,0,0,1-.52-.12l-3.8.23-.66-.13a4.78,4.78,0,0,1-1.11.27l-1.11-.13q-7.17.38-18.35,1.53c.06,0-.18.43-.72,1.25a24.92,24.92,0,0,1-1.78,3.5q-1.17,3-2.1,6.1a1,1,0,0,0,.11.36,9.53,9.53,0,0,0-.34,2.54V31.9a1.7,1.7,0,0,0,1.84,1.44q1.8,0,6.7-3a23,23,0,0,0,2.54-1.69,33.55,33.55,0,0,0,3.32-4.07l.16.24A9,9,0,0,1,90,27.64q-3.54,4-5,4.62a10.26,10.26,0,0,1-2.1,1.45,9.5,9.5,0,0,1-4.82,1.81A5.21,5.21,0,0,1,74.73,34a2.19,2.19,0,0,0-.55-1.19l.11-.2v-.26a1.43,1.43,0,0,0-.34-.88v-.21l.23-.36v-.73A7,7,0,0,1,74.29,29a.88.88,0,0,1-.11-.34,21.33,21.33,0,0,1,1.32-4.22,4,4,0,0,1,.89-2.31,5.55,5.55,0,0,1,1-2.41,5.61,5.61,0,0,0,.77-1.82.74.74,0,0,1-.39-.12l-9.55,1.71a2.56,2.56,0,0,1-1.25-1l.11-.62.27-.58Q76.46,15.47,80,15.1c1.12-1.52,1.69-2.5,1.69-3a19.37,19.37,0,0,0,1.52-2.88ZM70.19,22q.58,0,1.13,1.33,0,1.09-3,5.36a7.86,7.86,0,0,0-1,3.27c0,.3.19.44.56.44h.47q2.51-.74,7.66-6c.58-.1.86-.39.86-.88a.19.19,0,0,1,.19-.19h.09q.14,0,.28.27v.26a3.69,3.69,0,0,1-1,1.58Q76,28.69,72.8,31.64a13.14,13.14,0,0,1-4.34,2.57H68.1a2.85,2.85,0,0,1-2.93-1.68c0-.18,0-.26-.09-.26.06-.23.12-.34.2-.34l-.11-.19v-.62a12,12,0,0,1,2.65-4.59,4.09,4.09,0,0,1,.92-1.22A3.72,3.72,0,0,0,69.32,24v-.11h-.39a8.9,8.9,0,0,1-4,1.17h-.09a12.54,12.54,0,0,0-1.52,1.76,1.23,1.23,0,0,1-.56.16h-.08c-.33,0-.61-.23-.86-.7,0-.31.33-.63.86-1a1,1,0,0,1,.17-.43l-.64-.7V24a1.09,1.09,0,0,1,.64-.88h.66l1.42-.34.66.44a23.06,23.06,0,0,0,4-1.17,3.44,3.44,0,0,0,.6-.05Zm-22,2.81a2.07,2.07,0,0,1,1.11.42,16.59,16.59,0,0,1-2,3.32,8.33,8.33,0,0,0-.66,2.9c.15.31.29.48.44.51.74,0,2.21-.86,4.43-2.59q2.1-2,4-4.14a5.07,5.07,0,0,1,1.32-.21h.36c.11,0,.26.18.44.52a7.4,7.4,0,0,1-1.32,1.65,10.53,10.53,0,0,0-1.11,2.5v.93c0,.09.19.26.56.52,1.09,0,3.29-1.59,6.58-4.77A4.48,4.48,0,0,1,64,24.94h.11a.2.2,0,0,1,.22.21c-.55,1.61-2,3.65-4.48,6.11A6.47,6.47,0,0,1,55.75,33h-.11c-1.3,0-2.3-.87-3-2.59q-3.48,3.21-4.54,3.21a5.42,5.42,0,0,1-1.32.2q-1.83,0-2.32-2.28v-.1q0-3.09,3-6.43a2.79,2.79,0,0,0,.73-.2Zm-7.84,6.84.06.21h.11c.15,0,.2-.07.17-.21ZM43.26,29v.11h.11c.14,0,.2-.07.16-.2v-.11h-.1c-.12,0-.18.09-.16.2Zm1.16-.2c.11,0,.27.11.5.31a.66.66,0,0,1,.3-.11v-.1c0-.14-.19-.21-.47-.21-.06-.2,0-.31.26-.31v-.2c-.5,0-.67.21-.58.62Zm.3-1.64h.2l.06.21h-.23Zm3.08-1.84.13.21c0,.1-.07.2-.25.31l-.17-.2v-.21a.73.73,0,0,0,.3-.12Zm.66-.42h.33c0,.35-.09.52-.22.52h-.11l-.23-.11c0-.26.13-.4.24-.4ZM12.64,21.34l.06.31h.1c.32-.12.47-.26.47-.41v-.08h-.22A.68.68,0,0,1,12.64,21.34Zm1.46-1.21.06.2h.22v-.2ZM31.39,18.6l.06.31c.15.69.75,1.1,1.79,1.22h.86c1.14,0,2.89-.65,5.23-1.92a7.55,7.55,0,0,0,2.85-1.95c.83-.78,1.24-1.22,1.22-1.32l-.11-.63c-.21-.86-1.54-1.47-4-1.81H37.58c-2.94.18-4.37.41-4.33.7C32,15.05,31.47,16.31,31.57,17a2.22,2.22,0,0,0-.17,1.61ZM40.19,6a1.94,1.94,0,0,1,1.52,1.42.13.13,0,0,1,.14.11c0,.24-.22.44-.75.62a3.45,3.45,0,0,0-.77-.11q-3.51,1.77-3.74,2.34v.11h.3q6.26,0,8.3,3.05a4.63,4.63,0,0,0,.33,1,4.18,4.18,0,0,1-2,3.16c-1.18,1.31-3.47,2.64-6.84,4a5.35,5.35,0,0,1-2.32.42h-.42c-.08,0-.1,0-.08.11q-3.43-.73-3.71-2.05c-.27,0-.59-.41-.94-1.21a9,9,0,0,1,.63-4.59c.15,0,.21-.07.17-.2L30,13.93h-.44q-1.08,0-4.62,1.72a49.67,49.67,0,0,0-7,4.17,77.41,77.41,0,0,0-8.92,8Q2.23,36.3,3.16,40.55c.37,1.75,1.77,3.14,4.17,4.18a17.42,17.42,0,0,0,3.93.62,17.85,17.85,0,0,0,6.62-1.12l.55.11a37.37,37.37,0,0,1,5.42-2.57A4.16,4.16,0,0,0,25.21,41,4.89,4.89,0,0,0,27,40.23a11.38,11.38,0,0,1,2.72-1.53,125.25,125.25,0,0,0,10.84-8.17v.11a.29.29,0,0,0,.27.19c0-.18.21-.55.72-1.12.15,0,.25.1.28.31h.1a.79.79,0,0,0,.8-.42v-.11c-.29,0-.45-.07-.49-.2s.37-.32,1.16-.7l.36.2a.86.86,0,0,1,.36-.93l.56.1h.22c.31,0,.65-.49,1-1.32a2.84,2.84,0,0,0,1.39-.59h.22c.13,0,.28.19.44.59a5.22,5.22,0,0,0-1.58,1.14v.08l.17.2-1.06.73c.09.4-.42.7-1.52.91l-.06-.21h-.43l.08.31h.23V30c-.3,0-.52.3-.67.9-1,.19-1.43.43-1.35.73h-.11l-.25-.1c-.13.6-.43.9-.89.9a55.38,55.38,0,0,1-5.42,4.65q-2.27,1.65-6.54,4.55a18.93,18.93,0,0,0-3.18,1.84L22,44.9q.06.29-5,1.95a37.56,37.56,0,0,0-4,.7l-.69-.1-.42.1-.59-.2a1.66,1.66,0,0,1-.83.2Q6.4,47,4.77,45.82,1.23,43.54.84,41.75a.55.55,0,0,0,0-.39c-.11,0-.25-.11-.39-.31l-.11-.93-.23-.5c.19-1.9.46-3,.83-3.27A2.81,2.81,0,0,1,1.7,34.3c-.09-.38.18-.61.82-.7v-.2a.65.65,0,0,1-.17-.31,9.5,9.5,0,0,1,2-3.35c.37-.07.81-.72,1.33-1.95a3.48,3.48,0,0,0,1.44-1.42,11.54,11.54,0,0,0,1.49-1.53l.47.11c.17,0,.26-.21.3-.63.42,0,.64-.34.64-1,.7-.16,1-.42.91-.81l.28-.2h.1v.49c.37,0,.54-.05.5-.18l-.11-.52a1.12,1.12,0,0,0,.53-.1l-.14-.21-.06-.2,2.13-1.74h.22v.21h.44l-.08-.28h-.3v-.11c0-.11.49-.45,1.52-1a3.23,3.23,0,0,0,.92-.81A5.73,5.73,0,0,1,19,16.54h.42c-.06-.28.27-.59,1-.94l.69.11c.25-.67.57-1,1-1l.66.1h.33v-.2l-.5.11-.06-.21c0-.14.3-.24,1-.31,0-.18.22-.34.75-.5a1.11,1.11,0,0,0,.47.11c-.06-.24.26-.49.92-.73l.58.11q-.1-.49,2.55-1.22a1.7,1.7,0,0,1,1.41-.52l.26.11a6.83,6.83,0,0,1,2.35-.7A16.76,16.76,0,0,1,40.19,6Z"/><path class="cls-2" d="M97.38,38v.11c0,.2.29.31.77.31,1.21,0,2.73-.8,4.53-2.39a8.23,8.23,0,0,1,.66-1.35v-.83a3.47,3.47,0,0,0-.22-.93h-.44q-5.31,4-5.3,5.08Zm6.41-15.76c1.33.24,2,.86,2,1.87-.37,1.65-.85,2.49-1.44,2.49a.83.83,0,0,0-.33.11,1,1,0,0,1-.89-.63,6.35,6.35,0,0,0,.44-2q0-.21-.23-.21c-1.32.18-2,.56-2,1.14a7.55,7.55,0,0,0,2,4.77l.23.11a19.56,19.56,0,0,1,2.21-1.35A14.24,14.24,0,0,1,112,26.32a4.53,4.53,0,0,1,2.11-.83l.11.2V26A6,6,0,0,0,112,27.46q-2.24,1.15-7,3.68l-.44.51a5.69,5.69,0,0,1,.89,3.11,6.19,6.19,0,0,1-3,3.52A8.74,8.74,0,0,1,98.16,40c-2-.27-3-.89-3-1.87v-.51c0-.58.56-1.3,1.66-2.18a29.78,29.78,0,0,1,5-4.15l.11-.2v-.21q-2.65-3.57-2.65-5.7c.14-1.59.7-2.39,1.66-2.39a13.61,13.61,0,0,1,2.85-.58ZM90.28,24.63h.22a.94.94,0,0,1,.89.52v.31a11.79,11.79,0,0,0-1.88,5.39V32a1.17,1.17,0,0,0,.66,1.14h.89c1,0,2.71-1,5.2-3.11q.33,0,.66-.63a29,29,0,0,0,3-2.9c.1,0,.22-.2.33-.62a2.25,2.25,0,0,1,1-.42h.11a.2.2,0,0,1,.22.21,16.69,16.69,0,0,1-3.76,5.81A14.49,14.49,0,0,1,92.17,35l-1.11.21c-2.58-.28-3.87-1.45-3.87-3.53-.09,0-.17-.2-.23-.62q.84-4.1,2.44-5.5Zm6.09-8.5,1.21.21v.31q-.38,1.17-3.65,3.21a5.65,5.65,0,0,1-2.44.94q-1.11-.13-1.1-1t3.54-2.39a12,12,0,0,1,2.44-1.29Zm-12.94-7,.56.13.63-.13a1.69,1.69,0,0,1,.5.89q0,.7-2.21,4.23a.3.3,0,0,0,.3.34H85c.38-.16,3.52-.45,9.46-.89l1.75-.23.56-.13a12.5,12.5,0,0,0,1.68.13,6.06,6.06,0,0,1,2.19-.36,5.51,5.51,0,0,0,1.11.12h.44a.93.93,0,0,0,.44-.1l.19.1a10.74,10.74,0,0,1,1.69-.26,4,4,0,0,1,1.32.26,1.82,1.82,0,0,1,.89-.26h1.33a.84.84,0,0,0,.44-.11.79.79,0,0,0,.44.11h.77a3.5,3.5,0,0,0,.88-.11,3.63,3.63,0,0,0,.89.11c-1,.11-.43.16,1.8.16h.22a1.19,1.19,0,0,1,.63-.24L116,13v-.08l.8.21,3.65-.24.67.11,1.38-.23.11.26L124,12.9h1.45c.12,0,.19,0,.19.13s-.06,0-.06-.13l1.19-.12a13.37,13.37,0,0,0,1.47.12v.39l-.73-.39h.7a4.69,4.69,0,0,0,1-.12l.23.12,1.68-.26.53.26a.86.86,0,0,0,.39-.12c.15,0,.22,0,.22.12a17,17,0,0,1,1.75-.12c13.11,0,4.47,1.9,1.69,1.52a1.33,1.33,0,0,0-.69-.23h-.11a7.66,7.66,0,0,0-1.55.59l-.2-.1h-2.46a6,6,0,0,0-1,.1,1.09,1.09,0,0,0-.47-.1c-.43,0-.63.06-.63.18a1.64,1.64,0,0,0-.8-.18h-.67a7.1,7.1,0,0,0-.88.23h-.44a4.53,4.53,0,0,1-1-.23l-1.55.36a.79.79,0,0,1-.3-.13c-2.27.16-4.19.23-5.78.23h-.44a4.65,4.65,0,0,0-1,.13l-.52-.23-3.24.23-.56-.13c-.27.11-.42.19-.42.24l-1-.11h-1.57a7.33,7.33,0,0,0-1.66.26.89.89,0,0,1-.52-.12l-3.8.23-.66-.13a4.78,4.78,0,0,1-1.11.27l-1.11-.13q-7.17.38-18.35,1.53c.06,0-.18.43-.72,1.25a24.92,24.92,0,0,1-1.78,3.5q-1.17,3-2.1,6.1a1,1,0,0,0,.11.36,9.53,9.53,0,0,0-.34,2.54V31.9a1.7,1.7,0,0,0,1.84,1.44q1.8,0,6.7-3a23,23,0,0,0,2.54-1.69,33.55,33.55,0,0,0,3.32-4.07l.16.24A9,9,0,0,1,90,27.64q-3.54,4-5,4.62a10.26,10.26,0,0,1-2.1,1.45,9.5,9.5,0,0,1-4.82,1.81A5.21,5.21,0,0,1,74.73,34a2.19,2.19,0,0,0-.55-1.19l.11-.2v-.26a1.43,1.43,0,0,0-.34-.88v-.21l.23-.36v-.73A7,7,0,0,1,74.29,29a.88.88,0,0,1-.11-.34,21.33,21.33,0,0,1,1.32-4.22,4,4,0,0,1,.89-2.31,5.55,5.55,0,0,1,1-2.41,5.61,5.61,0,0,0,.77-1.82.74.74,0,0,1-.39-.12l-9.55,1.71a2.56,2.56,0,0,1-1.25-1l.11-.62.27-.58Q76.46,15.47,80,15.1c1.12-1.52,1.69-2.5,1.69-3a19.37,19.37,0,0,0,1.52-2.88ZM70.19,22q.58,0,1.13,1.33,0,1.09-3,5.36a7.86,7.86,0,0,0-1,3.27c0,.3.19.44.56.44h.47q2.51-.74,7.66-6c.58-.1.86-.39.86-.88a.19.19,0,0,1,.19-.19h.09q.14,0,.28.27v.26a3.69,3.69,0,0,1-1,1.58Q76,28.69,72.8,31.64a13.14,13.14,0,0,1-4.34,2.57H68.1a2.85,2.85,0,0,1-2.93-1.68c0-.18,0-.26-.09-.26.06-.23.12-.34.2-.34l-.11-.19v-.62a12,12,0,0,1,2.65-4.59,4.09,4.09,0,0,1,.92-1.22A3.72,3.72,0,0,0,69.32,24v-.11h-.39a8.9,8.9,0,0,1-4,1.17h-.09a12.54,12.54,0,0,0-1.52,1.76,1.23,1.23,0,0,1-.56.16h-.08c-.33,0-.61-.23-.86-.7,0-.31.33-.63.86-1a1,1,0,0,1,.17-.43l-.64-.7V24a1.09,1.09,0,0,1,.64-.88h.66l1.42-.34.66.44a23.06,23.06,0,0,0,4-1.17,3.44,3.44,0,0,0,.6-.05Zm-22,2.81a2.07,2.07,0,0,1,1.11.42,16.59,16.59,0,0,1-2,3.32,8.33,8.33,0,0,0-.66,2.9c.15.31.29.48.44.51.74,0,2.21-.86,4.43-2.59q2.1-2,4-4.14a5.07,5.07,0,0,1,1.32-.21h.36c.11,0,.26.18.44.52a7.4,7.4,0,0,1-1.32,1.65,10.53,10.53,0,0,0-1.11,2.5v.93c0,.09.19.26.56.52,1.09,0,3.29-1.59,6.58-4.77A4.48,4.48,0,0,1,64,24.94h.11a.2.2,0,0,1,.22.21c-.55,1.61-2,3.65-4.48,6.11A6.47,6.47,0,0,1,55.75,33h-.11c-1.3,0-2.3-.87-3-2.59q-3.48,3.21-4.54,3.21a5.42,5.42,0,0,1-1.32.2q-1.83,0-2.32-2.28v-.1q0-3.09,3-6.43a2.79,2.79,0,0,0,.73-.2Zm-7.84,6.84.06.21h.11c.15,0,.2-.07.17-.21ZM43.26,29v.11h.11c.14,0,.2-.07.16-.2v-.11h-.1c-.12,0-.18.09-.16.2Zm1.16-.2c.11,0,.27.11.5.31a.66.66,0,0,1,.3-.11v-.1c0-.14-.19-.21-.47-.21-.06-.2,0-.31.26-.31v-.2c-.5,0-.67.21-.58.62Zm.3-1.64h.2l.06.21h-.23Zm3.08-1.84.13.21c0,.1-.07.2-.25.31l-.17-.2v-.21a.73.73,0,0,0,.3-.12Zm.66-.42h.33c0,.35-.09.52-.22.52h-.11l-.23-.11c0-.26.13-.4.24-.4ZM12.64,21.34l.06.31h.1c.32-.12.47-.26.47-.41v-.08h-.22A.68.68,0,0,1,12.64,21.34Zm1.46-1.21.06.2h.22v-.2ZM31.39,18.6l.06.31c.15.69.75,1.1,1.79,1.22h.86c1.14,0,2.89-.65,5.23-1.92a7.55,7.55,0,0,0,2.85-1.95c.83-.78,1.24-1.22,1.22-1.32l-.11-.63c-.21-.86-1.54-1.47-4-1.81H37.58c-2.94.18-4.37.41-4.33.7C32,15.05,31.47,16.31,31.57,17a2.22,2.22,0,0,0-.17,1.61ZM40.19,6a1.94,1.94,0,0,1,1.52,1.42.13.13,0,0,1,.14.11c0,.24-.22.44-.75.62a3.45,3.45,0,0,0-.77-.11q-3.51,1.77-3.74,2.34v.11h.3q6.26,0,8.3,3.05a4.63,4.63,0,0,0,.33,1,4.18,4.18,0,0,1-2,3.16c-1.18,1.31-3.47,2.64-6.84,4a5.35,5.35,0,0,1-2.32.42h-.42c-.08,0-.1,0-.08.11q-3.43-.73-3.71-2.05c-.27,0-.59-.41-.94-1.21a9,9,0,0,1,.63-4.59c.15,0,.21-.07.17-.2L30,13.93h-.44q-1.08,0-4.62,1.72a49.67,49.67,0,0,0-7,4.17,77.41,77.41,0,0,0-8.92,8Q2.23,36.3,3.16,40.55c.37,1.75,1.77,3.14,4.17,4.18a17.42,17.42,0,0,0,3.93.62,17.85,17.85,0,0,0,6.62-1.12l.55.11a37.37,37.37,0,0,1,5.42-2.57A4.16,4.16,0,0,0,25.21,41,4.89,4.89,0,0,0,27,40.23a11.38,11.38,0,0,1,2.72-1.53,125.25,125.25,0,0,0,10.84-8.17v.11a.29.29,0,0,0,.27.19c0-.18.21-.55.72-1.12.15,0,.25.1.28.31h.1a.79.79,0,0,0,.8-.42v-.11c-.29,0-.45-.07-.49-.2s.37-.32,1.16-.7l.36.2a.86.86,0,0,1,.36-.93l.56.1h.22c.31,0,.65-.49,1-1.32a2.84,2.84,0,0,0,1.39-.59h.22c.13,0,.28.19.44.59a5.22,5.22,0,0,0-1.58,1.14v.08l.17.2-1.06.73c.09.4-.42.7-1.52.91l-.06-.21h-.43l.08.31h.23V30c-.3,0-.52.3-.67.9-1,.19-1.43.43-1.35.73h-.11l-.25-.1c-.13.6-.43.9-.89.9a55.38,55.38,0,0,1-5.42,4.65q-2.27,1.65-6.54,4.55a18.93,18.93,0,0,0-3.18,1.84L22,44.9q.06.29-5,1.95a37.56,37.56,0,0,0-4,.7l-.69-.1-.42.1-.59-.2a1.66,1.66,0,0,1-.83.2Q6.4,47,4.77,45.82,1.23,43.54.84,41.75a.55.55,0,0,0,0-.39c-.11,0-.25-.11-.39-.31l-.11-.93-.23-.5c.19-1.9.46-3,.83-3.27A2.81,2.81,0,0,1,1.7,34.3c-.09-.38.18-.61.82-.7v-.2a.65.65,0,0,1-.17-.31,9.5,9.5,0,0,1,2-3.35c.37-.07.81-.72,1.33-1.95a3.48,3.48,0,0,0,1.44-1.42,11.54,11.54,0,0,0,1.49-1.53l.47.11c.17,0,.26-.21.3-.63.42,0,.64-.34.64-1,.7-.16,1-.42.91-.81l.28-.2h.1v.49c.37,0,.54-.05.5-.18l-.11-.52a1.12,1.12,0,0,0,.53-.1l-.14-.21-.06-.2,2.13-1.74h.22v.21h.44l-.08-.28h-.3v-.11c0-.11.49-.45,1.52-1a3.23,3.23,0,0,0,.92-.81A5.73,5.73,0,0,1,19,16.54h.42c-.06-.28.27-.59,1-.94l.69.11c.25-.67.57-1,1-1l.66.1h.33v-.2l-.5.11-.06-.21c0-.14.3-.24,1-.31,0-.18.22-.34.75-.5a1.11,1.11,0,0,0,.47.11c-.06-.24.26-.49.92-.73l.58.11q-.1-.49,2.55-1.22a1.7,1.7,0,0,1,1.41-.52l.26.11a6.83,6.83,0,0,1,2.35-.7A16.76,16.76,0,0,1,40.19,6Z"/><path class="cls-1" d="M119.29,56.17l.3.52-.46.2h-.7v-.55Zm-12.24,3.09h-.17A7.3,7.3,0,0,0,111.42,56v-.11c0-.07,0-.11.06-.11q-2.1.39-4.43,3.48Zm4.61-5a2.41,2.41,0,0,1,1.58.89,3.75,3.75,0,0,1-.78,2.41c-1.88,2-3.43,3.05-4.64,3.25l-1.3.54v.36c0,.8.79,1.19,2.34,1.19a14.27,14.27,0,0,0,3.16-.64q1.56-.5,4.39-3.49a6.37,6.37,0,0,1,1.85-2.1h.43a.9.9,0,0,0,.2.59v.24q-3,6.07-8.84,7.1a4.61,4.61,0,0,0-1.24.19A4.66,4.66,0,0,1,104,61.57L103.88,60h.49q.34-2,3.75-4.41a7.34,7.34,0,0,1,3.54-1.36ZM92.09,56a2.21,2.21,0,0,1,1.1.39,16.45,16.45,0,0,1-2.08,3.32,8.07,8.07,0,0,0-.69,2.9c.16.31.3.48.46.51.77,0,2.3-.86,4.61-2.59q2.18-2,4.15-4.14a5.48,5.48,0,0,1,1.38-.21h.34c.12,0,.28.18.46.52a7.44,7.44,0,0,1-1.38,1.65,10.35,10.35,0,0,0-1.16,2.5v.93c0,.09.2.26.58.52,1.13,0,3.42-1.59,6.85-4.77A4.62,4.62,0,0,1,108.44,56h.12a.21.21,0,0,1,.23.21c-.57,1.61-2.13,3.65-4.66,6.12a6.88,6.88,0,0,1-4.27,1.77h-.12c-1.36,0-2.4-.87-3.11-2.59Q93,64.74,91.9,64.74a5.86,5.86,0,0,1-1.38.2q-1.9,0-2.42-2.28v-.1q0-3.09,3.11-6.43a3,3,0,0,0,.87-.19Zm-12-1.25.23.11A14,14,0,0,0,86,50.24c.54-.38,1.17-1.52,1.91-3.42V46.3c-.72,0-2.12,1.07-4.24,3.21q-3.35,3.93-3.6,5.18Zm7.69-9.85c1.23,0,1.88.45,2,1.35q-.63,3.72-2.1,5.19a17.43,17.43,0,0,1-5.38,4.46c-2.54.93-3.79,1.59-3.75,2a12.16,12.16,0,0,0-.92,4.35l.09.93c.08.83.61,1.25,1.61,1.25h.46a9.45,9.45,0,0,0,5.12-1.79,19.67,19.67,0,0,0,3.4-2.42A12.64,12.64,0,0,1,91,57.94l1.13-1.45c.32.11.48.21.48.32a10.49,10.49,0,0,1-4,5.34c-3,2.66-5.84,4-8.41,4h-.58a4.17,4.17,0,0,1-4-2.69l-.12-1.25a8.27,8.27,0,0,1,1.07-3.94,4.45,4.45,0,0,1,.14-1.88c.18-.48.43-.71.78-.71a4.21,4.21,0,0,1,1-1.66q0-1.17,2.88-4.15,4.29-5,6.45-5Zm-63,40.05H25v.27h-.31Zm3.4-4.27h.12v.18h-.12Zm4.24-5.58c0,.12.08.18.2.18l.12-.18v-.19h-.12c-.14,0-.2.08-.2.18ZM38,66.88v.36h.2v-.36Zm1.64-3.27h.2v.2h-.2Zm.51-.36v.18h.32a.78.78,0,0,1,.09-.26l-.21-.11Q40.19,63.09,40.19,63.25Zm10.52-4.07a.78.78,0,0,0-.4-.11c0,.29-1.1.51-3.31.65v.11l-.21-.11h-.08c-1.52.23-2.28.42-2.28.58q-2.66,3.94-6.08,9.82a43.89,43.89,0,0,0,7,2.59,12.45,12.45,0,0,0,3,.67,26,26,0,0,0,3.39.55,6.13,6.13,0,0,1,.64-.11,5.54,5.54,0,0,1,1.44.39l.4-.18,1.88.18q8-.74,10.11-1.95a8.78,8.78,0,0,0,4.12-2.8c.54-.31,1-1.39,1.55-3.24a19.88,19.88,0,0,0-1.15-2.42,9,9,0,0,1-1.54-1.56,1.68,1.68,0,0,0-1-.58A2.69,2.69,0,0,1,67,60.73a20.63,20.63,0,0,1-4.32-1.56,8.45,8.45,0,0,1-2.6-.65.67.67,0,0,0-.29.08,22.17,22.17,0,0,0-3.64-.37q-4.93.95-5.47.94Zm7.87-15.33-.24-.1q-3.69.65-5.76,1.21A91,91,0,0,1,47,55.83v.26c1,0,1.47-.11,1.47-.26l.73.08h.72a1,1,0,0,0,.4-.08.94.94,0,0,0,.32.08l.81-.19c0,.12,1.17.25,3.51.36a1.33,1.33,0,0,0,.43-.07l.61.07h.92a61.68,61.68,0,0,0,11.28-4.43Q72,48.9,72.83,46.81l.09-.55-.09-.19a.67.67,0,0,0,.09-.28c0-.66-1.16-1.34-3.49-2h-.24c-.06,0-.09,0-.09.1a12.23,12.23,0,0,0-3.91-.57l-.84.11a5.15,5.15,0,0,0-.92-.11,45.58,45.58,0,0,1-4.84.53Zm4.2-2.51.43.11,1-.11c.34,0,.52.06.52.19.4-.05.6-.11.6-.19a16.09,16.09,0,0,1,3.2.47l.24-.11q4,.64,5.56,2.15a4.3,4.3,0,0,1,1.13,2.78c-.4,1.69-1.78,3.5-4.12,5.39a25.36,25.36,0,0,1-4.55,2.59,42.39,42.39,0,0,1-5.36,2.23l-.09.19A25.86,25.86,0,0,1,72,62.14c.64.45,1.29,1.6,2,3.45l-.11.18A4.93,4.93,0,0,1,74.15,67q0,1.53-2.39,4.38-1.87,1.77-7.12,3.6l-3.81.65-.51-.18a10.89,10.89,0,0,1-3.72.47l-.4-.19a3.7,3.7,0,0,0-.84.11l-.92-.11a5.16,5.16,0,0,1-.84.11,1.85,1.85,0,0,0-.92-.21.75.75,0,0,0-.31.11,6.2,6.2,0,0,1-2.16-.54l-.63.07c-1-.27-1.63-.45-1.85-.54h-.11l-.29.18h-.11c-.35,0-.52-.09-.52-.28H46c0-.43-.29-.65-.84-.65v-.11h-.61a1.43,1.43,0,0,1-.63-.18.77.77,0,0,1-.4.1,6,6,0,0,0-2-.75c0-.19-.47-.31-1.44-.36-.21-.42-.87-.73-2-.93,0-.07-.14-.17-.4-.28h-.24A29.17,29.17,0,0,0,34,76.17c-.14,0-.48.41-1,1.22-.5.2-1,.91-1.44,2.12a10.25,10.25,0,0,0-2,2.23,14.81,14.81,0,0,0-2.48,2.12c-.3,0-.65.27-1,.83h-.92V84.5c0-.13.34-.38,1-.73l-.12-.46a2.85,2.85,0,0,0,1-1.41,3.81,3.81,0,0,0,1-.46L28,81.25v-.11c.62-.35.92-.68.92-1h-.31v-.28c.23,0,.4-.19.51-.55.16,0,.3-.25.4-.75.4-.5.65-.75.73-.75a.1.1,0,0,0,.09.11h0c-.09.29-.23.45-.4.47a.71.71,0,0,1,.09.28h.16q.72-.6.72-.93a.43.43,0,0,0-.43-.36v-.11a13.45,13.45,0,0,0,1.88-2.59c.55-.12.84-.31.84-.58l-.12-.36c0-.33.52-.79,1.44-1.4a.19.19,0,0,1,.2-.18h0L34.64,72v-.18a2.44,2.44,0,0,0,.4-.11L34.92,71h.52v-.19q-.28-1.11-1.24-1.11a2,2,0,0,1-1.52-1A12.4,12.4,0,0,1,29.56,67h-.08c-.08,0-.12,0-.12.11s-.55-.41-1.24-1.22c-.44,0-.79-.3-1-.91a.68.68,0,0,0,.12-.39h-.52c-.11-.31-.29-.46-.51-.46l.11-.47a1.26,1.26,0,0,0-.51-.19v-.26c.27,0,.4-.07.4-.2-.29,0-.57-.28-.84-.83.12-.24.22-.36.31-.36a7,7,0,0,0,1.44,1.76q0,1.12,1.45,1.12v.08l-.21.28a.19.19,0,0,0,.19.19h.33q.12,0,.12-.08a1.14,1.14,0,0,1,1,.65,20.73,20.73,0,0,1,3,1.84A18,18,0,0,0,36.12,69h.07a1.14,1.14,0,0,0,.32-.18h.11v.36a.78.78,0,0,0,.4.11,3.3,3.3,0,0,0,.21-1.22l-.4.28V68.2c0-.19.2-.38.6-.58a.24.24,0,0,0,.24.21l.09-.21-.21-.08c0,.05,0,.08-.12.08s0-.18-.08-.18l1.12-1.77a.83.83,0,0,1,.72-.54l-.09-.19c.06-.5.24-.75.52-.75a.76.76,0,0,0,.29.11,1,1,0,0,0,.31-.57c-.21-.07-.31-.13-.31-.19a4.33,4.33,0,0,1,.52-1.11l.43.11a.76.76,0,0,1,.29-.11v-.18L41,62v-.18q.66,0,1.24-1.22h.31V60.3h-.4q-.24,0-.24.36h-.08c0-.31-.52-.53-1.56-.65,0-.07,0-.11-.08-.11l.08-.47v-.09H40v-.1l.2-.28v-.08H40c-.14,0-.2.09-.2.28H39.5q0-1.27,4-2.43c.38-.56.74-.83,1-.83l-.24-.26,1-.68v-.07h-.09l-.52.07.61-1.12A6.5,6.5,0,0,0,46.62,51q.43-.28,2.56-4.9c-.13,0-.2,0-.2-.1a62.55,62.55,0,0,0-12.15,5.47A39.59,39.59,0,0,0,31,55.53L30.31,57l-.51.1a1.13,1.13,0,0,1-1.24-.93,5.83,5.83,0,0,1,2.36-3,8.43,8.43,0,0,0,2.48-2,22.32,22.32,0,0,1,3.84-2.05c.09-.35.88-.81,2.36-1.4h.2l.73.11.11-.19a.18.18,0,0,0-.16-.2h0l-.21.1v-.1a10.62,10.62,0,0,1,4-1.76c0-.18.41-.3,1.24-.36q0-.45,4.45-1.66a11.64,11.64,0,0,1,3.51-.93h.76c0-.18.38-.34,1.15-.47l.49.08a36.71,36.71,0,0,1,7-1Z"/><path class="cls-2" d="M119.29,56.17l.3.52-.46.2h-.7v-.55Zm-12.24,3.09h-.17A7.3,7.3,0,0,0,111.42,56v-.11c0-.07,0-.11.06-.11q-2.1.39-4.43,3.48Zm4.61-5a2.41,2.41,0,0,1,1.58.89,3.75,3.75,0,0,1-.78,2.41c-1.88,2-3.43,3.05-4.64,3.25l-1.3.54v.36c0,.8.79,1.19,2.34,1.19a14.27,14.27,0,0,0,3.16-.64q1.56-.5,4.39-3.49a6.37,6.37,0,0,1,1.85-2.1h.43a.9.9,0,0,0,.2.59v.24q-3,6.07-8.84,7.1a4.61,4.61,0,0,0-1.24.19A4.66,4.66,0,0,1,104,61.57L103.88,60h.49q.34-2,3.75-4.41a7.34,7.34,0,0,1,3.54-1.36ZM92.09,56a2.21,2.21,0,0,1,1.1.39,16.45,16.45,0,0,1-2.08,3.32,8.07,8.07,0,0,0-.69,2.9c.16.31.3.48.46.51.77,0,2.3-.86,4.61-2.59q2.18-2,4.15-4.14a5.48,5.48,0,0,1,1.38-.21h.34c.12,0,.28.18.46.52a7.44,7.44,0,0,1-1.38,1.65,10.35,10.35,0,0,0-1.16,2.5v.93c0,.09.2.26.58.52,1.13,0,3.42-1.59,6.85-4.77A4.62,4.62,0,0,1,108.44,56h.12a.21.21,0,0,1,.23.21c-.57,1.61-2.13,3.65-4.66,6.12a6.88,6.88,0,0,1-4.27,1.77h-.12c-1.36,0-2.4-.87-3.11-2.59Q93,64.74,91.9,64.74a5.86,5.86,0,0,1-1.38.2q-1.9,0-2.42-2.28v-.1q0-3.09,3.11-6.43a3,3,0,0,0,.87-.19Zm-12-1.25.23.11A14,14,0,0,0,86,50.24c.54-.38,1.17-1.52,1.91-3.42V46.3c-.72,0-2.12,1.07-4.24,3.21q-3.35,3.93-3.6,5.18Zm7.69-9.85c1.23,0,1.88.45,2,1.35q-.63,3.72-2.1,5.19a17.43,17.43,0,0,1-5.38,4.46c-2.54.93-3.79,1.59-3.75,2a12.16,12.16,0,0,0-.92,4.35l.09.93c.08.83.61,1.25,1.61,1.25h.46a9.45,9.45,0,0,0,5.12-1.79,19.67,19.67,0,0,0,3.4-2.42A12.64,12.64,0,0,1,91,57.94l1.13-1.45c.32.11.48.21.48.32a10.49,10.49,0,0,1-4,5.34c-3,2.66-5.84,4-8.41,4h-.58a4.17,4.17,0,0,1-4-2.69l-.12-1.25a8.27,8.27,0,0,1,1.07-3.94,4.45,4.45,0,0,1,.14-1.88c.18-.48.43-.71.78-.71a4.21,4.21,0,0,1,1-1.66q0-1.17,2.88-4.15,4.29-5,6.45-5Zm-63,40.05H25v.27h-.31Zm3.4-4.27h.12v.18h-.12Zm4.24-5.58c0,.12.08.18.2.18l.12-.18v-.19h-.12c-.14,0-.2.08-.2.18ZM38,66.88v.36h.2v-.36Zm1.64-3.27h.2v.2h-.2Zm.51-.36v.18h.32a.78.78,0,0,1,.09-.26l-.21-.11Q40.19,63.09,40.19,63.25Zm10.52-4.07a.78.78,0,0,0-.4-.11c0,.29-1.1.51-3.31.65v.11l-.21-.11h-.08c-1.52.23-2.28.42-2.28.58q-2.66,3.94-6.08,9.82a43.89,43.89,0,0,0,7,2.59,12.45,12.45,0,0,0,3,.67,26,26,0,0,0,3.39.55,6.13,6.13,0,0,1,.64-.11,5.54,5.54,0,0,1,1.44.39l.4-.18,1.88.18q8-.74,10.11-1.95a8.78,8.78,0,0,0,4.12-2.8c.54-.31,1-1.39,1.55-3.24a19.88,19.88,0,0,0-1.15-2.42,9,9,0,0,1-1.54-1.56,1.68,1.68,0,0,0-1-.58A2.69,2.69,0,0,1,67,60.73a20.63,20.63,0,0,1-4.32-1.56,8.45,8.45,0,0,1-2.6-.65.67.67,0,0,0-.29.08,22.17,22.17,0,0,0-3.64-.37q-4.93.95-5.47.94Zm7.87-15.33-.24-.1q-3.69.65-5.76,1.21A91,91,0,0,1,47,55.83v.26c1,0,1.47-.11,1.47-.26l.73.08h.72a1,1,0,0,0,.4-.08.94.94,0,0,0,.32.08l.81-.19c0,.12,1.17.25,3.51.36a1.33,1.33,0,0,0,.43-.07l.61.07h.92a61.68,61.68,0,0,0,11.28-4.43Q72,48.9,72.83,46.81l.09-.55-.09-.19a.67.67,0,0,0,.09-.28c0-.66-1.16-1.34-3.49-2h-.24c-.06,0-.09,0-.09.1a12.23,12.23,0,0,0-3.91-.57l-.84.11a5.15,5.15,0,0,0-.92-.11,45.58,45.58,0,0,1-4.84.53Zm4.2-2.51.43.11,1-.11c.34,0,.52.06.52.19.4-.05.6-.11.6-.19a16.09,16.09,0,0,1,3.2.47l.24-.11q4,.64,5.56,2.15a4.3,4.3,0,0,1,1.13,2.78c-.4,1.69-1.78,3.5-4.12,5.39a25.36,25.36,0,0,1-4.55,2.59,42.39,42.39,0,0,1-5.36,2.23l-.09.19A25.86,25.86,0,0,1,72,62.14c.64.45,1.29,1.6,2,3.45l-.11.18A4.93,4.93,0,0,1,74.15,67q0,1.53-2.39,4.38-1.87,1.77-7.12,3.6l-3.81.65-.51-.18a10.89,10.89,0,0,1-3.72.47l-.4-.19a3.7,3.7,0,0,0-.84.11l-.92-.11a5.16,5.16,0,0,1-.84.11,1.85,1.85,0,0,0-.92-.21.75.75,0,0,0-.31.11,6.2,6.2,0,0,1-2.16-.54l-.63.07c-1-.27-1.63-.45-1.85-.54h-.11l-.29.18h-.11c-.35,0-.52-.09-.52-.28H46c0-.43-.29-.65-.84-.65v-.11h-.61a1.43,1.43,0,0,1-.63-.18.77.77,0,0,1-.4.1,6,6,0,0,0-2-.75c0-.19-.47-.31-1.44-.36-.21-.42-.87-.73-2-.93,0-.07-.14-.17-.4-.28h-.24A29.17,29.17,0,0,0,34,76.17c-.14,0-.48.41-1,1.22-.5.2-1,.91-1.44,2.12a10.25,10.25,0,0,0-2,2.23,14.81,14.81,0,0,0-2.48,2.12c-.3,0-.65.27-1,.83h-.92V84.5c0-.13.34-.38,1-.73l-.12-.46a2.85,2.85,0,0,0,1-1.41,3.81,3.81,0,0,0,1-.46L28,81.25v-.11c.62-.35.92-.68.92-1h-.31v-.28c.23,0,.4-.19.51-.55.16,0,.3-.25.4-.75.4-.5.65-.75.73-.75a.1.1,0,0,0,.09.11h0c-.09.29-.23.45-.4.47a.71.71,0,0,1,.09.28h.16q.72-.6.72-.93a.43.43,0,0,0-.43-.36v-.11a13.45,13.45,0,0,0,1.88-2.59c.55-.12.84-.31.84-.58l-.12-.36c0-.33.52-.79,1.44-1.4a.19.19,0,0,1,.2-.18h0L34.64,72v-.18a2.44,2.44,0,0,0,.4-.11L34.92,71h.52v-.19q-.28-1.11-1.24-1.11a2,2,0,0,1-1.52-1A12.4,12.4,0,0,1,29.56,67h-.08c-.08,0-.12,0-.12.11s-.55-.41-1.24-1.22c-.44,0-.79-.3-1-.91a.68.68,0,0,0,.12-.39h-.52c-.11-.31-.29-.46-.51-.46l.11-.47a1.26,1.26,0,0,0-.51-.19v-.26c.27,0,.4-.07.4-.2-.29,0-.57-.28-.84-.83.12-.24.22-.36.31-.36a7,7,0,0,0,1.44,1.76q0,1.12,1.45,1.12v.08l-.21.28a.19.19,0,0,0,.19.19h.33q.12,0,.12-.08a1.14,1.14,0,0,1,1,.65,20.73,20.73,0,0,1,3,1.84A18,18,0,0,0,36.12,69h.07a1.14,1.14,0,0,0,.32-.18h.11v.36a.78.78,0,0,0,.4.11,3.3,3.3,0,0,0,.21-1.22l-.4.28V68.2c0-.19.2-.38.6-.58a.24.24,0,0,0,.24.21l.09-.21-.21-.08c0,.05,0,.08-.12.08s0-.18-.08-.18l1.12-1.77a.83.83,0,0,1,.72-.54l-.09-.19c.06-.5.24-.75.52-.75a.76.76,0,0,0,.29.11,1,1,0,0,0,.31-.57c-.21-.07-.31-.13-.31-.19a4.33,4.33,0,0,1,.52-1.11l.43.11a.76.76,0,0,1,.29-.11v-.18L41,62v-.18q.66,0,1.24-1.22h.31V60.3h-.4q-.24,0-.24.36h-.08c0-.31-.52-.53-1.56-.65,0-.07,0-.11-.08-.11l.08-.47v-.09H40v-.1l.2-.28v-.08H40c-.14,0-.2.09-.2.28H39.5q0-1.27,4-2.43c.38-.56.74-.83,1-.83l-.24-.26,1-.68v-.07h-.09l-.52.07.61-1.12A6.5,6.5,0,0,0,46.62,51q.43-.28,2.56-4.9c-.13,0-.2,0-.2-.1a62.55,62.55,0,0,0-12.15,5.47A39.59,39.59,0,0,0,31,55.53L30.31,57l-.51.1a1.13,1.13,0,0,1-1.24-.93,5.83,5.83,0,0,1,2.36-3,8.43,8.43,0,0,0,2.48-2,22.32,22.32,0,0,1,3.84-2.05c.09-.35.88-.81,2.36-1.4h.2l.73.11.11-.19a.18.18,0,0,0-.16-.2h0l-.21.1v-.1a10.62,10.62,0,0,1,4-1.76c0-.18.41-.3,1.24-.36q0-.45,4.45-1.66a11.64,11.64,0,0,1,3.51-.93h.76c0-.18.38-.34,1.15-.47l.49.08a36.71,36.71,0,0,1,7-1Z"/><path class="cls-3" d="M57.19.43a10.06,10.06,0,0,1,.93,1.33c.2.33.18.35.14.36h-.75c-.15,0-.21-.06-.42-.29s-.58-.65-.82-.87A.88.88,0,0,0,55.8.67a5.33,5.33,0,0,0-.81,0h-2.3a2.37,2.37,0,0,0-.77.07c-.06,0-.07,0-.07.64V3.76a2.56,2.56,0,0,0,.08.77c0,.07,0,.13.5.17s1.44,0,2,0a2.29,2.29,0,0,0,.89-.07.88.88,0,0,0,.39-.41c.1-.2.18-.45.25-.59a.32.32,0,0,1,.24-.19.83.83,0,0,1,.25-.05c.06,0,.07.05.07.29v1a5.64,5.64,0,0,0,0,.74v1c0,.29,0,.29-.07.29a.84.84,0,0,1-.25-.05A.32.32,0,0,1,56,6.47c-.07-.14-.15-.39-.25-.59a.88.88,0,0,0-.39-.41,2.29,2.29,0,0,0-.89-.07h-2c-.47,0-.48.1-.5.17a2.56,2.56,0,0,0-.08.77V8.72c0,.59,0,.61.07.64a2.38,2.38,0,0,0,.77.07H55a5.3,5.3,0,0,0,.81,0,.88.88,0,0,0,.47-.29c.24-.23.61-.65.82-.87s.27-.27.42-.29h.75s0,0-.14.36a10.08,10.08,0,0,1-.93,1.33,1.07,1.07,0,0,1-.83.43H49.43a.28.28,0,0,1-.22-.06.52.52,0,0,1,0-.3c0-.08,0-.08.14-.14a1.69,1.69,0,0,0,.36-.33.89.89,0,0,0,.16-.42,7.54,7.54,0,0,0,0-.91V5.61a5,5,0,0,1,0-.56,5,5,0,0,1,0-.56V2.16a7.56,7.56,0,0,0,0-.91.89.89,0,0,0-.16-.42A1.69,1.69,0,0,0,49.35.5c-.09-.07-.12-.07-.14-.14a.52.52,0,0,1,0-.3c0-.07.14-.06.22-.06h6.93a1.07,1.07,0,0,1,.83.43m2.67,8.31a.68.68,0,1,0,.68.68h0a.68.68,0,0,0-.68-.68m2,1.34c-.12,0-.12,0-.12-.06V9.71a.25.25,0,0,1,.06-.18l.28-.22a5.61,5.61,0,0,0,.56-.54c.13-.16.13-.22.13-.29V2.16c0-1.24,0-1.3-.09-1.35L62.4.67a.17.17,0,0,1-.1-.16,1.21,1.21,0,0,1,0-.34c0-.08.06-.08.12-.08h2.94l.55.85L68,4.29c.52.84.52.84.92,0L70.51,1l.4-.83h2.72a11,11,0,0,1,0,1.54V7.86c0,1.55,0,1.58.06,1.61l.19.11a.15.15,0,0,1,.1.13A.93.93,0,0,1,74,10c0,.07-.06.07-.67.07H70.19a.07.07,0,0,1-.07-.07.57.57,0,0,1,0-.24c0-.07.08-.1.16-.16a1.24,1.24,0,0,0,.26-.25,1.47,1.47,0,0,0,.16-.32,1.82,1.82,0,0,0,.09-.26,8.07,8.07,0,0,0,0-1.1V2.49c0-.13,0-.13-.44,1S69,7,68.47,8.17a7,7,0,0,1-.55,1.24h-.63l-.62-1.08C66.05,7.25,64.89,5.08,64.3,4s-.59-1.12-.58-1.15a5,5,0,0,1,0,.85V8.41a.19.19,0,0,0,.06.15,2.34,2.34,0,0,0,.35.28l.54.39c.13.09.14.11.15.13a.53.53,0,0,1,0,.14V10h-3m14-1.22a.68.68,0,1,0,.68.68h0a.68.68,0,0,0-.68-.68"/></svg>