<?xml version="1.0" encoding="utf-8"?>
<!-- Generator: Adobe Illustrator 21.0.0, SVG Export Plug-In . SVG Version: 6.00 Build 0)  -->
<svg version="1.1" id="Capa_1" xmlns="http://www.w3.org/2000/svg" xmlns:xlink="http://www.w3.org/1999/xlink" x="0px" y="0px"
	 viewBox="0 0 127 46.1" style="enable-background:new 0 0 127 46.1;" xml:space="preserve">
<style type="text/css">
	.st0{fill:#3D3D3D;}
	.st1{fill:none;stroke:#3D3D3D;stroke-width:0.22;stroke-miterlimit:22.93;}
	.st2{fill:#CCCCCC;}
</style>
<title>Mesa de trabajo 1</title>
<path class="st0" d="M29.4,39.5v0.4c0.7,2,2.5,3.1,5.6,3.3c1.1-0.1,1.6-0.3,1.6-0.4l0.5,0.1h0.3l2.1-1l0.2,0.1H40
	c0-0.4,0.4-0.6,1.2-0.7c0.5-0.7,1.1-1.3,1.9-1.6c0-0.4,0.5-0.9,1.5-1.4c0.4-0.2,0.6-0.6,0.6-1c0.1,0,0.5-0.4,0.9-1.2
	c0.2-0.4,0.5-0.6,0.9-0.6v-0.3c-0.1-0.1-0.2-0.2-0.2-0.3c0.3-0.7,0.4-1,0.5-1s0.4-0.3,0.4-0.8c0,0,0.1,0,0.1-0.1c0,0,0,0,0,0v-0.4
	c0.4,0,0.6-0.3,0.6-0.9c0.1,0,0.2-0.2,0.3-0.5c0.1,0,0.2-0.1,0.2-0.2c-0.1-0.1-0.1-0.2-0.1-0.3c0.1,0,0.2-0.1,0.2-0.2
	c0-0.1,0-0.2-0.1-0.3c0-0.4,0.2-0.6,0.5-0.6v-0.3c0-0.1-0.1-0.2-0.2-0.2h-0.1c-4.1,1-8,2.3-11.9,3.9C32,35.6,29.4,37.8,29.4,39.5z
	 M37.8,16.7h-0.1c1.5-0.3,2.8-1.3,3.6-2.6v0c0-0.1,0-0.1,0-0.1C40.2,14.2,39,15.1,37.8,16.7L37.8,16.7z M7.1,32.3l-0.2,0.2v0.1h0.3
	c0.1,0,0.2-0.1,0.2-0.1v-0.2H7.1z M14.8,17.2v0.2c0,0.1,0.1,0.1,0.2,0.2s0.3-0.2,0.3-0.4L14.8,17.2z M18.4,15.1L18.4,15.1
	c0,0.2,0.1,0.2,0.3,0.2s0.1,0,0.1-0.1l0.6,0.1c0.6,0,1.1-0.1,1.7-0.2c0,0.1,0.1,0.1,0.1,0.2c0,0,0,0,0,0c0.3,0,0.5-0.1,0.8-0.2
	l0.4,0.1c0-0.1,0.1-0.2,0.2-0.2c0,0,0,0,0.1,0c0.1,0,0.2,0.1,0.3,0.1c0-0.1,0.1-0.2,0.1-0.3h0.9c0.2-0.1,0.3-0.2,0.3-0.2
	c0.2,0.1,0.4,0.1,0.6,0.1c0-0.1,0.5-0.3,1.4-0.6l0.2,0.1h0.3c0.6-0.3,1.2-0.6,1.9-0.6l1.5-0.7l0.5,0.1c0.2-0.2,0.4-0.4,0.6-0.4
	l0.2,0.1h0.3c0-0.3,0.5-0.6,1.4-0.8c0.6-0.5,1.2-0.8,1.9-1.1c0-0.2,0.5-0.7,1.5-1.5c0.3-0.5,0.4-1,0.5-1.6c0-0.8-1.4-1.6-4.2-2.3
	c-1.3-0.2-2.6-0.3-3.8-0.3c-0.1,0-0.2,0-0.3,0.1l-0.2-0.1C24.8,5.1,23,5.3,23,5.8C22.7,6.6,21.2,9.7,18.4,15.1z M45.9,17.4l-0.2,0.3
	c-0.2,0.3-0.4,0.6-0.6,0.9c-0.2,0.5-0.4,1.1-0.4,1.7v0.2l0.1,0.4c1.1-0.4,2.1-1.2,2.9-2.1c0.8-0.8,1.5-1.7,2.1-2.7
	c0.5-0.8,0.9-1.6,1.1-2.5c0.2,0,0.4-0.1,0.6-0.3h0.2c0.4,0.1,0.8,0.5,0.9,0.9c-0.6,1.8-0.8,3.6-0.8,5.5c0,0.1,0,0.1,0.1,0.1
	l-0.1,0.4c0,0.3,0,0.9,0.1,1.8c-0.1,0.2-0.2,0.3-0.2,0.5c0,0.1,0,0.3,0.1,0.4c0,1.3-0.2,2.7-0.4,4l0.6,0.1c0.3-0.1,0.6-0.2,0.9-0.4
	h0.3c0.1,0,0.1,0,0.1,0.1c0.5-0.2,1.1-0.4,1.7-0.4l0.3,0.2h0.1c0-0.2,1-0.5,2.9-0.7c0.1,0.1,0.2,0.1,0.3,0.1s0.2,0.1,0.2,0.2
	c-0.1,0.1-0.1,0.2-0.2,0.3c-0.1,0.1-0.2,0.2-0.3,0.2c-0.1,0.1-0.3,0.1-0.3,0.2s0,0.2,0,0.3s0,0.2-0.2,0.2L57,27.7
	c-0.1,0-0.1,0-0.2,0s0.3-0.3,0-0.2l-0.7,0.3h-0.7c-1.2,0.4-2.4,0.7-3.6,0.9c-0.6,0.1-1,0.6-1,1.2c-0.1,0-0.4,0.5-0.6,1.6
	c-1.3,3.4-2.6,5.6-3.7,6.7c-1.8,2.6-4.4,4.5-7.4,5.5c-1.2,0.4-2.4,0.6-3.6,0.6h-0.7c-1.6-0.1-3.1-0.5-4.5-1.3
	c-1.9-0.9-2.8-2.2-2.8-3.8c0-1.1,0.7-2.2,2.2-3.3c1.3-1.1,2.7-2.1,4.2-2.8c0.7-0.3,1.4-0.6,2-1c5-2,7.8-3,8.5-3
	c1.3-0.6,2.8-1,4.2-1.3c0.7-0.1,1.1-0.3,1.1-0.8v-0.4l-0.1-0.5c0-0.1,0.2-0.2,0.5-0.4L50,25.2c0.1-0.1,0.1-0.2,0.1-0.3L50,24.7
	l0.1-0.4L50,23.9c0-0.1,0.1-0.2,0.1-0.3C50,23.4,50,23.2,50,23h0.1L50,22.8v-0.3l0.2-0.3l-0.1-0.4l0.4-0.9L50,20.5v-0.9l0.2-0.6
	c-0.1-0.2-0.1-0.5-0.2-0.7h-0.1c-1.6,2-2.6,3-2.9,3c-0.4,0.8-1.2,1.3-2.1,1.4c-0.9,0.1-1.8-0.6-1.9-1.5c0,0,0,0,0,0
	c0.1-0.2,0.1-0.3,0.2-0.3s0-0.1-0.1-0.1l0.1-0.6h-0.1H43c-0.9,0.5-1.8,0.8-2.8,1c-0.3,0-0.7,0.1-1,0.1c-1.7,0.1-3.2-0.9-3.8-2.5
	l-0.1-1.2h0.4c0.2-1,1.2-2.2,3-3.5c0.8-0.6,1.8-1,2.8-1.1c0.5,0.1,0.9,0.3,1.3,0.7c0,0.7-0.2,1.4-0.6,1.9c-1.5,1.6-2.7,2.4-3.7,2.6
	l-1,0.4v0.3c0,0.6,0.6,0.9,1.9,0.9c0.8-0.1,1.7-0.2,2.5-0.5c0.8-0.3,1.5-0.8,2.1-1.4l0.1-0.2c0.1-0.2,0.3-0.4,0.4-0.8
	c0.7-1.7,1.3-2.5,1.7-2.5h0.1c0.2,0,0.4,0.1,0.5,0.3l0.3-0.1h0.1l0.3-0.1l0.2,0.4L47.4,15l0,0v0.1l-0.2,0.3v0.1
	C46.9,16.2,46.4,16.8,45.9,17.4L45.9,17.4z M23.8,0.1c0.7,0.3,1,0.7,1,1.2l-0.9,2.5C23.9,4,24,4,24.1,4c0.3-0.2,0.6-0.3,1-0.3
	c0.2,0,0.4,0.1,0.6,0.1c0.6-0.2,1.2-0.3,1.8-0.3h0.1c0.3,0,0.7,0,1,0.1c0.3-0.1,0.5-0.1,0.8-0.1v0.1l-0.1,0.1l0.2,0.1h0.2
	c0.2-0.2,0.5-0.4,0.9-0.4h0.3c0.3,0,0.5,0.1,0.5,0.2c0,0.1-0.1,0.1-0.1,0.2c0.2-0.1,0.4-0.2,0.6-0.2c0.2,0.1,0.4,0.2,0.6,0.3
	c0.1,0,0.2,0,0.2-0.1c1.4,0,3.2,0.8,5.3,2.4c0.4,0.4,0.6,1,0.6,1.6v0.1c0,0,0,0.1-0.1,0.1l0.1,0.1c0,0.9-1.1,2-3.2,3.5
	c-2,1.3-4.3,2.3-6.6,3c-1.4,0.5-2.8,0.8-4.3,1.1c-1.5,0.3-3,0.6-4.5,0.7h-1.2c-0.9,0.2-1.4,0.4-1.4,0.6c-0.3,0.7-0.7,1.4-1.1,2
	c0.7,1,1.5,1.9,2.3,2.7c0.9,1.5,2.1,2.8,3.5,3.8c1.5,1.5,3.2,2.6,5.2,3.3c0.7,0.3,1.5,0.6,2.3,0.7c1.5,0.3,3,0.5,4.5,0.6
	c0,0.1,0,0.1,0.1,0.1c0.2-0.1,0.4-0.2,0.6-0.2l0.3,0.1c0.2-0.1,0.3-0.1,0.3-0.2l0.4,0.1c0.3-0.1,0.4-0.2,0.4-0.2l0.2,0.1l2.1-0.6
	c0.2,0.2,0.4,0.3,0.7,0.4h0.2v-0.1c0-0.1-0.1-0.1-0.1-0.2c0.1-0.1,0.3-0.1,0.5-0.1v0.1l-0.1,0.1l0.2,0.1c0.1,0,0.2-0.1,0.2-0.4h0.1
	c0.3,0,0.4,0.1,0.4,0.1l0.2-0.1H41l-0.2,0.2l-0.1-0.1h-0.2c-1,0.8-2.2,1.2-3.4,1.3c-0.5,0.2-1,0.3-1.5,0.4c0,0.1-0.1,0.1-0.3,0.2
	l-0.8-0.1l-0.9,0.2c-1-0.1-1.6-0.1-1.9-0.1L31,31.5c-1-0.3-2-0.4-3-0.5c-0.7-0.3-1.4-0.5-2.1-0.7c-1-0.5-2.1-1.1-3-1.7
	c-1-0.4-2.9-2-5.5-4.8c-1.1-1.7-1.8-2.5-2.2-2.5c-0.7,1-1.2,2.1-1.6,3.2c-0.1,0-0.4,0.5-1,1.4c-0.8,1.5-1.7,2.8-2.7,4.1
	c-0.3,0.6-0.7,1.1-1.1,1.5c-0.3,0.5-0.6,0.9-1,1.3c-0.2,0.4-0.6,0.7-1,0.7v0.4C5.5,35.3,4.5,36,3.7,36l-0.1-0.1v-0.1
	c0.1,0,0.4-0.2,0.9-0.6c0.1,0.1,0.1,0.2,0.1,0.3c0,0,0.2-0.1,0.4-0.4C4.9,35,4.9,35,4.8,35v-0.1c0.4-0.3,0.5-0.4,0.5-0.5v-0.1
	L5.3,34c0.3,0,0.5-0.2,0.5-0.7c0.3,0,0.4-0.1,0.4-0.2v-0.1L6,33c0.2,0,0.4-0.3,0.6-0.8l0.8-0.4c0-0.1-0.1-0.1-0.3-0.1v-0.1
	c0,0,0.2-0.2,0.5-0.4v-0.1c0,0,0-0.1-0.1-0.1c0.2-0.4,0.5-0.7,0.8-1.1v-0.1h0.1l0.4,0.2c0-0.1,0-0.1,0.1-0.1s-0.1-0.2-0.4-0.4
	c0-0.2,0.2-0.5,0.7-0.9c0.2-0.6,0.5-0.9,0.8-0.9v0.1h0.2v-0.2c-0.2,0-0.3,0-0.3-0.1v-0.1c0.1-0.4,0.3-0.8,0.7-1l-0.1-0.1V26
	c0.6-1.2,1.3-2.3,2.2-3.3l-0.2-0.2v-0.1c0.1-0.1,0.2-0.2,0.2-0.2c0-0.2-0.1-0.4-0.2-0.4c0.6-1,1-1.4,1.3-1.4l-0.1-0.4
	c0.1-0.2,0.2-0.4,0.3-0.7c-1.2-1.5-2.4-2.2-3.6-2.2c-0.2-0.1-0.4-0.4-0.5-0.9C9.9,16,10,15.9,10,15.9L10,15.7v-0.1
	c0.4,0,0.6-0.1,0.6-0.2c0.7,0.2,1.3,0.4,2,0.4c0,0,0,0.1,0.1,0.1h0.1c0.2-0.1,0.4-0.2,0.6-0.2h0.4c0.3,0,0.8,0,1.3,0.1
	c0.4,0,0.8-0.3,1.3-0.9h0.1v-0.2c0.1-0.3,0.2-0.5,0.4-0.7c0-0.1,0-0.2-0.1-0.2c0.3-1.3,0.9-2.5,1.8-3.5c0.1-0.6,0.2-1.1,0.5-1.7
	l0.3,0.2h0.1V8.3c0.4-0.6,0.6-1,0.6-1c0-0.1-0.1-0.1-0.1-0.2c0.3-0.4,0.6-0.6,0.7-0.6c0-0.3-0.1-0.4-0.2-0.4c-0.9,0-3.6,0.8-8,2.4
	l-5.6,2.7c-0.8,0.5-1.7,1-2.6,1.4c0,0.1-0.3,0.3-0.8,0.5c-1.2,0.9-1.8,1.7-1.8,2.5c-0.3,0.1-0.5,0.2-0.5,0.2c-0.4-0.1-0.7-0.2-1-0.5
	l0.1-0.1v-0.8c0.9-1.1,1.5-1.7,1.8-1.7c0.3-0.2,0.6-0.4,0.8-0.7c0.9-0.4,1.7-1,2.5-1.6l0.2,0.1h0.2c1.5-1.1,3.1-1.9,4.8-2.4h0.3
	c0.1-0.3,0.7-0.6,1.7-0.8c0.9-0.5,1.9-0.9,2.9-1.1c1.1-0.4,2.3-0.8,3.5-0.9C18.8,5,19,5,19.4,5h0.1c0-0.1,0-0.2,0.2-0.2l0.6,0.1
	c0.1-0.2,0.5-0.4,1.2-0.6c0.4-0.4,0.7-0.9,0.8-1.5c0.1,0,0.2,0,0.2-0.1c0-0.1,0-0.2-0.1-0.3l0.5-1.8C23.1,0.3,23.4,0.2,23.8,0.1z"/>
<path class="st1" d="M29.4,39.5v0.4c0.7,2,2.5,3.1,5.6,3.3c1.1-0.1,1.6-0.3,1.6-0.4l0.5,0.1h0.3l2.1-1l0.2,0.1H40
	c0-0.4,0.4-0.6,1.2-0.7c0.5-0.7,1.1-1.3,1.9-1.6c0-0.4,0.5-0.9,1.5-1.4c0.4-0.2,0.6-0.6,0.6-1c0.1,0,0.5-0.4,0.9-1.2
	c0.2-0.4,0.5-0.6,0.9-0.6v-0.3c-0.1-0.1-0.2-0.2-0.2-0.3c0.3-0.7,0.4-1,0.5-1s0.4-0.3,0.4-0.8c0,0,0.1,0,0.1-0.1c0,0,0,0,0,0v-0.4
	c0.4,0,0.6-0.3,0.6-0.9c0.1,0,0.2-0.2,0.3-0.5c0.1,0,0.2-0.1,0.2-0.2c-0.1-0.1-0.1-0.2-0.1-0.3c0.1,0,0.2-0.1,0.2-0.2
	c0-0.1,0-0.2-0.1-0.3c0-0.4,0.2-0.6,0.5-0.6v-0.3c0-0.1-0.1-0.2-0.2-0.2h-0.1c-4.1,1-8,2.3-11.9,3.9C32,35.6,29.4,37.8,29.4,39.5z
	 M37.8,16.7h-0.1c1.5-0.3,2.8-1.3,3.6-2.6v0c0-0.1,0-0.1,0-0.1C40.2,14.2,39,15.1,37.8,16.7L37.8,16.7z M7.1,32.3l-0.2,0.2v0.1h0.3
	c0.1,0,0.2-0.1,0.2-0.1v-0.2H7.1z M14.8,17.2v0.2c0,0.1,0.1,0.1,0.2,0.2s0.3-0.2,0.3-0.4L14.8,17.2z M18.4,15.1L18.4,15.1
	c0,0.2,0.1,0.2,0.3,0.2s0.1,0,0.1-0.1l0.6,0.1c0.6,0,1.1-0.1,1.7-0.2c0,0.1,0.1,0.1,0.1,0.2c0,0,0,0,0,0c0.3,0,0.5-0.1,0.8-0.2
	l0.4,0.1c0-0.1,0.1-0.2,0.2-0.2c0,0,0,0,0.1,0c0.1,0,0.2,0.1,0.3,0.1c0-0.1,0.1-0.2,0.1-0.3h0.9c0.2-0.1,0.3-0.2,0.3-0.2
	c0.2,0.1,0.4,0.1,0.6,0.1c0-0.1,0.5-0.3,1.4-0.6l0.2,0.1h0.3c0.6-0.3,1.2-0.6,1.9-0.6l1.5-0.7l0.5,0.1c0.2-0.2,0.4-0.4,0.6-0.4
	l0.2,0.1h0.3c0-0.3,0.5-0.6,1.4-0.8c0.6-0.5,1.2-0.8,1.9-1.1c0-0.2,0.5-0.7,1.5-1.5c0.3-0.5,0.4-1,0.5-1.6c0-0.8-1.4-1.6-4.2-2.3
	c-1.3-0.2-2.6-0.3-3.8-0.3c-0.1,0-0.2,0-0.3,0.1l-0.2-0.1C24.8,5.1,23,5.3,23,5.8C22.7,6.6,21.2,9.7,18.4,15.1z M45.9,17.4l-0.2,0.3
	c-0.2,0.3-0.4,0.6-0.6,0.9c-0.2,0.5-0.4,1.1-0.4,1.7v0.2l0.1,0.4c1.1-0.4,2.1-1.2,2.9-2.1c0.8-0.8,1.5-1.7,2.1-2.7
	c0.5-0.8,0.9-1.6,1.1-2.5c0.2,0,0.4-0.1,0.6-0.3h0.2c0.4,0.1,0.8,0.5,0.9,0.9c-0.6,1.8-0.8,3.6-0.8,5.5c0,0.1,0,0.1,0.1,0.1
	l-0.1,0.4c0,0.3,0,0.9,0.1,1.8c-0.1,0.2-0.2,0.3-0.2,0.5c0,0.1,0,0.3,0.1,0.4c0,1.3-0.2,2.7-0.4,4l0.6,0.1c0.3-0.1,0.6-0.2,0.9-0.4
	h0.3c0.1,0,0.1,0,0.1,0.1c0.5-0.2,1.1-0.4,1.7-0.4l0.3,0.2h0.1c0-0.2,1-0.5,2.9-0.7c0.1,0.1,0.2,0.1,0.3,0.1s0.2,0.1,0.2,0.2
	c-0.1,0.1-0.1,0.2-0.2,0.3c-0.1,0.1-0.2,0.2-0.3,0.2c-0.1,0.1-0.3,0.1-0.3,0.2s0,0.2,0,0.3s0,0.2-0.2,0.2L57,27.7
	c-0.1,0-0.1,0-0.2,0s0.3-0.3,0-0.2l-0.7,0.3h-0.7c-1.2,0.4-2.4,0.7-3.6,0.9c-0.6,0.1-1,0.6-1,1.2c-0.1,0-0.4,0.5-0.6,1.6
	c-1.3,3.4-2.6,5.6-3.7,6.7c-1.8,2.6-4.4,4.5-7.4,5.5c-1.2,0.4-2.4,0.6-3.6,0.6h-0.7c-1.6-0.1-3.1-0.5-4.5-1.3
	c-1.9-0.9-2.8-2.2-2.8-3.8c0-1.1,0.7-2.2,2.2-3.3c1.3-1.1,2.7-2.1,4.2-2.8c0.7-0.3,1.4-0.6,2-1c5-2,7.8-3,8.5-3
	c1.3-0.6,2.8-1,4.2-1.3c0.7-0.1,1.1-0.3,1.1-0.8v-0.4l-0.1-0.5c0-0.1,0.2-0.2,0.5-0.4L50,25.2c0.1-0.1,0.1-0.2,0.1-0.3L50,24.7
	l0.1-0.4L50,23.9c0-0.1,0.1-0.2,0.1-0.3C50,23.4,50,23.2,50,23h0.1L50,22.8v-0.3l0.2-0.3l-0.1-0.4l0.4-0.9L50,20.5v-0.9l0.2-0.6
	c-0.1-0.2-0.1-0.5-0.2-0.7h-0.1c-1.6,2-2.6,3-2.9,3c-0.4,0.8-1.2,1.3-2.1,1.4c-0.9,0.1-1.8-0.6-1.9-1.5c0,0,0,0,0,0
	c0.1-0.2,0.1-0.3,0.2-0.3s0-0.1-0.1-0.1l0.1-0.6h-0.1H43c-0.9,0.5-1.8,0.8-2.8,1c-0.3,0-0.7,0.1-1,0.1c-1.7,0.1-3.2-0.9-3.8-2.5
	l-0.1-1.2h0.4c0.2-1,1.2-2.2,3-3.5c0.8-0.6,1.8-1,2.8-1.1c0.5,0.1,0.9,0.3,1.3,0.7c0,0.7-0.2,1.4-0.6,1.9c-1.5,1.6-2.7,2.4-3.7,2.6
	l-1,0.4v0.3c0,0.6,0.6,0.9,1.9,0.9c0.8-0.1,1.7-0.2,2.5-0.5c0.8-0.3,1.5-0.8,2.1-1.4l0.1-0.2c0.1-0.2,0.3-0.4,0.4-0.8
	c0.7-1.7,1.3-2.5,1.7-2.5h0.1c0.2,0,0.4,0.1,0.5,0.3l0.3-0.1h0.1l0.3-0.1l0.2,0.4L47.4,15l0,0v0.1l-0.2,0.3v0.1
	C46.9,16.2,46.4,16.8,45.9,17.4L45.9,17.4z M23.8,0.1c0.7,0.3,1,0.7,1,1.2l-0.9,2.5C23.9,4,24,4,24.1,4c0.3-0.2,0.6-0.3,1-0.3
	c0.2,0,0.4,0.1,0.6,0.1c0.6-0.2,1.2-0.3,1.8-0.3h0.1c0.3,0,0.7,0,1,0.1c0.3-0.1,0.5-0.1,0.8-0.1v0.1l-0.1,0.1l0.2,0.1h0.2
	c0.2-0.2,0.5-0.4,0.9-0.4h0.3c0.3,0,0.5,0.1,0.5,0.2c0,0.1-0.1,0.1-0.1,0.2c0.2-0.1,0.4-0.2,0.6-0.2c0.2,0.1,0.4,0.2,0.6,0.3
	c0.1,0,0.2,0,0.2-0.1c1.4,0,3.2,0.8,5.3,2.4c0.4,0.4,0.6,1,0.6,1.6v0.1c0,0,0,0.1-0.1,0.1l0.1,0.1c0,0.9-1.1,2-3.2,3.5
	c-2,1.3-4.3,2.3-6.6,3c-1.4,0.5-2.8,0.8-4.3,1.1c-1.5,0.3-3,0.6-4.5,0.7h-1.2c-0.9,0.2-1.4,0.4-1.4,0.6c-0.3,0.7-0.7,1.4-1.1,2
	c0.7,1,1.5,1.9,2.3,2.7c0.9,1.5,2.1,2.8,3.5,3.8c1.5,1.5,3.2,2.6,5.2,3.3c0.7,0.3,1.5,0.6,2.3,0.7c1.5,0.3,3,0.5,4.5,0.6
	c0,0.1,0,0.1,0.1,0.1c0.2-0.1,0.4-0.2,0.6-0.2l0.3,0.1c0.2-0.1,0.3-0.1,0.3-0.2l0.4,0.1c0.3-0.1,0.4-0.2,0.4-0.2l0.2,0.1l2.1-0.6
	c0.2,0.2,0.4,0.3,0.7,0.4h0.2v-0.1c0-0.1-0.1-0.1-0.1-0.2c0.1-0.1,0.3-0.1,0.5-0.1v0.1l-0.1,0.1l0.2,0.1c0.1,0,0.2-0.1,0.2-0.4h0.1
	c0.3,0,0.4,0.1,0.4,0.1l0.2-0.1H41l-0.2,0.2l-0.1-0.1h-0.2c-1,0.8-2.2,1.2-3.4,1.3c-0.5,0.2-1,0.3-1.5,0.4c0,0.1-0.1,0.1-0.3,0.2
	l-0.8-0.1l-0.9,0.2c-1-0.1-1.6-0.1-1.9-0.1L31,31.5c-1-0.3-2-0.4-3-0.5c-0.7-0.3-1.4-0.5-2.1-0.7c-1-0.5-2.1-1.1-3-1.7
	c-1-0.4-2.9-2-5.5-4.8c-1.1-1.7-1.8-2.5-2.2-2.5c-0.7,1-1.2,2.1-1.6,3.2c-0.1,0-0.4,0.5-1,1.4c-0.8,1.5-1.7,2.8-2.7,4.1
	c-0.3,0.6-0.7,1.1-1.1,1.5c-0.3,0.5-0.6,0.9-1,1.3c-0.2,0.4-0.6,0.7-1,0.7v0.4C5.5,35.3,4.5,36,3.7,36l-0.1-0.1v-0.1
	c0.1,0,0.4-0.2,0.9-0.6c0.1,0.1,0.1,0.2,0.1,0.3c0,0,0.2-0.1,0.4-0.4C4.9,35,4.9,35,4.8,35v-0.1c0.4-0.3,0.5-0.4,0.5-0.5v-0.1
	L5.3,34c0.3,0,0.5-0.2,0.5-0.7c0.3,0,0.4-0.1,0.4-0.2v-0.1L6,33c0.2,0,0.4-0.3,0.6-0.8l0.8-0.4c0-0.1-0.1-0.1-0.3-0.1v-0.1
	c0,0,0.2-0.2,0.5-0.4v-0.1c0,0,0-0.1-0.1-0.1c0.2-0.4,0.5-0.7,0.8-1.1v-0.1h0.1l0.4,0.2c0-0.1,0-0.1,0.1-0.1s-0.1-0.2-0.4-0.4
	c0-0.2,0.2-0.5,0.7-0.9c0.2-0.6,0.5-0.9,0.8-0.9v0.1h0.2v-0.2c-0.2,0-0.3,0-0.3-0.1v-0.1c0.1-0.4,0.3-0.8,0.7-1l-0.1-0.1V26
	c0.6-1.2,1.3-2.3,2.2-3.3l-0.2-0.2v-0.1c0.1-0.1,0.2-0.2,0.2-0.2c0-0.2-0.1-0.4-0.2-0.4c0.6-1,1-1.4,1.3-1.4l-0.1-0.4
	c0.1-0.2,0.2-0.4,0.3-0.7c-1.2-1.5-2.4-2.2-3.6-2.2c-0.2-0.1-0.4-0.4-0.5-0.9C9.9,16,10,15.9,10,15.9L10,15.7v-0.1
	c0.4,0,0.6-0.1,0.6-0.2c0.7,0.2,1.3,0.4,2,0.4c0,0,0,0.1,0.1,0.1h0.1c0.2-0.1,0.4-0.2,0.6-0.2h0.4c0.3,0,0.8,0,1.3,0.1
	c0.4,0,0.8-0.3,1.3-0.9h0.1v-0.2c0.1-0.3,0.2-0.5,0.4-0.7c0-0.1,0-0.2-0.1-0.2c0.3-1.3,0.9-2.5,1.8-3.5c0.1-0.6,0.2-1.1,0.5-1.7
	l0.3,0.2h0.1V8.3c0.4-0.6,0.6-1,0.6-1c0-0.1-0.1-0.1-0.1-0.2c0.3-0.4,0.6-0.6,0.7-0.6c0-0.3-0.1-0.4-0.2-0.4c-0.9,0-3.6,0.8-8,2.4
	l-5.6,2.7c-0.8,0.5-1.7,1-2.6,1.4c0,0.1-0.3,0.3-0.8,0.5c-1.2,0.9-1.8,1.7-1.8,2.5c-0.3,0.1-0.5,0.2-0.5,0.2c-0.4-0.1-0.7-0.2-1-0.5
	l0.1-0.1v-0.8c0.9-1.1,1.5-1.7,1.8-1.7c0.3-0.2,0.6-0.4,0.8-0.7c0.9-0.4,1.7-1,2.5-1.6l0.2,0.1h0.2c1.5-1.1,3.1-1.9,4.8-2.4h0.3
	c0.1-0.3,0.7-0.6,1.7-0.8c0.9-0.5,1.9-0.9,2.9-1.1c1.1-0.4,2.3-0.8,3.5-0.9C18.8,5,19,5,19.4,5h0.1c0-0.1,0-0.2,0.2-0.2l0.6,0.1
	c0.1-0.2,0.5-0.4,1.2-0.6c0.4-0.4,0.7-0.9,0.8-1.5c0.1,0,0.2,0,0.2-0.1c0-0.1,0-0.2-0.1-0.3l0.5-1.8C23.1,0.3,23.4,0.2,23.8,0.1z"/>
<path class="st0" d="M83.6,35.5L83.6,35.5c0,0.2,0.1,0.2,0.2,0.2v-0.2H83.6z M99.3,33.9L99.3,33.9L99.3,33.9L99.3,33.9L99.3,33.9z
	 M101.8,30.4v0.1h-0.1C101.7,30.5,101.8,30.4,101.8,30.4L101.8,30.4z M101.5,30L101.5,30c0.1,0,0.2,0.1,0.2,0.1c0,0.1,0,0.1-0.1,0.1
	l-0.1-0.1L101.5,30z M101.9,28.5h0.1v0.1c0,0.2,0,0.4-0.2,0.4v-0.1L101.9,28.5z M62.4,27.9v0.3h0.2v-0.3H62.4z M74.7,27.1
	c0,0.1,0.1,0.1,0.2,0.1v-0.1H74.7z M64.3,25.5L64.3,25.5l0.1,0.1c0.2-0.1,0.3-0.1,0.3-0.2v-0.2C64.5,25.2,64.4,25.3,64.3,25.5
	L64.3,25.5z M77.9,23.4c0,0.1,0.1,0.1,0.1,0.1c0,0,0,0,0,0c0.1,0,0.1,0,0.1-0.1c0,0,0,0,0,0v-0.1H78C77.9,23.2,77.9,23.3,77.9,23.4
	L77.9,23.4z M86.8,19.6L86.8,19.6c0,0.1,0.1,0.2,0.2,0.2v-0.2L86.8,19.6z M84.8,17.5c0.5,0,1,0.3,1.3,0.7c0.2,0,0.3,0.2,0.4,0.5h0.2
	V19c0.1,0.1,0.2,0.3,0.3,0.5v0.2l-0.1,0.2v0.5c0,0.1,0,0.2,0.1,0.3c-0.1,0.5-0.2,0.9-0.3,1.4v0.1l0.1,0.5c-0.1,0.8-0.3,1.6-0.5,2.3
	l0.1,0.1c-0.5,1.9-0.8,3.9-1,5.9c-0.1,0.2-0.2,0.3-0.2,0.5l0.1,0.1c-0.2,0-0.3,1.3-0.4,3.9c0,0.5,0,1-0.1,1.5l0.2,1.4
	c0.1,1,0.5,1.9,1.1,2.7c0.5,0.6,1.4,0.9,2.8,0.9h0.3c0.9-0.2,1.7-0.5,2.6-0.9c1.2-0.7,2.1-1.4,2.7-1.8c0.9-1.1,2-2.1,3-3.1
	c0.8-0.9,1.5-2,2.1-3.1c0.2-0.3,0.4-0.4,0.5-0.4l-0.1-0.1v-0.1c0.1,0,0.3-0.2,0.6-0.5h0.1v-0.1c-0.2,0-0.2,0-0.2-0.1l0.1-0.1h0.1
	c0,0,0.1,0,0.1,0.1s0.2-0.2,0.4-0.5l0.2-0.1h0.4v-0.1c-0.2,0-0.4-0.1-0.4-0.2v-0.1h0.5c0,0.2,0.1,0.3,0.3,0.4
	c-0.2,0.4-0.4,0.9-0.4,1.3c-0.5,0.3-0.7,0.8-0.6,1.3c-0.3,0.4-0.6,0.8-0.7,1.3c-0.6,0.6-1.1,1.3-1.4,2.1c-0.8,0.8-1.6,1.6-2.3,2.4
	c-0.4,0.3-0.7,0.6-1,1c-0.1,0-0.5,0.3-1,0.8c-1,0.5-1.9,1.1-2.8,1.7l-2.6,0.6h-0.5c-1-0.1-1.9-0.5-2.7-1c-1-0.7-1.8-1.8-2.1-3v-0.4
	c-0.2-0.7-0.3-1-0.3-1c0-0.1,0.1-0.1,0.1-0.2c-0.1-0.5-0.2-0.8-0.2-0.8c0-0.3,0-0.6,0.1-0.9l-0.1-0.6c0-0.1,0.1-0.2,0.1-0.2L83.2,35
	l0.5-2.9V32h-0.1c0-0.3,0.1-0.7,0.3-1l-0.1-0.3c0.1-0.6,0.2-0.9,0.3-0.9v-0.4c0.2-0.4,0.2-0.8,0.2-1.2l0.3-0.4l-0.1-0.2v-0.1h0.1
	v-0.4c0-0.1,0.1-0.2,0.3-0.3l-0.1-0.1v-0.1c0.1-0.3,0.3-0.5,0.4-0.5c0.1,0,0.1-0.1,0.2-0.1V26l-0.3-0.3v-0.1c0-0.2,0-0.4,0.1-0.4
	L85.1,25c0-0.4,0.2-0.8,0.5-1.1c-0.1-0.2-0.1-0.4-0.2-0.6c0.2,0,0.3-0.2,0.3-0.3c0,0,0,0,0,0l-0.1-0.3l0.2-1.9c0-0.1-0.1-0.4-0.3-1
	v-0.3c-0.1-0.3-0.3-0.5-0.6-0.5c-1.4,0.4-2.7,1.2-3.7,2.3c-0.5,0.4-1,0.9-1.3,1.4l-2.4,3.1l-2.8,4.1c-0.6,0.9-1.1,1.9-1.4,3
	l-2.5,6.7c-0.3,0.4-0.5,0.6-0.8,0.6h-0.1c-0.3,0-0.6-0.3-1-1v-0.1c0.2-1.1,0.5-2.1,1-3c0.3,0,0.5-0.4,0.5-1.2
	c0.3-0.1,0.4-0.2,0.4-0.3v-0.1l-0.2-0.2c0.2,0,0.3-0.1,0.3-0.2c0,0,0,0,0,0l-0.1-0.3c0.2-0.6,0.5-1.2,0.9-1.8c0.4-1.4,0.6-2,0.8-2
	c0,0,0-0.1-0.1-0.1c0-0.6,0.2-1.2,0.5-1.7c0.1,0,0.1-0.2,0.1-0.5v-0.4c0.3-0.8,0.5-1.6,0.7-2.4c-0.1-0.2-0.1-0.3-0.1-0.5l0.4-1.5
	c-0.1-1-0.1-1.7-0.1-1.9c-0.1-1-0.3-1.5-0.7-1.5c-0.8,0-2.2,1-4.3,3.1c-0.5,0.6-1,1.1-1.6,1.7c-1.6,2.1-2.8,3.6-3.3,4.6
	c-0.7,0.8-1.2,1.8-1.6,2.8c-0.5,0.7-0.9,1.5-1.3,2.3c-1.4,2.3-2.4,4.7-3.1,7.2l-1.5,4.3c-0.1,0.5-0.5,0.8-1.3,0.8
	c-0.3-0.3-0.6-0.6-0.7-1c0-0.2,0.6-1.9,1.7-5.2c0.3-1.1,0.6-1.9,0.9-2.6c0.3-0.8,0.5-1.6,0.6-2.4c0.2-0.3,0.4-0.6,0.4-1
	c0.3-1.1,0.5-1.7,0.7-1.7l-0.1-0.5v-0.1c0.2-1,0.5-2,0.9-2.9c0-0.6,0.2-1.1,0.4-1.7l0.7-2.4l0.5-2.9c0.3-1.6,0.5-2.4,0.9-2.4
	l0.3-0.1c0.3,0,0.6,0.3,1,0.8c-0.7,3.6-1.4,6.6-2.1,9.3c-0.1,0-0.1,0.2-0.1,0.6c0.1,0.1,0.1,0.2,0.2,0.3h0.1
	c0.2-0.3,0.3-0.4,0.5-0.4v-0.1l-0.3-0.3c0.1-0.1,0.2-0.2,0.2-0.4h0.2l0.1,0.3h0.1l0.2-0.8L62.2,28c0.2-0.1,0.4-0.3,0.5-0.6
	c0.2,0,0.3-0.1,0.3-0.2c0,0-0.1,0-0.1-0.1c0.1,0,0.2-0.2,0.4-0.6c0.1,0,0.1-0.1,0.1-0.2h0.5v-0.2c-0.1,0-0.2,0-0.2-0.1V26
	c0.4-0.4,0.7-0.8,0.9-1.3l0.2-0.2h0.1l0.2,0.1c0-0.2,0.1-0.5,0.3-0.6l0.2,0.1c0.2-0.1,0.3-0.2,0.4-0.4v-0.1h-0.1v-0.1
	c0-0.5,0.4-0.8,0.9-0.8c0-0.1,0.1-0.2,0.3-0.3c0,0,0-0.1-0.1-0.1c0-0.2,0.2-0.4,0.5-0.5c0.1,0,0.1,0.1,0.2,0.1
	c0.1,0,0.2-0.2,0.3-0.3c0-0.1-0.1-0.1-0.1-0.2c0.1,0,0.4-0.3,0.7-0.8c0.1,0,0.5-0.3,1-0.9c0.5-0.5,1-0.9,1.6-1.2v-0.1h0.1
	c0,0.1,0.1,0.2,0.2,0.2l0.2-0.5l0.5-0.1c0.1,0,0.1,0,0.1,0.1c0.3-0.1,0.5-0.2,0.5-0.3l0.1,0.1h0.2c0.1,0,0.2,0,0.3-0.1
	c1.2,0.1,2.2,1.1,2.3,2.3l0.1,0.6c0,1.8-0.2,3.7-0.6,5.5c0.1,0.1,0.2,0.1,0.4,0.1c0-0.4,0.4-0.7,0.8-0.6c0,0,0,0,0,0
	c0.1-0.1,0.2-0.2,0.3-0.2v-0.1c0-0.1,0-0.1-0.1-0.1c0,0,0,0,0,0c-0.2,0-0.4,0.1-0.5,0.3h-0.1v-0.1c0.2-0.5,0.6-0.8,1.1-0.8v-0.1
	l-0.2-0.2v-0.1c0.3,0,0.5-0.1,0.5-0.2v-0.1L77,23.9v-0.1c0.3-0.2,0.5-0.4,0.5-0.4s0.1-0.2,0.4-0.5v-0.4h0.2l0.2,0.1
	c0.1,0,0.1,0,0.1-0.1s-0.1-0.2-0.2-0.2s0.2-0.3,0.5-0.6c0-0.3,0.2-0.4,0.8-0.5V21h-0.1V21c0-0.1,0.2-0.1,0.6-0.3v-0.3h0.3
	c0.1,0,0.1,0,0.1-0.1l-0.1-0.3c0.1,0,0.2,0.1,0.2,0.2c0.1-0.3,0.3-0.5,0.6-0.5v0.1h0.2c0.1,0,0.2,0,0.2-0.1c-0.1,0-0.2-0.1-0.4-0.1
	l0.6-0.4c0-0.3,0.3-0.5,0.8-0.7h0.1l0.2,0.1h0.2l0.3-0.1v-0.1h-0.1c-0.1,0-0.1,0.1-0.2,0.1l-0.2-0.2v-0.1c0.3-0.2,0.6-0.3,1-0.3V18
	H84c0.1,0,0.1,0,0.1-0.1v-0.1H84v-0.1C84.3,17.6,84.6,17.5,84.8,17.5L84.8,17.5z"/>
<path class="st1" d="M83.6,35.5L83.6,35.5c0,0.2,0.1,0.2,0.2,0.2v-0.2H83.6z M99.3,33.9L99.3,33.9L99.3,33.9L99.3,33.9L99.3,33.9z
	 M101.8,30.4v0.1h-0.1C101.7,30.5,101.8,30.4,101.8,30.4L101.8,30.4z M101.5,30L101.5,30c0.1,0,0.2,0.1,0.2,0.1c0,0.1,0,0.1-0.1,0.1
	l-0.1-0.1L101.5,30z M101.9,28.5h0.1v0.1c0,0.2,0,0.4-0.2,0.4v-0.1L101.9,28.5z M62.4,27.9v0.3h0.2v-0.3H62.4z M74.7,27.1
	c0,0.1,0.1,0.1,0.2,0.1v-0.1H74.7z M64.3,25.5L64.3,25.5l0.1,0.1c0.2-0.1,0.3-0.1,0.3-0.2v-0.2C64.5,25.2,64.4,25.3,64.3,25.5
	L64.3,25.5z M77.9,23.4c0,0.1,0.1,0.1,0.1,0.1c0,0,0,0,0,0c0.1,0,0.1,0,0.1-0.1c0,0,0,0,0,0v-0.1H78C77.9,23.2,77.9,23.3,77.9,23.4
	L77.9,23.4z M86.8,19.6L86.8,19.6c0,0.1,0.1,0.2,0.2,0.2v-0.2L86.8,19.6z M84.8,17.5c0.5,0,1,0.3,1.3,0.7c0.2,0,0.3,0.2,0.4,0.5h0.2
	V19c0.1,0.1,0.2,0.3,0.3,0.5v0.2l-0.1,0.2v0.5c0,0.1,0,0.2,0.1,0.3c-0.1,0.5-0.2,0.9-0.3,1.4v0.1l0.1,0.5c-0.1,0.8-0.3,1.6-0.5,2.3
	l0.1,0.1c-0.5,1.9-0.8,3.9-1,5.9c-0.1,0.2-0.2,0.3-0.2,0.5l0.1,0.1c-0.2,0-0.3,1.3-0.4,3.9c0,0.5,0,1-0.1,1.5l0.2,1.4
	c0.1,1,0.5,1.9,1.1,2.7c0.5,0.6,1.4,0.9,2.8,0.9h0.3c0.9-0.2,1.7-0.5,2.6-0.9c1.2-0.7,2.1-1.4,2.7-1.8c0.9-1.1,2-2.1,3-3.1
	c0.8-0.9,1.5-2,2.1-3.1c0.2-0.3,0.4-0.4,0.5-0.4l-0.1-0.1v-0.1c0.1,0,0.3-0.2,0.6-0.5h0.1v-0.1c-0.2,0-0.2,0-0.2-0.1l0.1-0.1h0.1
	c0,0,0.1,0,0.1,0.1s0.2-0.2,0.4-0.5l0.2-0.1h0.4v-0.1c-0.2,0-0.4-0.1-0.4-0.2v-0.1h0.5c0,0.2,0.1,0.3,0.3,0.4
	c-0.2,0.4-0.4,0.9-0.4,1.3c-0.5,0.3-0.7,0.8-0.6,1.3c-0.3,0.4-0.6,0.8-0.7,1.3c-0.6,0.6-1.1,1.3-1.4,2.1c-0.8,0.8-1.6,1.6-2.3,2.4
	c-0.4,0.3-0.7,0.6-1,1c-0.1,0-0.5,0.3-1,0.8c-1,0.5-1.9,1.1-2.8,1.7l-2.6,0.6h-0.5c-1-0.1-1.9-0.5-2.7-1c-1-0.7-1.8-1.8-2.1-3v-0.4
	c-0.2-0.7-0.3-1-0.3-1c0-0.1,0.1-0.1,0.1-0.2c-0.1-0.5-0.2-0.8-0.2-0.8c0-0.3,0-0.6,0.1-0.9l-0.1-0.6c0-0.1,0.1-0.2,0.1-0.2L83.2,35
	l0.5-2.9V32h-0.1c0-0.3,0.1-0.7,0.3-1l-0.1-0.3c0.1-0.6,0.2-0.9,0.3-0.9v-0.4c0.2-0.4,0.2-0.8,0.2-1.2l0.3-0.4l-0.1-0.2v-0.1h0.1
	v-0.4c0-0.1,0.1-0.2,0.3-0.3l-0.1-0.1v-0.1c0.1-0.3,0.3-0.5,0.4-0.5c0.1,0,0.1-0.1,0.2-0.1V26l-0.3-0.3v-0.1c0-0.2,0-0.4,0.1-0.4
	L85.1,25c0-0.4,0.2-0.8,0.5-1.1c-0.1-0.2-0.1-0.4-0.2-0.6c0.2,0,0.3-0.2,0.3-0.3c0,0,0,0,0,0l-0.1-0.3l0.2-1.9c0-0.1-0.1-0.4-0.3-1
	v-0.3c-0.1-0.3-0.3-0.5-0.6-0.5c-1.4,0.4-2.7,1.2-3.7,2.3c-0.5,0.4-1,0.9-1.3,1.4l-2.4,3.1l-2.8,4.1c-0.6,0.9-1.1,1.9-1.4,3
	l-2.5,6.7c-0.3,0.4-0.5,0.6-0.8,0.6h-0.1c-0.3,0-0.6-0.3-1-1v-0.1c0.2-1.1,0.5-2.1,1-3c0.3,0,0.5-0.4,0.5-1.2
	c0.3-0.1,0.4-0.2,0.4-0.3v-0.1l-0.2-0.2c0.2,0,0.3-0.1,0.3-0.2c0,0,0,0,0,0l-0.1-0.3c0.2-0.6,0.5-1.2,0.9-1.8c0.4-1.4,0.6-2,0.8-2
	c0,0,0-0.1-0.1-0.1c0-0.6,0.2-1.2,0.5-1.7c0.1,0,0.1-0.2,0.1-0.5v-0.4c0.3-0.8,0.5-1.6,0.7-2.4c-0.1-0.2-0.1-0.3-0.1-0.5l0.4-1.5
	c-0.1-1-0.1-1.7-0.1-1.9c-0.1-1-0.3-1.5-0.7-1.5c-0.8,0-2.2,1-4.3,3.1c-0.5,0.6-1,1.1-1.6,1.7c-1.6,2.1-2.8,3.6-3.3,4.6
	c-0.7,0.8-1.2,1.8-1.6,2.8c-0.5,0.7-0.9,1.5-1.3,2.3c-1.4,2.3-2.4,4.7-3.1,7.2l-1.5,4.3c-0.1,0.5-0.5,0.8-1.3,0.8
	c-0.3-0.3-0.6-0.6-0.7-1c0-0.2,0.6-1.9,1.7-5.2c0.3-1.1,0.6-1.9,0.9-2.6c0.3-0.8,0.5-1.6,0.6-2.4c0.2-0.3,0.4-0.6,0.4-1
	c0.3-1.1,0.5-1.7,0.7-1.7l-0.1-0.5v-0.1c0.2-1,0.5-2,0.9-2.9c0-0.6,0.2-1.1,0.4-1.7l0.7-2.4l0.5-2.9c0.3-1.6,0.5-2.4,0.9-2.4
	l0.3-0.1c0.3,0,0.6,0.3,1,0.8c-0.7,3.6-1.4,6.6-2.1,9.3c-0.1,0-0.1,0.2-0.1,0.6c0.1,0.1,0.1,0.2,0.2,0.3h0.1
	c0.2-0.3,0.3-0.4,0.5-0.4v-0.1l-0.3-0.3c0.1-0.1,0.2-0.2,0.2-0.4h0.2l0.1,0.3h0.1l0.2-0.8L62.2,28c0.2-0.1,0.4-0.3,0.5-0.6
	c0.2,0,0.3-0.1,0.3-0.2c0,0-0.1,0-0.1-0.1c0.1,0,0.2-0.2,0.4-0.6c0.1,0,0.1-0.1,0.1-0.2h0.5v-0.2c-0.1,0-0.2,0-0.2-0.1V26
	c0.4-0.4,0.7-0.8,0.9-1.3l0.2-0.2h0.1l0.2,0.1c0-0.2,0.1-0.5,0.3-0.6l0.2,0.1c0.2-0.1,0.3-0.2,0.4-0.4v-0.1h-0.1v-0.1
	c0-0.5,0.4-0.8,0.9-0.8c0-0.1,0.1-0.2,0.3-0.3c0,0,0-0.1-0.1-0.1c0-0.2,0.2-0.4,0.5-0.5c0.1,0,0.1,0.1,0.2,0.1
	c0.1,0,0.2-0.2,0.3-0.3c0-0.1-0.1-0.1-0.1-0.2c0.1,0,0.4-0.3,0.7-0.8c0.1,0,0.5-0.3,1-0.9c0.5-0.5,1-0.9,1.6-1.2v-0.1h0.1
	c0,0.1,0.1,0.2,0.2,0.2l0.2-0.5l0.5-0.1c0.1,0,0.1,0,0.1,0.1c0.3-0.1,0.5-0.2,0.5-0.3l0.1,0.1h0.2c0.1,0,0.2,0,0.3-0.1
	c1.2,0.1,2.2,1.1,2.3,2.3l0.1,0.6c0,1.8-0.2,3.7-0.6,5.5c0.1,0.1,0.2,0.1,0.4,0.1c0-0.4,0.4-0.7,0.8-0.6c0,0,0,0,0,0
	c0.1-0.1,0.2-0.2,0.3-0.2v-0.1c0-0.1,0-0.1-0.1-0.1c0,0,0,0,0,0c-0.2,0-0.4,0.1-0.5,0.3h-0.1v-0.1c0.2-0.5,0.6-0.8,1.1-0.8v-0.1
	l-0.2-0.2v-0.1c0.3,0,0.5-0.1,0.5-0.2v-0.1L77,23.9v-0.1c0.3-0.2,0.5-0.4,0.5-0.4s0.1-0.2,0.4-0.5v-0.4h0.2l0.2,0.1
	c0.1,0,0.1,0,0.1-0.1s-0.1-0.2-0.2-0.2s0.2-0.3,0.5-0.6c0-0.3,0.2-0.4,0.8-0.5V21h-0.1V21c0-0.1,0.2-0.1,0.6-0.3v-0.3h0.3
	c0.1,0,0.1,0,0.1-0.1l-0.1-0.3c0.1,0,0.2,0.1,0.2,0.2c0.1-0.3,0.3-0.5,0.6-0.5v0.1h0.2c0.1,0,0.2,0,0.2-0.1c-0.1,0-0.2-0.1-0.4-0.1
	l0.6-0.4c0-0.3,0.3-0.5,0.8-0.7h0.1l0.2,0.1h0.2l0.3-0.1v-0.1h-0.1c-0.1,0-0.1,0.1-0.2,0.1l-0.2-0.2v-0.1c0.3-0.2,0.6-0.3,1-0.3V18
	H84c0.1,0,0.1,0,0.1-0.1v-0.1H84v-0.1C84.3,17.6,84.6,17.5,84.8,17.5L84.8,17.5z"/>
<path class="st0" d="M116.7,32l0.1,0.2c0.3,0.9,0.6,1.3,0.9,1.4c0.3,0.1,0.6,0.1,0.9,0c0.8-0.4,1.2-0.8,1.2-0.9l0,0
	c-1.1-0.4-1.9-1.2-2.4-2.2c0,0-0.1,0-0.1-0.2c0-0.2,0-0.5-0.1-0.7l0,0C116.7,30.3,116.5,31.2,116.7,32z M118.9,30.1
	c0.5,1,1.1,1.4,1.8,1.2h0.2c0.4-0.5,0.6-1.1,0.6-1.7c-0.4-0.9-0.8-1.3-1.3-1.2c0-0.1-0.1-0.1-0.3-0.1
	C119,28.6,118.6,29.2,118.9,30.1L118.9,30.1z M119,27.4l0.3-0.1c1.7-0.1,2.6,0.1,2.7,0.6c0.1,0,0.3,0.4,0.7,1.2
	c0.1,0.5,0,1.1-0.1,1.6v-0.1l0,0c1.3-0.7,2.5-1.5,3.6-2.5c0.2-0.1,0.4-0.2,0.7-0.3c0.2,0.7-0.9,1.9-3.3,3.9
	c-0.5,0.4-1.1,0.6-1.7,0.8c-0.7,0.8-1.5,1.5-2.3,2.1c-0.2,0.1-0.4,0.1-0.5,0.2c-1.1,0.3-2.4-0.1-3-1.1c-0.2-0.3-0.4-0.7-0.5-1
	c-0.6-1.5-0.1-3.2,1.2-4.1c0.5-0.6,1.2-1,2-1.1C118.6,27.6,118.7,27.5,119,27.4z M111.3,27.1c0.7,0.2,1,0.6,1,1.1
	c-0.5,1.3-0.8,2.6-0.9,4v0.4c0,0.3,0.2,0.5,0.5,0.5h0.1c0.9,0,2.2-1,4-2.8c0.6-0.7,1.2-1.4,1.6-2.2l0.1,0.2c0,0.4,0,0.7-0.2,1.1v0.2
	h0.3c-0.6,1-1.3,2-2.2,2.9c-1.3,1.5-2.5,2.3-3.3,2.3c-0.9,0-1.7-0.6-2-1.5c-0.1-0.3-0.1-0.6-0.1-0.9v-0.4c0.2-1,0.5-2,0.8-2.9
	c-0.1,0-0.1-0.1-0.2-0.1c-1.6,1.1-2.9,2.6-3.7,4.3c-0.2,0.2-0.4,0.3-0.6,0.3h-0.1c-0.3,0-0.5-0.2-0.6-0.5v-0.2
	c0-0.5,0.4-1.1,1.1-1.8c0.1-0.5,0.2-0.9,0.4-1.3l-0.1-1c0-0.1-0.2-0.2-0.6-0.2c-1.6,0.5-3.7,2.5-6.3,5.9c-0.4,1.3-0.8,2-1.2,2h-0.1
	c-0.5-0.1-0.8-0.4-0.8-0.8c1.2-1.7,2-3.6,2.3-5.6c-0.3-1.1-0.2-1.8,0.1-2.1h0.7l0.5,0.7c-0.1,1.3-0.1,1.9-0.1,2.1v0.1h0.1
	c0.7-1,1.7-1.9,2.7-2.6c0-0.1,0.6-0.4,1.7-0.8h0.4c0.9,0.1,1.6,0.6,1.9,1.5h0.1C110,27.7,110.9,27.1,111.3,27.1L111.3,27.1z
	 M91.6,32l0.1,0.2c0.3,0.9,0.6,1.3,0.9,1.4c0.3,0.1,0.6,0.1,0.9,0c0.8-0.4,1.2-0.8,1.2-0.9l0,0c-1.1-0.4-1.9-1.2-2.4-2.2
	c0,0-0.1,0-0.1-0.2c0-0.2,0-0.5-0.1-0.7l0,0C91.5,30.3,91.3,31.2,91.6,32z M93.8,30.1c0.5,1,1.1,1.4,1.8,1.2h0.2
	c0.4-0.5,0.6-1.1,0.6-1.7c-0.4-0.9-0.8-1.3-1.3-1.2c0-0.1-0.1-0.1-0.3-0.1C93.8,28.6,93.5,29.2,93.8,30.1L93.8,30.1z M93.8,27.4
	l0.3-0.1c1.7-0.1,2.6,0.1,2.7,0.6c0.1,0,0.3,0.4,0.7,1.2c0.1,0.5,0,1.1-0.1,1.6v-0.1l0,0c1.3-0.7,2.5-1.5,3.6-2.5
	c0.2-0.1,0.4-0.2,0.7-0.3c0.2,0.7-0.9,1.9-3.3,3.9c-0.5,0.4-1.1,0.6-1.7,0.8c-0.7,0.8-1.5,1.5-2.3,2.1c-0.2,0.1-0.4,0.1-0.5,0.2
	c-1.1,0.3-2.4-0.1-3-1.1c-0.2-0.3-0.4-0.7-0.5-1c-0.6-1.5-0.1-3.2,1.2-4.1c0.5-0.6,1.2-1,2-1.1C93.4,27.6,93.5,27.5,93.8,27.4
	L93.8,27.4z"/>
<path class="st1" d="M116.7,32l0.1,0.2c0.3,0.9,0.6,1.3,0.9,1.4c0.3,0.1,0.6,0.1,0.9,0c0.8-0.4,1.2-0.8,1.2-0.9l0,0
	c-1.1-0.4-1.9-1.2-2.4-2.2c0,0-0.1,0-0.1-0.2c0-0.2,0-0.5-0.1-0.7l0,0C116.7,30.3,116.5,31.2,116.7,32z M118.9,30.1
	c0.5,1,1.1,1.4,1.8,1.2h0.2c0.4-0.5,0.6-1.1,0.6-1.7c-0.4-0.9-0.8-1.3-1.3-1.2c0-0.1-0.1-0.1-0.3-0.1
	C119,28.6,118.6,29.2,118.9,30.1L118.9,30.1z M119,27.4l0.3-0.1c1.7-0.1,2.6,0.1,2.7,0.6c0.1,0,0.3,0.4,0.7,1.2
	c0.1,0.5,0,1.1-0.1,1.6v-0.1l0,0c1.3-0.7,2.5-1.5,3.6-2.5c0.2-0.1,0.4-0.2,0.7-0.3c0.2,0.7-0.9,1.9-3.3,3.9
	c-0.5,0.4-1.1,0.6-1.7,0.8c-0.7,0.8-1.5,1.5-2.3,2.1c-0.2,0.1-0.4,0.1-0.5,0.2c-1.1,0.3-2.4-0.1-3-1.1c-0.2-0.3-0.4-0.7-0.5-1
	c-0.6-1.5-0.1-3.2,1.2-4.1c0.5-0.6,1.2-1,2-1.1C118.6,27.6,118.7,27.5,119,27.4z M111.3,27.1c0.7,0.2,1,0.6,1,1.1
	c-0.5,1.3-0.8,2.6-0.9,4v0.4c0,0.3,0.2,0.5,0.5,0.5h0.1c0.9,0,2.2-1,4-2.8c0.6-0.7,1.2-1.4,1.6-2.2l0.1,0.2c0,0.4,0,0.7-0.2,1.1v0.2
	h0.3c-0.6,1-1.3,2-2.2,2.9c-1.3,1.5-2.5,2.3-3.3,2.3c-0.9,0-1.7-0.6-2-1.5c-0.1-0.3-0.1-0.6-0.1-0.9v-0.4c0.2-1,0.5-2,0.8-2.9
	c-0.1,0-0.1-0.1-0.2-0.1c-1.6,1.1-2.9,2.6-3.7,4.3c-0.2,0.2-0.4,0.3-0.6,0.3h-0.1c-0.3,0-0.5-0.2-0.6-0.5v-0.2
	c0-0.5,0.4-1.1,1.1-1.8c0.1-0.5,0.2-0.9,0.4-1.3l-0.1-1c0-0.1-0.2-0.2-0.6-0.2c-1.6,0.5-3.7,2.5-6.3,5.9c-0.4,1.3-0.8,2-1.2,2h-0.1
	c-0.5-0.1-0.8-0.4-0.8-0.8c1.2-1.7,2-3.6,2.3-5.6c-0.3-1.1-0.2-1.8,0.1-2.1h0.7l0.5,0.7c-0.1,1.3-0.1,1.9-0.1,2.1v0.1h0.1
	c0.7-1,1.7-1.9,2.7-2.6c0-0.1,0.6-0.4,1.7-0.8h0.4c0.9,0.1,1.6,0.6,1.9,1.5h0.1C110,27.7,110.9,27.1,111.3,27.1L111.3,27.1z
	 M91.6,32l0.1,0.2c0.3,0.9,0.6,1.3,0.9,1.4c0.3,0.1,0.6,0.1,0.9,0c0.8-0.4,1.2-0.8,1.2-0.9l0,0c-1.1-0.4-1.9-1.2-2.4-2.2
	c0,0-0.1,0-0.1-0.2c0-0.2,0-0.5-0.1-0.7l0,0C91.5,30.3,91.3,31.2,91.6,32z M93.8,30.1c0.5,1,1.1,1.4,1.8,1.2h0.2
	c0.4-0.5,0.6-1.1,0.6-1.7c-0.4-0.9-0.8-1.3-1.3-1.2c0-0.1-0.1-0.1-0.3-0.1C93.8,28.6,93.5,29.2,93.8,30.1L93.8,30.1z M93.8,27.4
	l0.3-0.1c1.7-0.1,2.6,0.1,2.7,0.6c0.1,0,0.3,0.4,0.7,1.2c0.1,0.5,0,1.1-0.1,1.6v-0.1l0,0c1.3-0.7,2.5-1.5,3.6-2.5
	c0.2-0.1,0.4-0.2,0.7-0.3c0.2,0.7-0.9,1.9-3.3,3.9c-0.5,0.4-1.1,0.6-1.7,0.8c-0.7,0.8-1.5,1.5-2.3,2.1c-0.2,0.1-0.4,0.1-0.5,0.2
	c-1.1,0.3-2.4-0.1-3-1.1c-0.2-0.3-0.4-0.7-0.5-1c-0.6-1.5-0.1-3.2,1.2-4.1c0.5-0.6,1.2-1,2-1.1C93.4,27.6,93.5,27.5,93.8,27.4
	L93.8,27.4z"/>
<path class="st2" d="M103.4,11c0.3,0.4,0.6,0.8,0.8,1.2c0.2,0.3,0.2,0.3,0.1,0.3h-0.2c-0.2,0-0.3,0-0.5,0c-0.1,0-0.2-0.1-0.4-0.3
	s-0.5-0.6-0.7-0.8c-0.1-0.1-0.3-0.2-0.4-0.3c-0.2,0-0.5,0-0.7,0c-0.5,0-1.5,0-2.1,0c-0.2,0-0.5,0-0.7,0.1c0,0-0.1,0-0.1,0.6
	s0,1.6,0,2.1c0,0.2,0,0.5,0.1,0.7c0,0.1,0,0.1,0.5,0.1s1.3,0,1.8,0c0.3,0,0.5,0,0.8-0.1c0.2-0.1,0.3-0.2,0.3-0.4
	c0.1-0.2,0.2-0.4,0.2-0.5c0-0.1,0.1-0.2,0.2-0.2c0.1,0,0.1,0,0.2,0c0,0,0.1,0,0.1,0.3s0,0.6,0,0.9c0,0.2,0,0.4,0,0.7
	c0,0.2,0,0.6,0,0.9s0,0.3-0.1,0.3c-0.1,0-0.1,0-0.2,0c-0.1,0-0.2-0.1-0.2-0.2c-0.1-0.1-0.1-0.4-0.2-0.5c-0.1-0.2-0.2-0.3-0.3-0.4
	c-0.3-0.1-0.5-0.1-0.8-0.1c-0.5,0-1.4,0-1.8,0s-0.4,0.1-0.5,0.1c-0.1,0.2-0.1,0.5-0.1,0.7c0,0.6,0,1.6,0,2.1s0,0.6,0.1,0.6
	c0.2,0.1,0.5,0.1,0.7,0.1c0.5,0,1.5,0,2.1,0c0.2,0,0.5,0,0.7,0c0.2,0,0.3-0.1,0.4-0.3c0.2-0.2,0.5-0.6,0.7-0.8s0.2-0.2,0.4-0.3
	c0.2,0,0.3,0,0.5,0h0.2c0,0,0,0-0.1,0.3c-0.2,0.4-0.5,0.8-0.8,1.2c-0.2,0.2-0.5,0.4-0.8,0.4c-0.3,0-0.6,0-1.6,0h-4.6
	c-0.1,0-0.2,0-0.2-0.1c0-0.1,0-0.2,0-0.3c0-0.1,0-0.1,0.1-0.1c0.1-0.1,0.2-0.2,0.3-0.3c0.1-0.1,0.1-0.2,0.2-0.4c0-0.3,0-0.5,0-0.8
	c0-0.6,0-1.6,0-2.1c0-0.3,0-0.7,0-1c0-0.5,0-1.5,0-2.1c0-0.3,0-0.5,0-0.8c0-0.1-0.1-0.3-0.2-0.4c-0.1-0.1-0.2-0.2-0.3-0.3
	C96.3,11,96.2,11,96.2,11c0-0.1,0-0.2,0-0.3c0-0.1,0.1-0.1,0.2-0.1h4.6c1,0,1.4,0,1.6,0C103,10.7,103.2,10.8,103.4,11"/>
<path class="st2" d="M105.8,18.5c-0.3,0-0.6,0.3-0.6,0.6c0,0.3,0.3,0.6,0.6,0.6c0.3,0,0.6-0.3,0.6-0.6v0
	C106.4,18.8,106.2,18.5,105.8,18.5"/>
<path class="st2" d="M107.6,19.7C107.5,19.7,107.5,19.7,107.6,19.7c-0.1-0.1-0.1-0.2-0.1-0.3c0-0.1,0-0.1,0.1-0.2l0.3-0.2
	c0.2-0.2,0.3-0.3,0.5-0.5c0.1-0.1,0.1-0.2,0.1-0.3V17c0-1.1,0-3.3,0-4.4s0-1.2-0.1-1.2c-0.1,0-0.1-0.1-0.2-0.1
	c-0.1,0-0.1-0.1-0.1-0.1c0-0.1,0-0.2,0-0.3c0-0.1,0-0.1,0.1-0.1h2.6c0,0,0,0,0.5,0.8l1.9,3c0.5,0.8,0.5,0.8,0.8,0l1.5-3l0.4-0.8h2.5
	c0,0.5,0,0.9,0,1.4c0,1.4,0,4.2,0,5.6s0,1.4,0,1.4l0.2,0.1c0.1,0,0.1,0.1,0.1,0.1c0,0.1,0,0.2,0,0.3c0,0.1,0,0.1-0.6,0.1h-2.9
	c0,0-0.1,0-0.1-0.1c0-0.1,0-0.1,0-0.2c0-0.1,0.1-0.1,0.1-0.1c0.1-0.1,0.2-0.1,0.2-0.2c0.1-0.1,0.1-0.2,0.1-0.3
	c0-0.1,0.1-0.2,0.1-0.2c0-0.3,0-0.7,0-1v-3.4c0-0.9,0-1.2,0-1.3s0-0.1-0.4,0.9s-1.3,3.1-1.7,4.2c-0.1,0.4-0.3,0.8-0.5,1.1
	c0,0,0,0-0.1,0h-0.5c0,0,0,0-0.6-1s-1.6-2.9-2.1-3.9s-0.5-1-0.5-1c0,0.3,0,0.5,0,0.8c0,0.8,0,2.5,0,3.4v0.9c0,0,0,0.1,0,0.1
	c0.1,0.1,0.2,0.2,0.3,0.3l0.5,0.4c0.1,0.1,0.1,0.1,0.1,0.1c0,0,0,0.1,0,0.1c0,0.1,0,0.3,0,0.3s0,0.1,0,0.1h-2.5L107.6,19.7"/>
<path class="st2" d="M120.2,18.5c-0.3,0-0.6,0.3-0.6,0.6c0,0.3,0.3,0.6,0.6,0.6c0.3,0,0.6-0.3,0.6-0.6v0
	C120.8,18.8,120.5,18.5,120.2,18.5"/>
</svg>
