<?xml version="1.0" encoding="utf-8"?>
<!-- Generator: Adobe Illustrator 21.0.0, SVG Export Plug-In . SVG Version: 6.00 Build 0)  -->
<svg version="1.1" id="Capa_1" xmlns="http://www.w3.org/2000/svg" xmlns:xlink="http://www.w3.org/1999/xlink" x="0px" y="0px"
	 viewBox="0 0 121.3 42.9" style="enable-background:new 0 0 121.3 42.9;" xml:space="preserve">
<style type="text/css">
	.st0{fill:#3D3D3D;}
	.st1{fill:none;stroke:#3D3D3D;stroke-width:0.22;stroke-miterlimit:22.93;}
	.st2{fill:#CCCCCC;}
</style>
<title>Mesa de trabajo 1</title>
<path class="st0" d="M73,12.8l0.2,0.5l-0.4,0.2h-0.5v-0.5L73,12.8z M63.6,15.4h-0.1C65,15,66.2,14,67,12.6v-0.1c0-0.1,0-0.1,0-0.1
	C65.9,12.7,64.8,13.7,63.6,15.4L63.6,15.4z M67.2,11.1c0.5,0.1,0.9,0.3,1.2,0.8c0,0.7-0.2,1.5-0.6,2.1c-1.5,1.7-2.6,2.6-3.6,2.8
	l-1,0.5v0.4c0,0.7,0.6,1,1.8,1c0.8-0.1,1.6-0.3,2.4-0.5c1.3-0.7,2.5-1.8,3.4-3c0.3-0.7,0.8-1.3,1.4-1.8h0.3c0,0.2,0,0.4,0.2,0.5v0.2
	c-1.5,3.5-3.8,5.5-6.8,6.1c-0.3,0-0.7,0.1-1,0.2c-1.7,0.1-3.3-1.1-3.7-2.8l-0.1-1.3h0.4c0.2-1.1,1.1-2.4,2.9-3.8
	C65.2,11.7,66.1,11.3,67.2,11.1L67.2,11.1z M52.1,12.5c0.3,0,0.6,0.2,0.9,0.4c-0.4,1-1,2-1.6,2.8c-0.3,0.8-0.5,1.6-0.5,2.5
	c0.1,0.3,0.2,0.4,0.4,0.4c0.6,0,1.8-0.7,3.6-2.2c0.9-0.9,2-2.1,3.2-3.5c0.3-0.1,0.7-0.2,1.1-0.2h0.3c0.1,0,0.2,0.1,0.4,0.5
	c-0.3,0.5-0.6,1-1.1,1.4c-0.4,0.7-0.7,1.4-0.9,2.1v0.8c0,0.1,0.1,0.2,0.5,0.5c0.9,0,2.6-1.4,5.3-4.1c0.3-0.5,0.8-1,1.3-1.3h0.1
	c0.1,0,0.2,0.1,0.2,0.2c0,0,0,0,0,0c-0.8,2-2.1,3.7-3.6,5.2c-0.9,0.9-2,1.4-3.3,1.5H58c-1,0-1.9-0.7-2.4-2.2
	c-1.9,1.8-3.1,2.7-3.6,2.7c-0.3,0.1-0.7,0.2-1.1,0.2c-1,0-1.6-0.7-1.9-2v-0.1c0.1-2.1,1-4,2.4-5.5C51.7,12.7,51.9,12.6,52.1,12.5z
	 M42.8,11.5l0.2,0.1c1.8-0.9,3.3-2.2,4.4-3.9c0.7-0.9,1.2-1.8,1.5-2.9V4.4c-0.5,0-1.6,0.9-3.3,2.7C43.9,9.3,42.9,10.8,42.8,11.5z
	 M48.7,3.1c1,0,1.5,0.4,1.5,1.1c-0.1,1.6-0.7,3.1-1.6,4.4c-1.1,1.5-2.5,2.8-4.1,3.8c-2,0.8-2.9,1.4-2.9,1.7
	c-0.4,1.2-0.7,2.4-0.7,3.7l0.1,0.8c0,0.6,0.5,1.1,1.1,1.1c0.1,0,0.1,0,0.2,0h0.4c1.5-0.1,2.9-0.6,4-1.5c0.9-0.6,1.8-1.3,2.6-2.1
	c0.6-0.7,1.2-1.4,2-1.9l0.9-1.2c0.3,0.1,0.4,0.2,0.4,0.3c-0.5,1.8-1.6,3.4-3.1,4.6c-2.3,2.3-4.5,3.4-6.5,3.4h-0.5
	c-1.4,0-2.7-0.9-3.1-2.3l-0.1-1.1c0-1.2,0.3-2.3,0.8-3.4c-0.1-0.5,0-1.1,0.1-1.6c0.1-0.4,0.3-0.6,0.6-0.6c0.1-0.5,0.4-1,0.8-1.4
	c0-0.7,0.7-1.9,2.2-3.5C46,4.5,47.6,3.1,48.7,3.1L48.7,3.1z M0.1,37.3h0.2v0.2H0.1V37.3z M2.7,33.7L2.7,33.7l0.1,0.1H2.7L2.7,33.7z
	 M6,28.9c0,0.1,0.1,0.1,0.1,0.1l0.1-0.1v-0.2H6.1C6.1,28.8,6,28.8,6,28.9L6,28.9z M10.4,21.9v0.3h0.1v-0.3H10.4z M11.6,19.1h0.1v0.2
	h-0.1V19.1z M12,18.8V19h0.3c0-0.1,0-0.2,0.1-0.2l-0.2-0.1C12.1,18.7,12,18.7,12,18.8L12,18.8z M20.1,15.4c-0.1-0.1-0.2-0.1-0.3-0.1
	c0,0.3-0.9,0.4-2.6,0.5v0.1l-0.2-0.1h-0.1c-1.2,0.2-1.8,0.4-1.8,0.5c-1.3,2.2-2.9,5-4.7,8.4c1.7,0.9,3.5,1.6,5.4,2.2
	c0.7,0.3,1.5,0.5,2.3,0.6c0.9,0.2,1.7,0.4,2.6,0.5l0.5-0.1c0.4,0.1,0.8,0.2,1.1,0.3l0.3-0.1l1.5,0.1c4.1-0.4,6.7-1,7.8-1.7
	c1.3-0.5,2.4-1.3,3.2-2.4c0.4-0.3,0.8-1.2,1.2-2.8c-0.3-0.7-0.6-1.4-0.9-2.1c-0.5-0.4-0.9-0.9-1.2-1.4c-0.2-0.3-0.5-0.4-0.8-0.5
	c-0.4-0.2-0.7-0.4-0.9-0.8c-1.2-0.3-2.3-0.8-3.3-1.3c-0.7-0.1-1.4-0.3-2-0.5c-0.1,0-0.2,0-0.2,0.1c-0.9-0.2-1.9-0.3-2.8-0.3
	C21.8,15.1,20.4,15.4,20.1,15.4L20.1,15.4z M26.2,2.3L26,2.2c-1.9,0.4-3.4,0.7-4.4,1c-1.2,3.2-2.7,6.3-4.3,9.3v0.2
	c0.8,0,1.1-0.1,1.1-0.2l0.6,0.1h0.5c0.1,0,0.2,0,0.3-0.1c0.1,0,0.2,0.1,0.2,0.1l0.6-0.2c0.9,0.2,1.8,0.3,2.7,0.3
	c0.1,0,0.2,0,0.3-0.1l0.5,0.1h0.7c3-1,5.9-2.2,8.7-3.8c2-1.6,3.2-2.9,3.6-4.1l0.1-0.5l-0.1-0.2c0-0.1,0.1-0.2,0.1-0.2
	c0-0.6-0.9-1.1-2.7-1.8h-0.2c0,0-0.1,0-0.1,0.1c-1-0.3-2-0.5-3-0.5l-0.6,0.1c-0.2-0.1-0.5-0.1-0.7-0.1C28.7,2,27.5,2.2,26.2,2.3
	L26.2,2.3z M29.5,0.1l0.3,0.1l0.7-0.1c0.3,0,0.4,0,0.4,0.2c0.3,0,0.5-0.1,0.5-0.2c0.8,0,1.7,0.2,2.5,0.4L34,0.4
	c1.6,0.2,3.1,0.8,4.3,1.8c0.5,0.7,0.9,1.5,0.9,2.4c-0.6,1.8-1.7,3.4-3.2,4.6c-1.1,0.9-2.3,1.6-3.5,2.2c-1.3,0.7-2.7,1.4-4.1,1.9
	l-0.1,0.2c3,0.8,5.9,2.3,8.2,4.4c0.7,0.8,1.3,1.9,1.5,3L37.9,21c0.1,0.3,0.2,0.7,0.2,1c0,0.9-0.6,2.1-1.8,3.7
	c-1.6,1.4-3.5,2.4-5.5,3.1l-2.9,0.5l-0.4-0.1c-0.9,0.3-1.9,0.5-2.9,0.4l-0.3-0.2l-0.6,0.1l-0.7-0.1c-0.2,0-0.4,0.1-0.6,0.1
	c-0.2-0.1-0.5-0.2-0.7-0.2c-0.1,0-0.2,0-0.2,0.1c-0.6,0-1.1-0.2-1.7-0.5L19.2,29c-0.8-0.2-1.3-0.4-1.4-0.5h0l-0.2,0.1h-0.1
	c-0.3,0-0.4-0.1-0.4-0.2h-0.5c0-0.4-0.2-0.5-0.6-0.5v-0.1h-0.5c-0.2,0-0.3-0.1-0.5-0.1c-0.1,0.1-0.2,0.1-0.3,0.1
	c-0.5-0.3-1-0.5-1.5-0.6c0-0.2-0.4-0.3-1.1-0.3c-0.2-0.4-0.7-0.6-1.5-0.8c0-0.1-0.1-0.1-0.3-0.2H9.9c-1,1.3-1.9,2.6-2.6,4
	c-0.1,0-0.4,0.4-0.8,1c-0.4,0.2-0.8,0.8-1.1,1.8c-0.6,0.6-1.1,1.2-1.5,1.9c-0.7,0.5-1.3,1.1-1.9,1.8c-0.2,0-0.5,0.2-0.8,0.7H0.5
	v-0.2c0-0.1,0.3-0.3,0.8-0.6l-0.1-0.4c0.4-0.3,0.7-0.7,0.8-1.2c0.3-0.1,0.6-0.2,0.8-0.4l-0.1-0.2v-0.1c0.5-0.3,0.7-0.6,0.7-0.9H3.2
	V33c0.2,0,0.3-0.2,0.4-0.5c0.1,0,0.2-0.2,0.3-0.6c0.3-0.4,0.5-0.6,0.6-0.6s0,0.1,0.1,0.1c-0.1,0.3-0.2,0.4-0.3,0.4
	c0,0.1,0.1,0.2,0.1,0.2h0.1c0.4-0.3,0.5-0.6,0.5-0.8s-0.2-0.3-0.3-0.3v-0.1c0.6-0.7,1.1-1.4,1.5-2.2c0.4-0.1,0.6-0.3,0.6-0.5
	l-0.1-0.3c0-0.3,0.4-0.7,1.1-1.2c0-0.1,0.1-0.2,0.1-0.2c0,0,0,0,0,0l-0.1-0.2v-0.1L8.1,26L8,25.4h0.4v-0.2c-0.1-0.7-0.5-1-1-1
	c-0.4,0-0.8-0.3-1.2-0.9c-0.9-0.4-1.7-0.9-2.4-1.5H3.8c0,0-0.1,0-0.1,0.1c0,0,0,0,0,0c-0.1,0-0.4-0.3-1-1c-0.3,0-0.6-0.3-0.8-0.8
	C1.9,20.1,2,20,2,19.9H1.6c-0.1-0.3-0.2-0.4-0.4-0.4l0.1-0.4C1.1,19,1,19,0.9,18.9v-0.2c0.2,0,0.3-0.1,0.3-0.2
	c-0.2,0-0.4-0.2-0.6-0.7c0.1-0.2,0.2-0.3,0.2-0.3C1,18.1,1.4,18.6,1.9,19c0,0.7,0.4,1,1.1,1v0.1l-0.2,0.2c0,0.1,0.1,0.2,0.2,0.2h0.2
	c0.1,0,0.1,0,0.1-0.1c0.4,0,0.7,0.2,0.8,0.5c0.8,0.5,1.6,1,2.3,1.6C7.2,23,8,23.4,8.8,23.7h0.1c0.1,0,0.2-0.1,0.3-0.1h0.1v0.3
	C9.3,24,9.4,24,9.5,24c0.1-0.3,0.2-0.7,0.2-1l-0.3,0.2v-0.1c0-0.2,0.1-0.3,0.5-0.5c0,0.1,0.1,0.2,0.2,0.2l0.1-0.2l-0.2-0.1
	c0,0,0,0.1-0.1,0.1s0-0.1-0.1-0.1l0.9-1.5c0.1-0.3,0.3-0.5,0.5-0.5l-0.1-0.2c0-0.4,0.2-0.6,0.4-0.6c0.1,0,0.1,0.1,0.2,0.1
	c0.1-0.1,0.2-0.3,0.2-0.5c-0.2-0.1-0.2-0.1-0.2-0.2c0.1-0.4,0.2-0.7,0.4-1l0.3,0.1c0.1,0,0.1-0.1,0.2-0.1V18l-0.1-0.3v-0.2
	c0.3,0,0.7-0.3,1-1h0.2v-0.2h-0.3c-0.1,0-0.2,0.1-0.2,0.3h-0.1c0-0.3-0.4-0.5-1.2-0.5c0-0.1,0-0.1-0.1-0.1l0.1-0.4v-0.1h-0.1v-0.1
	l0.1-0.2v-0.1h-0.1c-0.1,0-0.1,0.1-0.1,0.2h-0.3c0-0.7,1-1.4,3.1-2.1c0.3-0.5,0.6-0.7,0.8-0.7l-0.2-0.2l0.8-0.6v-0.1h-0.1l-0.4,0.1
	l0.5-1c0.5-0.7,0.9-1.6,1-2.5c0.8-1.3,1.5-2.7,2-4.2c-0.1,0-0.1,0-0.1-0.1c-3.3,1.2-6.4,2.8-9.4,4.7c-1.6,1-3.1,2.2-4.5,3.5
	l-0.6,1.3L4,13.6c-0.5,0.1-0.9-0.3-1-0.8c0,0,0,0,0,0c0.3-1,1-1.9,1.8-2.5c0.7-0.4,1.4-1,1.9-1.7c0.9-0.7,1.9-1.3,3-1.8
	c0.1-0.3,0.7-0.7,1.8-1.2h0.1l0.6,0.1l0.1-0.2c0-0.1,0-0.2-0.1-0.2l-0.2,0.1V5.3c0.9-0.7,2-1.2,3.1-1.5c0-0.1,0.3-0.3,1-0.3
	c0-0.3,1.1-0.7,3.4-1.4c0.9-0.4,1.8-0.7,2.7-0.8h0.5c0-0.1,0.3-0.3,0.9-0.4L24.1,1C25.9,0.5,27.7,0.2,29.5,0.1L29.5,0.1z"/>
<path class="st1" d="M73,12.8l0.2,0.5l-0.4,0.2h-0.5v-0.5L73,12.8z M63.6,15.4h-0.1C65,15,66.2,14,67,12.6v-0.1c0-0.1,0-0.1,0-0.1
	C65.9,12.7,64.8,13.7,63.6,15.4L63.6,15.4z M67.2,11.1c0.5,0.1,0.9,0.3,1.2,0.8c0,0.7-0.2,1.5-0.6,2.1c-1.5,1.7-2.6,2.6-3.6,2.8
	l-1,0.5v0.4c0,0.7,0.6,1,1.8,1c0.8-0.1,1.6-0.3,2.4-0.5c1.3-0.7,2.5-1.8,3.4-3c0.3-0.7,0.8-1.3,1.4-1.8h0.3c0,0.2,0,0.4,0.2,0.5v0.2
	c-1.5,3.5-3.8,5.5-6.8,6.1c-0.3,0-0.7,0.1-1,0.2c-1.7,0.1-3.3-1.1-3.7-2.8l-0.1-1.3h0.4c0.2-1.1,1.1-2.4,2.9-3.8
	C65.2,11.7,66.1,11.3,67.2,11.1L67.2,11.1z M52.1,12.5c0.3,0,0.6,0.2,0.9,0.4c-0.4,1-1,2-1.6,2.8c-0.3,0.8-0.5,1.6-0.5,2.5
	c0.1,0.3,0.2,0.4,0.4,0.4c0.6,0,1.8-0.7,3.6-2.2c0.9-0.9,2-2.1,3.2-3.5c0.3-0.1,0.7-0.2,1.1-0.2h0.3c0.1,0,0.2,0.1,0.4,0.5
	c-0.3,0.5-0.6,1-1.1,1.4c-0.4,0.7-0.7,1.4-0.9,2.1v0.8c0,0.1,0.1,0.2,0.5,0.5c0.9,0,2.6-1.4,5.3-4.1c0.3-0.5,0.8-1,1.3-1.3h0.1
	c0.1,0,0.2,0.1,0.2,0.2c0,0,0,0,0,0c-0.8,2-2.1,3.7-3.6,5.2c-0.9,0.9-2,1.4-3.3,1.5H58c-1,0-1.9-0.7-2.4-2.2
	c-1.9,1.8-3.1,2.7-3.6,2.7c-0.3,0.1-0.7,0.2-1.1,0.2c-1,0-1.6-0.7-1.9-2v-0.1c0.1-2.1,1-4,2.4-5.5C51.7,12.7,51.9,12.6,52.1,12.5z
	 M42.8,11.5l0.2,0.1c1.8-0.9,3.3-2.2,4.4-3.9c0.7-0.9,1.2-1.8,1.5-2.9V4.4c-0.5,0-1.6,0.9-3.3,2.7C43.9,9.3,42.9,10.8,42.8,11.5z
	 M48.7,3.1c1,0,1.5,0.4,1.5,1.1c-0.1,1.6-0.7,3.1-1.6,4.4c-1.1,1.5-2.5,2.8-4.1,3.8c-2,0.8-2.9,1.4-2.9,1.7
	c-0.4,1.2-0.7,2.4-0.7,3.7l0.1,0.8c0,0.6,0.5,1.1,1.1,1.1c0.1,0,0.1,0,0.2,0h0.4c1.5-0.1,2.9-0.6,4-1.5c0.9-0.6,1.8-1.3,2.6-2.1
	c0.6-0.7,1.2-1.4,2-1.9l0.9-1.2c0.3,0.1,0.4,0.2,0.4,0.3c-0.5,1.8-1.6,3.4-3.1,4.6c-2.3,2.3-4.5,3.4-6.5,3.4h-0.5
	c-1.4,0-2.7-0.9-3.1-2.3l-0.1-1.1c0-1.2,0.3-2.3,0.8-3.4c-0.1-0.5,0-1.1,0.1-1.6c0.1-0.4,0.3-0.6,0.6-0.6c0.1-0.5,0.4-1,0.8-1.4
	c0-0.7,0.7-1.9,2.2-3.5C46,4.5,47.6,3.1,48.7,3.1L48.7,3.1z M0.1,37.3h0.2v0.2H0.1V37.3z M2.7,33.7L2.7,33.7l0.1,0.1H2.7L2.7,33.7z
	 M6,28.9c0,0.1,0.1,0.1,0.1,0.1l0.1-0.1v-0.2H6.1C6.1,28.8,6,28.8,6,28.9L6,28.9z M10.4,21.9v0.3h0.1v-0.3H10.4z M11.6,19.1h0.1v0.2
	h-0.1V19.1z M12,18.8V19h0.3c0-0.1,0-0.2,0.1-0.2l-0.2-0.1C12.1,18.7,12,18.7,12,18.8L12,18.8z M20.1,15.4c-0.1-0.1-0.2-0.1-0.3-0.1
	c0,0.3-0.9,0.4-2.6,0.5v0.1l-0.2-0.1h-0.1c-1.2,0.2-1.8,0.4-1.8,0.5c-1.3,2.2-2.9,5-4.7,8.4c1.7,0.9,3.5,1.6,5.4,2.2
	c0.7,0.3,1.5,0.5,2.3,0.6c0.9,0.2,1.7,0.4,2.6,0.5l0.5-0.1c0.4,0.1,0.8,0.2,1.1,0.3l0.3-0.1l1.5,0.1c4.1-0.4,6.7-1,7.8-1.7
	c1.3-0.5,2.4-1.3,3.2-2.4c0.4-0.3,0.8-1.2,1.2-2.8c-0.3-0.7-0.6-1.4-0.9-2.1c-0.5-0.4-0.9-0.9-1.2-1.4c-0.2-0.3-0.5-0.4-0.8-0.5
	c-0.4-0.2-0.7-0.4-0.9-0.8c-1.2-0.3-2.3-0.8-3.3-1.3c-0.7-0.1-1.4-0.3-2-0.5c-0.1,0-0.2,0-0.2,0.1c-0.9-0.2-1.9-0.3-2.8-0.3
	C21.8,15.1,20.4,15.4,20.1,15.4L20.1,15.4z M26.2,2.3L26,2.2c-1.9,0.4-3.4,0.7-4.4,1c-1.2,3.2-2.7,6.3-4.3,9.3v0.2
	c0.8,0,1.1-0.1,1.1-0.2l0.6,0.1h0.5c0.1,0,0.2,0,0.3-0.1c0.1,0,0.2,0.1,0.2,0.1l0.6-0.2c0.9,0.2,1.8,0.3,2.7,0.3
	c0.1,0,0.2,0,0.3-0.1l0.5,0.1h0.7c3-1,5.9-2.2,8.7-3.8c2-1.6,3.2-2.9,3.6-4.1l0.1-0.5l-0.1-0.2c0-0.1,0.1-0.2,0.1-0.2
	c0-0.6-0.9-1.1-2.7-1.8h-0.2c0,0-0.1,0-0.1,0.1c-1-0.3-2-0.5-3-0.5l-0.6,0.1c-0.2-0.1-0.5-0.1-0.7-0.1C28.7,2,27.5,2.2,26.2,2.3
	L26.2,2.3z M29.5,0.1l0.3,0.1l0.7-0.1c0.3,0,0.4,0,0.4,0.2c0.3,0,0.5-0.1,0.5-0.2c0.8,0,1.7,0.2,2.5,0.4L34,0.4
	c1.6,0.2,3.1,0.8,4.3,1.8c0.5,0.7,0.9,1.5,0.9,2.4c-0.6,1.8-1.7,3.4-3.2,4.6c-1.1,0.9-2.3,1.6-3.5,2.2c-1.3,0.7-2.7,1.4-4.1,1.9
	l-0.1,0.2c3,0.8,5.9,2.3,8.2,4.4c0.7,0.8,1.3,1.9,1.5,3L37.9,21c0.1,0.3,0.2,0.7,0.2,1c0,0.9-0.6,2.1-1.8,3.7
	c-1.6,1.4-3.5,2.4-5.5,3.1l-2.9,0.5l-0.4-0.1c-0.9,0.3-1.9,0.5-2.9,0.4l-0.3-0.2l-0.6,0.1l-0.7-0.1c-0.2,0-0.4,0.1-0.6,0.1
	c-0.2-0.1-0.5-0.2-0.7-0.2c-0.1,0-0.2,0-0.2,0.1c-0.6,0-1.1-0.2-1.7-0.5L19.2,29c-0.8-0.2-1.3-0.4-1.4-0.5h0l-0.2,0.1h-0.1
	c-0.3,0-0.4-0.1-0.4-0.2h-0.5c0-0.4-0.2-0.5-0.6-0.5v-0.1h-0.5c-0.2,0-0.3-0.1-0.5-0.1c-0.1,0.1-0.2,0.1-0.3,0.1
	c-0.5-0.3-1-0.5-1.5-0.6c0-0.2-0.4-0.3-1.1-0.3c-0.2-0.4-0.7-0.6-1.5-0.8c0-0.1-0.1-0.1-0.3-0.2H9.9c-1,1.3-1.9,2.6-2.6,4
	c-0.1,0-0.4,0.4-0.8,1c-0.4,0.2-0.8,0.8-1.1,1.8c-0.6,0.6-1.1,1.2-1.5,1.9c-0.7,0.5-1.3,1.1-1.9,1.8c-0.2,0-0.5,0.2-0.8,0.7H0.5
	v-0.2c0-0.1,0.3-0.3,0.8-0.6l-0.1-0.4c0.4-0.3,0.7-0.7,0.8-1.2c0.3-0.1,0.6-0.2,0.8-0.4l-0.1-0.2v-0.1c0.5-0.3,0.7-0.6,0.7-0.9H3.2
	V33c0.2,0,0.3-0.2,0.4-0.5c0.1,0,0.2-0.2,0.3-0.6c0.3-0.4,0.5-0.6,0.6-0.6s0,0.1,0.1,0.1c-0.1,0.3-0.2,0.4-0.3,0.4
	c0,0.1,0.1,0.2,0.1,0.2h0.1c0.4-0.3,0.5-0.6,0.5-0.8s-0.2-0.3-0.3-0.3v-0.1c0.6-0.7,1.1-1.4,1.5-2.2c0.4-0.1,0.6-0.3,0.6-0.5
	l-0.1-0.3c0-0.3,0.4-0.7,1.1-1.2c0-0.1,0.1-0.2,0.1-0.2c0,0,0,0,0,0l-0.1-0.2v-0.1L8.1,26L8,25.4h0.4v-0.2c-0.1-0.7-0.5-1-1-1
	c-0.4,0-0.8-0.3-1.2-0.9c-0.9-0.4-1.7-0.9-2.4-1.5H3.8c0,0-0.1,0-0.1,0.1c0,0,0,0,0,0c-0.1,0-0.4-0.3-1-1c-0.3,0-0.6-0.3-0.8-0.8
	C1.9,20.1,2,20,2,19.9H1.6c-0.1-0.3-0.2-0.4-0.4-0.4l0.1-0.4C1.1,19,1,19,0.9,18.9v-0.2c0.2,0,0.3-0.1,0.3-0.2
	c-0.2,0-0.4-0.2-0.6-0.7c0.1-0.2,0.2-0.3,0.2-0.3C1,18.1,1.4,18.6,1.9,19c0,0.7,0.4,1,1.1,1v0.1l-0.2,0.2c0,0.1,0.1,0.2,0.2,0.2h0.2
	c0.1,0,0.1,0,0.1-0.1c0.4,0,0.7,0.2,0.8,0.5c0.8,0.5,1.6,1,2.3,1.6C7.2,23,8,23.4,8.8,23.7h0.1c0.1,0,0.2-0.1,0.3-0.1h0.1v0.3
	C9.3,24,9.4,24,9.5,24c0.1-0.3,0.2-0.7,0.2-1l-0.3,0.2v-0.1c0-0.2,0.1-0.3,0.5-0.5c0,0.1,0.1,0.2,0.2,0.2l0.1-0.2l-0.2-0.1
	c0,0,0,0.1-0.1,0.1s0-0.1-0.1-0.1l0.9-1.5c0.1-0.3,0.3-0.5,0.5-0.5l-0.1-0.2c0-0.4,0.2-0.6,0.4-0.6c0.1,0,0.1,0.1,0.2,0.1
	c0.1-0.1,0.2-0.3,0.2-0.5c-0.2-0.1-0.2-0.1-0.2-0.2c0.1-0.4,0.2-0.7,0.4-1l0.3,0.1c0.1,0,0.1-0.1,0.2-0.1V18l-0.1-0.3v-0.2
	c0.3,0,0.7-0.3,1-1h0.2v-0.2h-0.3c-0.1,0-0.2,0.1-0.2,0.3h-0.1c0-0.3-0.4-0.5-1.2-0.5c0-0.1,0-0.1-0.1-0.1l0.1-0.4v-0.1h-0.1v-0.1
	l0.1-0.2v-0.1h-0.1c-0.1,0-0.1,0.1-0.1,0.2h-0.3c0-0.7,1-1.4,3.1-2.1c0.3-0.5,0.6-0.7,0.8-0.7l-0.2-0.2l0.8-0.6v-0.1h-0.1l-0.4,0.1
	l0.5-1c0.5-0.7,0.9-1.6,1-2.5c0.8-1.3,1.5-2.7,2-4.2c-0.1,0-0.1,0-0.1-0.1c-3.3,1.2-6.4,2.8-9.4,4.7c-1.6,1-3.1,2.2-4.5,3.5
	l-0.6,1.3L4,13.6c-0.5,0.1-0.9-0.3-1-0.8c0,0,0,0,0,0c0.3-1,1-1.9,1.8-2.5c0.7-0.4,1.4-1,1.9-1.7c0.9-0.7,1.9-1.3,3-1.8
	c0.1-0.3,0.7-0.7,1.8-1.2h0.1l0.6,0.1l0.1-0.2c0-0.1,0-0.2-0.1-0.2l-0.2,0.1V5.3c0.9-0.7,2-1.2,3.1-1.5c0-0.1,0.3-0.3,1-0.3
	c0-0.3,1.1-0.7,3.4-1.4c0.9-0.4,1.8-0.7,2.7-0.8h0.5c0-0.1,0.3-0.3,0.9-0.4L24.1,1C25.9,0.5,27.7,0.2,29.5,0.1L29.5,0.1z"/>
<path class="st0" d="M100.7,29.9v0.6c0,0.1,0.1,0.2,0.2,0.2h0.2c1,0.1,2.5-0.7,4.3-2.2c1.1-1.1,1.7-1.9,1.7-2.5v-0.1
	c0-0.7-0.3-1.1-0.8-1.1c-1.7,0.6-3.3,1.6-4.5,3C101.1,28.4,100.8,29.1,100.7,29.9z M106.3,23.6c0.8,0.1,1.5,0.6,2,1.2
	c0.8,0,1.1,0.3,1.1,0.9c0,0,0.1,0,0.1,0.1c0,0,0,0,0,0c-0.7,1.1-1.1,2.3-1.2,3.6v0.3c0.1,0.5,0.3,0.8,0.4,0.8h0.5c0.8,0,2.2-1,4.1-3
	c0-0.2,0.4-0.5,1.2-1c0.1-0.4,0.3-0.7,0.7-0.9h0.1c0,0.2,0.1,0.4,0.2,0.5c-0.3,1-0.9,1.9-1.5,2.7c-1.9,2.4-3.6,3.5-4.9,3.5
	c-1.3-0.1-2.3-1-2.7-2.3v-0.2h-0.3c-2.1,1.6-3.8,2.4-4.9,2.4h-0.3c-1.1,0-2-0.9-2.2-2V30c0-1.6,1.2-3.1,3.6-4.7l2.4-1.4
	C104.7,23.7,105.3,23.6,106.3,23.6L106.3,23.6z M103.9,24.7l0.2,0.5l-0.3,0.1h-0.5v-0.5L103.9,24.7z M94.7,26.7h-0.1
	c1.4-0.3,2.7-1.2,3.4-2.5v-0.1c0-0.1,0-0.1,0-0.1C97,24.2,95.9,25.1,94.7,26.7L94.7,26.7z M98.1,22.7c0.5,0.1,0.9,0.4,1.2,0.8
	c0,0.7-0.2,1.4-0.6,2c-1.4,1.5-2.6,2.4-3.5,2.5l-1,0.4v0.3c0,0.7,0.6,1,1.8,1.1c0.8,0,1.6-0.2,2.4-0.4c1.3-0.6,2.4-1.5,3.3-2.7
	c0.3-0.7,0.8-1.2,1.4-1.7h0.3c0,0.2,0,0.4,0.2,0.5v0.2c-1.5,3.3-3.7,5.1-6.7,5.5c-0.3,0-0.6,0-0.9,0.1c-1.7-0.1-3.2-1.2-3.6-2.9
	l-0.1-1.3h0.4c0.2-1.1,1.1-2.2,2.8-3.5C96.3,23.1,97.2,22.8,98.1,22.7L98.1,22.7z M72.2,35.9v-0.2l0,0
	C72.2,35.7,72.2,35.8,72.2,35.9z M79,38.7c0,0.9,0.8,1.6,2.3,2.2c0.4,0.2,0.9,0.2,1.4,0.3h0.7c0.8-0.1,1.5-0.5,2-1.1
	c0.2-0.5,0.3-1,0.4-1.5c0,0,0.1-0.2,0.1-0.5v-0.2l-0.1-0.3c0.2,0,0.3,0,0.3,0l-0.4-1.8l0.1-0.1c-0.1-0.2-0.2-0.4-0.2-0.6
	c-0.2-0.3-0.3-0.6-0.4-1c-0.1,0-0.2-0.2-0.2-0.6v-0.1L84,32v0.3c-2.7,2-4.3,3.7-4.7,5C79.1,37.7,79,38.2,79,38.7L79,38.7z
	 M77.9,30.9C77.9,30.9,78,30.9,77.9,30.9l0.4-0.1c0,0.1-0.1,0.2-0.2,0.2v0.1h0.1C77.9,31.1,77.9,31,77.9,30.9L77.9,30.9z M78.8,30.3
	V30h-0.2v0.2H78.8z M83.1,25.8l0.1-0.2L83,25.6l-0.1,0.2L83.1,25.8z M85.7,21.8v-0.2h-0.3v0.2H85.7z M79.2,18.1v1l0.1,0.5l-0.1,0.1
	c0.6,1.9,1.4,3.8,2.4,5.5c0.1,0.2,0.2,0.4,0.3,0.5l0.8-0.7l0,0v0.1h-0.3c0.3-0.4,0.6-0.8,0.9-1.2c0.3-0.6,0.7-1.1,1.3-1.5H85
	c0,0.1,0,0.2,0,0.2h-0.1c0-0.2,0.1-0.3,0.2-0.3v0.1l0,0l-0.2,0.1h-0.3v-0.4c0.5-0.9,0.9-1.3,1-1.3s0.3-0.2,0.5-0.6L86,20.1l0.4-0.2
	v-0.5h0.3v-0.4c0.2-0.5,0.4-1,0.6-1.5c0-0.1,0-0.2,0-0.3c0.1-0.3,0.2-0.4,0.3-0.4c0,0.2,0,0.3-0.1,0.3c0.1-0.5,0.2-1,0.2-1.4
	c0-0.1-0.1-0.2-0.1-0.3c0.1-0.2,0.1-0.4,0.2-0.6c-0.3-1.4-0.7-2-1.2-2.1c0-0.1-0.3-0.2-0.8-0.3c-1.6-0.1-3.3,0.6-5.1,2.2
	C79.8,15.5,79.3,16.8,79.2,18.1L79.2,18.1z M85,10.8l0.3,0.1c0.2,0,0.4-0.1,0.6-0.1H86c1.1,0.3,2,1,2.6,1.9c0.3,1,0.5,1.5,0.5,1.5
	v0.3c0,0.4-0.1,0.7-0.3,1.1L89,16c-0.2,1-0.4,1.9-0.8,2.8c-0.2,0.5-0.4,0.9-0.7,1.3c-0.6,1.2-1.3,2.3-2.1,3.4l-1.2,1.7
	c-0.2,0.4-0.5,0.8-0.9,1.1c0,0.1-0.1,0.4-0.4,0.7c0.5,1,1.1,1.9,1.8,2.7c0.1-0.3,1.3-0.8,3.5-1.5h0.3c0.5-0.4,1.1-0.7,1.7-0.8
	l2.5-1.4c0.3-0.2,0.6-0.4,1-0.5c0.1,0,0.1,0.1,0,0.1c0-0.3,0.4-0.5,1.3-0.6c0.2-0.2,0.5-0.3,0.8-0.3c0-0.1,0.3-0.2,0.8-0.1
	c-0.6,0.8-1.4,1.4-2.3,1.9c-0.9,0.5-1.8,1-2.6,1.6c-0.5,0.2-1,0.5-1.5,0.8c-1.3,0.5-2.6,1.2-3.9,1.9c-0.3,0.1-0.5,0.2-0.7,0.4
	c-0.2,0-0.2,0-0.2,0c0.4,0.8,0.8,1.7,1.1,2.6c0.5,0.9,0.8,1.8,0.9,2.8c0.2,0.4,0.3,0.8,0.3,1.3L87.7,38v0.8C87.5,40,87,41.1,86.1,42
	c-0.8,0.5-1.7,0.8-2.6,0.8h-0.8c-0.7-0.1-1.4-0.3-2-0.6l0,0c0.1,0,0.1,0,0.1,0.1c-0.6-0.2-1.1-0.5-1.5-0.9c-0.6,0-1.2-0.7-1.8-1.9
	c-0.2-0.3-0.2-0.6-0.2-0.9v-0.1c0-0.2,0-0.5,0.2-0.7v-0.1c0-0.5,0.2-1,0.5-1.4c0-0.5,0.5-1.2,1.4-2.3c1-1.4,1.9-2.1,2.5-2.1
	c1-0.7,1.5-1.2,1.5-1.4l-0.8-1.4c-0.1,0-0.4-0.3-0.8-0.9h0.1c-0.4,0.4-0.7,0.8-0.9,1.2c-0.2,0-0.4,0.1-0.6,0.4
	c-0.1,0-0.3,0.2-0.6,0.6c-0.1,0-0.4,0.4-0.9,1.1c-0.6,0.6-1.3,1.1-2.1,1.6c0,0.1-0.2,0.3-0.5,0.4c-0.2,0.3-0.5,0.5-0.8,0.6
	c-0.7,0.8-1.6,1.4-2.5,1.9c-0.3,0.4-0.8,0.7-1.3,0.9c-0.5,0.5-1.1,0.8-1.7,1.1c-0.6,0.4-1.3,0.8-2,1.1c-1.7,0.9-3.6,1.6-5.5,2
	c-0.8,0.2-1.6,0.3-2.4,0.3h-0.2c-0.3,0-0.5-0.1-0.8-0.1c0.1,0,0.1,0,0.1,0.1c-1.4-0.2-2.7-0.8-3.6-1.9c-0.4-0.6-0.6-0.9-0.8-0.9
	v-0.5l0,0c-0.2-0.4-0.3-0.9-0.3-1.3c0-0.1,0-0.3,0.1-0.4l-0.1-0.3c0.2-1,0.6-1.9,1-2.8c0.4-0.4,0.7-0.9,0.9-1.5
	c1.7-1.9,2.7-2.9,3.1-2.9c0.6-0.7,1.4-1.3,2.3-1.7c1-0.6,2.1-0.9,3.3-1c1.8,0.2,2.7,0.7,2.8,1.3c-0.1,0.7-0.4,1-0.8,1
	c-0.2-0.5-0.7-0.8-1.2-0.8h-0.5h-0.9c0-0.1,0-0.2,0.1-0.2c-1,0.4-1.9,0.8-2.6,1.1c-1.7,1.2-3.2,2.6-4.5,4.2
	c-0.2,0.6-0.5,1.3-0.9,1.8c-0.2,0.5-0.4,1-0.5,1.5c0,1.7,0.6,2.7,1.7,3.2c0.5,0.2,1,0.4,1.6,0.5c1.4,0.1,2.8-0.2,4.2-0.6
	c0.9-0.2,1.8-0.5,2.6-0.9c0.4-0.2,0.8-0.4,1.1-0.6c0.5-0.1,1.1-0.4,1.5-0.8l2.4-1.4c0.5-0.5,1-0.9,1.6-1.2c0.5-0.3,0.9-0.6,1.3-1
	l1.5-1.4c0.4,0,1.7-1.1,3.9-3.4c0.5-0.5,0.9-0.9,1.4-1.5c0.1,0,0.2,0,0.2,0c-0.2-0.4-0.4-0.8-0.6-1.1c-0.2-0.4-0.4-0.7-0.7-1
	c-0.5-1-1.1-2.1-1.6-3.2v-0.1l0.1-0.1c-0.2-0.1-0.4-0.6-0.5-1.3c-0.1-0.3-0.2-0.5-0.3-0.5l0.2-0.3c0-0.3-0.1-0.4-0.2-0.4l0.2-1.2
	l-0.1-0.1c0-0.3,0.1-0.6,0.2-0.8l-0.1-0.4c0-0.2,0-0.3,0-0.3s0.2-0.1,0.2-0.3v-0.1c0.3-0.4,0.6-0.9,0.7-1.4c0.4-0.7,0.7-1,1-1
	c0-0.3,0.4-0.7,1.3-1.2l1.8-1c0.2,0.1,0.2,0.2,0.2,0.2v-0.2l0.3,0.2c0.1,0,0.2-0.1,0.3-0.4C84,11.1,84.5,11,85,10.8L85,10.8z"/>
<path class="st1" d="M100.7,29.9v0.6c0,0.1,0.1,0.2,0.2,0.2h0.2c1,0.1,2.5-0.7,4.3-2.2c1.1-1.1,1.7-1.9,1.7-2.5v-0.1
	c0-0.7-0.3-1.1-0.8-1.1c-1.7,0.6-3.3,1.6-4.5,3C101.1,28.4,100.8,29.1,100.7,29.9z M106.3,23.6c0.8,0.1,1.5,0.6,2,1.2
	c0.8,0,1.1,0.3,1.1,0.9c0,0,0.1,0,0.1,0.1c0,0,0,0,0,0c-0.7,1.1-1.1,2.3-1.2,3.6v0.3c0.1,0.5,0.3,0.8,0.4,0.8h0.5c0.8,0,2.2-1,4.1-3
	c0-0.2,0.4-0.5,1.2-1c0.1-0.4,0.3-0.7,0.7-0.9h0.1c0,0.2,0.1,0.4,0.2,0.5c-0.3,1-0.9,1.9-1.5,2.7c-1.9,2.4-3.6,3.5-4.9,3.5
	c-1.3-0.1-2.3-1-2.7-2.3v-0.2h-0.3c-2.1,1.6-3.8,2.4-4.9,2.4h-0.3c-1.1,0-2-0.9-2.2-2V30c0-1.6,1.2-3.1,3.6-4.7l2.4-1.4
	C104.7,23.7,105.3,23.6,106.3,23.6L106.3,23.6z M103.9,24.7l0.2,0.5l-0.3,0.1h-0.5v-0.5L103.9,24.7z M94.7,26.7h-0.1
	c1.4-0.3,2.7-1.2,3.4-2.5v-0.1c0-0.1,0-0.1,0-0.1C97,24.2,95.9,25.1,94.7,26.7L94.7,26.7z M98.1,22.7c0.5,0.1,0.9,0.4,1.2,0.8
	c0,0.7-0.2,1.4-0.6,2c-1.4,1.5-2.6,2.4-3.5,2.5l-1,0.4v0.3c0,0.7,0.6,1,1.8,1.1c0.8,0,1.6-0.2,2.4-0.4c1.3-0.6,2.4-1.5,3.3-2.7
	c0.3-0.7,0.8-1.2,1.4-1.7h0.3c0,0.2,0,0.4,0.2,0.5v0.2c-1.5,3.3-3.7,5.1-6.7,5.5c-0.3,0-0.6,0-0.9,0.1c-1.7-0.1-3.2-1.2-3.6-2.9
	l-0.1-1.3h0.4c0.2-1.1,1.1-2.2,2.8-3.5C96.3,23.1,97.2,22.8,98.1,22.7L98.1,22.7z M72.2,35.9v-0.2l0,0
	C72.2,35.7,72.2,35.8,72.2,35.9z M79,38.7c0,0.9,0.8,1.6,2.3,2.2c0.4,0.2,0.9,0.2,1.4,0.3h0.7c0.8-0.1,1.5-0.5,2-1.1
	c0.2-0.5,0.3-1,0.4-1.5c0,0,0.1-0.2,0.1-0.5v-0.2l-0.1-0.3c0.2,0,0.3,0,0.3,0l-0.4-1.8l0.1-0.1c-0.1-0.2-0.2-0.4-0.2-0.6
	c-0.2-0.3-0.3-0.6-0.4-1c-0.1,0-0.2-0.2-0.2-0.6v-0.1L84,32v0.3c-2.7,2-4.3,3.7-4.7,5C79.1,37.7,79,38.2,79,38.7L79,38.7z
	 M77.9,30.9C77.9,30.9,78,30.9,77.9,30.9l0.4-0.1c0,0.1-0.1,0.2-0.2,0.2v0.1h0.1C77.9,31.1,77.9,31,77.9,30.9L77.9,30.9z M78.8,30.3
	V30h-0.2v0.2H78.8z M83.1,25.8l0.1-0.2L83,25.6l-0.1,0.2L83.1,25.8z M85.7,21.8v-0.2h-0.3v0.2H85.7z M79.2,18.1v1l0.1,0.5l-0.1,0.1
	c0.6,1.9,1.4,3.8,2.4,5.5c0.1,0.2,0.2,0.4,0.3,0.5l0.8-0.7l0,0v0.1h-0.3c0.3-0.4,0.6-0.8,0.9-1.2c0.3-0.6,0.7-1.1,1.3-1.5H85
	c0,0.1,0,0.2,0,0.2h-0.1c0-0.2,0.1-0.3,0.2-0.3v0.1l0,0l-0.2,0.1h-0.3v-0.4c0.5-0.9,0.9-1.3,1-1.3s0.3-0.2,0.5-0.6L86,20.1l0.4-0.2
	v-0.5h0.3v-0.4c0.2-0.5,0.4-1,0.6-1.5c0-0.1,0-0.2,0-0.3c0.1-0.3,0.2-0.4,0.3-0.4c0,0.2,0,0.3-0.1,0.3c0.1-0.5,0.2-1,0.2-1.4
	c0-0.1-0.1-0.2-0.1-0.3c0.1-0.2,0.1-0.4,0.2-0.6c-0.3-1.4-0.7-2-1.2-2.1c0-0.1-0.3-0.2-0.8-0.3c-1.6-0.1-3.3,0.6-5.1,2.2
	C79.8,15.5,79.3,16.8,79.2,18.1L79.2,18.1z M85,10.8l0.3,0.1c0.2,0,0.4-0.1,0.6-0.1H86c1.1,0.3,2,1,2.6,1.9c0.3,1,0.5,1.5,0.5,1.5
	v0.3c0,0.4-0.1,0.7-0.3,1.1L89,16c-0.2,1-0.4,1.9-0.8,2.8c-0.2,0.5-0.4,0.9-0.7,1.3c-0.6,1.2-1.3,2.3-2.1,3.4l-1.2,1.7
	c-0.2,0.4-0.5,0.8-0.9,1.1c0,0.1-0.1,0.4-0.4,0.7c0.5,1,1.1,1.9,1.8,2.7c0.1-0.3,1.3-0.8,3.5-1.5h0.3c0.5-0.4,1.1-0.7,1.7-0.8
	l2.5-1.4c0.3-0.2,0.6-0.4,1-0.5c0.1,0,0.1,0.1,0,0.1c0-0.3,0.4-0.5,1.3-0.6c0.2-0.2,0.5-0.3,0.8-0.3c0-0.1,0.3-0.2,0.8-0.1
	c-0.6,0.8-1.4,1.4-2.3,1.9c-0.9,0.5-1.8,1-2.6,1.6c-0.5,0.2-1,0.5-1.5,0.8c-1.3,0.5-2.6,1.2-3.9,1.9c-0.3,0.1-0.5,0.2-0.7,0.4
	c-0.2,0-0.2,0-0.2,0c0.4,0.8,0.8,1.7,1.1,2.6c0.5,0.9,0.8,1.8,0.9,2.8c0.2,0.4,0.3,0.8,0.3,1.3L87.7,38v0.8C87.5,40,87,41.1,86.1,42
	c-0.8,0.5-1.7,0.8-2.6,0.8h-0.8c-0.7-0.1-1.4-0.3-2-0.6l0,0c0.1,0,0.1,0,0.1,0.1c-0.6-0.2-1.1-0.5-1.5-0.9c-0.6,0-1.2-0.7-1.8-1.9
	c-0.2-0.3-0.2-0.6-0.2-0.9v-0.1c0-0.2,0-0.5,0.2-0.7v-0.1c0-0.5,0.2-1,0.5-1.4c0-0.5,0.5-1.2,1.4-2.3c1-1.4,1.9-2.1,2.5-2.1
	c1-0.7,1.5-1.2,1.5-1.4l-0.8-1.4c-0.1,0-0.4-0.3-0.8-0.9h0.1c-0.4,0.4-0.7,0.8-0.9,1.2c-0.2,0-0.4,0.1-0.6,0.4
	c-0.1,0-0.3,0.2-0.6,0.6c-0.1,0-0.4,0.4-0.9,1.1c-0.6,0.6-1.3,1.1-2.1,1.6c0,0.1-0.2,0.3-0.5,0.4c-0.2,0.3-0.5,0.5-0.8,0.6
	c-0.7,0.8-1.6,1.4-2.5,1.9c-0.3,0.4-0.8,0.7-1.3,0.9c-0.5,0.5-1.1,0.8-1.7,1.1c-0.6,0.4-1.3,0.8-2,1.1c-1.7,0.9-3.6,1.6-5.5,2
	c-0.8,0.2-1.6,0.3-2.4,0.3h-0.2c-0.3,0-0.5-0.1-0.8-0.1c0.1,0,0.1,0,0.1,0.1c-1.4-0.2-2.7-0.8-3.6-1.9c-0.4-0.6-0.6-0.9-0.8-0.9
	v-0.5l0,0c-0.2-0.4-0.3-0.9-0.3-1.3c0-0.1,0-0.3,0.1-0.4l-0.1-0.3c0.2-1,0.6-1.9,1-2.8c0.4-0.4,0.7-0.9,0.9-1.5
	c1.7-1.9,2.7-2.9,3.1-2.9c0.6-0.7,1.4-1.3,2.3-1.7c1-0.6,2.1-0.9,3.3-1c1.8,0.2,2.7,0.7,2.8,1.3c-0.1,0.7-0.4,1-0.8,1
	c-0.2-0.5-0.7-0.8-1.2-0.8h-0.5h-0.9c0-0.1,0-0.2,0.1-0.2c-1,0.4-1.9,0.8-2.6,1.1c-1.7,1.2-3.2,2.6-4.5,4.2
	c-0.2,0.6-0.5,1.3-0.9,1.8c-0.2,0.5-0.4,1-0.5,1.5c0,1.7,0.6,2.7,1.7,3.2c0.5,0.2,1,0.4,1.6,0.5c1.4,0.1,2.8-0.2,4.2-0.6
	c0.9-0.2,1.8-0.5,2.6-0.9c0.4-0.2,0.8-0.4,1.1-0.6c0.5-0.1,1.1-0.4,1.5-0.8l2.4-1.4c0.5-0.5,1-0.9,1.6-1.2c0.5-0.3,0.9-0.6,1.3-1
	l1.5-1.4c0.4,0,1.7-1.1,3.9-3.4c0.5-0.5,0.9-0.9,1.4-1.5c0.1,0,0.2,0,0.2,0c-0.2-0.4-0.4-0.8-0.6-1.1c-0.2-0.4-0.4-0.7-0.7-1
	c-0.5-1-1.1-2.1-1.6-3.2v-0.1l0.1-0.1c-0.2-0.1-0.4-0.6-0.5-1.3c-0.1-0.3-0.2-0.5-0.3-0.5l0.2-0.3c0-0.3-0.1-0.4-0.2-0.4l0.2-1.2
	l-0.1-0.1c0-0.3,0.1-0.6,0.2-0.8l-0.1-0.4c0-0.2,0-0.3,0-0.3s0.2-0.1,0.2-0.3v-0.1c0.3-0.4,0.6-0.9,0.7-1.4c0.4-0.7,0.7-1,1-1
	c0-0.3,0.4-0.7,1.3-1.2l1.8-1c0.2,0.1,0.2,0.2,0.2,0.2v-0.2l0.3,0.2c0.1,0,0.2-0.1,0.3-0.4C84,11.1,84.5,11,85,10.8L85,10.8z"/>
<path class="st2" d="M103.9,7.5c0.3,0.4,0.6,0.8,0.8,1.2c0.2,0.3,0.2,0.3,0.1,0.3h-0.2c-0.2,0-0.3,0-0.5,0c-0.1,0-0.2,0-0.4-0.3
	s-0.5-0.6-0.7-0.8c-0.1-0.1-0.3-0.2-0.4-0.3c-0.2,0-0.5,0-0.7,0c-0.5,0-1.5,0-2.1,0c-0.2,0-0.5,0-0.7,0.1c0,0-0.1,0-0.1,0.6
	s0,1.6,0,2.1c0,0.2,0,0.5,0.1,0.7c0,0.1,0,0.1,0.5,0.1s1.3,0,1.8,0c0.3,0,0.5,0,0.8-0.1c0.2-0.1,0.3-0.2,0.3-0.4
	c0.1-0.2,0.2-0.4,0.2-0.5c0-0.1,0.1-0.2,0.2-0.2c0.1,0,0.1,0,0.2,0c0,0,0.1,0,0.1,0.3s0,0.6,0,0.9c0,0.2,0,0.4,0,0.7
	c0,0.2,0,0.6,0,0.9s0,0.3-0.1,0.3c-0.1,0-0.1,0-0.2,0c-0.1,0-0.2-0.1-0.2-0.2c-0.1-0.1-0.1-0.4-0.2-0.5c-0.1-0.2-0.2-0.3-0.3-0.4
	c-0.3-0.1-0.5-0.1-0.8-0.1c-0.5,0-1.4,0-1.8,0s-0.4,0.1-0.5,0.1c-0.1,0.2-0.1,0.5-0.1,0.7c0,0.6,0,1.6,0,2.1s0,0.5,0.1,0.6
	c0.2,0.1,0.5,0.1,0.7,0.1c0.5,0,1.5,0,2.1,0c0.2,0,0.5,0,0.7,0c0.2,0,0.3-0.1,0.4-0.3c0.2-0.2,0.5-0.6,0.7-0.8s0.2-0.2,0.4-0.3
	c0.2,0,0.3,0,0.5,0h0.2c0,0,0,0-0.1,0.3c-0.2,0.4-0.5,0.8-0.8,1.2c-0.2,0.2-0.5,0.4-0.8,0.4c-0.3,0-0.6,0-1.6,0H97
	c-0.1,0-0.2,0-0.2,0c0-0.1,0-0.2,0-0.3c0-0.1,0-0.1,0.1-0.1c0.1-0.1,0.2-0.2,0.3-0.3c0.1-0.1,0.1-0.2,0.2-0.4c0-0.3,0-0.5,0-0.8
	c0-0.6,0-1.6,0-2.1c0-0.3,0-0.7,0-1c0-0.5,0-1.5,0-2.1c0-0.3,0-0.5,0-0.8c0-0.1-0.1-0.3-0.2-0.4c-0.1-0.1-0.2-0.2-0.3-0.3
	c-0.1-0.1-0.1-0.1-0.1-0.1c0-0.1,0-0.2,0-0.3c0-0.1,0.1,0,0.2,0h4.6c1,0,1.4,0,1.6,0C103.5,7.2,103.8,7.3,103.9,7.5"/>
<path class="st2" d="M106.3,15c-0.3,0-0.6,0.3-0.6,0.6c0,0.3,0.3,0.6,0.6,0.6c0.3,0,0.6-0.3,0.6-0.6v0C106.9,15.3,106.7,15,106.3,15
	"/>
<path class="st2" d="M108.1,16.2C108,16.2,108,16.2,108.1,16.2c-0.1-0.1-0.1-0.2-0.1-0.3c0-0.1,0-0.1,0.1-0.2l0.3-0.2
	c0.2-0.2,0.3-0.3,0.5-0.5c0.1-0.1,0.1-0.2,0.1-0.3v-1.3c0-1.1,0-3.3,0-4.4s0-1.2-0.1-1.2c-0.1,0-0.1-0.1-0.2-0.1
	c-0.1,0-0.1-0.1-0.1-0.1c0-0.1,0-0.2,0-0.3c0-0.1,0-0.1,0.1-0.1h2.6c0,0,0,0,0.5,0.8l1.9,3c0.5,0.8,0.5,0.8,0.8,0l1.5-3l0.4-0.8h2.4
	c0,0.5,0,0.9,0,1.4c0,1.4,0,4.2,0,5.6s0,1.4,0,1.5l0.2,0.1c0.1,0,0.1,0.1,0.1,0.1c0,0.1,0,0.2,0,0.3c0,0.1,0,0.1-0.6,0.1h-2.9
	c0,0-0.1,0-0.1-0.1c0-0.1,0-0.1,0-0.2c0-0.1,0.1-0.1,0.1-0.1c0.1-0.1,0.2-0.1,0.2-0.2c0.1-0.1,0.1-0.2,0.1-0.3
	c0-0.1,0.1-0.2,0.1-0.2c0-0.3,0-0.7,0-1v-3.4c0-0.9,0-1.2,0-1.3s0-0.1-0.4,0.9s-1.3,3.1-1.7,4.2c-0.1,0.4-0.3,0.8-0.5,1.1
	c0,0,0,0-0.1,0h-0.5c0,0,0,0-0.6-1s-1.6-2.9-2.1-3.9s-0.5-1-0.5-1c0,0.3,0,0.5,0,0.8c0,0.8,0,2.5,0,3.4v0.9c0,0,0,0.1,0,0.1
	c0.1,0.1,0.2,0.2,0.3,0.3l0.5,0.4c0.1,0.1,0.1,0.1,0.1,0.1c0,0,0,0.1,0,0.1c0,0.1,0,0.3,0,0.3c0,0.1,0,0.1,0,0.1h-2.5L108.1,16.2"/>
<path class="st2" d="M120.7,15c-0.3,0-0.6,0.3-0.6,0.6c0,0.3,0.3,0.6,0.6,0.6c0.3,0,0.6-0.3,0.6-0.6v0C121.3,15.3,121.1,15,120.7,15
	"/>
</svg>
