<?xml version="1.0" encoding="utf-8"?>
<!-- Generator: Adobe Illustrator 21.0.0, SVG Export Plug-In . SVG Version: 6.00 Build 0)  -->
<svg version="1.1" id="Capa_1" xmlns="http://www.w3.org/2000/svg" xmlns:xlink="http://www.w3.org/1999/xlink" x="0px" y="0px"
	 viewBox="0 0 124.9 37.1" style="enable-background:new 0 0 124.9 37.1;" xml:space="preserve">
<style type="text/css">
	.st0{fill:#3D3D3D;}
	.st1{fill:none;stroke:#3D3D3D;stroke-width:0.22;stroke-miterlimit:22.93;}
	.st2{fill:#CCCCCC;}
</style>
<title>Mesa de trabajo 1</title>
<path class="st0" d="M108.5,22.2v0.6c0,0.1,0.1,0.2,0.2,0.2c0,0,0,0,0,0h0.2c1.2,0,2.7-0.8,4.7-2.5c1.2-1.1,1.8-2,1.8-2.6v-0.1
	c0-0.7-0.3-1-0.9-1c-1.9,0.7-3.6,1.8-5,3.3C109,20.7,108.6,21.4,108.5,22.2z M114.7,15.5c0.8,0.1,1.6,0.4,2.2,1
	c0.8,0,1.3,0.3,1.3,0.8c0,0,0.1,0,0.1,0.1c0,0,0,0,0,0c-0.8,1.1-1.2,2.4-1.3,3.7v0.3c0.1,0.5,0.3,0.8,0.5,0.8h0.6
	c0.9,0,2.4-1.1,4.5-3.3c0-0.1,0.5-0.5,1.3-1c0.1-0.4,0.4-0.7,0.8-1h0.1c0,0.2,0.1,0.4,0.2,0.5c-0.4,1-1,2-1.7,2.8
	c-2.1,2.5-3.9,3.8-5.4,3.8c-1.3,0-2.5-0.8-3-2.1v-0.2h-0.3c-2.3,1.8-4.1,2.7-5.5,2.7h-0.3c-1.1,0.1-2.2-0.7-2.4-1.8v-0.2
	c0-1.6,1.3-3.2,3.9-4.9l2.7-1.5C113,15.8,113.5,15.6,114.7,15.5L114.7,15.5z M112,16.8l0.2,0.4l-0.4,0.2h-0.6V17L112,16.8z
	 M101.9,19.4h-0.1c1.6-0.4,2.9-1.3,3.8-2.7v-0.1c0-0.1,0-0.1,0-0.1C104.4,16.7,103.2,17.7,101.9,19.4z M105.7,15.2
	c0.5,0.1,1,0.3,1.3,0.7c0,0.7-0.2,1.4-0.6,2c-1.6,1.6-2.8,2.5-3.8,2.7l-1.1,0.5v0.3c0,0.7,0.7,1,1.9,1c0.9-0.1,1.8-0.3,2.6-0.5
	c1.4-0.7,2.7-1.7,3.6-2.9c0.4-0.7,0.9-1.3,1.5-1.7h0.4c0,0.2,0.1,0.4,0.2,0.5v0.2c-1.6,3.3-4.1,5.3-7.3,5.9c-0.3,0-0.7,0.1-1,0.1
	c-1.8,0.2-3.5-1-4-2.7L99.3,20h0.4c0.2-1.1,1.2-2.3,3.1-3.7C103.6,15.7,104.6,15.4,105.7,15.2L105.7,15.2z M87.8,16.4
	c0.6,0,1,0.3,1,0.7v0.1c0,0.5-0.2,1-0.5,1.4v0.1h0.1c0.8-0.9,1.8-1.6,2.9-2c0-0.1,0.3-0.3,0.9-0.5h0.6c1.3,0,2,0.7,2.1,2.1
	c-0.1,0.2-0.2,0.4-0.3,0.6l0.1,0.1c-0.3,0.8-0.5,1.7-0.5,2.6v0.5c0,0.1,0.1,0.1,0.3,0.2h0.2c1.5-0.3,3-1,4.3-1.9
	c1-0.7,2-1.5,2.8-2.5c0.2-0.3,0.5-0.6,0.8-0.7c0.2-0.1,0.3,0,0.5,0.1c0.2,0.1,0,0.4-0.3,0.9c-0.8,1.1-1.7,2.2-2.7,3.1
	c-1,0.8-2.1,1.5-3.3,2.1c-0.6,0.3-1.1,0.4-1.7,0.5c-1.7-0.2-2.6-0.7-2.8-1.7c-0.1-0.1-0.1-0.3-0.1-0.5c0.2-1.2,0.4-2.4,0.9-3.6
	L93,17.7c0-0.1-0.1-0.2-0.2-0.2c0,0,0,0,0,0h-0.3c-1,0.7-2,1.4-2.9,2.2c-0.1,0-0.3,0.3-0.7,0.8c-0.6,0.5-1.1,1.1-1.5,1.8
	c-0.2,0-0.4,0.5-0.6,1.3c-0.3,0.6-0.7,1.2-1.2,1.7c0,0-0.1,0.1-0.3,0.1c-0.8-0.1-1.2-0.4-1.2-0.8v-0.1c0.2-1.4,0.7-2.9,1.4-4.2
	c0.7-1.2,1.3-2.4,1.8-3.7C87.4,16.5,87.6,16.4,87.8,16.4L87.8,16.4z M79.1,16.5h0.2c0.3,0,0.6,0.1,0.8,0.4v0.3
	c-0.9,1.3-1.5,2.9-1.6,4.5v1c0,0.4,0.2,0.8,0.6,1h0.8c0.9,0,2.3-0.9,4.5-2.6c0.2,0,0.4-0.2,0.6-0.5c0.9-0.7,1.8-1.5,2.6-2.4
	c0.1,0,0.2-0.2,0.3-0.5c0.3-0.2,0.5-0.3,0.9-0.4h0.1c0.1,0,0.2,0.1,0.2,0.2c-0.7,1.8-1.8,3.5-3.3,4.8c-1.4,1.3-3.1,2.4-4.9,2.9
	l-1,0.2c-2.2-0.2-3.3-1.2-3.3-2.9c-0.1,0-0.1-0.2-0.2-0.5c0.5-2.3,1.2-3.8,2.1-4.6L79.1,16.5z M84.4,9.4l1,0.2v0.3
	c-0.2,0.7-1.3,1.6-3.2,2.7c-0.6,0.4-1.4,0.7-2.1,0.8c-0.7-0.1-1-0.4-1-0.9s1-1.2,3.1-2C82.9,10,83.6,9.7,84.4,9.4L84.4,9.4z
	 M79.8,17.9L79.8,17.9l0.2-0.3l0,0l0,0C80,17.6,79.9,17.8,79.8,17.9L79.8,17.9z M73,14.5h0.4c1,0.1,1.5,0.5,1.5,1.1v0.2
	c-0.4,1.5-1,2.2-1.6,2.2c-0.5,0-1-0.3-1.1-0.8c0.2-0.4,0.3-0.7,0.4-1.1c-0.5,0.1-1.8,1.1-3.8,3c-0.4,0.7-0.8,1.4-1,2.2v0.6
	c0,0.6,0.7,0.8,2.1,0.8c3.3-0.3,6.3-1.9,8.5-4.5c0.6-0.3,1.2-0.7,1.7-1.2h0.3l0.1,0.9c-0.1,0-0.6,0.5-1.3,1.5
	c-0.2,0-0.7,0.5-1.7,1.6c-2.1,2-5,3.2-7.9,3.2h-0.5c-1.6,0.1-3-0.9-3.4-2.5v-0.3c0-1.4,0.9-2.8,2.7-4.2C70.8,15.5,72.4,14.5,73,14.5
	L73,14.5z M59.6,15.6l0.2,0.1c1.9-0.8,3.5-2.1,4.7-3.8c0.7-0.8,1.3-1.8,1.6-2.8V8.6c-0.6,0-1.8,0.9-3.5,2.7
	C60.7,13.5,59.7,14.9,59.6,15.6L59.6,15.6z M65.9,7.4c1,0,1.6,0.4,1.6,1.1c-0.1,1.6-0.8,3.1-1.8,4.3c-1.2,1.5-2.7,2.8-4.5,3.7
	c-2.1,0.8-3.1,1.3-3.1,1.6c-0.5,1.1-0.7,2.4-0.8,3.6l0.1,0.8c0.1,0.7,0.5,1,1.3,1h0.4c1.5-0.1,3-0.6,4.3-1.5c1-0.6,2-1.2,2.8-2
	c0.6-0.7,1.4-1.3,2.2-1.9l0.9-1.2c0.3,0.1,0.4,0.2,0.4,0.3c-0.6,1.8-1.8,3.4-3.3,4.4c-2.5,2.2-4.8,3.3-7,3.3h-0.5
	c-1.5,0-2.8-0.9-3.3-2.2l-0.1-1c0-1.1,0.3-2.3,0.9-3.3c-0.1-0.5,0-1.1,0.1-1.6c0.1-0.4,0.4-0.6,0.6-0.6c0-0.2,0.3-0.7,0.8-1.4
	c0-0.7,0.8-1.8,2.4-3.5C62.9,8.8,64.7,7.4,65.9,7.4L65.9,7.4z M44.9,16.6c0.4,0,0.7,0.1,1,0.4c-0.5,1-1,1.9-1.7,2.8
	c-0.3,0.8-0.5,1.6-0.6,2.4c0.1,0.3,0.3,0.4,0.4,0.4c0.6,0,1.9-0.7,3.8-2.1c1-0.9,2.1-2,3.4-3.4c0.4-0.1,0.8-0.2,1.1-0.2h0.2
	c0.1,0,0.2,0.1,0.4,0.4c-0.3,0.5-0.7,1-1.1,1.4c-0.4,0.6-0.8,1.3-1,2.1v0.8c0,0.1,0.2,0.2,0.5,0.4c0.9,0,2.8-1.3,5.7-4
	c0.4-0.5,0.9-0.9,1.4-1.2h0.1c0.1,0,0.2,0.1,0.2,0.2c-0.5,1.3-1.8,3-3.9,5.1c-1,0.9-2.2,1.4-3.5,1.5h-0.1c-1.1,0-2-0.7-2.6-2.1
	c-2,1.8-3.3,2.7-3.9,2.7c-0.4,0.1-0.7,0.2-1.1,0.2c-1.1,0-1.7-0.6-2-1.9v-0.1c0-1.7,0.9-3.5,2.6-5.3C44.5,16.8,44.7,16.7,44.9,16.6
	L44.9,16.6z M5.5,33.9L5.5,33.9L5.7,34v-0.1H5.5z M9.9,32.5v0.2h0.4v-0.2H9.9z M19.1,29.4v0.2h0.2v-0.2H19.1z M14.4,15.9v0.2h0.2
	v-0.3C14.4,15.8,14.4,15.8,14.4,15.9z M14.7,15.3v0.2h0.2v-0.2H14.7z M15.5,9.1L15.5,9.1l0.3,0.1V9.1L15.5,9.1z M20.9,6.6v0.2h0.2
	V6.6H20.9z M10.7,26.3v0.1c0.1,0,0.2,0,0.2,0.1c-0.1,0.3-0.3,0.6-0.6,0.8c0.1,0.1,0.1,0.2,0.1,0.2c-0.1,0.1-0.2,0.1-0.4,0.1v0.2
	c0,0,0,0.1,0.1,0.1c0,0,0,0,0,0c-0.8,1.3-1.5,2.6-2.1,4v0.1c2.1-0.1,4.2-0.5,6.2-1.1c0,0,0,0.1,0.1,0.1c0,0,0,0,0,0
	c0-0.1,0.6-0.4,1.8-0.7c0-0.2,0.2-0.2,0.7-0.2h0.5c0-0.1,0.6-0.4,1.7-0.9c0-0.1,0.5-0.3,1.3-0.5c0.3-0.2,1.6-0.9,3.9-2
	c1-0.7,2.1-1.3,3.2-1.9c1-0.5,2.1-1.2,3.3-2c0.5-0.3,1-0.6,1.4-1c4-3.1,6.6-5.6,7.7-7.8c0.2-0.1,0.4-0.8,0.7-2.3
	c0.1,0,0.1,0,0.1-0.1s-0.1-0.2-0.2-0.2l0.1-0.2c-0.2-2.3-1.8-3.8-5-4.7c-1.3-0.4-2.6-0.5-3.9-0.5h-0.3c-3.2,0-6.4,0.6-9.5,1.6
	c-0.7,0.4-1.4,0.7-2.2,1c-0.4,0.4-0.6,0.8-0.6,1.3c-0.2,0-0.8,1.4-2,4.1c-0.6,1.1-1.2,2.2-1.6,3.3c-0.2,0-0.5,0.6-0.9,1.8
	c-0.6,1-1.2,2.1-1.7,3.3l-0.8,1.6c-0.7,0.9-1,1.5-1,1.8C11,26,10.8,26.1,10.7,26.3z M31.8,4.5c0.2,0.1,0.4,0.1,0.6,0.2
	c0.2,0,0.3-0.1,0.3-0.1C34.2,4.7,35.6,5,37,5.5l2.4,1.1l1.4,1.2l1.2,1.5l-0.1,0.1v0.2c0.2,0.4,0.4,0.8,0.5,1.2
	c0.1,2.3-0.8,4.5-2.3,6.3c0,0.3-1.8,2-5.3,5c-1,0.6-1.9,1.2-2.7,2c-1.3,0.7-2.6,1.5-3.8,2.4c-2,1.2-4.1,2.2-6.3,3.2
	c-3.1,1.5-6.4,2.7-9.8,3.6c-1.7,0.2-2.6,0.4-2.8,0.4l-0.2-0.1c-0.7,0.1-1.5,0.2-2.3,0.2H6.9c-0.5,0.6-1,1.3-1.3,2
	c-0.5,0.2-1,0.6-1.2,1.1c-0.1,0.1-0.2,0.1-0.4,0.1v-0.2c0.3-0.5,0.5-1.1,0.7-1.7l0.2,0.1h0.2c0.1,0,0.2-0.3,0.3-1v-0.3
	c0-0.1-0.2-0.2-0.7-0.4c-0.1,0.1-0.3,0.2-0.5,0.2c-0.9-0.3-1.8-0.6-2.6-1c0-0.1-0.2-0.2-0.6-0.4c-0.5-0.3-0.8-0.8-0.9-1.4h0.2
	c0,0.2,0.4,0.5,1.2,0.8c0,0.2,0.5,0.4,1.5,0.6c0,0.1,0.1,0.2,0.3,0.3c0.2,0,0.4-0.1,0.5-0.2l0.5,0.1c0.2,0,0.4-0.1,0.5-0.2
	c0.1,0.2,0.2,0.3,0.3,0.3h0.2c0-0.3,0.3-0.4,1.1-0.4c0.1-0.5,0.3-0.7,0.7-0.7v-0.2C7.1,31.1,7,31,7,31c0-0.1,0.2-0.2,0.5-0.5v-0.1
	c0-0.1,0-0.1-0.1-0.1s0.2-0.3,0.6-0.6l-0.1-0.4c0.4-0.8,0.8-1.2,1-1.2v-0.5h0.5v-0.2H9.1v-0.3l0.5,0.1h0.1V27l-0.2-0.3
	c0.1-0.3,0.2-0.4,0.4-0.4v-0.1c0-0.1-0.1-0.2-0.1-0.3c0-0.2,0.2-0.4,0.5-0.5c0.1-0.1,0.1-0.2,0.1-0.3c-0.1-0.1-0.1-0.2-0.1-0.3h0.5
	c0.1,0,0.2,0,0.2-0.1c-0.1,0-0.2-0.1-0.2-0.2c0,0,0,0,0,0v-0.1h0.2V24l0.1-0.1c-0.1,0-0.2-0.1-0.2-0.2s0.2-0.3,0.7-0.4v-0.1H11v-0.2
	c0.7-0.4,1.1-1.1,1.3-1.9h0.1V21c0-0.1-0.1-0.2-0.1-0.3c0-0.2,0.1-0.2,0.3-0.2l-0.1-0.2c0.4-1.4,0.8-2,1.2-2l0-0.2
	c-0.1,0-0.2-0.1-0.3-0.2v-0.1c0.3,0,0.5-0.1,0.5-0.3v-0.1h-0.3l0.9-2.3c0.4-0.1,0.6-0.3,0.6-0.8h-0.1c0-0.2,0.1-0.3,0.4-0.3
	c0-0.1-0.1-0.2-0.1-0.3c0.3-1,0.7-1.9,1.3-2.8c0.4-0.4,0.6-0.7,0.6-0.9h-0.4c-1.4,0.9-2.8,1.7-4.3,2.4l-3.9,2.6
	c-1.2,1-2.4,2-3.5,3.1c-0.1,0.1-0.5,0.8-1.3,2c-0.1,0-0.2,0-0.2,0.1c-0.6-0.2-0.9-0.4-0.9-0.8s0.4-1.2,1.2-2.2
	c0.7-1,1.5-1.8,2.5-2.4c2.7-2.5,4.9-3.9,6.6-4.3h0.4c0-0.4,0.3-0.6,1-0.6c0-0.2,0.4-0.4,1-0.8c0-0.1,0.2-0.2,0.6-0.3l0.4,0.1L17.4,8
	h0.5c0.1-0.4,0.2-0.7,0.4-1c0.2-1.1,0.5-1.6,0.9-1.6c0.8,0,1.2,0.3,1.3,0.8v0.2v0.4l0.2,0.1c0.1-0.1,0.2-0.3,0.2-0.5h0.5
	c0.2-0.1,0.4-0.2,0.6-0.2h0.2c0,0.1,0.1,0.2,0.2,0.2c0-0.4,0.4-0.6,1.2-0.6c0-0.1,0.1-0.1,0.3-0.1c0.1,0,0.2,0.1,0.3,0.1
	c0-0.2,0.6-0.5,1.8-0.8l0.2,0.1h0.5c0.4-0.3,1.6-0.5,3.6-0.5h0.3c0.3,0,0.7,0,1,0.1C31.5,4.6,31.7,4.5,31.8,4.5L31.8,4.5z"/>
<path class="st1" d="M108.5,22.2v0.6c0,0.1,0.1,0.2,0.2,0.2c0,0,0,0,0,0h0.2c1.2,0,2.7-0.8,4.7-2.5c1.2-1.1,1.8-2,1.8-2.6v-0.1
	c0-0.7-0.3-1-0.9-1c-1.9,0.7-3.6,1.8-5,3.3C109,20.7,108.6,21.4,108.5,22.2z M114.7,15.5c0.8,0.1,1.6,0.4,2.2,1
	c0.8,0,1.3,0.3,1.3,0.8c0,0,0.1,0,0.1,0.1c0,0,0,0,0,0c-0.8,1.1-1.2,2.4-1.3,3.7v0.3c0.1,0.5,0.3,0.8,0.5,0.8h0.6
	c0.9,0,2.4-1.1,4.5-3.3c0-0.1,0.5-0.5,1.3-1c0.1-0.4,0.4-0.7,0.8-1h0.1c0,0.2,0.1,0.4,0.2,0.5c-0.4,1-1,2-1.7,2.8
	c-2.1,2.5-3.9,3.8-5.4,3.8c-1.3,0-2.5-0.8-3-2.1v-0.2h-0.3c-2.3,1.8-4.1,2.7-5.5,2.7h-0.3c-1.1,0.1-2.2-0.7-2.4-1.8v-0.2
	c0-1.6,1.3-3.2,3.9-4.9l2.7-1.5C113,15.8,113.5,15.6,114.7,15.5L114.7,15.5z M112,16.8l0.2,0.4l-0.4,0.2h-0.6V17L112,16.8z
	 M101.9,19.4h-0.1c1.6-0.4,2.9-1.3,3.8-2.7v-0.1c0-0.1,0-0.1,0-0.1C104.4,16.7,103.2,17.7,101.9,19.4z M105.7,15.2
	c0.5,0.1,1,0.3,1.3,0.7c0,0.7-0.2,1.4-0.6,2c-1.6,1.6-2.8,2.5-3.8,2.7l-1.1,0.5v0.3c0,0.7,0.7,1,1.9,1c0.9-0.1,1.8-0.3,2.6-0.5
	c1.4-0.7,2.7-1.7,3.6-2.9c0.4-0.7,0.9-1.3,1.5-1.7h0.4c0,0.2,0.1,0.4,0.2,0.5v0.2c-1.6,3.3-4.1,5.3-7.3,5.9c-0.3,0-0.7,0.1-1,0.1
	c-1.8,0.2-3.5-1-4-2.7L99.3,20h0.4c0.2-1.1,1.2-2.3,3.1-3.7C103.6,15.7,104.6,15.4,105.7,15.2L105.7,15.2z M87.8,16.4
	c0.6,0,1,0.3,1,0.7v0.1c0,0.5-0.2,1-0.5,1.4v0.1h0.1c0.8-0.9,1.8-1.6,2.9-2c0-0.1,0.3-0.3,0.9-0.5h0.6c1.3,0,2,0.7,2.1,2.1
	c-0.1,0.2-0.2,0.4-0.3,0.6l0.1,0.1c-0.3,0.8-0.5,1.7-0.5,2.6v0.5c0,0.1,0.1,0.1,0.3,0.2h0.2c1.5-0.3,3-1,4.3-1.9
	c1-0.7,2-1.5,2.8-2.5c0.2-0.3,0.5-0.6,0.8-0.7c0.2-0.1,0.3,0,0.5,0.1c0.2,0.1,0,0.4-0.3,0.9c-0.8,1.1-1.7,2.2-2.7,3.1
	c-1,0.8-2.1,1.5-3.3,2.1c-0.6,0.3-1.1,0.4-1.7,0.5c-1.7-0.2-2.6-0.7-2.8-1.7c-0.1-0.1-0.1-0.3-0.1-0.5c0.2-1.2,0.4-2.4,0.9-3.6
	L93,17.7c0-0.1-0.1-0.2-0.2-0.2c0,0,0,0,0,0h-0.3c-1,0.7-2,1.4-2.9,2.2c-0.1,0-0.3,0.3-0.7,0.8c-0.6,0.5-1.1,1.1-1.5,1.8
	c-0.2,0-0.4,0.5-0.6,1.3c-0.3,0.6-0.7,1.2-1.2,1.7c0,0-0.1,0.1-0.3,0.1c-0.8-0.1-1.2-0.4-1.2-0.8v-0.1c0.2-1.4,0.7-2.9,1.4-4.2
	c0.7-1.2,1.3-2.4,1.8-3.7C87.4,16.5,87.6,16.4,87.8,16.4L87.8,16.4z M79.1,16.5h0.2c0.3,0,0.6,0.1,0.8,0.4v0.3
	c-0.9,1.3-1.5,2.9-1.6,4.5v1c0,0.4,0.2,0.8,0.6,1h0.8c0.9,0,2.3-0.9,4.5-2.6c0.2,0,0.4-0.2,0.6-0.5c0.9-0.7,1.8-1.5,2.6-2.4
	c0.1,0,0.2-0.2,0.3-0.5c0.3-0.2,0.5-0.3,0.9-0.4h0.1c0.1,0,0.2,0.1,0.2,0.2c-0.7,1.8-1.8,3.5-3.3,4.8c-1.4,1.3-3.1,2.4-4.9,2.9
	l-1,0.2c-2.2-0.2-3.3-1.2-3.3-2.9c-0.1,0-0.1-0.2-0.2-0.5c0.5-2.3,1.2-3.8,2.1-4.6L79.1,16.5z M84.4,9.4l1,0.2v0.3
	c-0.2,0.7-1.3,1.6-3.2,2.7c-0.6,0.4-1.4,0.7-2.1,0.8c-0.7-0.1-1-0.4-1-0.9s1-1.2,3.1-2C82.9,10,83.6,9.7,84.4,9.4L84.4,9.4z
	 M79.8,17.9L79.8,17.9l0.2-0.3l0,0l0,0C80,17.6,79.9,17.8,79.8,17.9L79.8,17.9z M73,14.5h0.4c1,0.1,1.5,0.5,1.5,1.1v0.2
	c-0.4,1.5-1,2.2-1.6,2.2c-0.5,0-1-0.3-1.1-0.8c0.2-0.4,0.3-0.7,0.4-1.1c-0.5,0.1-1.8,1.1-3.8,3c-0.4,0.7-0.8,1.4-1,2.2v0.6
	c0,0.6,0.7,0.8,2.1,0.8c3.3-0.3,6.3-1.9,8.5-4.5c0.6-0.3,1.2-0.7,1.7-1.2h0.3l0.1,0.9c-0.1,0-0.6,0.5-1.3,1.5
	c-0.2,0-0.7,0.5-1.7,1.6c-2.1,2-5,3.2-7.9,3.2h-0.5c-1.6,0.1-3-0.9-3.4-2.5v-0.3c0-1.4,0.9-2.8,2.7-4.2C70.8,15.5,72.4,14.5,73,14.5
	L73,14.5z M59.6,15.6l0.2,0.1c1.9-0.8,3.5-2.1,4.7-3.8c0.7-0.8,1.3-1.8,1.6-2.8V8.6c-0.6,0-1.8,0.9-3.5,2.7
	C60.7,13.5,59.7,14.9,59.6,15.6L59.6,15.6z M65.9,7.4c1,0,1.6,0.4,1.6,1.1c-0.1,1.6-0.8,3.1-1.8,4.3c-1.2,1.5-2.7,2.8-4.5,3.7
	c-2.1,0.8-3.1,1.3-3.1,1.6c-0.5,1.1-0.7,2.4-0.8,3.6l0.1,0.8c0.1,0.7,0.5,1,1.3,1h0.4c1.5-0.1,3-0.6,4.3-1.5c1-0.6,2-1.2,2.8-2
	c0.6-0.7,1.4-1.3,2.2-1.9l0.9-1.2c0.3,0.1,0.4,0.2,0.4,0.3c-0.6,1.8-1.8,3.4-3.3,4.4c-2.5,2.2-4.8,3.3-7,3.3h-0.5
	c-1.5,0-2.8-0.9-3.3-2.2l-0.1-1c0-1.1,0.3-2.3,0.9-3.3c-0.1-0.5,0-1.1,0.1-1.6c0.1-0.4,0.4-0.6,0.6-0.6c0-0.2,0.3-0.7,0.8-1.4
	c0-0.7,0.8-1.8,2.4-3.5C62.9,8.8,64.7,7.4,65.9,7.4L65.9,7.4z M44.9,16.6c0.4,0,0.7,0.1,1,0.4c-0.5,1-1,1.9-1.7,2.8
	c-0.3,0.8-0.5,1.6-0.6,2.4c0.1,0.3,0.3,0.4,0.4,0.4c0.6,0,1.9-0.7,3.8-2.1c1-0.9,2.1-2,3.4-3.4c0.4-0.1,0.8-0.2,1.1-0.2h0.2
	c0.1,0,0.2,0.1,0.4,0.4c-0.3,0.5-0.7,1-1.1,1.4c-0.4,0.6-0.8,1.3-1,2.1v0.8c0,0.1,0.2,0.2,0.5,0.4c0.9,0,2.8-1.3,5.7-4
	c0.4-0.5,0.9-0.9,1.4-1.2h0.1c0.1,0,0.2,0.1,0.2,0.2c-0.5,1.3-1.8,3-3.9,5.1c-1,0.9-2.2,1.4-3.5,1.5h-0.1c-1.1,0-2-0.7-2.6-2.1
	c-2,1.8-3.3,2.7-3.9,2.7c-0.4,0.1-0.7,0.2-1.1,0.2c-1.1,0-1.7-0.6-2-1.9v-0.1c0-1.7,0.9-3.5,2.6-5.3C44.5,16.8,44.7,16.7,44.9,16.6
	L44.9,16.6z M5.5,33.9L5.5,33.9L5.7,34v-0.1H5.5z M9.9,32.5v0.2h0.4v-0.2H9.9z M19.1,29.4v0.2h0.2v-0.2H19.1z M14.4,15.9v0.2h0.2
	v-0.3C14.4,15.8,14.4,15.8,14.4,15.9z M14.7,15.3v0.2h0.2v-0.2H14.7z M15.5,9.1L15.5,9.1l0.3,0.1V9.1L15.5,9.1z M20.9,6.6v0.2h0.2
	V6.6H20.9z M10.7,26.3v0.1c0.1,0,0.2,0,0.2,0.1c-0.1,0.3-0.3,0.6-0.6,0.8c0.1,0.1,0.1,0.2,0.1,0.2c-0.1,0.1-0.2,0.1-0.4,0.1v0.2
	c0,0,0,0.1,0.1,0.1c0,0,0,0,0,0c-0.8,1.3-1.5,2.6-2.1,4v0.1c2.1-0.1,4.2-0.5,6.2-1.1c0,0,0,0.1,0.1,0.1c0,0,0,0,0,0
	c0-0.1,0.6-0.4,1.8-0.7c0-0.2,0.2-0.2,0.7-0.2h0.5c0-0.1,0.6-0.4,1.7-0.9c0-0.1,0.5-0.3,1.3-0.5c0.3-0.2,1.6-0.9,3.9-2
	c1-0.7,2.1-1.3,3.2-1.9c1-0.5,2.1-1.2,3.3-2c0.5-0.3,1-0.6,1.4-1c4-3.1,6.6-5.6,7.7-7.8c0.2-0.1,0.4-0.8,0.7-2.3
	c0.1,0,0.1,0,0.1-0.1s-0.1-0.2-0.2-0.2l0.1-0.2c-0.2-2.3-1.8-3.8-5-4.7c-1.3-0.4-2.6-0.5-3.9-0.5h-0.3c-3.2,0-6.4,0.6-9.5,1.6
	c-0.7,0.4-1.4,0.7-2.2,1c-0.4,0.4-0.6,0.8-0.6,1.3c-0.2,0-0.8,1.4-2,4.1c-0.6,1.1-1.2,2.2-1.6,3.3c-0.2,0-0.5,0.6-0.9,1.8
	c-0.6,1-1.2,2.1-1.7,3.3l-0.8,1.6c-0.7,0.9-1,1.5-1,1.8C11,26,10.8,26.1,10.7,26.3z M31.8,4.5c0.2,0.1,0.4,0.1,0.6,0.2
	c0.2,0,0.3-0.1,0.3-0.1C34.2,4.7,35.6,5,37,5.5l2.4,1.1l1.4,1.2l1.2,1.5l-0.1,0.1v0.2c0.2,0.4,0.4,0.8,0.5,1.2
	c0.1,2.3-0.8,4.5-2.3,6.3c0,0.3-1.8,2-5.3,5c-1,0.6-1.9,1.2-2.7,2c-1.3,0.7-2.6,1.5-3.8,2.4c-2,1.2-4.1,2.2-6.3,3.2
	c-3.1,1.5-6.4,2.7-9.8,3.6c-1.7,0.2-2.6,0.4-2.8,0.4l-0.2-0.1c-0.7,0.1-1.5,0.2-2.3,0.2H6.9c-0.5,0.6-1,1.3-1.3,2
	c-0.5,0.2-1,0.6-1.2,1.1c-0.1,0.1-0.2,0.1-0.4,0.1v-0.2c0.3-0.5,0.5-1.1,0.7-1.7l0.2,0.1h0.2c0.1,0,0.2-0.3,0.3-1v-0.3
	c0-0.1-0.2-0.2-0.7-0.4c-0.1,0.1-0.3,0.2-0.5,0.2c-0.9-0.3-1.8-0.6-2.6-1c0-0.1-0.2-0.2-0.6-0.4c-0.5-0.3-0.8-0.8-0.9-1.4h0.2
	c0,0.2,0.4,0.5,1.2,0.8c0,0.2,0.5,0.4,1.5,0.6c0,0.1,0.1,0.2,0.3,0.3c0.2,0,0.4-0.1,0.5-0.2l0.5,0.1c0.2,0,0.4-0.1,0.5-0.2
	c0.1,0.2,0.2,0.3,0.3,0.3h0.2c0-0.3,0.3-0.4,1.1-0.4c0.1-0.5,0.3-0.7,0.7-0.7v-0.2C7.1,31.1,7,31,7,31c0-0.1,0.2-0.2,0.5-0.5v-0.1
	c0-0.1,0-0.1-0.1-0.1s0.2-0.3,0.6-0.6l-0.1-0.4c0.4-0.8,0.8-1.2,1-1.2v-0.5h0.5v-0.2H9.1v-0.3l0.5,0.1h0.1V27l-0.2-0.3
	c0.1-0.3,0.2-0.4,0.4-0.4v-0.1c0-0.1-0.1-0.2-0.1-0.3c0-0.2,0.2-0.4,0.5-0.5c0.1-0.1,0.1-0.2,0.1-0.3c-0.1-0.1-0.1-0.2-0.1-0.3h0.5
	c0.1,0,0.2,0,0.2-0.1c-0.1,0-0.2-0.1-0.2-0.2c0,0,0,0,0,0v-0.1h0.2V24l0.1-0.1c-0.1,0-0.2-0.1-0.2-0.2s0.2-0.3,0.7-0.4v-0.1H11v-0.2
	c0.7-0.4,1.1-1.1,1.3-1.9h0.1V21c0-0.1-0.1-0.2-0.1-0.3c0-0.2,0.1-0.2,0.3-0.2l-0.1-0.2c0.4-1.4,0.8-2,1.2-2l0-0.2
	c-0.1,0-0.2-0.1-0.3-0.2v-0.1c0.3,0,0.5-0.1,0.5-0.3v-0.1h-0.3l0.9-2.3c0.4-0.1,0.6-0.3,0.6-0.8h-0.1c0-0.2,0.1-0.3,0.4-0.3
	c0-0.1-0.1-0.2-0.1-0.3c0.3-1,0.7-1.9,1.3-2.8c0.4-0.4,0.6-0.7,0.6-0.9h-0.4c-1.4,0.9-2.8,1.7-4.3,2.4l-3.9,2.6
	c-1.2,1-2.4,2-3.5,3.1c-0.1,0.1-0.5,0.8-1.3,2c-0.1,0-0.2,0-0.2,0.1c-0.6-0.2-0.9-0.4-0.9-0.8s0.4-1.2,1.2-2.2
	c0.7-1,1.5-1.8,2.5-2.4c2.7-2.5,4.9-3.9,6.6-4.3h0.4c0-0.4,0.3-0.6,1-0.6c0-0.2,0.4-0.4,1-0.8c0-0.1,0.2-0.2,0.6-0.3l0.4,0.1L17.4,8
	h0.5c0.1-0.4,0.2-0.7,0.4-1c0.2-1.1,0.5-1.6,0.9-1.6c0.8,0,1.2,0.3,1.3,0.8v0.2v0.4l0.2,0.1c0.1-0.1,0.2-0.3,0.2-0.5h0.5
	c0.2-0.1,0.4-0.2,0.6-0.2h0.2c0,0.1,0.1,0.2,0.2,0.2c0-0.4,0.4-0.6,1.2-0.6c0-0.1,0.1-0.1,0.3-0.1c0.1,0,0.2,0.1,0.3,0.1
	c0-0.2,0.6-0.5,1.8-0.8l0.2,0.1h0.5c0.4-0.3,1.6-0.5,3.6-0.5h0.3c0.3,0,0.7,0,1,0.1C31.5,4.6,31.7,4.5,31.8,4.5L31.8,4.5z"/>
<path class="st2" d="M102.1,0.4c0.3,0.4,0.6,0.8,0.8,1.2c0.2,0.3,0.2,0.3,0.1,0.3h-0.2c-0.2,0-0.3,0-0.5,0c-0.1,0-0.2,0-0.4-0.3
	s-0.5-0.6-0.7-0.8c-0.1-0.1-0.3-0.2-0.4-0.3c-0.2,0-0.5,0-0.7,0c-0.5,0-1.5,0-2.1,0c-0.2,0-0.5,0-0.7,0.1c0,0-0.1,0-0.1,0.6
	s0,1.6,0,2.1c0,0.2,0,0.5,0.1,0.7c0,0.1,0,0.1,0.5,0.1s1.3,0,1.8,0c0.3,0,0.5,0,0.8-0.1c0.2-0.1,0.3-0.2,0.3-0.4
	c0.1-0.2,0.2-0.4,0.2-0.5c0-0.1,0.1-0.2,0.2-0.2c0.1,0,0.1,0,0.2,0c0,0,0.1,0,0.1,0.3s0,0.6,0,0.9c0,0.2,0,0.4,0,0.7
	c0,0.2,0,0.6,0,0.9s0,0.3-0.1,0.3c-0.1,0-0.1,0-0.2,0c-0.1,0-0.2-0.1-0.2-0.2c-0.1-0.1-0.1-0.4-0.2-0.5c-0.1-0.2-0.2-0.3-0.3-0.4
	c-0.3-0.1-0.5-0.1-0.8-0.1c-0.5,0-1.4,0-1.8,0S97.4,5,97.4,5c-0.1,0.2-0.1,0.5-0.1,0.7c0,0.6,0,1.6,0,2.1s0,0.5,0.1,0.6
	c0.2,0.1,0.5,0.1,0.7,0.1c0.5,0,1.5,0,2.1,0c0.2,0,0.5,0,0.7,0c0.2,0,0.3-0.1,0.4-0.3c0.2-0.2,0.5-0.6,0.7-0.8s0.2-0.2,0.4-0.3
	c0.2,0,0.3,0,0.5,0h0.2c0,0,0,0-0.1,0.3c-0.2,0.4-0.5,0.8-0.8,1.2c-0.2,0.2-0.5,0.4-0.8,0.4c-0.3,0-0.6,0-1.6,0h-4.6
	c-0.1,0-0.2,0-0.2,0c0-0.1,0-0.2,0-0.3c0-0.1,0-0.1,0.1-0.1c0.1-0.1,0.2-0.2,0.3-0.3c0.1-0.1,0.1-0.2,0.2-0.4c0-0.3,0-0.5,0-0.8
	c0-0.6,0-1.6,0-2.1c0-0.3,0-0.7,0-1c0-0.5,0-1.5,0-2.1c0-0.3,0-0.5,0-0.8c0-0.1-0.1-0.3-0.2-0.4c-0.1-0.1-0.2-0.2-0.3-0.3
	c-0.1-0.1-0.1-0.1-0.1-0.1c0-0.1,0-0.2,0-0.3c0-0.1,0.1,0,0.2,0h4.6c1,0,1.4,0,1.6,0C101.6,0,101.9,0.1,102.1,0.4"/>
<path class="st2" d="M104.5,7.8c-0.3,0-0.6,0.3-0.6,0.6c0,0.3,0.3,0.6,0.6,0.6c0.3,0,0.6-0.3,0.6-0.6v0
	C105.1,8.1,104.8,7.8,104.5,7.8"/>
<path class="st2" d="M106.3,9.1C106.2,9.1,106.2,9.1,106.3,9.1c-0.1-0.1-0.1-0.2-0.1-0.3c0-0.1,0-0.1,0.1-0.2l0.3-0.2
	c0.2-0.2,0.3-0.3,0.5-0.5c0.1-0.1,0.1-0.2,0.1-0.3V6.4c0-1.1,0-3.3,0-4.4s0-1.2-0.1-1.2c-0.1,0-0.1-0.1-0.2-0.1
	c-0.1,0-0.1-0.1-0.1-0.1c0-0.1,0-0.2,0-0.3c0-0.1,0-0.1,0.1-0.1h2.6c0,0,0,0,0.5,0.8l1.9,3c0.5,0.8,0.5,0.8,0.8,0l1.5-3l0.4-0.8h2.5
	c0,0.5,0,0.9,0,1.4c0,1.4,0,4.2,0,5.6s0,1.4,0,1.5l0.2,0.1c0.1,0,0.1,0.1,0.1,0.1c0,0.1,0,0.2,0,0.3c0,0.1,0,0.1-0.6,0.1h-2.9
	c0,0-0.1,0-0.1-0.1c0-0.1,0-0.1,0-0.2c0-0.1,0.1-0.1,0.1-0.1c0.1-0.1,0.2-0.1,0.2-0.2c0.1-0.1,0.1-0.2,0.1-0.3
	c0-0.1,0.1-0.2,0.1-0.2c0-0.3,0-0.7,0-1V3.5c0-0.9,0-1.2,0-1.3s0-0.1-0.4,0.9s-1.3,3.1-1.7,4.2c-0.1,0.4-0.3,0.8-0.5,1.1
	c0,0,0,0-0.1,0h-0.5c0,0,0,0-0.6-1s-1.6-2.9-2.1-3.9s-0.5-1-0.5-1c0,0.3,0,0.5,0,0.8c0,0.8,0,2.5,0,3.4v0.9c0,0,0,0.1,0,0.1
	c0.1,0.1,0.2,0.2,0.3,0.3l0.5,0.4c0.1,0.1,0.1,0.1,0.1,0.1c0,0,0,0.1,0,0.1c0,0.1,0,0.3,0,0.3s0,0.1,0,0.1h-2.5L106.3,9.1"/>
<path class="st2" d="M118.9,7.8c-0.3,0-0.6,0.3-0.6,0.6c0,0.3,0.3,0.6,0.6,0.6c0.3,0,0.6-0.3,0.6-0.6v0
	C119.5,8.1,119.2,7.8,118.9,7.8"/>
</svg>
