<?xml version="1.0" encoding="utf-8"?>
<!-- Generator: Adobe Illustrator 21.0.0, SVG Export Plug-In . SVG Version: 6.00 Build 0)  -->
<svg version="1.1" id="Capa_1" xmlns="http://www.w3.org/2000/svg" xmlns:xlink="http://www.w3.org/1999/xlink" x="0px" y="0px"
	 viewBox="0 0 145.5 46.9" style="enable-background:new 0 0 145.5 46.9;" xml:space="preserve">
<style type="text/css">
	.st0{fill:#3D3D3D;}
	.st1{fill:none;stroke:#3D3D3D;stroke-width:0.22;stroke-miterlimit:22.93;}
	.st2{fill:#CCCCCC;}
</style>
<title>Mesa de trabajo 1</title>
<path class="st0" d="M105.6,33.6v0.6c0,0.1,0.1,0.2,0.2,0.2h0.2c1.1,0,2.7-0.8,4.5-2.5c1.2-1.2,1.8-2.1,1.8-2.7v-0.1
	c0-0.7-0.3-1.1-0.8-1.1c-1.9,0.7-3.5,1.9-4.8,3.4C106.1,32,105.7,32.8,105.6,33.6z M111.6,26.6c0.8,0.1,1.6,0.5,2.1,1.2
	c0.8,0,1.2,0.3,1.2,0.9c0.1,0,0.1,0,0.1,0.1c-0.8,1.2-1.2,2.5-1.3,4V33c0.1,0.6,0.3,0.9,0.5,0.9h0.5c0.9,0,2.3-1.1,4.4-3.4
	c0-0.2,0.4-0.5,1.3-1.1c0.1-0.4,0.4-0.8,0.8-1h0.1c0,0.2,0.1,0.4,0.2,0.6c-0.4,1.1-0.9,2.1-1.7,3c-2.1,2.6-3.8,3.9-5.2,3.9
	c-1.4-0.1-2.5-1-2.9-2.3v-0.2h-0.3c-2.3,1.8-4,2.7-5.3,2.7h-0.3c-1.2,0-2.1-0.9-2.3-2v-0.2c0-1.7,1.3-3.4,3.8-5.2l2.6-1.6
	C109.9,26.8,110.5,26.7,111.6,26.6L111.6,26.6z M93.7,27c0.6,0.1,0.9,0.3,1,0.7v0.2c0,0.6-0.1,1.1-0.5,1.5v0.1h0.1
	c0.7-0.9,1.7-1.6,2.8-2.1c0-0.1,0.3-0.3,0.8-0.5h0.5c1.2,0,1.9,0.8,2,2.3c-0.1,0.2-0.2,0.4-0.3,0.6l0.1,0.2
	c-0.3,0.9-0.5,1.9-0.5,2.8v0.6c0,0.1,0.1,0.1,0.3,0.2h0.2c1.5-0.3,2.9-1,4.2-1.9c1-0.7,1.9-1.6,2.7-2.6c0.2-0.3,0.5-0.6,0.8-0.8
	c0.2-0.1,0.3,0,0.5,0.1c0.1,0.1,0,0.4-0.3,1c-0.7,1.2-1.6,2.3-2.7,3.2c-1,0.8-2,1.6-3.2,2.2c-0.5,0.3-1.1,0.4-1.7,0.5
	c-1.7-0.2-2.6-0.9-2.7-1.9c-0.1-0.2-0.1-0.3-0.1-0.5c0.2-1.3,0.4-2.6,0.8-3.8l-0.1-0.6c0-0.1-0.1-0.2-0.2-0.2h-0.3
	c-1,0.7-1.9,1.5-2.8,2.3c-0.1,0-0.3,0.3-0.7,0.9c-0.2,0.1-0.7,0.7-1.4,1.9c-0.2,0-0.4,0.5-0.6,1.4c-0.3,0.7-0.7,1.3-1.2,1.8
	c0,0-0.1,0.1-0.3,0.2c-0.8-0.2-1.2-0.5-1.2-0.9v-0.1c0.2-1.5,0.7-3,1.3-4.4c0.7-1.3,1.3-2.6,1.8-4C93.3,27.1,93.5,27,93.7,27
	L93.7,27z M85.3,26.8h0.2c0.3,0,0.6,0.2,0.8,0.5v0.3c-0.9,1.4-1.4,3.1-1.6,4.8v1c0,0.4,0.2,0.8,0.6,1h0.8c0.8,0,2.3-0.9,4.4-2.6
	c0.2,0,0.4-0.2,0.6-0.5c0.9-0.8,1.7-1.6,2.5-2.5c0.1,0,0.2-0.2,0.3-0.5c0.2-0.2,0.5-0.3,0.8-0.4h0.1c0.1,0,0.2,0.1,0.2,0.2
	c-0.7,1.9-1.8,3.6-3.2,5.1c-1.3,1.4-2.9,2.4-4.7,3l-0.9,0.2c-2.2-0.3-3.3-1.4-3.3-3.3c-0.1,0-0.1-0.2-0.2-0.6c0.5-2.4,1.1-4,2-4.9
	L85.3,26.8z M90.4,19.4l1,0.2v0.3c-0.2,0.7-1.2,1.6-3.1,2.8c-0.6,0.4-1.3,0.7-2,0.8c-0.6-0.1-0.9-0.4-0.9-1c0-0.6,1-1.2,3-2
	C89,20,89.7,19.7,90.4,19.4L90.4,19.4z M143,18.8h-0.4v-0.5h0.5L143,18.8z M140.6,18.3c0,0,0,0.1,0,0.2l0.8-0.2h-1.1H140.6z
	 M128.3,18.4c0-0.5,0.2-0.8,0.5-0.8h0.5v0.5l-0.3,0.6C128.8,18.6,128.6,18.5,128.3,18.4L128.3,18.4z M145.3,18.4
	c0.1-0.1,0-0.1-0.3-0.1l0,0h0.2L145.3,18.4L145.3,18.4z M142.1,18.1L142.1,18.1c0,0.1,0,0.2-0.2,0.3l0,0
	C141.7,18.3,141.8,18.2,142.1,18.1L142.1,18.1z M140.1,18.3c-0.3-0.1-0.4-0.2-0.4-0.5h0.4V18.3z M139.7,18.3h-0.4v-0.5h0.4V18.3z
	 M138.5,17.7v0.8h-0.8v-0.8H138.5z M135.2,17.9h-0.4v-0.5h0.4V17.9z M79.5,12.8L80,13l0.5-0.1c0.2,0.2,0.4,0.5,0.4,0.8
	c0,0.4-0.6,1.7-1.9,3.7c0,0.2,0.1,0.3,0.3,0.3h1.5c2.6-0.3,5.3-0.5,8-0.6l1.5-0.2l0.5-0.1c0.5,0.1,0.9,0.1,1.4,0.2
	c0.6-0.2,1.2-0.3,1.8-0.3c0.3,0.1,0.6,0.1,0.9,0.1h0.4c0.1,0,0.3,0,0.4-0.1l0.2,0.1c0.5-0.1,0.9-0.2,1.4-0.2c0.4,0,0.8,0.1,1.1,0.3
	c0.2-0.1,0.5-0.2,0.8-0.2h1.1c0.1,0,0.3,0,0.4-0.1c0.1,0.1,0.2,0.1,0.4,0.1h0.7c0.2,0,0.5,0,0.7-0.1c0.2,0.1,0.5,0.1,0.8,0.1
	c-0.9,0.1-0.4,0.1,1.5,0.2c0,0,0,0,0.2,0c0.2-0.1,0.3-0.2,0.5-0.2l1.6,0.1v-0.1l0.7,0.2l3.1-0.1l0.6,0.1l1.2-0.2l0.1,0.2l1.2-0.1
	h1.2c0.1,0,0.2,0,0.2,0.1s0,0,0-0.1l1-0.1c0.4,0.1,0.8,0.1,1.2,0.1v0.4l-0.6-0.4h0.6c0.3,0,0.5,0,0.8-0.1l0.2,0.1l1.4-0.2l0.4,0.2
	c0.1,0,0.2,0,0.3-0.1c0.1,0,0.2,0,0.2,0.1c0.5-0.1,1-0.1,1.5-0.1l1.9,0l0.6-0.1c0.1,0.1,0.2,0.1,0.2,0.2c0.3,0,0.6-0.1,0.8-0.2
	l0.5,0.2c0.1-0.1,0.3,0,0.4,0.1l0,0v0.3h0.3c0.1-0.4,0.1-0.6,0.2-0.6l2.2,0.1l0.4,0.7h0.5c0.1-0.2,0.1-0.4,0.1-0.5c0,0,0,0,0,0.1
	l-0.2-0.2c0.5,0.1,0.9,0.3,1.3,0.7c0.2,0,0.3-0.1,0.3-0.3H131l0.2-0.2h0.3c0,0.5,0.3,0.8,0.6,0.8c0-0.4-0.3-0.6-0.9-0.6h1.5
	l-0.1,0.5h0.3c0.3,0,0.5-0.1,0.7-0.3c0.2,0,0.5,0.2,0.6,0.4l0.3-0.2l-0.1-0.3v-0.1v0.1c0,0,0.3,0.1,0.8,0.4h0.4
	c0-0.2,0.2-0.4,0.6-0.5c0.1,0.1,0.3,0.1,0.4,0.1c-0.1,0.1-0.1,0.1,0.2,0.1c0-0.1,0.1,0,0.3,0.1c0.1,0,0.3-0.1,0.4-0.1h0.3
	c0,0,0,0,0.1-0.2h0.4c0,0.1,0,0.2,0,0.4l0.2,0.2c-0.2,0-0.5-0.1-0.6-0.3v-0.1L138,18c-0.3,0.1-0.7,0.2-1,0.3h-0.5
	c-0.3,0-0.6,0-0.9-0.1l-0.4,0.2c-0.3-0.1-0.7-0.1-1-0.1h-0.1c-0.4,0.3-0.7,0.3-0.7,0.1c-0.2-0.1-0.4-0.2-0.6-0.2
	c-0.1,0.1-0.3,0.2-0.4,0.2l-0.5-0.2v0.2h-0.6v-0.2h-0.2c-0.1,0.1-0.6,0.2-1.3,0.3c0-0.1-0.1-0.1-0.4-0.1h-0.2
	c-0.4,0.1-0.9,0.2-1.3,0.2l-0.7-0.1l-0.3,0.2l-0.5-0.1c-0.4,0-0.8,0.1-1.2,0.2c-0.9-0.2-1.3-0.3-1.4-0.5h-0.2
	c-0.2,0.2-0.3,0.3-0.4,0.3c-0.2-0.1-0.4-0.2-0.6-0.2h-0.1c-0.5,0.1-0.9,0.3-1.3,0.5l-0.2-0.1l-2.1-0.1c-0.3,0-0.5,0-0.8,0.1
	c-0.1-0.1-0.3-0.1-0.4-0.1c-0.4,0-0.5,0-0.5,0.1c-0.2-0.1-0.4-0.2-0.7-0.2h-0.6c-0.3,0-0.5,0.1-0.7,0.2H115c-0.3,0-0.6-0.1-0.8-0.2
	l-1.3,0.3c-0.1,0-0.2-0.1-0.3-0.1c-1.9,0.1-3.5,0.1-4.8,0.1h-0.4c-0.3,0-0.6,0-0.8,0.1l-0.4-0.2l-2.7,0.1l-0.5-0.1
	c-0.2,0.1-0.3,0.2-0.3,0.2l-0.9-0.1h-1.3c-0.5,0-0.9,0.1-1.4,0.2c-0.2,0-0.3,0-0.4-0.1l-3.2,0.1l-0.6-0.1c-0.3,0.1-0.6,0.2-0.9,0.2
	L93,18.8c-4,0.1-9.1,0.4-15.4,0.9c-9.4,0.8-0.1,0.4-0.6,1.1c-0.4,1.1-0.9,2.1-1.5,3.1c-1.2,3.4-1.8,5.2-1.8,5.4c0,0.1,0,0.2,0.1,0.3
	c-0.2,0.7-0.3,1.5-0.3,2.3v1c0,0.8,0.7,1.4,1.6,1.4c1,0,2.9-0.8,5.6-2.5c0.7-0.4,1.5-0.9,2.1-1.5c1-1.1,2-2.3,2.8-3.5l0.1,0.2
	c-0.1,0.9-0.4,1.7-0.8,2.5c-2,2.3-3.4,3.7-4.2,4c-0.5,0.5-1.1,0.9-1.8,1.2c-1.2,0.9-2.5,1.4-4,1.5c-1.1-0.1-2.1-0.6-2.8-1.5
	c0-0.4-0.2-0.8-0.5-1.1l0.1-0.2v-0.2c0-0.3-0.1-0.6-0.3-0.8v-0.2l0.2-0.3v-0.6c0-0.3,0-0.7,0.1-1c-0.1-0.1-0.1-0.2-0.1-0.3
	c0.2-1.3,0.6-2.5,1.1-3.7c0-0.7,0.3-1.4,0.8-2c0.1-0.8,0.4-1.5,0.8-2.1c0.3-0.5,0.5-1,0.6-1.6c-0.1,0-0.2,0-0.3-0.1l-8,1.3
	c-0.4-0.2-0.8-0.6-1-1l0.1-0.5l0.2-0.5c5.1-1,8.6-1.5,10.6-1.7c0.7-0.8,1.1-1.6,1.4-2.6C78.6,14.6,79.1,13.7,79.5,12.8L79.5,12.8z
	 M59.3,26c0.6,0.1,0.9,0.3,1,0.7v0.2c0,0.6-0.1,1.1-0.5,1.5v0.1h0.1c0.7-0.9,1.7-1.6,2.8-2.1c0-0.1,0.3-0.3,0.8-0.5h0.6
	c1.2,0,1.9,0.8,2,2.3c-0.1,0.2-0.2,0.4-0.3,0.6L66,29c-0.3,0.9-0.5,1.9-0.5,2.8v0.6c0,0.1,0.1,0.1,0.3,0.2H66c1.5-0.3,2.9-1,4.2-1.9
	c1-0.7,1.9-1.6,2.7-2.6c0.2-0.3,0.5-0.6,0.8-0.8c0.2-0.1,0.3,0,0.5,0.1c0.1,0.1,0,0.4-0.3,1c-0.7,1.2-1.6,2.3-2.6,3.2
	c-1,0.8-2,1.6-3.2,2.2c-0.5,0.3-1.1,0.4-1.7,0.5c-1.7-0.2-2.6-0.9-2.7-1.9c-0.1-0.2-0.1-0.3-0.1-0.5c0.2-1.3,0.4-2.6,0.8-3.8
	l-0.1-0.6c0-0.1-0.1-0.2-0.2-0.2h-0.3c-1,0.7-1.9,1.5-2.8,2.3c-0.1,0-0.3,0.3-0.7,0.9c-0.2,0.1-0.7,0.7-1.4,1.9
	c-0.2,0-0.4,0.5-0.6,1.4c-0.3,0.7-0.7,1.3-1.2,1.8c0,0-0.1,0.1-0.3,0.2c-0.8-0.2-1.2-0.5-1.2-0.9v-0.1c0.2-1.6,0.7-3.1,1.3-4.5
	c0.7-1.3,1.3-2.6,1.8-4C58.9,26.1,59.1,26,59.3,26L59.3,26z M60.4,26.5l0.2,0.5l-0.4,0.2h-0.6v-0.5L60.4,26.5z M50.6,29h-0.1
	c1.6-0.4,2.9-1.4,3.7-2.8v-0.1c0-0.1,0-0.1,0-0.1C53,26.2,51.8,27.2,50.6,29L50.6,29z M54.3,24.6c0.5,0.1,1,0.4,1.3,0.8
	c0,0.8-0.2,1.5-0.6,2.1c-1.5,1.7-2.8,2.6-3.7,2.8l-1,0.5v0.3c0,0.7,0.6,1.1,1.9,1.1c0.9-0.1,1.7-0.2,2.5-0.5c0.8-0.3,2-1.3,3.5-3
	c0.4-0.7,0.9-1.3,1.5-1.8H60c0,0.2,0.1,0.4,0.2,0.5v0.2c-1.6,3.6-4,5.6-7.1,6.1c-0.3,0-0.7,0-1,0.1c-1.8,0-3.4-1.2-3.9-3l-0.1-1.4
	h0.4c0.2-1.2,1.2-2.4,3-3.9C52.3,25.1,53.3,24.7,54.3,24.6L54.3,24.6z M41.9,24.6l0.2,0.1c1.9-0.9,3.5-2.2,4.6-3.9
	c0.7-0.9,1.3-1.9,1.5-3v-0.5c-0.6,0-1.7,0.9-3.4,2.8C43,22.4,42.1,23.9,41.9,24.6L41.9,24.6z M48.1,16c1,0,1.5,0.5,1.6,1.2
	c-0.1,1.7-0.7,3.2-1.7,4.6c-1.2,1.6-2.6,2.9-4.3,3.9c-2,0.8-3,1.3-3,1.7c-0.5,1.2-0.7,2.5-0.8,3.9l0.1,0.8c0,0.6,0.5,1.2,1.2,1.2
	c0,0,0.1,0,0.1,0h0.4c1.5,0,2.9-0.6,4.1-1.5c1-0.6,1.9-1.3,2.7-2.1c0.6-0.7,1.3-1.4,2.1-1.9l0.9-1.3c0.3,0.1,0.4,0.2,0.4,0.3
	c-0.5,1.9-1.7,3.5-3.2,4.7c-2.4,2.3-4.7,3.4-6.8,3.4h-0.5c-1.5,0-2.8-1.1-3.3-2.5l-0.1-1.1c0-1.2,0.3-2.4,0.9-3.5
	c-0.1-0.6,0-1.1,0.1-1.7c0.1-0.4,0.4-0.6,0.6-0.6c0-0.2,0.3-0.7,0.8-1.5c0-0.7,0.8-1.9,2.3-3.6C45.2,17.4,47,16,48.1,16L48.1,16z
	 M25.1,31.2v0.6c0,0.1,0.1,0.2,0.2,0.2h0.2c1.1,0,2.6-0.8,4.5-2.5c1.2-1.2,1.8-2.1,1.8-2.7v-0.1c0-0.7-0.3-1.1-0.8-1.1
	c-1.9,0.7-3.5,1.9-4.8,3.4C25.6,29.6,25.3,30.4,25.1,31.2L25.1,31.2z M31.1,24.2c0.8,0.1,1.6,0.5,2.1,1.2c0.8,0,1.2,0.3,1.2,0.9
	c0.1,0,0.1,0,0.1,0.1c-0.8,1.2-1.2,2.5-1.3,4v0.3c0.1,0.6,0.3,0.9,0.5,0.9h0.6c0.9,0,2.3-1.1,4.4-3.4c0-0.2,0.4-0.5,1.3-1.1
	c0.1-0.4,0.4-0.8,0.8-1h0.1c0,0.2,0.1,0.4,0.2,0.6c-0.4,1.1-0.9,2.1-1.6,3c-2.1,2.6-3.8,3.9-5.2,3.9c-1.4-0.1-2.5-1-2.9-2.3v-0.2H31
	c-2.3,1.8-4,2.8-5.3,2.7h-0.3c-1.2,0-2.1-0.9-2.3-2v-0.2c0-1.7,1.3-3.4,3.8-5.2l2.6-1.6C29.5,24.5,30.1,24.3,31.1,24.2L31.1,24.2z
	 M18.1,31v-0.2h-0.3V31H18.1z M19,28.8L19,28.8l0,0.2h0.1L19,28.8z M20.6,25.7L20.6,25.7L20.6,25.7l-0.1,0.1l0,0L20.6,25.7z
	 M22.8,20.8L22.8,20.8h-0.1l0,0C22.7,20.8,22.7,20.8,22.8,20.8L22.8,20.8z M23.9,18.6c0,0,0-0.1,0-0.1h-0.2v0.1H23.9z M24.6,16.9
	c0,0.1,0,0.2-0.1,0.2L24.6,16.9L24.6,16.9c-0.1,0.1,0.1,0.1,0.1,0.1L24.6,16.9z M25.3,15.7L25.3,15.7L25.3,15.7L25.3,15.7L25.3,15.7
	z M26.8,12.3H27c0.2,0,0.3,0.1,0.3,0.3c0,0,0,0,0,0v0.3H27c-0.2,0-0.4-0.2-0.4-0.5L26.8,12.3z M2.4,10L2.4,10c0.4,0,0.8,0.3,1.2,0.8
	v1.6c0,0.3-0.3,2.7-0.8,7.3c0,0.1,0,0.2,0.1,0.2L2.6,24H3c-0.3,0.4-0.4,1.5-0.4,3.4v0.3c0,0.5,0,0.8-0.1,0.8c0,0.2,0.1,0.3,0.2,0.3
	c-0.1,0.1-0.1,0.3-0.2,0.4c0,0.7-0.1,1.4-0.2,2.1c0,0.3,0.1,0.6,0.1,0.9c0,0.1,0,0.2-0.1,0.4l0.2,1.7c-0.1,0.1-0.1,0.2-0.1,0.4
	c0-0.1,0.1-0.1,0.2-0.1l-0.2,0.4c0.4,4.6,0.7,7,1,7c0.1,1.2,0.7,2.3,1.7,2.9c0.3,0.1,0.6,0.1,0.9,0.1c1.4,0,3.3-1.6,5.7-4.9
	c1.3-1.8,2.4-3.5,3.3-5.1c0.3-0.7,0.7-1.4,1.2-2c0.1,0,0.1,0,0.1,0.1c-0.1-0.1-0.1-0.2-0.1-0.3l1.1-2.1c0.3,0,0.5-0.1,0.5-0.4
	c-0.1,0-0.1-0.1-0.1-0.4c0.4-0.4,0.6-0.9,0.5-1.5c0.2,0,0.4-0.2,0.5-0.7c0.4-0.8,0.6-1.2,0.8-1.2h-0.1v-0.2c0-0.2,0.1-0.4,0.3-0.4
	c0,0.2,0,0.3-0.1,0.3c0.1-0.7,0.5-1.4,1-2c0.2-1.2,0.8-2.4,1.6-3.4v0.7H22c0,0,0,0.1,0,0.1c0-0.1,0-0.3,0-0.4c0.1,0,0.2,0,0.2-0.1
	v0.2h-0.3v-0.4l0.4-0.4c0-0.1,0-0.2,0-0.3c0.4-0.3,0.7-0.7,0.9-1.2c0.1,0,0.1,0,0.1,0s0-0.2-0.1-0.5s0.3-0.7,0.5-0.7h-0.1
	c0.2-0.3,0.3-0.6,0.6-0.9c0-0.4,0.3-0.6,0.8-0.7l0.3,0.1v0.1c-0.3,0-0.4-0.1-0.4-0.4c0-0.2,0-0.2,0-0.2v-0.2v-0.3l0.6-0.3l0.3,0.1
	v0.3c-0.1-0.1-0.2-0.2-0.2-0.4c0-0.1,0.1-0.1,0.1-0.1H25c0.4-0.4,0.6-0.9,0.7-1.4c0.2,0,0.4-0.1,0.6-0.2v0.3h-0.1v0.1h-0.3v-0.7
	c0.2,0,0.2,0,0.2,0v-0.1c0.1-0.4,0.4-0.6,0.8-0.5v0.6l0,0c0.2,0.1,0.3,0.2,0.4,0.4v0.3c-0.2,0-0.4,0.1-0.5,0.3c0,0.1,0,0.2,0,0.3
	c0,0.8-0.1,1.1-0.4,1.1v0.2c-0.1,0.3-0.2,0.6-0.5,0.8c0,0.4-0.2,0.7-0.5,0.9v0.5c-0.4,0.7-0.6,1.4-0.8,2.1c-0.3,0.2-0.5,0.2-0.5,0.1
	s0.1,0.1,0.1,0.5c-0.1,0-0.2,0.1-0.3,0.2l0.1,0.2l-0.2,0.6c0,0.1,0,0.3,0,0.4c-0.4,0.5-0.7,1.1-0.8,1.7l-0.4,0.5v0.5
	c-0.3,0-0.8,0.7-1.3,2.2c-0.1,0.4-0.2,0.7-0.4,1c-0.3,0.5-0.5,1.1-0.6,1.8l-2.2,4.4c-0.2,0-0.7,1-1.5,2.9c-1.5,2.4-2.6,4-3.3,5
	c-0.5,0.5-1,1.1-1.4,1.7c-0.2,0-0.4,0.3-0.7,0.9c-0.6,0.3-1.2,0.8-1.7,1.3c-1,0.6-2.2,1-3.3,1.1H5.6c-0.8-0.1-1.4-0.5-2-1
	c-0.6,0-1-0.4-1.2-1.1c-0.4-0.3-0.7-0.7-0.7-1.3c0-0.1,0.1-0.1,0.1-0.1c-0.2,0-0.3-0.3-0.3-0.8c-0.4-0.9-0.7-1.8-0.7-2.8L1,39.5
	l-0.4-0.6c0-0.1,0-0.2,0.1-0.4c0-0.4-0.1-0.8-0.1-1.1v-0.3c0,0-0.1,0-0.2,0c0.1-0.7,0.1-1,0-1v-1.4c0-0.2-0.1-0.4-0.2-0.6v-0.7
	c0.1-0.1,0.2-0.2,0.2-0.2c0-0.7-0.1-1.3-0.3-2C0.3,31,0.3,31,0.3,31H0.2l0.2-0.4v-0.5l0.1-0.5l-0.2-0.4c0.1-0.3,0.2-0.6,0.3-0.9
	c0-0.4-0.1-0.7-0.1-1.1V27c0-0.1,0.1-0.3,0.2-0.3l0,0l0.1-0.3l-0.4-0.6c0.2,0,0.3,0,0.4-0.1l-0.1-0.4c0.1-0.3,0.1-0.5,0.2-0.8
	c-0.1-0.1-0.1-0.3-0.1-0.4c0.1-0.1,0.2-0.3,0.2-0.5l-0.2-0.1l0.2-1.1l-0.2-0.1c0-0.4,0.1-0.9,0.2-1.3l-0.1-0.2v-0.5l0.3-0.5
	c-0.1-0.2-0.1-0.4-0.1-0.5c0.2-1.5,0.3-2.9,0.3-4.4c0.1,0,0.2-0.2,0.3-0.6c0-0.3-0.1-0.6-0.3-0.9c0.1-0.4,0.2-0.9,0.2-1.3v-0.1
	c0-0.3,0-0.6-0.1-0.9c0.3-0.6,0.7-0.8,1.1-0.8L2.4,10z M27.7,9.8l0.4,0.6v0.3c-0.1,0-0.2,0-0.4,0v0.5c-0.3,0-0.4,0.1-0.4,0.3h-0.7
	c0.5-1.1,0.8-1.7,1.2-1.7L27.7,9.8z"/>
<path class="st1" d="M105.6,33.6v0.6c0,0.1,0.1,0.2,0.2,0.2h0.2c1.1,0,2.7-0.8,4.5-2.5c1.2-1.2,1.8-2.1,1.8-2.7v-0.1
	c0-0.7-0.3-1.1-0.8-1.1c-1.9,0.7-3.5,1.9-4.8,3.4C106.1,32,105.7,32.8,105.6,33.6z M111.6,26.6c0.8,0.1,1.6,0.5,2.1,1.2
	c0.8,0,1.2,0.3,1.2,0.9c0.1,0,0.1,0,0.1,0.1c-0.8,1.2-1.2,2.5-1.3,4V33c0.1,0.6,0.3,0.9,0.5,0.9h0.5c0.9,0,2.3-1.1,4.4-3.4
	c0-0.2,0.4-0.5,1.3-1.1c0.1-0.4,0.4-0.8,0.8-1h0.1c0,0.2,0.1,0.4,0.2,0.6c-0.4,1.1-0.9,2.1-1.7,3c-2.1,2.6-3.8,3.9-5.2,3.9
	c-1.4-0.1-2.5-1-2.9-2.3v-0.2h-0.3c-2.3,1.8-4,2.7-5.3,2.7h-0.3c-1.2,0-2.1-0.9-2.3-2v-0.2c0-1.7,1.3-3.4,3.8-5.2l2.6-1.6
	C109.9,26.8,110.5,26.7,111.6,26.6L111.6,26.6z M93.7,27c0.6,0.1,0.9,0.3,1,0.7v0.2c0,0.6-0.1,1.1-0.5,1.5v0.1h0.1
	c0.7-0.9,1.7-1.6,2.8-2.1c0-0.1,0.3-0.3,0.8-0.5h0.5c1.2,0,1.9,0.8,2,2.3c-0.1,0.2-0.2,0.4-0.3,0.6l0.1,0.2
	c-0.3,0.9-0.5,1.9-0.5,2.8v0.6c0,0.1,0.1,0.1,0.3,0.2h0.2c1.5-0.3,2.9-1,4.2-1.9c1-0.7,1.9-1.6,2.7-2.6c0.2-0.3,0.5-0.6,0.8-0.8
	c0.2-0.1,0.3,0,0.5,0.1c0.1,0.1,0,0.4-0.3,1c-0.7,1.2-1.6,2.3-2.7,3.2c-1,0.8-2,1.6-3.2,2.2c-0.5,0.3-1.1,0.4-1.7,0.5
	c-1.7-0.2-2.6-0.9-2.7-1.9c-0.1-0.2-0.1-0.3-0.1-0.5c0.2-1.3,0.4-2.6,0.8-3.8l-0.1-0.6c0-0.1-0.1-0.2-0.2-0.2h-0.3
	c-1,0.7-1.9,1.5-2.8,2.3c-0.1,0-0.3,0.3-0.7,0.9c-0.2,0.1-0.7,0.7-1.4,1.9c-0.2,0-0.4,0.5-0.6,1.4c-0.3,0.7-0.7,1.3-1.2,1.8
	c0,0-0.1,0.1-0.3,0.2c-0.8-0.2-1.2-0.5-1.2-0.9v-0.1c0.2-1.5,0.7-3,1.3-4.4c0.7-1.3,1.3-2.6,1.8-4C93.3,27.1,93.5,27,93.7,27
	L93.7,27z M85.3,26.8h0.2c0.3,0,0.6,0.2,0.8,0.5v0.3c-0.9,1.4-1.4,3.1-1.6,4.8v1c0,0.4,0.2,0.8,0.6,1h0.8c0.8,0,2.3-0.9,4.4-2.6
	c0.2,0,0.4-0.2,0.6-0.5c0.9-0.8,1.7-1.6,2.5-2.5c0.1,0,0.2-0.2,0.3-0.5c0.2-0.2,0.5-0.3,0.8-0.4h0.1c0.1,0,0.2,0.1,0.2,0.2
	c-0.7,1.9-1.8,3.6-3.2,5.1c-1.3,1.4-2.9,2.4-4.7,3l-0.9,0.2c-2.2-0.3-3.3-1.4-3.3-3.3c-0.1,0-0.1-0.2-0.2-0.6c0.5-2.4,1.1-4,2-4.9
	L85.3,26.8z M90.4,19.4l1,0.2v0.3c-0.2,0.7-1.2,1.6-3.1,2.8c-0.6,0.4-1.3,0.7-2,0.8c-0.6-0.1-0.9-0.4-0.9-1c0-0.6,1-1.2,3-2
	C89,20,89.7,19.7,90.4,19.4L90.4,19.4z M143,18.8h-0.4v-0.5h0.5L143,18.8z M140.6,18.3c0,0,0,0.1,0,0.2l0.8-0.2h-1.1H140.6z
	 M128.3,18.4c0-0.5,0.2-0.8,0.5-0.8h0.5v0.5l-0.3,0.6C128.8,18.6,128.6,18.5,128.3,18.4L128.3,18.4z M145.3,18.4
	c0.1-0.1,0-0.1-0.3-0.1l0,0h0.2L145.3,18.4L145.3,18.4z M142.1,18.1L142.1,18.1c0,0.1,0,0.2-0.2,0.3l0,0
	C141.7,18.3,141.8,18.2,142.1,18.1L142.1,18.1z M140.1,18.3c-0.3-0.1-0.4-0.2-0.4-0.5h0.4V18.3z M139.7,18.3h-0.4v-0.5h0.4V18.3z
	 M138.5,17.7v0.8h-0.8v-0.8H138.5z M135.2,17.9h-0.4v-0.5h0.4V17.9z M79.5,12.8L80,13l0.5-0.1c0.2,0.2,0.4,0.5,0.4,0.8
	c0,0.4-0.6,1.7-1.9,3.7c0,0.2,0.1,0.3,0.3,0.3h1.5c2.6-0.3,5.3-0.5,8-0.6l1.5-0.2l0.5-0.1c0.5,0.1,0.9,0.1,1.4,0.2
	c0.6-0.2,1.2-0.3,1.8-0.3c0.3,0.1,0.6,0.1,0.9,0.1h0.4c0.1,0,0.3,0,0.4-0.1l0.2,0.1c0.5-0.1,0.9-0.2,1.4-0.2c0.4,0,0.8,0.1,1.1,0.3
	c0.2-0.1,0.5-0.2,0.8-0.2h1.1c0.1,0,0.3,0,0.4-0.1c0.1,0.1,0.2,0.1,0.4,0.1h0.7c0.2,0,0.5,0,0.7-0.1c0.2,0.1,0.5,0.1,0.8,0.1
	c-0.9,0.1-0.4,0.1,1.5,0.2c0,0,0,0,0.2,0c0.2-0.1,0.3-0.2,0.5-0.2l1.6,0.1v-0.1l0.7,0.2l3.1-0.1l0.6,0.1l1.2-0.2l0.1,0.2l1.2-0.1
	h1.2c0.1,0,0.2,0,0.2,0.1s0,0,0-0.1l1-0.1c0.4,0.1,0.8,0.1,1.2,0.1v0.4l-0.6-0.4h0.6c0.3,0,0.5,0,0.8-0.1l0.2,0.1l1.4-0.2l0.4,0.2
	c0.1,0,0.2,0,0.3-0.1c0.1,0,0.2,0,0.2,0.1c0.5-0.1,1-0.1,1.5-0.1l1.9,0l0.6-0.1c0.1,0.1,0.2,0.1,0.2,0.2c0.3,0,0.6-0.1,0.8-0.2
	l0.5,0.2c0.1-0.1,0.3,0,0.4,0.1l0,0v0.3h0.3c0.1-0.4,0.1-0.6,0.2-0.6l2.2,0.1l0.4,0.7h0.5c0.1-0.2,0.1-0.4,0.1-0.5c0,0,0,0,0,0.1
	l-0.2-0.2c0.5,0.1,0.9,0.3,1.3,0.7c0.2,0,0.3-0.1,0.3-0.3H131l0.2-0.2h0.3c0,0.5,0.3,0.8,0.6,0.8c0-0.4-0.3-0.6-0.9-0.6h1.5
	l-0.1,0.5h0.3c0.3,0,0.5-0.1,0.7-0.3c0.2,0,0.5,0.2,0.6,0.4l0.3-0.2l-0.1-0.3v-0.1v0.1c0,0,0.3,0.1,0.8,0.4h0.4
	c0-0.2,0.2-0.4,0.6-0.5c0.1,0.1,0.3,0.1,0.4,0.1c-0.1,0.1-0.1,0.1,0.2,0.1c0-0.1,0.1,0,0.3,0.1c0.1,0,0.3-0.1,0.4-0.1h0.3
	c0,0,0,0,0.1-0.2h0.4c0,0.1,0,0.2,0,0.4l0.2,0.2c-0.2,0-0.5-0.1-0.6-0.3v-0.1L138,18c-0.3,0.1-0.7,0.2-1,0.3h-0.5
	c-0.3,0-0.6,0-0.9-0.1l-0.4,0.2c-0.3-0.1-0.7-0.1-1-0.1h-0.1c-0.4,0.3-0.7,0.3-0.7,0.1c-0.2-0.1-0.4-0.2-0.6-0.2
	c-0.1,0.1-0.3,0.2-0.4,0.2l-0.5-0.2v0.2h-0.6v-0.2h-0.2c-0.1,0.1-0.6,0.2-1.3,0.3c0-0.1-0.1-0.1-0.4-0.1h-0.2
	c-0.4,0.1-0.9,0.2-1.3,0.2l-0.7-0.1l-0.3,0.2l-0.5-0.1c-0.4,0-0.8,0.1-1.2,0.2c-0.9-0.2-1.3-0.3-1.4-0.5h-0.2
	c-0.2,0.2-0.3,0.3-0.4,0.3c-0.2-0.1-0.4-0.2-0.6-0.2h-0.1c-0.5,0.1-0.9,0.3-1.3,0.5l-0.2-0.1l-2.1-0.1c-0.3,0-0.5,0-0.8,0.1
	c-0.1-0.1-0.3-0.1-0.4-0.1c-0.4,0-0.5,0-0.5,0.1c-0.2-0.1-0.4-0.2-0.7-0.2h-0.6c-0.3,0-0.5,0.1-0.7,0.2H115c-0.3,0-0.6-0.1-0.8-0.2
	l-1.3,0.3c-0.1,0-0.2-0.1-0.3-0.1c-1.9,0.1-3.5,0.1-4.8,0.1h-0.4c-0.3,0-0.6,0-0.8,0.1l-0.4-0.2l-2.7,0.1l-0.5-0.1
	c-0.2,0.1-0.3,0.2-0.3,0.2l-0.9-0.1h-1.3c-0.5,0-0.9,0.1-1.4,0.2c-0.2,0-0.3,0-0.4-0.1l-3.2,0.1l-0.6-0.1c-0.3,0.1-0.6,0.2-0.9,0.2
	L93,18.8c-4,0.1-9.1,0.4-15.4,0.9c-9.4,0.8-0.1,0.4-0.6,1.1c-0.4,1.1-0.9,2.1-1.5,3.1c-1.2,3.4-1.8,5.2-1.8,5.4c0,0.1,0,0.2,0.1,0.3
	c-0.2,0.7-0.3,1.5-0.3,2.3v1c0,0.8,0.7,1.4,1.6,1.4c1,0,2.9-0.8,5.6-2.5c0.7-0.4,1.5-0.9,2.1-1.5c1-1.1,2-2.3,2.8-3.5l0.1,0.2
	c-0.1,0.9-0.4,1.7-0.8,2.5c-2,2.3-3.4,3.7-4.2,4c-0.5,0.5-1.1,0.9-1.8,1.2c-1.2,0.9-2.5,1.4-4,1.5c-1.1-0.1-2.1-0.6-2.8-1.5
	c0-0.4-0.2-0.8-0.5-1.1l0.1-0.2v-0.2c0-0.3-0.1-0.6-0.3-0.8v-0.2l0.2-0.3v-0.6c0-0.3,0-0.7,0.1-1c-0.1-0.1-0.1-0.2-0.1-0.3
	c0.2-1.3,0.6-2.5,1.1-3.7c0-0.7,0.3-1.4,0.8-2c0.1-0.8,0.4-1.5,0.8-2.1c0.3-0.5,0.5-1,0.6-1.6c-0.1,0-0.2,0-0.3-0.1l-8,1.3
	c-0.4-0.2-0.8-0.6-1-1l0.1-0.5l0.2-0.5c5.1-1,8.6-1.5,10.6-1.7c0.7-0.8,1.1-1.6,1.4-2.6C78.6,14.6,79.1,13.7,79.5,12.8L79.5,12.8z
	 M59.3,26c0.6,0.1,0.9,0.3,1,0.7v0.2c0,0.6-0.1,1.1-0.5,1.5v0.1h0.1c0.7-0.9,1.7-1.6,2.8-2.1c0-0.1,0.3-0.3,0.8-0.5h0.6
	c1.2,0,1.9,0.8,2,2.3c-0.1,0.2-0.2,0.4-0.3,0.6L66,29c-0.3,0.9-0.5,1.9-0.5,2.8v0.6c0,0.1,0.1,0.1,0.3,0.2H66c1.5-0.3,2.9-1,4.2-1.9
	c1-0.7,1.9-1.6,2.7-2.6c0.2-0.3,0.5-0.6,0.8-0.8c0.2-0.1,0.3,0,0.5,0.1c0.1,0.1,0,0.4-0.3,1c-0.7,1.2-1.6,2.3-2.6,3.2
	c-1,0.8-2,1.6-3.2,2.2c-0.5,0.3-1.1,0.4-1.7,0.5c-1.7-0.2-2.6-0.9-2.7-1.9c-0.1-0.2-0.1-0.3-0.1-0.5c0.2-1.3,0.4-2.6,0.8-3.8
	l-0.1-0.6c0-0.1-0.1-0.2-0.2-0.2h-0.3c-1,0.7-1.9,1.5-2.8,2.3c-0.1,0-0.3,0.3-0.7,0.9c-0.2,0.1-0.7,0.7-1.4,1.9
	c-0.2,0-0.4,0.5-0.6,1.4c-0.3,0.7-0.7,1.3-1.2,1.8c0,0-0.1,0.1-0.3,0.2c-0.8-0.2-1.2-0.5-1.2-0.9v-0.1c0.2-1.6,0.7-3.1,1.3-4.5
	c0.7-1.3,1.3-2.6,1.8-4C58.9,26.1,59.1,26,59.3,26L59.3,26z M60.4,26.5l0.2,0.5l-0.4,0.2h-0.6v-0.5L60.4,26.5z M50.6,29h-0.1
	c1.6-0.4,2.9-1.4,3.7-2.8v-0.1c0-0.1,0-0.1,0-0.1C53,26.2,51.8,27.2,50.6,29L50.6,29z M54.3,24.6c0.5,0.1,1,0.4,1.3,0.8
	c0,0.8-0.2,1.5-0.6,2.1c-1.5,1.7-2.8,2.6-3.7,2.8l-1,0.5v0.3c0,0.7,0.6,1.1,1.9,1.1c0.9-0.1,1.7-0.2,2.5-0.5c0.8-0.3,2-1.3,3.5-3
	c0.4-0.7,0.9-1.3,1.5-1.8H60c0,0.2,0.1,0.4,0.2,0.5v0.2c-1.6,3.6-4,5.6-7.1,6.1c-0.3,0-0.7,0-1,0.1c-1.8,0-3.4-1.2-3.9-3l-0.1-1.4
	h0.4c0.2-1.2,1.2-2.4,3-3.9C52.3,25.1,53.3,24.7,54.3,24.6L54.3,24.6z M41.9,24.6l0.2,0.1c1.9-0.9,3.5-2.2,4.6-3.9
	c0.7-0.9,1.3-1.9,1.5-3v-0.5c-0.6,0-1.7,0.9-3.4,2.8C43,22.4,42.1,23.9,41.9,24.6L41.9,24.6z M48.1,16c1,0,1.5,0.5,1.6,1.2
	c-0.1,1.7-0.7,3.2-1.7,4.6c-1.2,1.6-2.6,2.9-4.3,3.9c-2,0.8-3,1.3-3,1.7c-0.5,1.2-0.7,2.5-0.8,3.9l0.1,0.8c0,0.6,0.5,1.2,1.2,1.2
	c0,0,0.1,0,0.1,0h0.4c1.5,0,2.9-0.6,4.1-1.5c1-0.6,1.9-1.3,2.7-2.1c0.6-0.7,1.3-1.4,2.1-1.9l0.9-1.3c0.3,0.1,0.4,0.2,0.4,0.3
	c-0.5,1.9-1.7,3.5-3.2,4.7c-2.4,2.3-4.7,3.4-6.8,3.4h-0.5c-1.5,0-2.8-1.1-3.3-2.5l-0.1-1.1c0-1.2,0.3-2.4,0.9-3.5
	c-0.1-0.6,0-1.1,0.1-1.7c0.1-0.4,0.4-0.6,0.6-0.6c0-0.2,0.3-0.7,0.8-1.5c0-0.7,0.8-1.9,2.3-3.6C45.2,17.4,47,16,48.1,16L48.1,16z
	 M25.1,31.2v0.6c0,0.1,0.1,0.2,0.2,0.2h0.2c1.1,0,2.6-0.8,4.5-2.5c1.2-1.2,1.8-2.1,1.8-2.7v-0.1c0-0.7-0.3-1.1-0.8-1.1
	c-1.9,0.7-3.5,1.9-4.8,3.4C25.6,29.6,25.3,30.4,25.1,31.2L25.1,31.2z M31.1,24.2c0.8,0.1,1.6,0.5,2.1,1.2c0.8,0,1.2,0.3,1.2,0.9
	c0.1,0,0.1,0,0.1,0.1c-0.8,1.2-1.2,2.5-1.3,4v0.3c0.1,0.6,0.3,0.9,0.5,0.9h0.6c0.9,0,2.3-1.1,4.4-3.4c0-0.2,0.4-0.5,1.3-1.1
	c0.1-0.4,0.4-0.8,0.8-1h0.1c0,0.2,0.1,0.4,0.2,0.6c-0.4,1.1-0.9,2.1-1.6,3c-2.1,2.6-3.8,3.9-5.2,3.9c-1.4-0.1-2.5-1-2.9-2.3v-0.2H31
	c-2.3,1.8-4,2.8-5.3,2.7h-0.3c-1.2,0-2.1-0.9-2.3-2v-0.2c0-1.7,1.3-3.4,3.8-5.2l2.6-1.6C29.5,24.5,30.1,24.3,31.1,24.2L31.1,24.2z
	 M18.1,31v-0.2h-0.3V31H18.1z M19,28.8L19,28.8l0,0.2h0.1L19,28.8z M20.6,25.7L20.6,25.7L20.6,25.7l-0.1,0.1l0,0L20.6,25.7z
	 M22.8,20.8L22.8,20.8h-0.1l0,0C22.7,20.8,22.7,20.8,22.8,20.8L22.8,20.8z M23.9,18.6c0,0,0-0.1,0-0.1h-0.2v0.1H23.9z M24.6,16.9
	c0,0.1,0,0.2-0.1,0.2L24.6,16.9L24.6,16.9c-0.1,0.1,0.1,0.1,0.1,0.1L24.6,16.9z M25.3,15.7L25.3,15.7L25.3,15.7L25.3,15.7L25.3,15.7
	z M26.8,12.3H27c0.2,0,0.3,0.1,0.3,0.3c0,0,0,0,0,0v0.3H27c-0.2,0-0.4-0.2-0.4-0.5L26.8,12.3z M2.4,10L2.4,10c0.4,0,0.8,0.3,1.2,0.8
	v1.6c0,0.3-0.3,2.7-0.8,7.3c0,0.1,0,0.2,0.1,0.2L2.6,24H3c-0.3,0.4-0.4,1.5-0.4,3.4v0.3c0,0.5,0,0.8-0.1,0.8c0,0.2,0.1,0.3,0.2,0.3
	c-0.1,0.1-0.1,0.3-0.2,0.4c0,0.7-0.1,1.4-0.2,2.1c0,0.3,0.1,0.6,0.1,0.9c0,0.1,0,0.2-0.1,0.4l0.2,1.7c-0.1,0.1-0.1,0.2-0.1,0.4
	c0-0.1,0.1-0.1,0.2-0.1l-0.2,0.4c0.4,4.6,0.7,7,1,7c0.1,1.2,0.7,2.3,1.7,2.9c0.3,0.1,0.6,0.1,0.9,0.1c1.4,0,3.3-1.6,5.7-4.9
	c1.3-1.8,2.4-3.5,3.3-5.1c0.3-0.7,0.7-1.4,1.2-2c0.1,0,0.1,0,0.1,0.1c-0.1-0.1-0.1-0.2-0.1-0.3l1.1-2.1c0.3,0,0.5-0.1,0.5-0.4
	c-0.1,0-0.1-0.1-0.1-0.4c0.4-0.4,0.6-0.9,0.5-1.5c0.2,0,0.4-0.2,0.5-0.7c0.4-0.8,0.6-1.2,0.8-1.2h-0.1v-0.2c0-0.2,0.1-0.4,0.3-0.4
	c0,0.2,0,0.3-0.1,0.3c0.1-0.7,0.5-1.4,1-2c0.2-1.2,0.8-2.4,1.6-3.4v0.7H22c0,0,0,0.1,0,0.1c0-0.1,0-0.3,0-0.4c0.1,0,0.2,0,0.2-0.1
	v0.2h-0.3v-0.4l0.4-0.4c0-0.1,0-0.2,0-0.3c0.4-0.3,0.7-0.7,0.9-1.2c0.1,0,0.1,0,0.1,0s0-0.2-0.1-0.5s0.3-0.7,0.5-0.7h-0.1
	c0.2-0.3,0.3-0.6,0.6-0.9c0-0.4,0.3-0.6,0.8-0.7l0.3,0.1v0.1c-0.3,0-0.4-0.1-0.4-0.4c0-0.2,0-0.2,0-0.2v-0.2v-0.3l0.6-0.3l0.3,0.1
	v0.3c-0.1-0.1-0.2-0.2-0.2-0.4c0-0.1,0.1-0.1,0.1-0.1H25c0.4-0.4,0.6-0.9,0.7-1.4c0.2,0,0.4-0.1,0.6-0.2v0.3h-0.1v0.1h-0.3v-0.7
	c0.2,0,0.2,0,0.2,0v-0.1c0.1-0.4,0.4-0.6,0.8-0.5v0.6l0,0c0.2,0.1,0.3,0.2,0.4,0.4v0.3c-0.2,0-0.4,0.1-0.5,0.3c0,0.1,0,0.2,0,0.3
	c0,0.8-0.1,1.1-0.4,1.1v0.2c-0.1,0.3-0.2,0.6-0.5,0.8c0,0.4-0.2,0.7-0.5,0.9v0.5c-0.4,0.7-0.6,1.4-0.8,2.1c-0.3,0.2-0.5,0.2-0.5,0.1
	s0.1,0.1,0.1,0.5c-0.1,0-0.2,0.1-0.3,0.2l0.1,0.2l-0.2,0.6c0,0.1,0,0.3,0,0.4c-0.4,0.5-0.7,1.1-0.8,1.7l-0.4,0.5v0.5
	c-0.3,0-0.8,0.7-1.3,2.2c-0.1,0.4-0.2,0.7-0.4,1c-0.3,0.5-0.5,1.1-0.6,1.8l-2.2,4.4c-0.2,0-0.7,1-1.5,2.9c-1.5,2.4-2.6,4-3.3,5
	c-0.5,0.5-1,1.1-1.4,1.7c-0.2,0-0.4,0.3-0.7,0.9c-0.6,0.3-1.2,0.8-1.7,1.3c-1,0.6-2.2,1-3.3,1.1H5.6c-0.8-0.1-1.4-0.5-2-1
	c-0.6,0-1-0.4-1.2-1.1c-0.4-0.3-0.7-0.7-0.7-1.3c0-0.1,0.1-0.1,0.1-0.1c-0.2,0-0.3-0.3-0.3-0.8c-0.4-0.9-0.7-1.8-0.7-2.8L1,39.5
	l-0.4-0.6c0-0.1,0-0.2,0.1-0.4c0-0.4-0.1-0.8-0.1-1.1v-0.3c0,0-0.1,0-0.2,0c0.1-0.7,0.1-1,0-1v-1.4c0-0.2-0.1-0.4-0.2-0.6v-0.7
	c0.1-0.1,0.2-0.2,0.2-0.2c0-0.7-0.1-1.3-0.3-2C0.3,31,0.3,31,0.3,31H0.2l0.2-0.4v-0.5l0.1-0.5l-0.2-0.4c0.1-0.3,0.2-0.6,0.3-0.9
	c0-0.4-0.1-0.7-0.1-1.1V27c0-0.1,0.1-0.3,0.2-0.3l0,0l0.1-0.3l-0.4-0.6c0.2,0,0.3,0,0.4-0.1l-0.1-0.4c0.1-0.3,0.1-0.5,0.2-0.8
	c-0.1-0.1-0.1-0.3-0.1-0.4c0.1-0.1,0.2-0.3,0.2-0.5l-0.2-0.1l0.2-1.1l-0.2-0.1c0-0.4,0.1-0.9,0.2-1.3l-0.1-0.2v-0.5l0.3-0.5
	c-0.1-0.2-0.1-0.4-0.1-0.5c0.2-1.5,0.3-2.9,0.3-4.4c0.1,0,0.2-0.2,0.3-0.6c0-0.3-0.1-0.6-0.3-0.9c0.1-0.4,0.2-0.9,0.2-1.3v-0.1
	c0-0.3,0-0.6-0.1-0.9c0.3-0.6,0.7-0.8,1.1-0.8L2.4,10z M27.7,9.8l0.4,0.6v0.3c-0.1,0-0.2,0-0.4,0v0.5c-0.3,0-0.4,0.1-0.4,0.3h-0.7
	c0.5-1.1,0.8-1.7,1.2-1.7L27.7,9.8z"/>
<path class="st2" d="M104.3,0.6c0.4,0.5,0.7,1,1,1.5c0.2,0.4,0.2,0.4,0.2,0.4c-0.1,0-0.2,0-0.3,0c-0.2,0-0.4,0-0.6,0
	c-0.2,0-0.2-0.1-0.5-0.3s-0.7-0.7-0.9-1c-0.1-0.2-0.3-0.3-0.5-0.3c-0.3,0-0.6,0-0.9,0c-0.7,0-1.9,0-2.6,0c-0.3,0-0.6,0-0.9,0.1
	c-0.1,0-0.1,0-0.1,0.7s0,2,0,2.7c0,0.3,0,0.6,0.1,0.9c0,0.1,0,0.1,0.6,0.2s1.6,0,2.3,0c0.3,0,0.7,0,1-0.1c0.2-0.1,0.3-0.3,0.4-0.5
	c0.1-0.2,0.2-0.5,0.3-0.7c0.1-0.1,0.2-0.2,0.3-0.2c0.1,0,0.2-0.1,0.3-0.1c0.1,0,0.1,0.1,0.1,0.3s0,0.8,0,1.1c0,0.3,0,0.6,0,0.8
	c0,0.3,0,0.8,0,1.1s0,0.3-0.1,0.3c-0.1,0-0.2,0-0.3-0.1c-0.1,0-0.2-0.1-0.3-0.2c-0.1-0.2-0.2-0.4-0.3-0.7c-0.1-0.2-0.2-0.4-0.4-0.5
	c-0.3-0.1-0.7-0.1-1-0.1c-0.6,0-1.7,0-2.3,0s-0.5,0.1-0.6,0.2c-0.1,0.3-0.1,0.6-0.1,0.9c0,0.7,0,2,0,2.7s0,0.7,0.1,0.7
	c0.3,0.1,0.6,0.1,0.9,0.1c0.7,0,1.9,0,2.6,0c0.3,0,0.6,0,0.9,0c0.2-0.1,0.4-0.2,0.5-0.3c0.3-0.3,0.7-0.7,0.9-1s0.3-0.3,0.5-0.3
	c0.2,0,0.4,0,0.6,0h0.3c0,0,0.1,0-0.2,0.4c-0.3,0.5-0.7,1-1,1.5c-0.2,0.3-0.6,0.5-0.9,0.5c-0.3,0-0.8,0-2,0h-5.8
	c-0.1,0-0.2,0-0.3-0.1c0-0.1,0-0.2,0-0.3c0-0.1,0-0.1,0.2-0.2c0.2-0.1,0.3-0.2,0.4-0.4c0.1-0.1,0.2-0.3,0.2-0.5c0-0.3,0-0.7,0-1
	c0-0.7,0-2,0-2.6c0-0.4,0-0.9,0-1.3c0-0.7,0-1.9,0-2.6c0-0.3,0-0.7,0-1c0-0.2-0.1-0.3-0.2-0.5c-0.1-0.1-0.3-0.3-0.4-0.4
	c-0.1-0.1-0.1-0.1-0.2-0.2c0-0.1,0-0.2,0-0.3C95.3,0,95.4,0,95.5,0h5.8c1.3,0,1.7,0,2,0c0.4,0,0.7,0.2,0.9,0.5"/>
<path class="st2" d="M107.4,10c-0.4,0-0.8,0.3-0.8,0.8c0,0.4,0.3,0.8,0.8,0.8c0.4,0,0.8-0.3,0.8-0.8S107.8,10,107.4,10L107.4,10"/>
<path class="st2" d="M109.6,11.5c-0.1,0-0.1,0-0.1-0.1s0-0.3,0-0.4c0-0.1,0-0.2,0.1-0.2c0,0,0.1-0.1,0.3-0.3
	c0.2-0.2,0.4-0.4,0.6-0.6c0.2-0.2,0.2-0.3,0.2-0.3V8.1c0-1.4,0-4.2,0-5.6s0-1.5-0.1-1.5c-0.1-0.1-0.2-0.1-0.3-0.2
	c-0.1,0-0.1-0.1-0.1-0.2c0-0.1,0-0.3,0-0.4c0-0.1,0.1-0.1,0.1-0.1h3.3c0,0,0,0,0.6,1l2.3,3.8c0.6,1,0.6,1,1,0l1.8-3.8l0.5-0.9h3.2
	c0,0.6,0,1.2,0,1.7c0,1.8,0,5.3,0,7s0,1.8,0.1,1.8l0.2,0.1c0.1,0,0.1,0.1,0.1,0.1c0,0.1,0,0.2,0,0.4c0,0.1-0.1,0.1-0.8,0.1H119
	c0,0-0.1,0-0.1-0.1c0-0.1,0-0.2,0-0.3c0-0.1,0.1-0.1,0.2-0.2c0.1-0.1,0.2-0.2,0.3-0.3c0.1-0.1,0.1-0.2,0.2-0.4
	c0-0.1,0.1-0.2,0.1-0.3c0-0.4,0-0.8,0-1.3V4.6c0-1.2,0-1.5,0-1.6s0-0.1-0.5,1.2s-1.6,4-2.1,5.3c-0.2,0.5-0.4,1-0.6,1.4
	c0,0,0,0-0.1,0h-0.6c0,0,0,0-0.7-1.2s-2-3.7-2.7-4.9s-0.7-1.3-0.7-1.3c0,0.3,0,0.7,0,1c0,1,0,3.1,0,4.2v1.2c0,0.1,0,0.1,0.1,0.2
	c0.1,0.1,0.3,0.2,0.4,0.3l0.6,0.4c0.1,0.1,0.2,0.1,0.2,0.1c0,0.1,0,0.1,0,0.2c0,0.1,0,0.3,0,0.4s0,0.1,0,0.1h-3.2L109.6,11.5"/>
<path class="st2" d="M125.5,10c-0.4,0-0.8,0.3-0.8,0.8c0,0.4,0.3,0.8,0.8,0.8c0.4,0,0.8-0.3,0.8-0.8S125.9,10,125.5,10L125.5,10"/>
</svg>
