<?xml version="1.0" encoding="utf-8"?>
<!-- Generator: Adobe Illustrator 21.0.0, SVG Export Plug-In . SVG Version: 6.00 Build 0)  -->
<svg version="1.1" id="Capa_1" xmlns="http://www.w3.org/2000/svg" xmlns:xlink="http://www.w3.org/1999/xlink" x="0px" y="0px"
	 viewBox="0 0 685.5 291.9" style="enable-background:new 0 0 685.5 291.9;" xml:space="preserve">
<style type="text/css">
	.st0{stroke:#000000;stroke-width:0.75;stroke-miterlimit:22.9256;}
	.st1{fill:#CCCCCC;}
</style>
<g id="Capa_x0020_1">
	<path class="st0" d="M102.3,30.4c2.9,1.3,4.3,3.1,4.3,5.5L103,47.6c0.1,0.4,0.4,0.6,0.7,0.6c0.9-0.7,2.3-1.2,4.2-1.5
		c0.9,0.2,1.7,0.2,2.3,0.2c1.6-0.9,4.1-1.5,7.3-1.6h0.3c1.4-0.1,2.9,0,4.3,0.2c0.8-0.3,1.9-0.5,3.3-0.5v0.7l-0.3,0.7L126,47h0.7
		c1.4-1.4,2.7-2.1,3.6-2.1l1.3-0.1c1.3,0.1,2,0.4,2,0.9c-0.2,0.5-0.3,0.8-0.3,1c0.4-0.3,1.2-0.6,2.6-1.1c0.3,0,1.1,0.4,2.3,1.2
		c0.2,0,0.5-0.1,0.9-0.4c5.9-0.2,13.2,3.2,21.8,10.4c1.8,2.4,2.6,4.8,2.6,7.2v0.6c0,0.2-0.1,0.3-0.3,0.3l0.3,0.7
		c0,4.1-4.4,9.5-13.2,16.4c-5.4,4.6-14.4,9.5-27.1,14.9c-3,1.6-8.9,3.4-17.8,5.6c-0.5,0.4-6.7,1.8-18.6,4.1l-5,0.2
		c-3.7,1.1-5.6,2.1-5.6,2.8c-2.1,4.8-3.6,7.9-4.6,9.5c1.9,3.1,5.1,7.1,9.6,12.2c3.3,6,8.1,11.7,14.2,16.9
		c6.9,7.1,14.1,11.8,21.5,14.1c4.8,1.8,8,2.7,9.6,2.6c1.2,0.7,7.4,1.4,18.6,1.9c0,0.3,0.1,0.4,0.3,0.4c0.8-0.5,1.7-0.8,2.6-0.8
		l1.4,0.3c0.9-0.3,1.3-0.7,1.3-1.1l1.6,0.3c1.2-0.6,1.7-0.9,1.7-1.1l0.7,0.3l8.6-3c1.1,1,2.1,1.5,2.9,1.5h0.7v-0.3
		c-0.2-0.4-0.3-0.8-0.3-1c0.7-0.5,1.3-0.7,2-0.7v0.6l-0.4,0.7l0.7,0.3c0.4,0,0.6-0.7,0.6-2h0.3c1.1,0,1.7,0.2,1.7,0.6l0.6-0.4h1
		l-0.7,1l-0.6-0.4h-0.7c-5.2,4.2-9.9,6.4-14.1,6.5c-1.5,1-3.6,1.5-6.3,1.8c0,0.3-0.4,0.7-1.1,1.1c-0.2,0-1.3-0.1-3.3-0.3l-3.6,1.2
		c-4-0.1-6.7-0.1-8-0.1c-1.6,0.3-2.5,0.5-2.6,0.5c-4.7-1.1-8.8-1.7-12.2-1.9c-0.3-0.4-3.1-1.4-8.6-3c-6.7-3.7-10.8-6.2-12.2-7.5
		c-4.3-1.7-11.8-8.8-22.5-21.2c-4.5-7.5-7.5-11.3-8.9-11.2c-2.2,3.6-4.4,8.6-6.7,15.1c-0.4,0-1.7,2.2-3.9,6.5
		c-5.6,10.8-9.3,17.2-11.3,19.3c-1.2,2.7-2.8,5.1-4.6,7.1c-0.6,1.5-2,3.5-3.9,6.2c-1,2.2-2.4,3.4-4,3.4v2
		c-5.6,6.8-9.9,10.3-12.9,10.4l-0.4-0.7V197c0.6,0,1.8-1,3.6-3.1c0.3,0.4,0.4,0.8,0.4,1.3c0.2,0,0.7-0.6,1.6-1.7
		c-0.4-0.2-0.7-0.3-0.9-0.3v-0.7c1.5-1.4,2.2-2.2,2.2-2.4v-0.6l-0.3-0.7c1.3-0.1,2-1.1,2-3.1c1.1,0,1.6-0.3,1.6-1v-0.4l-0.3-0.6
		c0.9,0,1.7-1.3,2.3-3.7l3.8-2c0-0.4-0.4-0.6-1.3-0.6v-0.7c0-0.2,0.6-0.9,2-2v-0.4c0-0.2-0.1-0.3-0.4-0.3c0.7-1.3,1.9-3,3.4-5.1
		v-0.4H40l1.7,1c0-0.3,0.1-0.4,0.3-0.4c0-0.3-0.5-1-1.6-1.9c0-0.7,1-2.2,2.9-4.4c0.8-2.8,1.9-4.3,3.4-4.4v0.7h0.9v-1
		c-0.9,0-1.3-0.2-1.3-0.6v-0.6c0.1-1.6,1.1-3.1,3-4.7l-0.4-0.6v-0.4c4.4-8.7,7.4-13.8,9-15.5l-0.8-1v-0.3c0.5-0.6,0.8-0.9,0.8-1.1
		c0-1.1-0.3-1.6-0.8-1.6c2.3-4.5,4.1-6.8,5.3-6.9l-0.4-1.9c0.7-1.5,1.1-2.5,1.1-3c-5-6.6-9.9-9.8-14.9-9.6c-0.8-0.4-1.6-1.7-2.3-3.8
		c0.3-1,0.6-1.4,1-1.4l-0.3-0.7v-0.3c1.8-0.1,2.6-0.4,2.6-1.1c1.1,0.5,3.9,1.1,8.3,1.7c0,0.2,0.1,0.3,0.4,0.3h0.3
		c0.8-0.7,1.6-1.1,2.4-1.1l1.6-0.1c1.3-0.1,3.1,0,5.3,0.2c1.4-0.1,3.2-1.6,5.2-4.5h0.4v-0.9c0-0.6,0.5-1.6,1.6-3.1
		c0-0.3-0.1-0.6-0.3-1c2.2-7.6,4.6-13.1,7.2-16.4c0-1,0.6-3.6,2-7.8l1.4,1h0.3V69c1.6-3,2.3-4.6,2.3-4.7c-0.3-0.4-0.4-0.8-0.4-1
		c1.4-2,2.4-3,3-3c-0.2-1.3-0.4-1.9-0.6-1.9c-3.7,0.1-14.8,4.3-33.1,12.4L32.1,83.7c0,0.3-3.5,2.6-10.6,7c0,0.6-1.1,1.4-3.3,2.5
		c-4.9,4.2-7.3,8.2-7.3,11.8c-1.3,0.6-2,1-2,1.1c-2-0.4-3.5-1.1-4.3-2.2l0.4-0.7v-3.6c3.9-5.4,6.3-8.1,7.2-8.1
		c0.3,0,1.3-1.1,3.3-3.4c1.6-0.5,5.1-3.1,10.3-7.7l0.6,0.3h0.7c7.1-5.8,13.7-9.8,19.8-12h1.3c0.6-1.4,2.9-2.7,6.9-3.9
		c4.3-2.6,8.3-4.4,11.9-5.7c2.7-1.5,7.5-3.1,14.5-4.9c0-0.3,0.8-0.4,2.3-0.5h0.6c0-0.6,0.2-0.9,0.7-1l2.3,0.2c0.4-0.9,2.1-1.8,5-2.8
		c1.5-1.9,2.6-4.1,3.3-6.8c0.4,0,0.7-0.2,0.7-0.7s-0.1-0.9-0.4-1.3l2-8.3C99.4,31.5,100.8,30.6,102.3,30.4L102.3,30.4z M80.2,100
		v0.3c0,0.4,0.3,0.7,1,0.6c0.4,0,0.6-0.1,0.6-0.3l2.4,0.2c2.2-0.1,4.5-0.5,6.9-1.2c0,0.4,0.3,0.7,0.6,0.6c0.6,0,1.7-0.4,3.3-1.1
		l1.7,0.3c0-0.7,0.3-1,1-1.1c0.4,0.2,0.8,0.4,1,0.3c0.2-0.5,0.3-0.9,0.3-1.3l3.6-0.1c0.9-0.5,1.3-0.8,1.3-1.1
		c0.9,0.4,1.7,0.6,2.3,0.6c0-0.6,2-1.6,5.9-2.8l0.6,0.3h1c0.8-0.9,3.4-2,7.6-3.2l6.3-3.2l2,0.2c0.6-0.9,1.5-1.6,2.6-2.1l0.6,0.4h1
		c0-1.5,1.9-2.8,5.6-3.9c0.9-1.3,3.6-3,7.9-5.3c0-0.9,2.1-3.3,6.3-7.2c1.4-3.2,2.1-5.6,2.1-7.3c0-3.7-5.8-7-17.2-9.9
		c-4.5-0.7-9.8-0.9-15.8-0.7c-0.3,0-0.6,0.1-1.1,0.3L121,52c-14.7,1.1-22.1,2.7-22.1,4.8C97.8,60.4,91.5,74.8,80.2,100L80.2,100z
		 M65.4,110.1v1c0,0.3,0.3,0.6,0.9,0.9c0.7-0.2,1-0.9,1-2L65.4,110.1z M33.4,180.7l-0.7,1v0.7l1.3-0.1c0.4,0,0.7-0.2,0.7-0.7v-1
		L33.4,180.7L33.4,180.7z M178,85.6c1.6-0.1,3.3,1,5.2,3c0,3.4-0.8,6.4-2.5,8.8c-6.1,7.4-11.2,11.5-15.1,12.3
		c-2.8,1.4-4.2,2.1-4.2,2.1v1.3c0,2.9,2.6,4.2,7.6,4c3.4-0.5,6.8-1.3,10.3-2.7c3.4-1.3,8.2-5.7,14.3-13.1c1.2-2.7,3.2-5.3,6-7.8
		l1.4-0.1c0,0.9,0.2,1.6,0.6,2.1v0.9c-6.4,14.9-16,23.8-28.8,26.8c-1.2,0-2.6,0.3-4,0.8c-7.7,0.3-12.9-3.4-15.5-11.1l-0.5-5.6
		l1.6-0.1c0.7-4.7,4.8-10.2,12.2-16.4C171.2,87.5,175,85.7,178,85.6L178,85.6z M163,104.3h-0.5c7.2-2.8,12.2-6.9,14.8-12.4v-0.4
		c0-0.3,0-0.4,0.2-0.4C172.8,92.3,168,96.6,163,104.3z M202.8,91.6l1,1.9l-1.5,0.8l-2.3,0.1v-2L202.8,91.6L202.8,91.6z M213.8,77.7
		c-2.3,3.7-6.7,4.6-8.3,3.7C197.7,76.8,221.3,65.7,213.8,77.7z M200.8,90.1h0.7c1.4-0.1,2.4,0.5,3,1.8V93
		c-4.3,8.2-6.4,14.7-6.4,19.7v4.1c0,2,0.7,3.3,2.2,4l3-0.1c3.3-0.1,9.2-4.1,17.6-11.9c0.7,0,1.5-0.8,2.2-2.4
		c0.4,0,3.7-3.6,10.1-10.9c0.4,0,0.7-0.8,1.1-2.3c1.5-1,2.6-1.6,3.4-1.6h0.4c0.5,0,0.7,0.3,0.7,0.7c-2.1,6.8-6.4,13.9-12.7,21.5
		c-7.5,7.4-13.8,11.9-19.1,13.5l-3.7,0.9c-8.7-0.7-13.1-4.7-13.1-12.3c-0.3,0-0.6-0.7-0.8-2.2c1.9-10,4.6-16.7,8.3-20.2L200.8,90.1
		L200.8,90.1z M237.9,88.3c2.4,0.1,3.7,1,3.8,2.7l0.1,0.7c0.2,2-0.5,4.2-2,6.3v0.4h0.3c5-5.5,8.8-8.6,11.5-9.2
		c-0.1-0.4,1.1-1.2,3.4-2.4l2.2-0.1c5-0.2,7.7,2.7,8.3,8.7c-0.7,1.3-1,2.2-1,2.7l0.4,0.7c-1.6,5.9-2.3,9.8-2.1,11.6l0.2,2.4
		c0.1,0.3,0.4,0.6,1.1,0.9h0.7c6.2-1.8,11.8-4.8,16.9-9s8.7-7.9,11-11.2c1.5-2,2.6-3.1,3.3-3.4c0.7-0.3,1.3-0.1,1.9,0.3
		s0.2,1.8-1.1,4c-3.6,5.8-7.2,10.4-10.7,13.8s-7.7,6.6-12.8,9.6c-1.4,1-3.7,1.8-6.8,2.5c-6.7-0.4-10.4-2.8-10.8-7
		c-0.2-0.3-0.4-0.9-0.5-1.9c-0.1-1.5,1-6.7,3.4-15.6l-0.3-2.5c-0.1-0.4-0.3-0.6-0.8-0.6h-1.2c-3.7,2.8-7.5,6.2-11.3,10.1
		c-0.3,0-1.3,1.2-2.9,3.7c-0.9,0.4-2.8,3-5.7,7.9c-0.8,0.2-1.6,2.1-2.3,5.6c-2.5,4.7-4.1,7.3-4.8,7.6c0.1,0.2-0.3,0.4-1.2,0.7
		c-3-0.5-4.7-1.6-4.9-3.4v-0.3c0.4-4.6,2.2-10.7,5.3-18.3c2.7-4.8,5.1-10.4,7.1-16.6C236.5,88.8,237.3,88.3,237.9,88.3L237.9,88.3z
		 M312.6,81.8c2.5-0.1,5.4,1.3,8.6,4.2c3.3-0.1,4.9,0.9,4.9,3.2c0.2,0,0.4,0.1,0.4,0.4c-3.5,6.4-5.2,11.9-5.2,16.3v1.1
		c0.5,2.3,1.1,3.3,1.9,3.3l2.2-0.1c3.5-0.1,9.4-5.1,17.6-14.9c0-0.7,1.8-2.2,5.2-4.7c0.5-1.8,1.5-3.3,3-4.2h0.4
		c0,0.7,0.3,1.4,0.8,2.2c-1.5,4.4-3.7,8.6-6.7,12.4c-8.3,11.2-15.4,16.9-21.1,17.1c-5.2,0.2-9.1-2.7-11.6-8.5v-0.8h-1.1
		c-9.1,8.1-16.3,12.2-21.4,12.4h-1.1c-4.9,0.2-8-2.3-9.4-7.5V113c0-6.8,5.1-14.1,15.4-22l10.5-7.2C305.9,83,308.1,82.3,312.6,81.8
		L312.6,81.8z M288.3,111.6v2.6c0.1,0.5,0.3,0.7,0.7,0.7h0.8c4.5-0.2,10.7-4,18.4-11.6c4.8-5,7.1-8.9,7.1-11.5v-0.4
		c0-3-1.1-4.5-3.4-4.4c-6,2.2-12.5,7.2-19.5,15C290.1,105.4,288.7,108.6,288.3,111.6L288.3,111.6z"/>
	<path class="st0" d="M473.7,19.9c0.3,0,1.1,0.4,2.5,1.1c0.7-0.2,1-0.4,1-0.7c4.1,0,9.8,1.3,16.9,3.8l9.2,5l5.3,5.3l4.7,6.5
		l-0.4,0.6l0.1,0.8c1.4,2.8,2.1,4.6,2.1,5.2c0.5,9.1-2.4,18.2-8.9,27.4c0.1,1.3-6.8,8.5-20.6,21.7c-4.4,2.9-7.9,5.9-10.5,8.9
		c-3.8,2.1-8.8,5.6-15,10.3c-10.4,6.5-18.6,11.1-24.7,13.9c-8.9,5.2-21.7,10.4-38.4,15.5c-6.7,1-10.3,1.5-10.9,1.8l-0.7-0.4
		c-2.6,0.5-5.5,0.8-8.9,0.8h-0.3c-1.2,1.2-2.9,4.1-5.1,8.5c-2.4,1.1-4,2.7-4.7,4.6c-0.4,0.3-0.9,0.4-1.4,0.4l-0.1-0.8
		c1.9-4.3,2.8-6.8,2.7-7.4l0.8,0.4h0.7c0.4,0,0.8-1.4,1.1-4.3l-0.1-1.4c0-0.4-1-1.1-2.9-1.8c-0.8,0.5-1.3,0.7-1.8,0.7
		s-3.9-1.4-10.2-4.3c0-0.4-0.8-1.1-2.3-1.8c-2.2-2.3-3.4-4.3-3.6-6h0.7c0.1,0.9,1.7,2.1,4.8,3.6c0.1,1,2,1.8,5.9,2.4
		c0,0.4,0.4,0.8,1.2,1.1c0.6,0,1.3-0.3,2-0.7l1.8,0.4c0.4,0,1.1-0.2,2-0.7c0.4,0.9,0.9,1.4,1.2,1.4h0.7c-0.1-1.2,1.3-1.8,4.2-1.8
		c0.4-2.1,1.3-3.2,2.6-3.2l-0.1-1c0-0.3-0.1-0.4-0.4-0.4c0-0.3,0.6-1,2-2.1v-0.4c0-0.3-0.1-0.4-0.4-0.4c0-0.3,0.8-1.2,2.3-2.8
		l-0.5-1.8c1.7-3.6,3-5.3,3.9-5.3l-0.2-2.1h1.8l-0.1-1h-1l-0.1-1.1l1.9,0.4h0.3V118l-0.8-1.1c0.4-1.2,1-1.8,1.6-1.8v-0.7
		c-0.1-0.5-0.2-1-0.5-1.4c0.1-0.9,0.7-1.6,2-2.1c0.3-0.4,0.3-0.9,0.3-1.4c-0.3-0.5-0.4-0.9-0.4-1.1h2.4c0.5,0,0.7-0.2,0.6-0.6
		c-0.4,0-0.7-0.3-0.7-0.8v-0.4h0.7l-0.2-1.8l0.4-0.7c-0.5,0-0.7-0.3-0.7-0.7c-0.1-0.5,0.8-1.1,2.7-1.8l-0.1-0.6h-1.8v-0.8
		c2.9-2.3,4.7-5,5.1-8.2h0.4v-0.4c-0.1-0.5-0.2-1-0.5-1.4c0-0.7,0.3-1.1,1.1-1.1l-0.5-0.7c1.6-5.9,3.2-8.9,4.8-8.9l0.4-0.7
		c-0.4,0-0.8-0.4-1.2-1v-0.4c1.2,0,2-0.4,2.1-1.1v-0.6h-1.2l3.7-9.9c1.7-0.3,2.4-1.4,2.2-3.6h-0.3c-0.1-1,0.5-1.4,1.7-1.4
		c-0.1-0.6-0.2-1.1-0.5-1.4c0.3-2.1,1.9-6.2,4.9-12.1c1.5-1.8,2.3-3.1,2.2-3.9h-1.4c-2.9,2.4-8.5,5.9-16.8,10.3L382.8,65
		c-9.2,8.5-13.8,13-13.8,13.5c-0.4,0.5-2.1,3.5-5.1,8.9c-0.5,0-0.7,0.1-0.7,0.4c-2.2-0.7-3.3-1.8-3.4-3.3c-0.1-1.9,1.4-5.1,4.7-9.6
		c3.9-5.6,7.3-9.1,10-10.6c10.7-10.7,19.3-17,25.8-18.8h1.4c-0.1-1.7,1.2-2.5,3.7-2.5c0-0.7,1.4-1.9,4.1-3.6
		c-0.1-0.4,0.7-0.9,2.3-1.4l1.4,0.4l3.4-3.2h2.1c-0.1-0.6,0.4-2,1.5-4.3c0.8-4.7,2-7,3.5-7c3.1,0.2,4.7,1.4,4.9,3.6v1l-0.2,1.8
		l0.7,0.4c0.6-0.8,0.9-1.5,0.8-2.1h1.8c0.9-0.7,1.7-1,2.4-1h0.8c0,0.7,0.3,1,0.7,1c-0.1-1.9,1.5-2.8,4.8-2.8c0-0.3,0.3-0.4,1-0.4
		c0.5,0.3,0.9,0.4,1.1,0.4c-0.1-1,2.3-2.2,7.2-3.6l0.7,0.4h1.8c1.6-1.4,6.3-2.1,14-2.1h1c1,0,2.3,0.1,3.9,0.4
		C472.3,20.2,473,19.9,473.7,19.9L473.7,19.9z M390.8,114.8v0.7c0.5,0,0.7,0.1,0.7,0.4c-0.3,1.1-1.1,2.3-2.2,3.6
		c0.3,0.4,0.4,0.8,0.4,1c-0.4,0.3-0.9,0.4-1.4,0.4l0.1,1c0,0.3,0.1,0.4,0.4,0.4c-4.3,7.8-7.1,13.6-8.4,17.4v0.6
		c5.4,0,13.5-1.7,24.2-5c0,0.3,0.1,0.4,0.4,0.4c0-0.4,2.3-1.5,6.9-3.2c0.1-0.7,1-1,2.7-1h2.2c0-0.6,2.3-2,6.8-3.9
		c0.1-0.6,1.9-1.3,5.2-2.2c1-0.8,6.1-3.6,15.4-8.5c0.3-0.6,4.5-3.4,12.6-8.2c3.9-2.4,8.2-5.3,13-8.9c0.5,0,2.4-1.4,5.4-4.2
		C491,82.3,501,71,505.3,61.8c0.6-0.3,1.6-3.6,2.9-9.9c0.3,0,0.4-0.1,0.4-0.4c-0.3-0.7-0.6-1.1-0.8-1.1l0.3-0.7
		c-0.6-9.9-7.2-16.7-19.8-20.6c-1.3-0.9-6.4-1.6-15.4-2h-1c-12.1,0-24.5,2.4-37.2,7.1c-1.1,0.8-4,2.2-8.6,4.2
		c-1.4,1.6-2.3,3.6-2.5,5.7c-0.6,0-3.2,5.9-7.8,17.7c-2.7,4.9-4.7,9.8-6.2,14.5c-0.7,0.1-1.8,2.8-3.4,7.9c-1.4,2.2-3.6,6.9-6.6,14.1
		l-3.1,7.1c-2.6,4.1-3.9,6.7-3.8,7.8C391.9,113.3,391.2,113.8,390.8,114.8L390.8,114.8z M430.9,29.1v0.8h0.7l-0.1-0.8H430.9z
		 M409.9,39.8v0.4h1v-0.4H409.9z M406.6,66.8v0.8h0.7l-0.1-0.8H406.6L406.6,66.8z M405.3,69.6l0.1,0.8h0.6l-0.1-1.4
		C405.6,69,405.3,69.2,405.3,69.6L405.3,69.6z M424,128.2v0.8h0.7l-0.1-0.8H424z M387.9,141.7v0.7h1.4v-0.7H387.9z M370.5,147.7v0.4
		h0.8v-0.4H370.5z M533.5,71.1l1.2-0.3c7.6-0.6,11.7,0.3,12.5,2.6c0.4-0.1,1.5,1.7,3.3,5.5c0.4,1.2,0.3,3.7-0.4,7.5l-0.1-0.3l0,0
		c1.5-0.3,7-4.1,16.4-11.4c1.2-0.7,2.2-1.2,3-1.4c1,3-4.1,8.9-15,17.7c-3.1,2-5.8,3.2-8,3.7c-4.5,4.7-8.1,7.8-10.5,9.5
		c-0.7,0.2-1.5,0.5-2.4,0.9c-5.4,1.3-10.1-0.3-13.9-5c-0.8-1.4-1.6-2.9-2.4-4.6c-2.5-7.9-0.7-14.1,5.2-18.8c1.9-2.3,4.9-4,9.1-5
		C531.4,71.7,532.1,71.5,533.5,71.1L533.5,71.1z M533.2,83.6c2.1,4.6,4.8,6.5,8.3,5.6l0.9-0.2c2-2.6,2.8-5.2,2.7-7.7
		c-1.7-4.3-3.7-6.1-6-5.5c-0.1-0.4-0.5-0.4-1.1-0.3C533.4,76.6,531.8,79.3,533.2,83.6z M523.2,92.4l0.3,0.8c1.2,3.9,2.6,6,4.1,6.3
		c1.1,0.3,2.5,0.2,4.2-0.2c3.5-2.1,5.3-3.5,5.5-4.2v0.1c-5.9-2.7-9.5-6-10.8-10c-0.2,0.1-0.4-0.2-0.5-0.9c-0.1-1.4-0.2-2.4-0.4-3.2
		h-0.1C522.7,84.9,522,88.7,523.2,92.4z"/>
	<path class="st0" d="M292.4,131c2.9,0.7,4.6,2.3,5.2,4.8c0.3,0,0.4,0.1,0.5,0.3c0.1,0.9-0.7,1.7-2.5,2.4c-1-0.2-1.9-0.2-2.6-0.2
		c-7.9,4.8-12.2,7.9-12.7,9.4l0.1,0.4l1-0.1c14.1-1,23.5,2,28.1,9c0.2,1.1,0.6,2.3,1.1,3.6c-0.7,5.2-3,9.2-6.9,11.9
		c-4,5-11.7,10.4-23.2,16c-1.9,1.1-4.5,1.8-7.9,2.1l-1.4,0.1c-0.3,0-0.4,0.2-0.3,0.4c-7.7-1.2-11.9-3.4-12.6-6.5
		c-0.9,0.1-2-1.3-3.2-4.2c-0.8-4.1-0.1-9.7,2.1-16.8c0.5,0,0.7-0.3,0.6-0.8l-0.2-1l-1.5,0.1c-2.4,0.2-7.6,2.6-15.6,7.3
		c-11.4,7.1-19.3,12.7-23.8,16.8c-12.1,11-22.2,21.3-30.2,31c-15.2,21.5-21.8,37.3-19.7,47.4c1.2,6.2,6,10.9,14.1,14.1
		c2.8,0.8,7.2,1.2,13.3,1.3c8.6-0.6,16.1-2.5,22.4-5.6l1.9,0.3c-0.1-0.4,6.1-4,18.4-10.6c0.6,0,2.1-1.1,4.6-3.2
		c1.1-0.1,3.1-1.1,6.1-3.1c1.1-1.3,4.1-3.3,9.2-6.2c8.2-6.1,20.4-16.8,36.7-32.2l0.1,0.4c0.2,0.4,0.5,0.6,0.9,0.6
		c-0.1-0.6,0.7-2,2.4-4.2c0.5,0,0.8,0.3,1,1.1h0.4c1.4-0.1,2.3-0.7,2.7-1.7l-0.1-0.4c-1,0.1-1.5-0.1-1.7-0.6
		c-0.1-0.3,1.2-1.2,3.9-2.8l1.2,0.6c-0.3-1.4,0.2-2.6,1.2-3.4l1.9,0.2l0.7-0.1c1.1-0.2,2.2-1.9,3.5-5c2.3-0.7,3.8-1.5,4.7-2.5
		l0.7-0.1c0.4,0,1,0.6,1.5,2c-1.2,0.5-3,2-5.3,4.5v0.3l0.6,0.7l-3.6,2.9c0.3,1.4-1.4,2.6-5.2,3.7l-0.2-0.8l-1.5,0.1l0.3,1.1l0.8-0.1
		l0.1,0.8c-1,0.1-1.8,1.2-2.3,3.4c-3.3,0.9-4.8,1.9-4.6,3h-0.4l-0.8-0.3c-0.4,2.2-1.4,3.4-3,3.5c-7.1,7.8-13.2,13.8-18.4,18.1
		c-5.1,4.3-12.5,10.4-22.1,18c-2.6,1.3-6.2,3.8-10.8,7.4l-11.4,6c0.1,0.7-5.6,3.4-17,8.3c-6.9,1.6-11.4,2.7-13.4,3.5l-2.3-0.2
		l-1.4,0.5l-2-0.6c-0.8,0.5-1.7,0.9-2.8,0.9c-9.2-0.6-15.6-2.3-19.3-4.9c-8-4.9-12.4-9.5-13.3-13.8c0.2-0.5,0.2-0.9,0.1-1.4
		c-0.4,0-0.8-0.3-1.3-1l-0.4-3.3l-0.8-1.7c0.6-6.9,1.6-10.9,2.8-12c-0.2-2.4,0.6-4.9,2.6-7.6c-0.3-1.4,0.6-2.3,2.8-2.7l-0.2-0.7
		c-0.4-0.5-0.6-0.9-0.6-1.1c1.4-4.6,3.6-8.8,6.7-12.6c1.2-0.3,2.8-2.8,4.5-7.4c2.6-1.9,4.2-3.7,4.9-5.5c1.8-1.7,3.4-3.7,5.1-5.9
		l1.6,0.3c0.6,0,0.9-0.8,1-2.3c1.4-0.1,2.2-1.4,2.2-3.8c2.4-0.7,3.4-1.8,3.1-3.1l1-0.8h0.4v1.8c1.2-0.1,1.8-0.3,1.7-0.8l-0.4-1.9
		c0.8-0.1,1.4-0.2,1.8-0.5l-0.5-0.7l-0.2-0.7l7.2-6.8l0.7-0.1l0.1,0.8l1.5-0.1l-0.3-1l-1,0.1l-0.1-0.4c-0.1-0.4,1.7-1.8,5.1-4.1
		c1.2-0.9,2.2-1.9,3.1-3.1c3.7-3.5,6.1-5.2,7.1-5.3l1.4-0.1c-0.2-1,0.9-2.2,3.4-3.6l2.3,0.2c0.8-2.5,1.9-3.8,3.3-3.9l2.2,0.2
		l1.1-0.1l-0.2-0.7l-1.7,0.5l-0.2-0.8c-0.1-0.5,1-0.9,3.5-1.4c-0.1-0.6,0.7-1.3,2.5-2c0.5,0.2,1.1,0.3,1.6,0.3
		c-0.2-0.8,0.9-1.8,3.1-2.8l2,0.2c-0.2-1.2,2.7-2.8,8.6-5c0.9-1.3,2.5-2.1,4.8-2.2l0.9,0.3c1.1-0.9,3.8-2,8-3.1
		C273.2,142,281.6,135.7,292.4,131L292.4,131z M262.7,178.4l0.2,1.1c0.5,2.5,2.5,3.8,6.1,4l2.9-0.2c3.9-0.3,9.8-3,17.7-8.2
		c4.2-2.2,7.4-4.8,9.7-7.7c2.8-3,4.2-4.7,4.1-5.1L303,160c-0.7-3.1-5.2-4.9-13.6-5.6l-5.8,0.4c-9.9,1.4-14.8,2.5-14.7,3.6
		c-4.1,7-6,11.7-5.7,14C262.3,174.2,262.2,176.2,262.7,178.4L262.7,178.4z M204.1,188.2l0.2,0.7l0.7-0.1l-0.2-0.7L204.1,188.2z
		 M199.1,192.9l0.2,1.1h0.4c1.1-0.5,1.6-1,1.6-1.6l-0.1-0.3l-0.7,0.1C199.9,192.6,199.5,192.9,199.1,192.9L199.1,192.9z
		 M320.5,197.3l1.1-0.1c-0.1,1.3-0.3,1.9-0.7,1.9h-0.4l-0.8-0.3C319.9,197.8,320.1,197.3,320.5,197.3z M318.3,199l0.4,0.7
		c0.1,0.3-0.2,0.8-0.8,1.2l-0.6-0.7l-0.1-0.8C317.5,199.4,317.8,199.2,318.3,199z M307.8,206.4h0.7l0.2,0.8l-0.8,0.1L307.8,206.4
		L307.8,206.4z M306.8,212.4c0.4,0,0.9,0.3,1.7,1c0.4-0.3,0.8-0.4,1-0.5l-0.1-0.3c-0.1-0.5-0.6-0.7-1.6-0.7
		c-0.2-0.7,0.1-1.1,0.9-1.2l-0.1-0.7C307.1,210.1,306.5,210.9,306.8,212.4L306.8,212.4z M302.9,213.4l0.1,0.4h0.4
		c0.5,0,0.7-0.3,0.5-0.8l-0.1-0.4h-0.4C303,212.7,302.8,213,302.9,213.4L302.9,213.4z M293,223.6l0.2,0.8h0.4c0.5,0,0.7-0.3,0.6-0.8
		H293L293,223.6z M335,191.1c2.5-0.2,5.4,1.1,8.6,3.9c3.3-0.2,4.9,0.8,4.9,3c0.2,0,0.4,0.1,0.4,0.4c-3.5,6.6-5.2,12.1-5.2,16.5v1.1
		c0.5,2.2,1.1,3.3,1.9,3.3l2.2-0.2c3.5-0.3,9.4-5.4,17.6-15.5c0-0.7,1.8-2.3,5.2-4.9c0.5-1.9,1.5-3.3,3-4.3h0.4
		c0,0.7,0.3,1.4,0.8,2.2c-1.5,4.5-3.7,8.7-6.7,12.7c-8.3,11.5-15.4,17.4-21.1,17.8c-5.2,0.4-9.1-2.4-11.6-8.1v-0.8l-1.1,0.1
		c-9.1,8.4-16.3,12.8-21.4,13.2l-1.1,0.1c-4.9,0.4-8-2-9.4-7.2v-0.7c0-6.8,5.1-14.3,15.4-22.5l10.5-7.5
		C328.3,192.6,330.5,191.8,335,191.1z M310.6,221.7v2.6c0.1,0.5,0.3,0.7,0.7,0.7l0.8-0.1c4.5-0.3,10.7-4.4,18.4-12.2
		c4.8-5.2,7.1-9.1,7.1-11.7v-0.4c0-3-1.1-4.4-3.4-4.3c-6,2.5-12.5,7.7-19.5,15.7C312.5,215.5,311.1,218.8,310.6,221.7L310.6,221.7z
		 M398.4,181.2c1.3-0.1,2.6,1.4,3.8,4.5c0,2.6-3.4,9.3-10.2,20.1c-2.3,5.1-3.5,9.1-3.5,12.1c0,1.1,0.6,1.6,1.9,1.5l1.6-0.1
		c5.7-2.2,14.3-10.1,25.9-23.6c2-0.5,2.9-1.6,2.9-3.4c0.1-0.5,0.3-0.7,0.7-0.7h0.3c0.3,0,0.6,0.3,1,0.9v0.9c0,1-1.2,3-3.5,6
		c-0.9,3-5,8.3-12.3,16c-4.8,4.7-9.7,8.2-14.7,10.3l-1.2,0.1c-5,0.4-8.3-1.4-9.9-5.4c0-0.6-0.1-0.9-0.3-0.9c0.2-0.8,0.4-1.2,0.7-1.3
		l-0.4-0.6v-2.2c0.7-4,3.7-9.8,9-17.2c0-0.5,1-2,3.1-4.6c1.3-2.5,2-4.1,2-4.9v-0.4l-1.3,0.1c-5.1,3.2-9.6,4.9-13.7,5.2H380
		c-0.3,0-2,2.3-5.1,6.7c-0.7,0.4-1.3,0.7-1.9,0.7h-0.3c-1.1,0.1-2.1-0.7-2.9-2.3c0.1-1.1,1.1-2.4,2.9-3.7c0-0.4,0.2-0.9,0.6-1.6
		l-2.2-2.4v-0.4c0-1.2,0.7-2.3,2.2-3.4l2.2-0.2l4.8-1.6l2.2,1.4c5.6-1.7,10.1-3.4,13.4-5.2C396.7,181.6,397.6,181.4,398.4,181.2
		L398.4,181.2z M421.6,188.5c2.4,0,3.7,0.9,3.8,2.6l0.1,0.7c0.2,2-0.5,4.2-2,6.4v0.4h0.3c5-5.7,8.8-8.9,11.5-9.6
		c-0.1-0.4,1.1-1.3,3.4-2.5l2.2-0.2c5-0.4,7.7,2.5,8.3,8.4c-0.7,1.4-1,2.3-1,2.7l0.4,0.6c-1.6,6-2.3,9.9-2.1,11.7l0.2,2.4
		c0.1,0.3,0.4,0.6,1.1,0.8h0.7c6.2-2,11.8-5.2,16.9-9.6c5.1-4.4,8.7-8.2,11-11.6c1.5-2,2.6-3.2,3.3-3.5c0.7-0.3,1.3-0.2,1.9,0.2
		s0.2,1.8-1.1,4c-3.6,5.9-7.2,10.6-10.7,14.1s-7.7,6.9-12.8,10c-1.4,1-3.7,1.9-6.8,2.8c-6.7-0.2-10.4-2.4-10.8-6.6
		c-0.2-0.3-0.4-0.9-0.5-1.9c-0.1-1.5,1-6.7,3.4-15.7l-0.3-2.5c-0.1-0.4-0.3-0.6-0.8-0.6l-1.2,0.1c-3.7,3-7.5,6.4-11.3,10.5
		c-0.3,0-1.3,1.3-2.9,3.8c-0.9,0.4-2.8,3.1-5.7,8.1c-0.8,0.2-1.6,2.2-2.3,5.7c-2.5,4.8-4.1,7.4-4.8,7.7c0.1,0.2-0.3,0.4-1.2,0.8
		c-3-0.4-4.7-1.5-4.9-3.2v-0.3c0.4-4.6,2.2-10.7,5.3-18.5c2.7-4.9,5.1-10.5,7.1-16.8C420.2,189,421,188.6,421.6,188.5L421.6,188.5z
		 M496.3,179.5c2.5-0.2,5.4,1.1,8.6,3.9c3.3-0.2,4.9,0.8,4.9,3c0.2,0,0.4,0.1,0.4,0.4c-3.5,6.6-5.2,12.1-5.2,16.5v1.1
		c0.5,2.2,1.1,3.3,1.9,3.3l2.2-0.2c3.5-0.3,9.4-5.4,17.6-15.5c0-0.7,1.8-2.3,5.2-4.9c0.5-1.9,1.5-3.3,3-4.3h0.4
		c0,0.7,0.3,1.4,0.8,2.2c-1.5,4.5-3.7,8.7-6.7,12.7c-8.3,11.5-15.4,17.4-21.1,17.8c-5.2,0.4-9.1-2.4-11.6-8.1v-0.8l-1.1,0.1
		c-9.1,8.4-16.3,12.8-21.4,13.2l-1.1,0.1c-4.9,0.4-8-2-9.4-7.2v-0.7c0-6.8,5.1-14.3,15.4-22.5l10.5-7.5
		C489.6,181,491.8,180.2,496.3,179.5L496.3,179.5z M471.9,210.1v2.6c0.1,0.5,0.3,0.7,0.7,0.7l0.8-0.1c4.5-0.3,10.7-4.4,18.4-12.2
		c4.8-5.2,7.1-9.1,7.1-11.7V189c0-3-1.1-4.4-3.4-4.3c-6,2.5-12.5,7.7-19.5,15.7C473.8,203.9,472.4,207.1,471.9,210.1z M574.9,171.7
		c0,0.5,0.1,0.7,0.4,0.7c-2.9,7.1-5.1,11.7-6.7,13.6c-2.3,3.1-3.7,5.5-4.1,7c-13.9,15.8-24.1,23.9-30.4,24.3c-4,0.3-6.6-2.1-7.9-7.3
		v-0.4c0-4.3,2.6-14.2,7.9-29.8c2.5-0.9,4.1-1.4,4.9-1.5c1-0.1,1.5,1,1.5,3.3c-3.2,8.9-5.6,17.8-7.1,26.8v1.1c0,0.4,0.4,0.7,1.1,1
		c4.3-0.3,12.3-7.1,24-20.5c0.7-0.1,2.9-3.2,6.7-9.1c0.4,0,3-3.1,7.9-9.2L574.9,171.7L574.9,171.7z M595,172.3
		c2.5-0.2,5.4,1.1,8.6,3.9c3.3-0.2,4.9,0.8,4.9,3c0.2,0,0.4,0.1,0.4,0.4c-3.5,6.6-5.2,12.1-5.2,16.5v1.1c0.5,2.2,1.1,3.3,1.9,3.3
		l2.2-0.2c3.5-0.3,9.4-5.4,17.6-15.5c0-0.7,1.8-2.3,5.2-4.9c0.5-1.9,1.5-3.3,3-4.3h0.4c0,0.7,0.3,1.4,0.8,2.2
		c-1.5,4.5-3.7,8.7-6.7,12.7c-8.3,11.5-15.4,17.4-21.1,17.8c-5.2,0.4-9.1-2.4-11.6-8.1v-0.8l-1.1,0.1c-9.1,8.4-16.3,12.8-21.4,13.2
		l-1.1,0.1c-4.9,0.4-8-2-9.4-7.2v-0.7c0-6.8,5.1-14.3,15.4-22.5l10.5-7.5C588.2,173.9,590.5,173.1,595,172.3L595,172.3z M570.6,203
		v2.6c0.1,0.5,0.3,0.7,0.7,0.7l0.8-0.1c4.5-0.3,10.7-4.4,18.4-12.2c4.8-5.2,7.1-9.1,7.1-11.7v-0.4c0-3-1.1-4.4-3.4-4.3
		c-6,2.5-12.5,7.7-19.5,15.7C572.4,196.8,571.1,200,570.6,203z M666.2,131.9c4-0.3,6.1,1.2,6.4,4.4c-1.4,9.1-3.6,15.5-6.8,19.2
		c-3.9,6.1-9.8,11.9-17.5,17.4c-8.3,4-12.3,6.6-12.2,8c-1.2,2.3-2.3,7.6-3,16l0.3,3.3c0.3,3,2,4.4,5.2,4.1l1.5-0.1
		c5.2-0.4,10.7-2.9,16.7-7.7c4-2.8,7.7-6,11.1-9.5c0.4-1.1,3.3-4,8.6-8.7l3.7-5.5c1.1,0.3,1.6,0.7,1.6,1c-1.7,7-6.1,13.8-13,20.2
		c-9.9,10.3-19,15.8-27.3,16.4l-1.9,0.1c-6,0.4-10.4-2.5-13.1-8.8l-0.4-4.5c0.5-6.7,1.7-11.5,3.5-14.5c-0.3-2.8-0.1-5.1,0.4-6.8
		c0.6-1.8,1.4-2.7,2.5-2.7c-0.1-0.9,1.1-3,3.3-6.3c0.1-2.8,3.2-8,9.4-15.7C654.5,138.7,661.5,132.2,666.2,131.9L666.2,131.9z
		 M641.2,169.3l0.7,0.3c8.1-4.8,14.3-10.7,18.6-17.8c1.8-1.5,3.8-5.8,6.2-12.8l-0.1-1.9c-2.3,0.2-6.9,4.4-13.8,12.6
		C645.6,159.7,641.7,166.3,641.2,169.3z"/>
	<g id="_1879066601424">
		<path class="st1" d="M250,2.1c1.5,1.6,3.4,4.6,4.3,6.2s0.8,1.6,0.7,1.7c-0.2,0-0.4,0-1.1,0c-0.7,0-1.8,0-2.4-0.1
			c-0.7-0.1-1-0.3-1.9-1.3c-1-1.1-2.7-3-3.8-4.1s-1.7-1.2-2.2-1.3s-1-0.1-3.7-0.1c-2.8,0-7.9,0-10.7,0.1s-3.3,0.2-3.6,0.3
			s-0.3,0.2-0.3,2.9s0,8.1,0.1,11s0.3,3.2,0.4,3.6c0.1,0.3,0.1,0.6,2.3,0.8c2.2,0.1,6.7,0.1,9.3,0.1s3.4,0,4.1-0.3
			c0.7-0.3,1.3-1,1.8-1.9s0.8-2.1,1.2-2.7c0.3-0.6,0.7-0.7,1.1-0.9c0.4-0.1,0.9-0.3,1.2-0.2c0.3,0,0.3,0.2,0.3,1.4
			c0,1.1,0,3.2,0,4.4c0,1,0,1.5-0.1,1.7c0.1,0.3,0.1,0.7,0.1,1.7c0,1.2,0,3.3,0,4.4s-0.1,1.3-0.3,1.4c-0.3,0-0.7-0.1-1.2-0.2
			c-0.4-0.1-0.8-0.2-1.1-0.9c-0.3-0.6-0.7-1.8-1.2-2.7c-0.5-0.9-1.1-1.6-1.8-1.9s-1.5-0.3-4.1-0.3s-7.1,0-9.3,0.1s-2.2,0.4-2.3,0.8
			c-0.1,0.3-0.3,0.7-0.4,3.6c-0.1,2.9-0.1,8.3-0.1,11s0.1,2.8,0.3,2.9c0.3,0.1,0.8,0.3,3.6,0.3c2.8,0.1,7.9,0.1,10.7,0.1
			s3.2,0,3.7-0.1s1-0.3,2.2-1.3c1.1-1.1,2.8-3,3.8-4.1s1.3-1.2,1.9-1.3c0.7-0.1,1.8-0.1,2.4-0.1c0.7,0,0.9,0,1.1,0
			c0.2,0,0.3,0.1-0.7,1.7c-0.9,1.5-2.8,4.6-4.3,6.2c-1.5,1.6-2.5,1.9-3.8,2c-1.4,0.1-3.1,0.1-8.4,0.1c-5.2,0-14,0-18.5,0
			s-4.9,0-5.2,0c-0.4,0-0.8,0.1-1-0.3c-0.2-0.3-0.2-1-0.1-1.4c0.1-0.4,0.2-0.4,0.6-0.7c0.4-0.3,1.2-0.9,1.7-1.5s0.7-1.3,0.7-1.9
			c0.1-0.7,0.1-1.3,0.1-4.2s0-8.1,0.1-10.8c0-1.5,0.1-2.2,0.1-2.6c-0.1-0.4-0.1-1.1-0.1-2.6C216,18.1,216,13,216,10
			c0-2.9,0-3.6-0.1-4.2c-0.1-0.7-0.3-1.3-0.7-1.9c-0.5-0.6-1.2-1.2-1.7-1.5C213.1,2,213,2,212.9,1.7c-0.1-0.4-0.1-1.1,0.1-1.4
			c0.2-0.3,0.6-0.3,1-0.3s0.7,0,5.2,0s13.3,0,18.5,0s7,0,8.4,0.1C247.5,0.3,248.5,0.5,250,2.1z"/>
		<circle class="st1" cx="262.4" cy="43.8" r="3.1"/>
		<path class="st1" d="M271.6,46.8c-0.5,0.1-0.5,0.1-0.5-0.3c0-0.3,0-1,0-1.4s0.1-0.7,0.3-0.9c0.2-0.2,0.5-0.4,1.3-1
			c0.8-0.7,2-1.8,2.6-2.5s0.6-1,0.6-1.4c0-0.3,0-0.7,0-6.5s0-17.1,0-22.8c0-5.8-0.1-6-0.4-6.3s-0.8-0.5-1.2-0.7
			c-0.3-0.2-0.4-0.3-0.5-0.7s-0.1-1.2,0-1.6s0.3-0.4,0.5-0.4s0.6,0,2.7,0c2.2,0,6.2,0,8.4,0c2.1,0,2.4,0,2.5,0s0.1,0.1,2.6,4
			s7.2,11.6,9.6,15.5s2.4,3.9,4.3,0c1.9-3.8,5.6-11.5,7.5-15.4c1.9-3.8,1.9-3.8,1.9-3.8s0,0,2,0s6.1,0,8.2,0s2.3,0,2.3,0
			c0.1,0,0.1,0,0.1,7.1s0,21.5,0,28.7s0,7.3,0.3,7.5c0.2,0.2,0.6,0.4,0.9,0.5s0.4,0.2,0.5,0.6c0.1,0.4,0.1,1.1,0,1.4
			c-0.1,0.3-0.3,0.3-3.1,0.3c-2.8,0-8.3,0-11.3,0c-2.9,0-3.3,0-3.5,0s-0.3,0-0.3-0.3s0-0.8,0.1-1.1s0.4-0.5,0.7-0.7
			c0.4-0.3,0.8-0.7,1.2-1.1c0.3-0.5,0.6-1,0.7-1.5c0.2-0.5,0.4-0.8,0.4-1.2c0.1-0.4,0.1-0.7,0.1-5.1s0-12.8,0-17.5s0-5.9,0-6.5
			s0.1-0.6-2,4.8s-6.5,16.2-8.7,21.7c-2.3,5.5-2.4,5.7-2.5,5.7c-0.1,0.1-0.1,0.1-0.4,0.1s-1.1,0-1.6,0s-0.8,0-0.9,0s-0.1,0-2.9-5
			c-2.7-5-8.2-15.1-11-20.1c-2.7-5.1-2.7-5.2-2.7-5.3s0-0.3,0.1,4c0,4.2,0,12.9,0,17.3s0,4.6,0,4.8s0,0.4,0.3,0.7s0.8,0.7,1.6,1.3
			c0.8,0.6,1.9,1.4,2.5,1.8c0.6,0.4,0.6,0.5,0.7,0.6c0,0.1,0,0.2,0,0.7s0,1.3,0,1.7s-0.1,0.4-0.2,0.4s-0.2,0-2,0c-0.5,0-1.2,0-1.9,0
			h-9C272.1,46.8,271.8,46.8,271.6,46.8L271.6,46.8z"/>
		<circle class="st1" cx="336.5" cy="43.8" r="3.1"/>
	</g>
</g>
</svg>
