<?xml version="1.0" encoding="utf-8"?>
<!-- Generator: Adobe Illustrator 21.0.0, SVG Export Plug-In . SVG Version: 6.00 Build 0)  -->
<svg version="1.1" id="Capa_1" xmlns="http://www.w3.org/2000/svg" xmlns:xlink="http://www.w3.org/1999/xlink" x="0px" y="0px"
	 viewBox="0 0 518 214.3" style="enable-background:new 0 0 518 214.3;" xml:space="preserve">
<style type="text/css">
	.st0{fill:#CCCCCC;}
</style>
<g id="Capa_x0020_1">
	<path d="M137.9,31.1l2.3,1.1l2.2-0.1c0.2,0,0.3-0.2,0.3-0.5c1.2,0.8,2.2,1.1,3,1.1h0.4l-0.1-0.8h0.7c10.2,3.8,15.6,9.7,16,17.7
		c0.1,2.6-2.1,7.8-6.8,15.7c-14.2,16-28.6,27.2-43.1,33.7c-3.3,2.8-12.2,6.4-26.9,10.9c-9.3,2.9-17.7,4.6-25.1,5
		c-9.8-1.5-14.8-3.3-14.9-5.4h-0.4c-1.6,0.1-4.4,3.9-8.5,11.5c-4,5.5-7.7,12.2-11.1,20c-9.3,18.8-13.6,33.9-13,45.3
		c1.9,8.6,5.1,12.8,9.8,12.5c0.1,0.8,2.1,1,5.9,0.8h0.7c8.1-0.5,18.9-5.7,32.3-15.6c-0.1-0.4,2.1-1.5,6.5-3.2c1.2-1.6,3.3-3,6.3-4.3
		c-0.1-1.7,1.7-3.2,5.3-4.7c-0.1-1.1,1.3-2.5,4.1-4.1c-0.1-1.1,1.6-2.7,4.9-4.7c0-0.8,3.6-4.4,10.9-10.8
		c7.2-7.4,10.8-11.2,10.8-11.4c4.9-4.6,7.3-7.4,7.3-8.2l1.5-0.1c-0.2,0.5-0.3,0.9-0.3,1.1l0.7,0.4h0.4l-0.1-2l0.3-0.8l1.9,0.4
		c0.5,0,0.7-0.3,0.6-0.8l-1.2-1.5v-0.5c0.9-0.1,1.5-0.8,1.7-2.1l1.1-0.8h0.8l1,0.7l0.4-0.8l-0.8-1.1v-0.4c6.5-6.7,9.7-10.5,9.6-11.2
		l7.7-7.5c-0.1-1.1,2.7-4.4,8.3-10c2.6-6.2,4.9-9.4,6.9-9.5h0.7c3.3,0.9,4.9,2.5,5,4.9c0.1,0.8-2.8,5.7-8.7,14.7
		c-5.8,12.4-8.4,22.6-8,30.5c0.1,0.2,0.2,0.6,0.4,1.1c-0.2,0.5-0.3,0.9-0.2,1.2c1.3,6,3.4,8.9,6.2,8.7h0.8
		c6.7-0.8,18.5-11.4,35.6-32l4.3-3.4c0-0.3-0.1-0.5-0.4-0.4l2.4-3.3H196c1.5-3.5,3.1-5.3,4.8-5.4l0.1,0.5c-0.3,0.5-0.4,0.9-0.3,1.1
		l1.5-0.1c0.7-0.2,1-1.2,0.9-3.2l1.8-0.1c1.7-3.7,3.4-5.7,4.9-5.7l0.4,0.7c0,0.6-0.4,1.9-1.2,4l-0.7-0.4h-0.9
		c-0.8,2.2-1.2,3.6-1.2,4.1c0.5,0,0.8,0.3,0.9,0.7c-1.6,1.1-2.7,1.7-3.2,1.8c0,0.2,0.4,0.6,1.1,1c-1,2.4-2.7,4.7-5.1,7
		c0.1,1.6-2.4,5.1-7.6,10.3c-9.2,12.3-19.2,22.3-30.3,30.2c-2.2,0.7-3.3,1.1-3.3,1.4c-0.7-0.2-1.1-0.4-1.1-0.7l-2.2,0.6
		c-8,0.5-13.3-4.9-15.9-16.1c0-0.6-0.2-2.6-0.6-5.9l1.6-12.7H140l-26.1,28.4c-0.6,0-4.8,4.2-12.6,12.6c-0.6,0-2.8,2.1-6.6,6.3
		c-13.7,12.6-21.8,18.9-24.3,19.1c-4.2,4.7-12.2,9.9-23.8,15.6l-10.8,4.6l-1.5-0.3c-1.5,0.2-2.2,0.5-2.2,0.9l-0.7-0.4
		c-0.4,0-1.8,0.2-4.4,0.7c-7.1-1.2-11.6-2.9-13.5-5.2c-4.4-3.1-6.6-6.3-6.8-9.5c-0.7,0-1.5-2.4-2.3-7.4l0.2-3.6l-0.5-1.9
		c1.3-8.9,2.9-15.7,4.9-20.4c0.4-0.4,2.3-5.8,5.7-16.1c2.3-1.5,3.4-3.8,3.3-6.6c2-4.3,3.9-7.7,5.7-10.2l3,0.6
		c0.2-0.9,0.3-1.5,0.3-1.6l-0.8-0.3l-1.8,0.1l-0.1-0.8l1.9-0.1v-0.9l-0.4-0.8c1-0.1,1.4-0.5,1.3-1.2v-0.5h-0.7V122
		c0.2-0.8,0.9-1.3,2.1-1.3c0.1,0.4,0.5,0.8,1.2,1.2c1.2-0.7,1.7-1.8,1.7-3.2c-0.1-0.7-0.7-1.1-2-1.1v-1.2c0.4,0,1.7-1.7,3.7-4.9
		c1.7-3,3.4-4.5,4.9-4.6c0.6-3.5,1.1-5.2,1.6-5.2H40v1.2l1.1-0.1v-0.3l-0.5-2c0.5,0,0.7-0.3,0.7-0.8l1.8,0.2
		c1.7-0.8,2.5-1.3,2.5-1.7l-0.1-0.8c0-0.6-0.6-1-1.9-1v-0.5c2.6-2.4,6.3-6.4,11.1-12H55c0.6,1,1.3,1.5,2.3,1.4l0.4-0.8l-0.1-0.8
		c-1.2,0.1-1.8-0.4-1.9-1.5l6.1-2.3l-0.1-0.8L58,79.3V79c5.4-4.2,9.2-7.7,11.5-10.6c0.4-0.3,0.9-0.4,1.5-0.4h0.4v0.3l-1,1.7v0.8h0.4
		c0.5,0,1.8-2,3.7-5.8l3.1-2.9l1.9,0.2h0.7c0.8-0.8,2.2-1.4,4.4-1.8c1.3-2.1,2-3.4,2-4l0.7,0.3H88c0.7-1.3,1.4-2,2.1-2
		c0.1,0.5,0.4,0.7,0.9,0.7l1.5-0.1l1.3-2.9c1.2-0.1,1.8-0.4,1.8-0.9c-0.5-0.2-0.9-0.4-1.1-0.4c-0.5,0.3-0.9,0.5-1.1,0.5L93.3,51
		c0-0.5,0.7-1,2.2-1.3c0.1,0.5,0.4,0.8,0.8,0.8H97l0.6-0.5l-0.4-0.7V49c0-0.4,0.3-0.8,1-1.3l0.1,1.2h0.3c1.7-2.4,3.2-3.7,4.3-3.8
		c-0.1-0.8,1.1-1.6,3.5-2.2h0.7l-0.6,1.3c0.1,0.5,0.3,0.7,0.7,0.7c0.5,0,0.7-0.5,0.7-1.3l-0.1-1.1c0.5,0,1.9-0.8,4.3-2.3h0.4v0.5
		c0.5-0.3,0.9-0.5,1.1-0.5l-0.4-0.8l-0.1-0.3c0.5,0,1-0.2,1.5-0.5c1.4,0.2,2.5,0.3,3.3,0.3c0.2-0.5,1.5-1.2,3.5-2.2V36l2.6,0.3h0.7
		c-0.1-1.1,0.1-1.6,0.6-1.6c0.5,0.2,1,0.3,1.5,0.3C127.5,33.1,131.1,31.9,137.9,31.1L137.9,31.1z M49.1,103.7
		c1.3,0.8,3.5,1.7,6.5,2.8l5.1-0.3c1.1-0.1,2.1,0,3,0.3c10.2-1.4,15.3-2.5,15.3-3.2l1.8,0.2l22.8-8.8c0.2-0.5,3-1.9,8.5-4.4
		c6.7-4.1,13.8-8.9,21.3-14.2c0.9,0,1.9-0.8,3.2-2.2l3.5-3.8c1.6-1.6,3.1-2.6,4.6-2.9c0-0.3-0.1-0.5-0.4-0.4c0-1.1,1.9-3.3,5.6-6.6
		c3.9-5.5,5.7-9.5,5.6-12.2c-0.2-4.9-4.6-7.7-13-8.3c-2.2,0.1-3.9,0.1-5.1-0.2c-5.6,0.3-15.8,4.1-30.7,11.3
		C101.8,53.6,94,59.1,83.2,67c-3.9,2.8-10.6,9.2-19.9,18.9c-4.9,4.5-9.6,10.3-14.2,17.4L49.1,103.7L49.1,103.7z M104.9,45.7l0.1,1.2
		c0.5,0,0.7-0.3,0.6-0.8v-0.4H104.9L104.9,45.7z M100.9,47.9v0.3l1.5-0.1v-0.8h-0.3C101.6,47.7,101.2,47.9,100.9,47.9z M80.6,58.9
		l1.9-0.1v0.3l-1.8,0.6L80.6,58.9z M75.1,65.5l-0.3,0.8v0.4h0.7c0.5,0,0.7-0.3,0.7-0.8C75.9,65.9,75.5,65.8,75.1,65.5z M68,71.5
		l0.1,0.8l1.5-0.1l-0.1-0.8L68,71.5z M63.1,76.5v0.3h0.7v-0.3H63.1z M58.6,82.2v0.5h0.7v-0.5H58.6z M36.5,108.3v0.8h0.7v-0.8H36.5z
		 M34,110.9l0.1,0.3c0,0.4,0.4,0.7,1.2,1.2l0.2-2v-0.3h-0.7C34.2,110.2,34,110.5,34,110.9L34,110.9z M31.7,115l-0.3,0.8
		c0.1,0.5,0.3,0.8,0.7,0.8h0.4l-0.1-0.8C32.5,115.2,32.2,115,31.7,115z M210.8,91.3h0.7l-0.2,2.4h-0.7v-0.5L210.8,91.3L210.8,91.3z
		 M28.2,118.8l1.2-0.1v0.8l-1.1,0.1L28.2,118.8z M196.6,107.9l0.7,0.3c1-0.8,1.9-1.2,2.5-1.3v-0.5c-0.1-0.5-0.4-0.8-1.1-0.7
		C197.4,106.4,196.7,107.1,196.6,107.9L196.6,107.9z M22.7,132.4l0.1,1.2h0.3c0.5,0,0.7-0.3,0.7-0.8l-0.7-0.4H22.7z M14,148.8
		l0.1,0.3c0,0.4,0.4,0.7,1.1,1.2c0.5,0,0.7-0.3,0.6-0.8V149L14,148.8z M108.3,145.8v0.8l1.1-0.1c-0.1-0.5-0.3-0.7-0.8-0.7H108.3z
		 M244.6,42.1c4.4-0.3,6.8,1.6,7.1,5.4c-1.5,10.8-4,18.4-7.6,22.8c-4.4,7.2-10.8,14-19.4,20.4c-9.2,4.5-13.7,7.7-13.5,9.3
		c-1.4,2.7-2.5,9-3.3,19l0.3,4c0.3,3.6,2.2,5.3,5.8,5.1l1.7-0.1c5.7-0.3,11.9-3.2,18.5-8.8c4.4-3.2,8.5-6.9,12.3-11.1
		c0.5-1.3,3.7-4.7,9.5-10.2l4.1-6.5c1.2,0.4,1.7,0.8,1.7,1.3c-1.9,8.4-6.7,16.3-14.4,23.9c-10.9,12.1-21.1,18.4-30.3,19l-2.1,0.1
		c-6.7,0.4-11.6-3.2-14.5-10.8l-0.4-5.4c0.6-7.9,1.8-13.7,3.9-17.2c-0.3-3.3-0.1-6.1,0.5-8.2s1.6-3.1,2.8-3.2
		c-0.1-1.1,1.2-3.5,3.7-7.4c0.1-3.4,3.5-9.5,10.4-18.5C231.6,49.9,239.5,42.4,244.6,42.1L244.6,42.1z M216.9,86.2l0.8,0.4
		c8.9-5.5,15.8-12.5,20.6-20.9c2-1.8,4.2-6.8,6.9-15.1l-0.1-2.2c-2.6,0.1-7.7,5.1-15.3,14.7C221.8,74.9,217.5,82.5,216.9,86.2
		L216.9,86.2z M283.3,50.1c2.9,0.4,4.4,0.7,4.5,0.7v1.3c-1,3.4-5.5,8.3-13.7,14.7c-4.1,2.9-7.1,4.5-9.2,4.6
		c-2.8-0.2-4.1-1.6-4.1-4.2c0-2.3,4.4-5.9,13.3-11.1C276.3,54.1,279.4,52.2,283.3,50.1z M260.4,88.2h0.8c1.5-0.1,2.7,0.6,3.3,2.1
		v1.3c-4.7,9.8-7.1,17.7-7.1,23.7v4.9c0,2.3,0.8,3.9,2.5,4.8l3.3-0.2c3.7-0.2,10.2-5.1,19.5-14.5c0.8,0,1.7-1,2.5-2.9
		c0.4,0,4.1-4.4,11.2-13.2c0.4,0,0.8-0.9,1.2-2.7c1.7-1.3,2.9-2,3.7-2h0.4c0.6,0,0.8,0.3,0.8,0.9c-2.3,8.1-7.1,16.7-14.1,25.9
		c-8.3,9-15.3,14.4-21.2,16.4l-4.1,1.2c-9.7-0.7-14.5-5.4-14.5-14.4c-0.4,0-0.6-0.8-0.9-2.6c2.1-11.9,5.1-20,9.1-24.3L260.4,88.2
		L260.4,88.2z M314.3,74.8c5,0.7,7.5,3.3,7.5,7.6c-1.4,7.2-3.2,10.9-5.4,11c-0.3,0-0.7,0.2-1.2,0.5c-1.5,0.1-2.6-0.8-3.3-2.5
		c1.1-3.6,1.7-6.5,1.7-8.6c0-0.6-0.3-0.9-0.9-0.9c-5,1-7.5,2.8-7.5,5.4c0,6.8,2.5,13.5,7.5,20.2l0.9,0.4c1.5-1.4,4.3-3.5,8.3-6.3
		c8.4-6.3,16.3-10,23.5-11c3.4-2.6,6-3.9,7.9-4l0.4,0.9v1.3c-1.2,0.1-4,2.3-8.3,6.8c-5.6,3.6-14.4,9.5-26.4,17.4l-1.7,2.3
		c2.2,3.9,3.3,8.3,3.3,13.3c-1.6,6.2-5.3,11.5-11.2,15.8c-4.6,4.4-10,7.2-16.2,8.5c-7.5-0.8-11.2-3.2-11.2-7.4v-2.2
		c0-2.5,2.1-5.7,6.2-9.8c3.1-4.4,9.3-10.7,18.7-19l0.4-0.9v-0.9c-6.6-9.9-10-17.9-10-24c0.5-6.9,2.6-10.5,6.2-10.7
		C307.3,76.5,310.9,75.4,314.3,74.8L314.3,74.8z M290.2,144.3v0.5c0.1,0.9,1.1,1.3,2.9,1.2c4.5-0.3,10.2-4,17-11.3
		c0-0.3,0.8-2.3,2.5-6V125c0-0.7-0.2-2-0.8-4l-1.7,0.1C296.9,133.6,290.2,141.3,290.2,144.3L290.2,144.3z M363.7,72
		c5,0.7,7.5,3.3,7.5,7.6c-1.4,7.2-3.2,10.9-5.4,11c-0.3,0-0.7,0.2-1.2,0.5c-1.5,0.1-2.6-0.8-3.3-2.5c1.1-3.6,1.7-6.5,1.7-8.6
		c0-0.6-0.3-0.9-0.9-0.9c-5,1-7.5,2.8-7.5,5.4c0,6.8,2.5,13.5,7.5,20.2l0.9,0.4c1.5-1.4,4.3-3.5,8.3-6.3c8.4-6.3,16.3-10,23.5-11
		c3.4-2.6,6-3.9,7.9-4l0.4,0.9V86c-1.2,0.1-4,2.3-8.3,6.8c-5.6,3.6-14.4,9.5-26.4,17.4l-1.7,2.3c2.2,3.9,3.3,8.3,3.3,13.3
		c-1.6,6.2-5.3,11.5-11.2,15.8c-4.6,4.4-10,7.2-16.2,8.5c-7.5-0.8-11.2-3.2-11.2-7.4v-2.2c0-2.5,2.1-5.7,6.2-9.8
		c3.1-4.4,9.3-10.7,18.7-19l0.4-0.9V110c-6.6-9.9-10-17.9-10-24c0.5-6.9,2.6-10.5,6.2-10.7C356.7,73.7,360.3,72.6,363.7,72L363.7,72
		z M339.6,141.4v0.5c0.1,0.9,1.1,1.3,2.9,1.2c4.5-0.3,10.2-4,17-11.3c0-0.3,0.8-2.3,2.5-6v-3.6c0-0.7-0.2-2-0.8-4l-1.7,0.1
		C346.2,130.8,339.6,138.5,339.6,141.4L339.6,141.4z M408.8,78.7l1.3-0.4c8.4-1.2,13-0.4,13.8,2.3c0.4-0.2,1.6,2,3.6,6.4
		c0.4,1.4,0.3,4.4-0.4,9l-0.1-0.3h-0.1c1.7-0.5,7.7-5.3,18.2-14.6c1.3-1,2.4-1.6,3.3-1.9c1.1,3.5-4.5,10.9-16.6,22.1
		c-3.4,2.6-6.4,4.2-8.8,5c-5,5.9-8.9,9.9-11.6,12c-0.7,0.3-1.7,0.7-2.7,1.3c-6,1.9-11.2,0.3-15.5-5c-0.9-1.6-1.8-3.4-2.6-5.4
		c-2.8-9.2-0.8-16.8,5.8-22.8c2.1-2.9,5.5-5.1,10.1-6.5C406.5,79.6,407.2,79.3,408.8,78.7L408.8,78.7z M408.4,93.6
		c2.3,5.4,5.4,7.5,9.2,6.2l1-0.3c2.2-3.3,3.2-6.4,3-9.3c-1.8-5-4.1-7-6.6-6.2c-0.1-0.4-0.6-0.5-1.2-0.2
		C408.6,85.3,406.9,88.6,408.4,93.6L408.4,93.6z M397.3,104.8l0.3,1c1.3,4.5,2.8,7,4.6,7.3c1.2,0.3,2.8,0.1,4.6-0.5
		c3.8-2.7,5.9-4.5,6.1-5.4v0.1c-6.5-2.8-10.5-6.6-12-11.3c-0.2,0.1-0.4-0.2-0.6-1.1c-0.1-1.6-0.2-2.9-0.4-3.8h-0.1
		C396.8,95.9,396,100.5,397.3,104.8L397.3,104.8z M447.6,77.1c2.7,0,4.1,1.1,4.3,3.2l0.1,0.8c0.2,2.4-0.5,5-2.2,7.6v0.5h0.3
		c5.5-6.7,9.8-10.4,12.7-11.2c-0.1-0.5,1.2-1.5,3.7-2.9L469,75c5.5-0.3,8.5,3.1,9.2,10.2c-0.7,1.6-1.1,2.7-1.1,3.2l0.4,0.8
		c-1.7,7.1-2.5,11.8-2.3,13.9l0.2,2.8c0.1,0.3,0.5,0.7,1.2,1h0.7c6.8-2.3,13.1-5.9,18.7-11s9.7-9.6,12.2-13.6
		c1.7-2.4,2.9-3.8,3.6-4.1c0.8-0.3,1.5-0.2,2.1,0.3c0.6,0.5,0.2,2.1-1.2,4.8c-4,7-8,12.5-11.8,16.7c-3.9,4.1-8.6,8.1-14.2,11.7
		c-1.6,1.2-4.1,2.2-7.6,3.1c-7.5-0.4-11.5-3.1-12-8.2c-0.2-0.3-0.4-1.1-0.5-2.3c-0.1-1.8,1.1-8,3.7-18.7l-0.3-3
		c-0.1-0.5-0.4-0.7-0.9-0.7l-1.3,0.1c-4.1,3.4-8.3,7.5-12.6,12.3c-0.4,0-1.4,1.5-3.2,4.4c-1,0.4-3.1,3.6-6.3,9.5
		c-0.9,0.3-1.8,2.5-2.6,6.8c-2.8,5.7-4.5,8.7-5.3,9.1c0.1,0.2-0.4,0.5-1.3,0.9c-3.4-0.6-5.2-1.9-5.4-3.9v-0.3
		c0.5-5.5,2.4-12.8,5.9-22c3-5.8,5.6-12.5,7.9-19.9C446,77.7,446.9,77.1,447.6,77.1L447.6,77.1z"/>
	<g id="_1879073259696">
		<path class="st0" d="M364.9,2.1c1.5,1.6,3.4,4.6,4.3,6.2c0.9,1.5,0.8,1.6,0.7,1.7c-0.2,0-0.4,0-1.1,0s-1.8,0-2.4-0.1
			s-1-0.3-1.9-1.3c-1-1.1-2.7-3-3.8-4.1c-1.1-1.1-1.7-1.2-2.2-1.3s-1-0.1-3.7-0.1s-7.9,0-10.7,0.1c-2.8,0.1-3.3,0.2-3.6,0.3
			c-0.3,0.1-0.3,0.2-0.3,2.9s0,8.1,0.1,11s0.3,3.2,0.4,3.6c0.1,0.3,0.1,0.6,2.3,0.8c2.2,0.1,6.7,0.1,9.3,0.1c2.6,0,3.4,0,4.1-0.3
			s1.3-1,1.8-1.9s0.8-2.1,1.2-2.7c0.3-0.6,0.7-0.7,1.1-0.9c0.4-0.1,0.9-0.3,1.2-0.2c0.3,0,0.3,0.2,0.3,1.4s0,3.2,0,4.4
			c0,1,0,1.5-0.1,1.7c0.1,0.3,0.1,0.7,0.1,1.7c0,1.2,0,3.3,0,4.4s-0.1,1.3-0.3,1.4s-0.7-0.1-1.2-0.2c-0.4-0.1-0.8-0.2-1.1-0.9
			c-0.3-0.6-0.7-1.8-1.2-2.7c-0.5-0.9-1.1-1.6-1.8-1.9c-0.7-0.3-1.5-0.3-4.1-0.3s-7.1,0-9.3,0.1c-2.2,0.1-2.2,0.4-2.3,0.8
			c-0.1,0.3-0.3,0.7-0.4,3.6s-0.1,8.3-0.1,11s0.1,2.8,0.3,2.9c0.3,0.1,0.8,0.3,3.6,0.3c2.8,0.1,7.9,0.1,10.7,0.1s3.2,0,3.7-0.1
			s1-0.3,2.2-1.3c1.1-1.1,2.8-3,3.8-4.1s1.3-1.2,1.9-1.3c0.7-0.1,1.8-0.1,2.4-0.1c0.7,0,0.9,0,1.1,0s0.3,0.1-0.7,1.7
			c-0.9,1.5-2.8,4.6-4.3,6.2c-1.5,1.6-2.5,1.9-3.8,2c-1.4,0.1-3.1,0.1-8.4,0.1c-5.2,0-14,0-18.5,0s-4.9,0-5.2,0
			c-0.4,0-0.8,0.1-1-0.3c-0.2-0.3-0.2-1-0.1-1.4s0.2-0.4,0.6-0.7s1.2-0.9,1.7-1.5s0.7-1.3,0.7-1.9s0.1-1.3,0.1-4.2s0-8.1,0.1-10.8
			c0-1.5,0.1-2.2,0.1-2.6c-0.1-0.4-0.1-1.1-0.1-2.6C331,18.1,331,12.9,331,10s0-3.6-0.1-4.2c-0.1-0.7-0.3-1.3-0.7-1.9
			c-0.5-0.6-1.2-1.2-1.7-1.5C328,2,327.9,2,327.8,1.7c-0.1-0.4-0.1-1.1,0.1-1.4s0.6-0.3,1-0.3s0.7,0,5.2,0s13.3,0,18.5,0
			s7,0,8.4,0.1S363.4,0.5,364.9,2.1z"/>
		<circle class="st0" cx="377.3" cy="43.8" r="3.1"/>
		<path class="st0" d="M386.4,46.8c-0.5,0.1-0.5,0.1-0.5-0.3c0-0.3,0-1,0-1.4s0.1-0.7,0.3-0.9c0.2-0.2,0.5-0.4,1.3-1
			c0.8-0.7,2-1.8,2.6-2.5s0.6-1,0.6-1.4c0-0.3,0-0.7,0-6.5s0-17.1,0-22.8c0-5.8-0.1-6-0.4-6.3s-0.8-0.5-1.2-0.7
			c-0.3-0.2-0.4-0.3-0.5-0.7s-0.1-1.2,0-1.6s0.3-0.4,0.5-0.4c0.3,0,0.6,0,2.7,0c2.2,0,6.2,0,8.4,0c2.1,0,2.4,0,2.5,0s0.1,0.1,2.6,4
			s7.2,11.6,9.6,15.5s2.4,3.9,4.3,0c1.9-3.8,5.6-11.5,7.5-15.4c1.9-3.8,1.9-3.8,1.9-3.8s0,0,2,0s6.1,0,8.2,0s2.3,0,2.3,0
			c0.1,0,0.1,0,0.1,7.1s0,21.5,0,28.7s0,7.3,0.3,7.5c0.2,0.2,0.6,0.4,0.9,0.5s0.4,0.2,0.5,0.6c0.1,0.4,0.1,1.1,0,1.4
			c-0.1,0.3-0.3,0.3-3.1,0.3c-2.8,0-8.3,0-11.3,0c-2.9,0-3.3,0-3.5,0s-0.3,0-0.3-0.3s0-0.8,0.1-1.1s0.4-0.5,0.7-0.7
			c0.4-0.3,0.8-0.7,1.2-1.1c0.3-0.5,0.6-1,0.7-1.5c0.2-0.5,0.4-0.8,0.4-1.2c0.1-0.4,0.1-0.7,0.1-5.1s0-12.8,0-17.5s0-5.9,0-6.5
			s0.1-0.6-2,4.8s-6.5,16.2-8.7,21.7c-2.3,5.5-2.4,5.7-2.5,5.7c-0.1,0.1-0.1,0.1-0.4,0.1c-0.4,0-1.1,0-1.6,0s-0.8,0-0.9,0
			s-0.1,0-2.9-5c-2.7-5-8.2-15.1-11-20.1c-2.7-5.1-2.7-5.2-2.7-5.3s0-0.3,0.1,4c0,4.2,0,12.9,0,17.3s0,4.6,0,4.8s0,0.4,0.3,0.7
			s0.8,0.7,1.6,1.3c0.8,0.6,1.9,1.4,2.5,1.8c0.6,0.4,0.6,0.5,0.7,0.6c0,0.1,0,0.2,0,0.7s0,1.3,0,1.7s-0.1,0.4-0.2,0.4s-0.2,0-2,0
			c-0.5,0-1.2,0-1.9,0h-9C387,46.8,386.7,46.8,386.4,46.8L386.4,46.8z"/>
		<circle class="st0" cx="451.4" cy="43.8" r="3.1"/>
	</g>
</g>
</svg>
