<?xml version="1.0" encoding="utf-8"?>
<!-- Generator: Adobe Illustrator 21.0.0, SVG Export Plug-In . SVG Version: 6.00 Build 0)  -->
<svg version="1.1" id="Capa_1" xmlns="http://www.w3.org/2000/svg" xmlns:xlink="http://www.w3.org/1999/xlink" x="0px" y="0px"
	 viewBox="0 0 833.5 265.6" style="enable-background:new 0 0 833.5 265.6;" xml:space="preserve">
<style type="text/css">
	.st0{stroke:#000000;stroke-width:2;stroke-miterlimit:22.9256;}
	.st1{fill:#CCCCCC;}
</style>
<g id="Capa_x0020_1">
	<path class="st0" d="M202.9,4.1c5.2,1,8.7,2.9,10.7,5.7c1,1.5,1.7,3.7,2.2,6.6c-1.4,4.9-5.7,10.2-13.1,15.8
		c-5.9,4.6-14.5,9-25.8,13.1c-4.7,1.1-7.3,2-7.8,2.5c-0.6,0.1-1.4,0-2.7,0l-10.3,2.5c-0.5-0.2-0.9-0.3-1.2-0.3l-0.7,0.1
		c-0.9,0.1-3.3,3.9-7.2,11.4c-1.2,0.9-3,4.2-5.2,9.8c-0.8,0.1-1.6,1.9-2.7,5.5c-1.4,2.2-3.5,6.6-6.2,13.1c-3.1,5.2-5.5,10-7.1,14.5
		c-0.8,0.3-1.9,2.3-3.2,6.2c-2.2,2.5-4.4,6.6-6.6,12c-1,1.1-1.5,1.7-1.5,1.8l-0.6,0.1c15.6,0.9,28,1.7,37,2.4l1.4-0.5l3.7,0.3
		l2.3-0.6c5-0.3,7.6-0.3,7.8-0.1c7.5-0.8,15.9-2.6,25.3-5.6c0.5,0.3,0.9,0.4,1.2,0.4h-0.2c1.1-1.6,2.2-2.5,3.5-2.6l1.3-0.1
		c0,1-0.1,1.5-0.3,1.6h-0.3c0-1,1.1-1.6,3.3-1.9l2.3-0.2c-2,2.9-4.7,5-7.8,6.4c-3.4,2-7.6,3.8-12.7,5.4l-1.9,0.2v0.7
		c-1.2,0.1-2,0.1-2.4-0.2c-5.7,1.2-9.4,2.2-10.9,3c-2.1,0-3.8,0.1-5.1,0.2H161c-0.9,0.1-1.8,0.3-2.8,0.6c-5.1,0.2-9.1,0.2-11.8-0.2
		l-1.3,0.6l-9.2-0.7v0.3l-16.1-1.4l-8.1-0.6l-0.8,0.5c-0.6-0.2-1-0.3-1.4-0.3h-0.3c-0.3,0-1.3,1.7-3,5c-0.7,0.5-1.7,1.9-3,4.4
		c-0.4,0.2-4.5,4.8-12.3,13.9c-4.9,4.2-9,7.2-12.1,9.1c-0.1,1.1-2.3,2.9-6.6,5.3c-10.2,6.8-18.2,10.4-23.9,11
		c-0.1,0.2-3,0.9-8.5,2.3c-1-0.4-2.2-0.5-3.8-0.3h-0.3c0.4,0,0.6,0.2,0.6,0.8l-2-0.6l-0.8,0.1c-7.2,0.7-14.9-2-22.9-8.2
		c-2.7-3.1-4.8-6.8-6.5-11.1l0.4-2.8v-3.4c1.4-3.6,2.2-5.1,2.1-4.4l-0.9,0.1c1.9-5,3.7-7.5,5.2-7.7c0-1.6,2.3-3.8,7-6.4
		c0-2.3,6.2-5.7,18.6-10c4.9-1.7,12.7-3.5,23.5-5.3l1.7,0.1l2.1-0.5c2.7-0.1,5.2-0.2,7.3-0.4l1.1-0.1c1.9-0.1,2.9-0.1,2.9-0.1
		l-0.4,0.2c13.1,0.3,23.5,0.8,31.2,1.4c6.4-8.4,9.7-13.7,9.7-15.7c1.7-2.4,3.1-5.5,4.1-9.3c1.5-2.4,5.5-11.1,12-26
		c2.2-2.9,5-8.4,8.4-16.6c2.8-2.8,4.2-4.8,4.2-6v-0.4c-9.3-1.8-15.5-3.7-18.5-5.7C111.3,36.3,104,29.2,104,23.2l3.5-1.3
		c0.9-0.1,3.6,2.3,8.1,7c12,8.9,22,13.5,30,13.8c2.4,0.2,3.6,0.3,3.6,0.3c10.1-13.6,19.2-22.9,27.2-28c3.1-2.6,8-5.3,15-7.9l1.5,0.1
		c0.2-0.7,1.3-1.3,3.3-2l1.5,0.2C200.8,5,202.5,4.5,202.9,4.1L202.9,4.1z M158.4,42.8c0-0.1-0.1-0.2-0.4-0.2l9.7-2.1
		c0.5,0.2,1,0.3,1.5,0.2c11.5-3.8,19-6.9,22.4-9.5c10.1-6.1,15.2-10.4,15.2-12.9c0.4,0,0.9-0.6,1.4-1.6v-3.5
		c-0.4-0.9-2.9-1.7-7.5-2.4L200,11c-12.9,4.1-22.9,10.3-29.9,18.7C162.3,37.5,158.4,41.9,158.4,42.8L158.4,42.8z M12,157.9
		c0,9.3,5.4,15.2,16.3,17.8l8.3,0.9c0.3-0.2,0.9-0.4,1.6-0.4c0.2,0,0.6,0,1.1,0.1c0-0.1,4.6-1.4,13.8-4c0-0.2,2.1-1.2,6.3-2.9
		c8.6-5,15.2-9.5,19.9-13.5C85,151,91,145,97.4,137.8l1.9-0.2v0.7l-1,0.1v0.6c0,0.2-0.3,0.4-1,0.4v-1.7c2.4-2.8,4-5,4.7-6.5v0.4
		c-7.2-0.4-14.2-0.6-21.1-0.4c0-0.1,0.2-0.2,0.7-0.2c-0.1,0-0.5,0.2-0.9,0.4c-6.3,0.1-10.5,0-12.7-0.4c-0.2,0.1-0.3,0.5-0.3,1.3
		c-2.1-0.6-3.3-0.9-3.6-0.9c-28.7,2.9-45.6,10.7-50.6,23.4L12,157.9L12,157.9z M202.9,115.8c1.1,0,1.6,0.7,1.6,2.1
		c-1.4,1.2-3.3,1.9-5.8,2.1C199.7,117.4,201.1,116,202.9,115.8z M226.7,56.8c2.7-0.3,5.9,1,9.4,4c3.6-0.4,5.3,0.7,5.3,3.1
		c0.2,0,0.4,0.1,0.4,0.4c-3.8,7.3-5.7,13.3-5.7,18.2v1.2c0.6,2.4,1.2,3.6,2.1,3.5l2.4-0.2c3.8-0.4,10.2-6.3,19.3-17.6
		c0-0.7,1.9-2.6,5.7-5.5c0.6-2,1.6-3.7,3.3-4.8h0.4c0,0.7,0.3,1.5,0.8,2.4c-1.6,5-4.1,9.6-7.3,14.1c-9.1,12.8-16.8,19.5-23,20.2
		c-5.7,0.6-9.9-2.3-12.7-8.5v-0.8l-1.2,0.1c-10,9.5-17.8,14.5-23.4,15.1l-1.2,0.1c-5.3,0.5-8.7-2-10.2-7.6v-0.8
		c0-7.4,5.6-15.8,16.8-25.1l11.5-8.5C219.3,58.7,221.7,57.7,226.7,56.8L226.7,56.8z M200,91.1V94c0.1,0.5,0.3,0.8,0.8,0.7l0.8-0.1
		c5-0.5,11.7-5.1,20.1-13.9c5.2-5.8,7.8-10.2,7.8-13.1v-0.4c0-3.3-1.2-4.8-3.7-4.6c-6.6,2.9-13.7,8.8-21.3,17.8
		C202,84.3,200.5,87.8,200,91.1L200,91.1z M269.8,56.5c2.7-0.1,4.1,0.8,4.2,2.7l0.1,0.7c0.2,2.2-0.5,4.6-2.2,7.1v0.4h0.3
		c5.5-6.4,9.7-10,12.5-10.8c-0.1-0.4,1.2-1.4,3.7-2.8l2.4-0.2c5.4-0.6,8.4,2.4,9,8.9c-0.7,1.5-1.1,2.5-1.1,3l0.4,0.7
		c-1.7,6.6-2.5,10.9-2.3,12.8l0.2,2.6c0.1,0.3,0.5,0.6,1.2,0.9l0.7-0.1c6.7-2.4,12.9-6.1,18.4-11s9.5-9.3,12-13
		c1.6-2.3,2.8-3.6,3.6-3.9c0.8-0.3,1.4-0.3,2.1,0.2c0.6,0.4,0.2,1.9-1.2,4.5c-4,6.6-7.9,11.8-11.7,15.8c-3.8,4-8.5,7.8-14,11.4
		c-1.6,1.1-4.1,2.2-7.4,3.2c-7.4,0-11.3-2.3-11.8-6.9c-0.2-0.3-0.4-1-0.5-2.1c-0.1-1.6,1.1-7.4,3.7-17.3l-0.3-2.7
		c-0.1-0.4-0.3-0.7-0.8-0.6l-1.3,0.1c-4,3.3-8.1,7.3-12.4,11.8c-0.3,0-1.4,1.4-3.2,4.2c-1,0.4-3,3.5-6.3,9c-0.9,0.3-1.7,2.4-2.6,6.3
		c-2.7,5.3-4.5,8.2-5.2,8.6c0.1,0.2-0.3,0.5-1.3,0.9c-3.3-0.4-5.1-1.5-5.3-3.3v-0.3c0.5-5,2.4-11.8,5.8-20.4
		c2.9-5.5,5.5-11.7,7.8-18.6C268.2,57.1,269.1,56.5,269.8,56.5L269.8,56.5z M360.7,45.9c1.9-0.2,3.4,0.7,4.5,2.8v0.8
		c0,1.6-4.7,6.7-13.9,15.3v0.4c4.9,3,7.4,7.8,7.4,14.4v4.9l1.2-0.1c1.4-1,2-1.6,2-1.8l3.3-4c5.5-5.3,9.6-9.3,12.1-11.9
		c2.6-2.6,6.5-6.9,12-12.8c5.4-5.9,9-7.7,10.9-5.3l-15.7,18.8c-11.3,13-20.5,22.9-27.6,29.7c-3.3,13.4-7,24-11.1,31.9
		c-2,4.7-4.5,9.4-7.4,14.2c-10.5,15.8-19.8,26.2-27.8,31.1c0,1.1-3.4,3.4-10.2,6.8l-3.7,1.2l-0.8,0.1c-6.3,0-9.4-2.4-9.4-7.2v-0.4
		c0-6.9,4.4-16.9,13.1-30c0.5,0,3.6-3.9,9.4-11.6c0.7-0.1,2.7-2.7,6.1-7.6c1.9-1.5,4.4-4.5,7.8-9c1.6-0.2,3-1.5,4.1-4.1
		c9.2-7.6,16.8-14.4,23-20.3c0.8-0.9,1.2-3.6,1.2-7.9c0-3.8-0.4-7.2-1.2-10.1l-1.3,0.1c-0.5,0.1-3.8,2.2-9.8,6.3
		c-0.6,0.1-1.2,0.3-1.6,0.6c-3.3-1-4.9-2.5-4.9-4.4c0-2.7,2.4-5.7,7.4-8.9c6.1-5.7,9.7-9.5,10.6-11.3l-0.8-0.3l-9.4,1
		c-2.4,0.2-4.3,0.9-5.7,1.8c-2.7-0.8-4.2-1.9-4.5-3.2c0-3.8,7.8-6.5,23.4-8.1L357,47C358.8,46.3,360.1,45.9,360.7,45.9L360.7,45.9z
		 M294.4,171.8v2.4c0,0.8,0.5,1.2,1.6,1.1c4.5-0.5,10.1-3.9,16.8-10.3c1-0.1,2.3-1.3,4.1-3.7c6.2-6,10.7-11.8,13.5-17.4
		c0.9-0.1,4-5.7,9.4-16.9c5.2-13.4,7.8-20.7,7.8-21.7l-0.8-0.3c-0.6,0.1-5,4.2-13.1,12.4c-13.6,13.1-23.1,23.9-28.7,32.4
		C297.9,159.4,294.4,166.7,294.4,171.8L294.4,171.8z M415.3,37.6c2.7-0.3,5.9,1,9.4,4c3.6-0.4,5.3,0.7,5.3,3.1
		c0.2,0,0.4,0.1,0.4,0.4c-3.8,7.3-5.7,13.3-5.7,18.2v1.2c0.6,2.4,1.2,3.6,2.1,3.5l2.4-0.2c3.8-0.4,10.2-6.3,19.3-17.6
		c0-0.7,1.9-2.6,5.7-5.5c0.6-2,1.6-3.7,3.3-4.8h0.4c0,0.7,0.3,1.5,0.8,2.4c-1.6,5-4.1,9.6-7.3,14.1c-9.1,12.8-16.8,19.5-23,20.2
		c-5.7,0.6-9.9-2.3-12.7-8.5v-0.8l-1.2,0.1c-10,9.5-17.8,14.5-23.4,15.1l-1.2,0.1c-5.3,0.5-8.7-2-10.2-7.6v-1
		c0-7.4,5.6-15.8,16.8-25.1l11.5-8.5C408,39.5,410.4,38.5,415.3,37.6L415.3,37.6z M388.7,71.9v2.9c0.1,0.5,0.3,0.8,0.8,0.7l0.8-0.1
		c5-0.5,11.7-5.1,20.1-13.9c5.2-5.8,7.8-10.2,7.8-13.1V48c0-3.3-1.2-4.8-3.7-4.6c-6.6,2.9-13.7,8.8-21.3,17.8
		C390.7,65,389.2,68.6,388.7,71.9L388.7,71.9z"/>
	<path class="st0" d="M447.7,95.1c1.6,0.4,2.7,0.6,3.2,0.5h0.4c0.1,0,1-0.3,2.6-0.9c0.8-0.1,1.6,0.1,2.3,0.5l1.5-0.4
		c0.9-0.1,1.3,0,1.3,0.1l1.7-0.3l3.7-0.3c0.8,0.6,1.2,0.9,1.3,0.9l0.9-0.5c0.6,0.2,0.7,0.4,0.3,0.4V95c7.5-0.5,15.9,2.8,25,9.9
		c6.1,6.9,9.2,13.9,9.2,21.2c-0.3,4.1-0.4,6.4-0.4,7.2l0.4,0.6c-1,7.8-3.1,15.2-6.3,22.3c-0.9,0.9-2.3,3.6-4.2,8.1l-12.6,15
		c-7.9,6.9-14.7,12-20.3,15.2l-0.6-0.3l-3.5,3.4c-4.6,3.9-18.1,9.3-40.4,16.1c-1-0.4-1.6-0.6-1.7-0.6c-0.7,0.7-3.9,1.4-9.8,2
		c-1.1-0.2-1.7-0.4-1.7-0.5l-2.7,0.5l-4.2,0.3c-0.3,0-1.2-0.2-2.8-0.5c-0.1,0-0.4,0.2-1,0.5l-2.3-0.9l-3.3,0.2
		c-0.6-0.6-2.6-1.1-6-1.4c-0.1,0-0.3,2.2-0.5,6.6c-0.4,0-1,1.5-1.9,4.3c-0.4,0-0.7,1-0.9,3.1c-0.8,1.2-2.2,5.3-4.3,12.6
		c-0.5,0-1.4,2.3-2.7,6.7L364,253c0.1,0.3,0.2,0.7,0.2,1.3c-2,4.9-3.5,7.4-4.7,7.5c-1-0.3-2.1-0.9-3.1-1.9c0-0.7,0.6-1.8,1.7-3.5
		l-0.4-0.7c0.8-1.3,1.2-2,1.2-2.1l-0.5-1.5c1.7-2.9,2.5-4.5,2.5-4.9c-0.2-0.8-0.3-1.5-0.3-2.2c0.6,0,1-0.3,1.4-0.9l0,0l-1-1.6
		c1.1-0.1,2.1-1.8,3-5.3l-0.4-2.1c0.8-0.6,1.5-0.9,1.9-0.9v-2.9c1-1,1.8-3.2,2.4-6.6c0.5,0,0.8-0.2,1-0.3l-0.3-1.4
		c0.6-2,1-3.2,1.2-3.6c-0.1-0.3-0.2-0.7-0.2-1.3l2.8-3.3c0,0.3-0.3,0.4-0.8,0.5l0.4-2.7c0-0.8-0.6-1.6-1.8-2.3l-0.5,0.2
		c-2.2,0.1-5.8-2-10.8-6.1l0.1-0.1c0.1,0,0.1,0,0.1,0.1l0.1-0.1h-0.6c-1.4-0.5-2.7-1.8-4.1-3.7v-0.9c0.1-1,0.6-1.6,1.4-1.7h0.6
		c9.3,5.4,15,8.1,17,7.9l1.5-2.7v-0.5c0,0.3-0.2,0.4-0.6,0.4c1-3.2,1.6-4.9,1.9-5v0.1l4.5-14.8c0.4,0,1.2-2.9,2.2-8.7
		c1.1-1.7,3.1-7.3,5.9-17c1-2.3,3-9,6-20.1c0.5-0.3,1.7-3.5,3.5-9.5c0.1,0,0.2,0.2,0.2,0.5v-1.1c0,0.2-0.1,0.4-0.4,0.4
		c0-1.2,0.1-1.8,0.3-1.9l-0.3-2.7v0.1h0.7c-6.2,3.7-13.1,9-20.6,15.8c-6,5.7-12.6,13-19.8,21.7c-1.1,0.1-2.7,2.7-4.8,7.9
		c-0.3,0-0.6,0.2-0.8,0.5c0.3,1,0.4,1.7,0.4,1.9c0,1.9-1.1,2.9-3.2,3.1l-1.4,0.1c-1.7-1.3-2.6-3.1-2.6-5.3c4.1-9.2,7.2-14.3,9.5-15
		c0.4-2.4,3.2-5.7,8.4-9.9c4.3-5.6,10.1-11.2,17.4-17c0.5,0,2.7-1.9,6.7-5.6l12.7-8.5c0.6-0.9,1.4-4.3,2.3-10.3
		c1.3-1.3,2.7-1.9,4.2-2.1c1-0.1,2.3,1.1,4,3.5l-1.3,4c0.1,0,0.1,0,0.1-0.1c10.7-4.8,19-7.9,24.8-9.2c0-0.5,1-1.1,2.9-1.7l1.8,0.2
		l1.4-0.1C443.6,97.2,445.8,96.5,447.7,95.1L447.7,95.1z M404.5,129.9c0-0.3,0.1-0.5,0.3-0.5c0,4.1-1.3,9.3-3.8,15.8
		c0,1.3-5.2,17.7-15.6,49.4c-1.1,4.3-2.3,7.5-3.6,9.4l-1.1,4.1c3.5,1.2,10.4,1.4,20.8,0.7c2-0.4,3.4-0.6,4.3-0.7
		c0.1,0.5,0,0.7-0.3,0.7c0.8-0.7,1.5-1.1,2-1.1c0.2,0,0.9,0,2,0.2c1.2-0.7,3.4-1.4,6.3-2.2c1.3,0.1,1.9,0.2,1.8,0.2
		c1-0.9,5.8-2.7,14.2-5.3c0-0.1,0.6-0.6,1.7-1.6l1,0.5h-0.1c0.7-0.6,2.5-1.5,5.3-2.8l1-0.1l0.5,0.2c3.6-3.2,8.6-6.5,15-9.8
		c4.1-2.4,10.2-7.7,18.6-15.8c7.2-8.4,11.8-15.3,13.8-20.7c2.9-7.6,4.4-14.3,4.4-20.2c0.3,0,0.4,0,0.4,0.1c0-14.1-6-23.1-17.9-27.2
		c-6.7-1.3-10.3-2-10.9-2c0.3,0,0.4,0.1,0.4,0.4l-3.2-0.2l-10.1,0.7c-11,2-20.9,4.8-29.6,8.6c-10.3,3.9-15.4,7.2-15.4,10
		C406.5,121.7,405.9,124.8,404.5,129.9L404.5,129.9z M522.9,141.7c1.6-0.1,3.4,0.9,5.4,3c0,3.6-0.9,6.7-2.6,9.2
		c-6.4,7.9-11.6,12.3-15.7,13.3c-2.9,1.6-4.4,2.3-4.4,2.3v1.4c0,3,2.7,4.3,7.9,4c3.6-0.6,7.1-1.6,10.7-3.1
		c3.5-1.5,8.5-6.2,14.9-14.1c1.2-2.8,3.3-5.6,6.3-8.3l1.5-0.1c0,0.9,0.2,1.7,0.7,2.2v0.9c-6.7,15.7-16.7,25.3-30,28.8
		c-1.3,0.1-2.7,0.4-4.2,1c-8.1,0.6-13.5-3.1-16.2-11l-0.5-5.8l1.7-0.1c0.8-5,5-10.8,12.7-17.5C515.8,143.9,519.8,141.9,522.9,141.7
		L522.9,141.7z M507.3,161.6h-0.6c7.5-3.1,12.7-7.6,15.4-13.3v-0.4c0-0.3,0-0.4,0.2-0.4C517.6,148.8,512.5,153.5,507.3,161.6
		L507.3,161.6z M548.7,147.2l1,1.9l-1.6,0.9l-2.4,0.2V148L548.7,147.2L548.7,147.2z M571.9,134.1c1.4-0.1,2.7,1.5,4,4.7
		c0,2.7-3.5,9.7-10.6,20.9c-2.4,5.3-3.6,9.5-3.6,12.5c0,1.1,0.7,1.6,2,1.5l1.7-0.1c5.9-2.3,14.9-10.4,27-24.5c2-0.5,3-1.7,3-3.5
		c0.1-0.5,0.3-0.7,0.7-0.7h0.3c0.3,0,0.7,0.3,1,0.9v1c0,1-1.2,3.1-3.6,6.2c-1,3.1-5.2,8.7-12.8,16.6c-5,4.9-10.1,8.5-15.3,10.7
		l-1.3,0.1c-5.2,0.4-8.6-1.5-10.3-5.6c0-0.7-0.1-1-0.3-0.9c0.2-0.9,0.4-1.3,0.7-1.3l-0.4-0.7v-2.3c0.7-4.2,3.8-10.2,9.4-17.9
		c0-0.5,1.1-2.1,3.2-4.8c1.4-2.6,2-4.3,2-5.1v-0.4l-1.4,0.1c-5.3,3.3-10,5.1-14.2,5.4h-0.3c-0.3,0-2.1,2.4-5.4,7
		c-0.7,0.4-1.4,0.7-2,0.7h-0.3c-1.2,0.1-2.2-0.7-3-2.4c0.1-1.2,1.2-2.4,3-3.8c0-0.4,0.2-0.9,0.6-1.7l-2.3-2.5v-0.4
		c0-1.2,0.8-2.4,2.3-3.5l2.3-0.2l5-1.6l2.3,1.5c5.9-1.8,10.5-3.5,14-5.4C570.2,134.6,571.1,134.4,571.9,134.1L571.9,134.1z
		 M628.2,98.7c2.9-0.2,5,1.8,6.3,5.8c0,7-2.6,14.3-7.8,21.9c-0.8,2.7-6.3,8.8-16.4,18.3v0.4c1.8,1.9,2.7,3.6,2.7,5.1v7.4
		c6,1.7,10.5,1.5,13.7-0.5c3.1-2,6.5-5.2,10.2-9.5c3.1-3.8,4.7-5.7,4.8-5.7v-0.8l1.8-0.1v3.3c-3.3,6.8-6.1,11.6-8.6,14.7
		c-2.4,3.1-5.6,5.4-9.5,7s-8.5,1.7-13.8,0.3H611c0,1.4-2.4,11.3-7.2,29.7c-0.9,3.5-4.6,11.3-11,23.5c-3.2,2.7-5.9,4.1-7.9,4.2
		c-4.7-1.4-7-4.5-7-9.4c0-1.4,0.3-3.8,0.8-7.1c-0.2-1.4-0.4-2.5-0.4-3.2c1.8-8.9,4.1-18.9,6.9-30.2c1.7-6.4,2.6-9.5,2.6-9.5
		l-0.4-0.8c1-4.1,2.4-7.8,4.3-11v-0.3c-0.5-4.5,0.2-6.7,2-6.9c0.2,0,1.1-1.1,2.6-3.2l-0.4-0.7c3.3-7.5,5.9-12,7.6-13.7
		c1.5-5.4,3.2-8.2,5-8.3v-0.2c-0.3-0.5-0.4-1-0.4-1.4c7.8-12.2,13.8-18.4,18.1-18.7L628.2,98.7L628.2,98.7z M604.5,140.1
		L604.5,140.1c9-7.8,14.3-12.8,15.9-14.9c4.6-5.9,6.9-10.9,6.9-14.9h-0.7l0.7-1.4v-2.6c0-0.2-0.2-0.3-0.5-0.3
		c-4.5,3.6-8.7,8.9-12.7,15.9C607.7,132.4,604.5,138.5,604.5,140.1L604.5,140.1z M598.9,154c-2,2.9-4,9-6.1,18.4
		c-4.5,20.4-6.8,33.6-6.8,39.5c0.3,0.9,0.4,2,0.4,3.1c2.5-0.2,6.8-9.2,13-27.1c2.9-12,4.8-20.4,5.7-25.3
		C602.5,159.7,600.4,156.9,598.9,154L598.9,154z M645.3,139.7c1.1-0.1,2.4,0.3,3.9,1.3c0,0.9-2.3,5.2-7,13c-1.1,2.3-1.9,6-2.3,11.1
		c0.5,1.1,1,1.7,1.6,1.8c2.6-0.2,7.8-3.8,15.6-10.8c4-4.2,8.7-9.8,14.1-16.6c1.8-0.7,3.4-1,4.7-1.1l1.2-0.1c0.4,0,0.9,0.6,1.6,1.9
		c0,0.5-1.6,2.7-4.7,6.5c-1.1,1.6-2.4,4.8-3.9,9.7v3.5c0,0.3,0.7,0.9,2,1.8c3.8-0.3,11.6-6.8,23.2-19.5c2.1-3,4-5,5.9-5.9h0.4
		c0.5,0,0.8,0.3,0.8,0.7c-1.9,6.2-7.2,14.2-15.8,24.1c-5,4.8-9.8,7.3-14.5,7.7h-0.4c-4.6,0.3-8.1-2.7-10.5-9
		c-8.2,8.6-13.5,13-16,13.2c-1.8,0.6-3.4,1-4.7,1.1c-4.3,0.3-7-2.4-8.2-8v-0.4c0-7.8,3.5-16.1,10.5-24.9
		C643.1,140.6,644,140.3,645.3,139.7L645.3,139.7z M750.6,129.5c3.2,0.7,4.9,2.3,5,4.7c-2.9,9.3-4.3,15.8-4.1,19.4l0.2,2
		c0.1,1.6,0.8,2.3,2.2,2.2h0.7c4.3-0.5,10.6-5.4,19-14.6c2.6-3,5.2-6.7,7.7-11.1l0.4,0.7c0.1,2-0.2,3.7-1,5.1v0.8l1.4-0.1
		c-2.6,4.7-6,9.5-10.3,14.6c-6.3,7.6-11.6,11.5-15.9,11.8c-4.5,0.3-7.8-1.8-9.9-6.4c-0.4-1.7-0.6-3.2-0.7-4.3l-0.1-1.9
		c0.7-4,1.9-8.7,3.8-14.3c-0.4-0.2-0.8-0.3-1.1-0.3c-6.1,3.8-11.9,11.1-17.5,21.9c-1.2,1.1-2.2,1.7-2.9,1.8h-0.6
		c-1.2,0.1-2.2-0.6-2.8-2.1l-0.1-0.8c-0.1-2.2,1.6-5.2,5.2-9c-0.1-0.4,0.6-2.6,1.9-6.4l-0.4-4.7c0-0.6-1-1-3-1
		c-7.7,2.9-17.7,13-30.1,30.2c-2.1,6.4-4,9.6-5.8,9.8h-0.7c-2.5-0.4-3.8-1.6-3.9-3.6c5.9-9.1,9.5-18.2,10.9-27.3
		c-1.2-5.3-1-8.7,0.7-10l3.5-0.2l2.3,3.1c-0.5,6-0.6,9.3-0.6,9.9v0.4h0.7c5.1-6.5,9.4-10.8,13-13c-0.1-0.6,2.6-2.1,8.1-4.5l2-0.1
		c3.9-0.3,6.9,1.9,9.2,6.4h0.3C744.1,132.6,748.6,129.6,750.6,129.5L750.6,129.5z M795.9,123c1.6-0.1,3.4,0.9,5.4,3
		c0,3.6-0.9,6.7-2.6,9.2c-6.4,7.9-11.6,12.3-15.7,13.3c-2.9,1.6-4.4,2.3-4.4,2.3v1.4c0,3,2.7,4.3,7.9,4c3.6-0.6,7.1-1.6,10.7-3.1
		c3.5-1.5,8.5-6.2,14.9-14.1c1.2-2.8,3.3-5.6,6.3-8.3l1.5-0.1c0,0.9,0.2,1.6,0.7,2.2v0.9c-6.7,15.7-16.7,25.3-30,28.8
		c-1.3,0.1-2.7,0.4-4.2,1c-8.1,0.6-13.5-3.1-16.2-11l-0.5-5.8l1.7-0.1c0.8-5,5-10.8,12.7-17.5C788.8,125.2,792.8,123.2,795.9,123
		L795.9,123z M780.3,143h-0.6c7.5-3.1,12.7-7.6,15.4-13.3v-0.4c0-0.3,0-0.4,0.2-0.4C790.6,130.1,785.5,134.8,780.3,143L780.3,143z
		 M821.8,128.5l1,1.9l-1.6,0.9l-2.4,0.2v-2.1L821.8,128.5L821.8,128.5z"/>
	<g id="_1879074720544">
		<path class="st1" d="M707.7,35.5c1.5,1.6,3.4,4.6,4.3,6.2c0.9,1.5,0.8,1.6,0.7,1.7c-0.2,0-0.4,0-1.1,0c-0.7,0-1.8,0-2.4-0.1
			c-0.7-0.1-1-0.3-1.9-1.3c-1-1.1-2.7-3-3.8-4.1s-1.7-1.2-2.2-1.3s-1-0.1-3.7-0.1c-2.8,0-7.9,0-10.7,0.1s-3.3,0.2-3.6,0.3
			s-0.3,0.2-0.3,2.9s0,8.1,0.1,11c0.1,2.9,0.3,3.2,0.4,3.6c0.1,0.3,0.1,0.6,2.3,0.8c2.2,0.1,6.7,0.1,9.3,0.1s3.4,0,4.1-0.3
			c0.7-0.3,1.3-1,1.8-1.9s0.8-2.1,1.2-2.7c0.3-0.6,0.7-0.7,1.1-0.9c0.4-0.1,0.9-0.3,1.2-0.2c0.3,0,0.3,0.2,0.3,1.4
			c0,1.1,0,3.2,0,4.4c0,1,0,1.5-0.1,1.7c0.1,0.3,0.1,0.7,0.1,1.7c0,1.2,0,3.3,0,4.4s-0.1,1.3-0.3,1.4c-0.3,0-0.7-0.1-1.2-0.2
			c-0.4-0.1-0.8-0.2-1.1-0.9c-0.3-0.6-0.7-1.8-1.2-2.7s-1.1-1.6-1.8-1.9c-0.7-0.3-1.5-0.3-4.1-0.3s-7.1,0-9.3,0.1s-2.2,0.4-2.3,0.8
			c-0.1,0.3-0.3,0.7-0.4,3.6c-0.1,2.9-0.1,8.3-0.1,11c0,2.7,0.1,2.8,0.3,2.9c0.3,0.1,0.8,0.3,3.6,0.3c2.8,0.1,7.9,0.1,10.7,0.1
			s3.2,0,3.7-0.1s1-0.3,2.2-1.3c1.1-1.1,2.8-3,3.8-4.1s1.3-1.2,1.9-1.3c0.7-0.1,1.8-0.1,2.4-0.1c0.7,0,0.9,0,1.1,0
			c0.2,0,0.3,0.1-0.7,1.7c-0.9,1.5-2.8,4.6-4.3,6.2s-2.5,1.9-3.8,2c-1.4,0.1-3.1,0.1-8.4,0.1c-5.2,0-14,0-18.5,0s-4.9,0-5.2,0
			c-0.4,0-0.8,0.1-1-0.3c-0.2-0.3-0.2-1-0.1-1.4c0.1-0.4,0.2-0.4,0.6-0.7c0.4-0.3,1.2-0.9,1.7-1.5s0.7-1.3,0.7-1.9
			c0.1-0.7,0.1-1.3,0.1-4.2c0-2.9,0-8.1,0.1-10.8c0-1.5,0.1-2.2,0.1-2.6c-0.1-0.4-0.1-1.1-0.1-2.6c-0.1-2.7-0.1-7.9-0.1-10.8
			c0-2.9,0-3.6-0.1-4.2c-0.1-0.7-0.3-1.3-0.7-1.9c-0.5-0.6-1.2-1.2-1.7-1.5c-0.4-0.3-0.6-0.3-0.6-0.7c-0.1-0.4-0.1-1.1,0.1-1.4
			c0.2-0.3,0.6-0.3,1-0.3s0.7,0,5.2,0s13.3,0,18.5,0s7,0,8.4,0.1C705.3,33.6,706.3,33.9,707.7,35.5z"/>
		<circle class="st1" cx="720.2" cy="77.1" r="3.1"/>
		<path class="st1" d="M729.3,80.2c-0.5,0.1-0.5,0.1-0.5-0.3c0-0.3,0-1,0-1.4s0.1-0.7,0.3-0.9c0.2-0.2,0.5-0.4,1.3-1
			c0.8-0.7,2-1.8,2.6-2.5s0.6-1,0.6-1.4c0-0.3,0-0.7,0-6.5s0-17.1,0-22.8c0-5.8-0.1-6-0.4-6.3c-0.3-0.3-0.8-0.5-1.2-0.7
			c-0.3-0.2-0.4-0.3-0.5-0.7s-0.1-1.2,0-1.6c0.1-0.4,0.3-0.4,0.5-0.4c0.3,0,0.6,0,2.7,0c2.2,0,6.2,0,8.4,0c2.1,0,2.4,0,2.5,0
			s0.1,0.1,2.6,4c2.4,3.9,7.2,11.6,9.6,15.5c2.4,3.9,2.4,3.9,4.3,0c1.9-3.8,5.6-11.5,7.5-15.4c1.9-3.8,1.9-3.8,1.9-3.8s0,0,2,0
			s6.1,0,8.2,0c2.1,0,2.3,0,2.3,0c0.1,0,0.1,0,0.1,7.1s0,21.5,0,28.7s0,7.3,0.3,7.5c0.2,0.2,0.6,0.4,0.9,0.5
			c0.3,0.1,0.4,0.2,0.5,0.6s0.1,1.1,0,1.4s-0.3,0.3-3.1,0.3s-8.3,0-11.3,0c-2.9,0-3.3,0-3.5,0s-0.3,0-0.3-0.3s0-0.8,0.1-1.1
			c0.1-0.3,0.4-0.5,0.7-0.7c0.4-0.3,0.8-0.7,1.2-1.1c0.3-0.5,0.6-1,0.7-1.5c0.2-0.5,0.4-0.8,0.4-1.2c0.1-0.4,0.1-0.7,0.1-5.1
			s0-12.8,0-17.5s0-5.9,0-6.5s0.1-0.6-2,4.8s-6.5,16.2-8.7,21.7c-2.3,5.5-2.4,5.7-2.5,5.7c-0.1,0.1-0.1,0.1-0.4,0.1
			c-0.4,0-1.1,0-1.6,0s-0.8,0-0.9,0c-0.1,0-0.1,0-2.9-5c-2.7-5-8.2-15.1-11-20.1c-2.7-5.1-2.7-5.2-2.7-5.3s0-0.3,0.1,4
			c0,4.2,0,12.9,0,17.3s0,4.6,0,4.8c0,0.2,0,0.4,0.3,0.7c0.3,0.3,0.8,0.7,1.6,1.3c0.8,0.6,1.9,1.4,2.5,1.8s0.6,0.5,0.7,0.6
			c0,0.1,0,0.2,0,0.7s0,1.3,0,1.7c0,0.4-0.1,0.4-0.2,0.4c-0.1,0-0.2,0-2,0c-0.5,0-1.2,0-1.9,0h-9C729.8,80.1,729.5,80.2,729.3,80.2
			L729.3,80.2z"/>
		<circle class="st1" cx="794.2" cy="77.1" r="3.1"/>
	</g>
</g>
</svg>
