<?xml version="1.0" encoding="utf-8"?>
<!-- Generator: Adobe Illustrator 21.0.0, SVG Export Plug-In . SVG Version: 6.00 Build 0)  -->
<svg version="1.1" id="Capa_1" xmlns="http://www.w3.org/2000/svg" xmlns:xlink="http://www.w3.org/1999/xlink" x="0px" y="0px"
	 viewBox="0 0 171.5 55.2" style="enable-background:new 0 0 171.5 55.2;" xml:space="preserve">
<style type="text/css">
	.st0{fill:#3D3D3D;}
	.st1{fill:none;stroke:#3D3D3D;stroke-width:0.22;stroke-miterlimit:22.93;}
	.st2{fill:#CCCCCC;}
</style>
<title>Mesa de trabajo 1</title>
<path class="st0" d="M50.3,36.3v0.1c0,0.1,0.1,0.2,0.3,0.2v-0.4L50.3,36.3z M13.8,23.8v0.5h0.4l-0.1-0.5H13.8z M34.9,22
	c0,0.2,0.1,0.2,0.3,0.2V22H34.9z M17,19.6v0.1h0.1c0.3-0.1,0.5-0.3,0.4-0.4V19C17.3,19.1,17.1,19.3,17,19.6L17,19.6z M40.4,15.5
	c0,0.1,0.1,0.2,0.2,0.2c0,0,0,0,0,0c0.1,0,0.2-0.1,0.2-0.2c0,0,0-0.1,0-0.1v-0.2h-0.2C40.5,15.3,40.4,15.4,40.4,15.5L40.4,15.5z
	 M55.9,8.7v0.1c0,0.1,0.1,0.3,0.3,0.3V8.7H55.9z M52.5,5.2c0.9,0,1.7,0.4,2.3,1.1c0.3,0,0.5,0.3,0.7,0.8h0.4l0.1,0.6
	c0.2,0.2,0.4,0.5,0.4,0.8V9l-0.2,0.4l0.1,0.8c0,0.2,0.1,0.3,0.2,0.5c-0.1,0.8-0.3,1.6-0.6,2.4v0.1L56,14c-0.2,1.4-0.4,2.7-0.8,4
	l0.1,0.3c-0.8,3.4-1.4,6.8-1.8,10.3c-0.2,0.3-0.3,0.6-0.4,0.9l0.1,0.2c-0.3,0-0.6,2.2-0.7,6.6c0.1,0.8,0,1.7-0.1,2.5l0.3,2.4
	c0.2,1.7,0.9,3.2,1.9,4.6c0.8,1,2.4,1.5,4.9,1.5H60c1.5-0.4,3-0.9,4.4-1.6c1.8-1.2,3.3-2.2,4.3-3l0.1-0.1c0.5-0.3,0.7-0.5,0.9-0.4
	c0.2,0.2,0.4,0.5,0.5,0.8c0.1,0.3,0.1,0.7,0.1,1c0,0.2,0,0.3-0.3,0.6c-0.3,0.3-0.5,0.7-0.7,1.1L69,46.1c-1.7,0.9-3.3,1.9-4.9,3
	l-4.5,1h-0.9c-1.7-0.2-3.3-0.8-4.7-1.7c-1.4-0.7-2.6-2.4-3.6-5.1l0.1-0.6c-0.3-1.2-0.5-1.8-0.6-1.8c0.1-0.1,0.1-0.2,0.1-0.4
	c-0.1-0.9-0.3-1.4-0.4-1.3c0-0.5,0-1.1,0.2-1.6l-0.2-1.1c0-0.2,0.1-0.4,0.2-0.4l-0.3-1l1-5v-0.1h-0.2c0-0.6,0.2-1.2,0.5-1.7
	l-0.2-0.5c0.2-1,0.4-1.6,0.6-1.6l-0.1-0.6c0.3-0.6,0.4-1.4,0.4-2.1l0.4-0.6l-0.2-0.4v-0.3h0.2l-0.1-0.6c0-0.1,0.1-0.3,0.4-0.5
	l-0.1-0.2v-0.3c0.2-0.6,0.4-0.9,0.7-0.9c0.1-0.1,0.2-0.1,0.3-0.1v-0.2l-0.4-0.5v-0.1c0-0.4,0-0.6,0.2-0.6L52.6,18
	c0-0.7,0.3-1.4,0.8-2c-0.1-0.3-0.2-0.7-0.3-1.1c0.3-0.1,0.5-0.3,0.4-0.6c0,0,0,0,0,0l-0.2-0.6l0.4-3.4c0-0.2-0.2-0.7-0.4-1.7
	l0.1-0.5c-0.1-0.5-0.5-0.8-1-0.8c-1.8,0.4-3.9,1.8-6.4,4.1c-0.9,0.7-1.7,1.5-2.3,2.5l-4.2,5.4l-4.8,7.2c-1.6,2.9-2.4,4.6-2.4,5.2
	l-4.3,11.6c-0.5,0.7-0.9,1-1.4,1h-0.2c-0.5,0-1.1-0.6-1.6-1.7v-0.1c-0.1-0.7,0.5-2.4,1.8-5.2c0.5,0,0.8-0.7,0.8-2
	c0.4-0.3,0.7-0.4,0.7-0.5v-0.1l-0.3-0.4c0.3,0,0.5-0.2,0.5-0.5c0,0,0,0,0,0l-0.1-0.5c0.4-1.1,0.9-2.2,1.5-3.2
	c0.6-2.4,1.1-3.5,1.4-3.5c0,0,0-0.1-0.1-0.1c0,0,0,0,0,0c0-1.1,0.3-2.1,0.9-3c0.2,0,0.2-0.3,0.2-0.9l-0.1-0.8
	c0.5-1.4,0.9-2.8,1.1-4.2c-0.1-0.3-0.2-0.6-0.2-0.8l0.6-2.5c-0.1-1.8-0.2-2.9-0.2-3.4c-0.2-1.7-0.6-2.5-1.2-2.5
	c-1.3,0-3.8,1.9-7.4,5.6c-0.9,1-1.8,2-2.8,2.9c-2.8,3.7-4.8,6.4-5.7,8c-1.2,1.5-2.1,3.1-2.8,4.9c-0.8,1.3-1.5,2.6-2.2,4
	c-1.6,2.2-3.4,6.4-5.4,12.5l-2.4,7.5c-0.1,0.9-0.8,1.4-2.2,1.4c-0.6-0.5-1-1.1-1.3-1.8c0-0.3,1-3.3,3-9c0.5-1.9,1-3.4,1.5-4.5
	c0.5-1.3,0.8-2.7,1-4.1c0.4-0.5,0.6-1.1,0.7-1.7c0.4-1.9,0.8-2.9,1.1-2.9l-0.2-0.9v-0.1c0.4-1.7,0.9-3.4,1.6-5.1
	c0.1-1,0.3-2,0.7-2.9l1.2-4.3l0.9-5.1c0.4-2.8,1-4.2,1.5-4.2l0.6-0.2c0.5,0,1.1,0.4,1.7,1.3C14.2,16,13,21.3,11.8,25.9
	c-0.2,0-0.2,0.4-0.2,1.1c0.1,0.1,0.2,0.3,0.3,0.5H12c0.3-0.5,0.6-0.8,0.8-0.8v-0.2L12.3,26c0.2-0.2,0.3-0.4,0.3-0.6H13l0.2,0.5h0.1
	l0.4-1.4l-0.2-0.6c0.4-0.2,0.7-0.6,0.9-1c0.3,0,0.4-0.1,0.4-0.4c-0.1,0-0.1,0-0.1-0.1c0.2,0,0.4-0.3,0.6-1c0.2,0,0.2-0.1,0.2-0.4h1
	v-0.4c-0.2,0-0.4-0.1-0.4-0.3v-0.1c0.6-0.6,1.1-1.4,1.5-2.2l0.3-0.4H18l0.3,0.1c-0.1-0.4,0.1-0.8,0.5-1l0.4,0.3
	c0.3-0.1,0.5-0.3,0.7-0.6v-0.2h-0.5v-0.1c0.1-0.8,0.8-1.4,1.6-1.4c0-0.2,0.1-0.4,0.4-0.6c0-0.1-0.1-0.1-0.1-0.1
	c0.1-0.4,0.4-0.6,0.9-0.9c0.1,0.1,0.2,0.1,0.4,0.1c0.2-0.1,0.4-0.3,0.5-0.5c-0.1-0.1-0.1-0.2-0.2-0.4c0.3,0,0.7-0.5,1.2-1.5
	c0.3,0,0.9-0.5,1.8-1.6c0.8-0.9,1.8-1.6,2.8-2.1V7.2h0.2c0,0.2,0.1,0.4,0.3,0.4l0.4-0.9l0.8-0.3c0.1,0,0.1,0,0.1,0.1
	c0.5-0.2,0.8-0.4,0.8-0.5l0.2,0.1h0.4c0.2,0,0.3,0,0.5-0.1c2.1,0.1,3.9,1.8,3.9,3.9l0.1,1.1c0.1,3.2-0.3,6.4-1,9.5
	c0.2,0.1,0.4,0.2,0.6,0.2c0.1-0.7,0.7-1.2,1.4-1.1c0.1-0.2,0.3-0.3,0.6-0.4V19c0-0.1-0.1-0.2-0.2-0.2c0,0,0,0-0.1,0
	c-0.4,0-0.7,0.2-0.9,0.5h-0.1v-0.1c0.3-0.8,1.1-1.3,1.9-1.3v-0.1l-0.3-0.3v-0.1c0.6,0,0.9-0.1,0.9-0.4v-0.1l-0.3-0.3v-0.1
	c0.6-0.4,0.9-0.6,0.9-0.7s0.2-0.4,0.6-0.9l-0.1-0.7h0.4l0.4,0.2c0.2,0,0.2-0.1,0.2-0.2s-0.2-0.4-0.3-0.3c0-0.2,0.3-0.6,0.9-1
	c0-0.4,0.4-0.7,1.3-0.8v-0.4h-0.2v-0.1c0-0.1,0.4-0.3,1.1-0.5l-0.1-0.5h0.3c0.2,0,0.2-0.1,0.2-0.3l-0.2-0.6c0.2,0,0.3,0.1,0.3,0.3
	c0.2-0.6,0.6-0.9,1-0.9v0.2H46c0.1,0,0.2-0.1,0.3-0.2c0,0,0,0,0,0c-0.2-0.1-0.4-0.1-0.6-0.1l1-0.6c0-0.5,0.4-0.9,1.3-1.3h0.1
	l0.4,0.2h0.3L49.3,7V6.8h-0.1c-0.1,0.1-0.2,0.1-0.3,0.1l-0.3-0.4V6.4c0.5-0.3,1.1-0.5,1.7-0.5V6h0.2c0.2,0,0.2-0.1,0.2-0.2V5.7h-0.3
	V5.4C51.1,5.3,51.8,5.2,52.5,5.2z"/>
<path class="st1" d="M50.3,36.3v0.1c0,0.1,0.1,0.2,0.3,0.2v-0.4L50.3,36.3z M13.8,23.8v0.5h0.4l-0.1-0.5H13.8z M34.9,22
	c0,0.2,0.1,0.2,0.3,0.2V22H34.9z M17,19.6v0.1h0.1c0.3-0.1,0.5-0.3,0.4-0.4V19C17.3,19.1,17.1,19.3,17,19.6L17,19.6z M40.4,15.5
	c0,0.1,0.1,0.2,0.2,0.2c0,0,0,0,0,0c0.1,0,0.2-0.1,0.2-0.2c0,0,0-0.1,0-0.1v-0.2h-0.2C40.5,15.3,40.4,15.4,40.4,15.5L40.4,15.5z
	 M55.9,8.7v0.1c0,0.1,0.1,0.3,0.3,0.3V8.7H55.9z M52.5,5.2c0.9,0,1.7,0.4,2.3,1.1c0.3,0,0.5,0.3,0.7,0.8h0.4l0.1,0.6
	c0.2,0.2,0.4,0.5,0.4,0.8V9l-0.2,0.4l0.1,0.8c0,0.2,0.1,0.3,0.2,0.5c-0.1,0.8-0.3,1.6-0.6,2.4v0.1L56,14c-0.2,1.4-0.4,2.7-0.8,4
	l0.1,0.3c-0.8,3.4-1.4,6.8-1.8,10.3c-0.2,0.3-0.3,0.6-0.4,0.9l0.1,0.2c-0.3,0-0.6,2.2-0.7,6.6c0.1,0.8,0,1.7-0.1,2.5l0.3,2.4
	c0.2,1.7,0.9,3.2,1.9,4.6c0.8,1,2.4,1.5,4.9,1.5H60c1.5-0.4,3-0.9,4.4-1.6c1.8-1.2,3.3-2.2,4.3-3l0.1-0.1c0.5-0.3,0.7-0.5,0.9-0.4
	c0.2,0.2,0.4,0.5,0.5,0.8c0.1,0.3,0.1,0.7,0.1,1c0,0.2,0,0.3-0.3,0.6c-0.3,0.3-0.5,0.7-0.7,1.1L69,46.1c-1.7,0.9-3.3,1.9-4.9,3
	l-4.5,1h-0.9c-1.7-0.2-3.3-0.8-4.7-1.7c-1.4-0.7-2.6-2.4-3.6-5.1l0.1-0.6c-0.3-1.2-0.5-1.8-0.6-1.8c0.1-0.1,0.1-0.2,0.1-0.4
	c-0.1-0.9-0.3-1.4-0.4-1.3c0-0.5,0-1.1,0.2-1.6l-0.2-1.1c0-0.2,0.1-0.4,0.2-0.4l-0.3-1l1-5v-0.1h-0.2c0-0.6,0.2-1.2,0.5-1.7
	l-0.2-0.5c0.2-1,0.4-1.6,0.6-1.6l-0.1-0.6c0.3-0.6,0.4-1.4,0.4-2.1l0.4-0.6l-0.2-0.4v-0.3h0.2l-0.1-0.6c0-0.1,0.1-0.3,0.4-0.5
	l-0.1-0.2v-0.3c0.2-0.6,0.4-0.9,0.7-0.9c0.1-0.1,0.2-0.1,0.3-0.1v-0.2l-0.4-0.5v-0.1c0-0.4,0-0.6,0.2-0.6L52.6,18
	c0-0.7,0.3-1.4,0.8-2c-0.1-0.3-0.2-0.7-0.3-1.1c0.3-0.1,0.5-0.3,0.4-0.6c0,0,0,0,0,0l-0.2-0.6l0.4-3.4c0-0.2-0.2-0.7-0.4-1.7
	l0.1-0.5c-0.1-0.5-0.5-0.8-1-0.8c-1.8,0.4-3.9,1.8-6.4,4.1c-0.9,0.7-1.7,1.5-2.3,2.5l-4.2,5.4l-4.8,7.2c-1.6,2.9-2.4,4.6-2.4,5.2
	l-4.3,11.6c-0.5,0.7-0.9,1-1.4,1h-0.2c-0.5,0-1.1-0.6-1.6-1.7v-0.1c-0.1-0.7,0.5-2.4,1.8-5.2c0.5,0,0.8-0.7,0.8-2
	c0.4-0.3,0.7-0.4,0.7-0.5v-0.1l-0.3-0.4c0.3,0,0.5-0.2,0.5-0.5c0,0,0,0,0,0l-0.1-0.5c0.4-1.1,0.9-2.2,1.5-3.2
	c0.6-2.4,1.1-3.5,1.4-3.5c0,0,0-0.1-0.1-0.1c0,0,0,0,0,0c0-1.1,0.3-2.1,0.9-3c0.2,0,0.2-0.3,0.2-0.9l-0.1-0.8
	c0.5-1.4,0.9-2.8,1.1-4.2c-0.1-0.3-0.2-0.6-0.2-0.8l0.6-2.5c-0.1-1.8-0.2-2.9-0.2-3.4c-0.2-1.7-0.6-2.5-1.2-2.5
	c-1.3,0-3.8,1.9-7.4,5.6c-0.9,1-1.8,2-2.8,2.9c-2.8,3.7-4.8,6.4-5.7,8c-1.2,1.5-2.1,3.1-2.8,4.9c-0.8,1.3-1.5,2.6-2.2,4
	c-1.6,2.2-3.4,6.4-5.4,12.5l-2.4,7.5c-0.1,0.9-0.8,1.4-2.2,1.4c-0.6-0.5-1-1.1-1.3-1.8c0-0.3,1-3.3,3-9c0.5-1.9,1-3.4,1.5-4.5
	c0.5-1.3,0.8-2.7,1-4.1c0.4-0.5,0.6-1.1,0.7-1.7c0.4-1.9,0.8-2.9,1.1-2.9l-0.2-0.9v-0.1c0.4-1.7,0.9-3.4,1.6-5.1
	c0.1-1,0.3-2,0.7-2.9l1.2-4.3l0.9-5.1c0.4-2.8,1-4.2,1.5-4.2l0.6-0.2c0.5,0,1.1,0.4,1.7,1.3C14.2,16,13,21.3,11.8,25.9
	c-0.2,0-0.2,0.4-0.2,1.1c0.1,0.1,0.2,0.3,0.3,0.5H12c0.3-0.5,0.6-0.8,0.8-0.8v-0.2L12.3,26c0.2-0.2,0.3-0.4,0.3-0.6H13l0.2,0.5h0.1
	l0.4-1.4l-0.2-0.6c0.4-0.2,0.7-0.6,0.9-1c0.3,0,0.4-0.1,0.4-0.4c-0.1,0-0.1,0-0.1-0.1c0.2,0,0.4-0.3,0.6-1c0.2,0,0.2-0.1,0.2-0.4h1
	v-0.4c-0.2,0-0.4-0.1-0.4-0.3v-0.1c0.6-0.6,1.1-1.4,1.5-2.2l0.3-0.4H18l0.3,0.1c-0.1-0.4,0.1-0.8,0.5-1l0.4,0.3
	c0.3-0.1,0.5-0.3,0.7-0.6v-0.2h-0.5v-0.1c0.1-0.8,0.8-1.4,1.6-1.4c0-0.2,0.1-0.4,0.4-0.6c0-0.1-0.1-0.1-0.1-0.1
	c0.1-0.4,0.4-0.6,0.9-0.9c0.1,0.1,0.2,0.1,0.4,0.1c0.2-0.1,0.4-0.3,0.5-0.5c-0.1-0.1-0.1-0.2-0.2-0.4c0.3,0,0.7-0.5,1.2-1.5
	c0.3,0,0.9-0.5,1.8-1.6c0.8-0.9,1.8-1.6,2.8-2.1V7.2h0.2c0,0.2,0.1,0.4,0.3,0.4l0.4-0.9l0.8-0.3c0.1,0,0.1,0,0.1,0.1
	c0.5-0.2,0.8-0.4,0.8-0.5l0.2,0.1h0.4c0.2,0,0.3,0,0.5-0.1c2.1,0.1,3.9,1.8,3.9,3.9l0.1,1.1c0.1,3.2-0.3,6.4-1,9.5
	c0.2,0.1,0.4,0.2,0.6,0.2c0.1-0.7,0.7-1.2,1.4-1.1c0.1-0.2,0.3-0.3,0.6-0.4V19c0-0.1-0.1-0.2-0.2-0.2c0,0,0,0-0.1,0
	c-0.4,0-0.7,0.2-0.9,0.5h-0.1v-0.1c0.3-0.8,1.1-1.3,1.9-1.3v-0.1l-0.3-0.3v-0.1c0.6,0,0.9-0.1,0.9-0.4v-0.1l-0.3-0.3v-0.1
	c0.6-0.4,0.9-0.6,0.9-0.7s0.2-0.4,0.6-0.9l-0.1-0.7h0.4l0.4,0.2c0.2,0,0.2-0.1,0.2-0.2s-0.2-0.4-0.3-0.3c0-0.2,0.3-0.6,0.9-1
	c0-0.4,0.4-0.7,1.3-0.8v-0.4h-0.2v-0.1c0-0.1,0.4-0.3,1.1-0.5l-0.1-0.5h0.3c0.2,0,0.2-0.1,0.2-0.3l-0.2-0.6c0.2,0,0.3,0.1,0.3,0.3
	c0.2-0.6,0.6-0.9,1-0.9v0.2H46c0.1,0,0.2-0.1,0.3-0.2c0,0,0,0,0,0c-0.2-0.1-0.4-0.1-0.6-0.1l1-0.6c0-0.5,0.4-0.9,1.3-1.3h0.1
	l0.4,0.2h0.3L49.3,7V6.8h-0.1c-0.1,0.1-0.2,0.1-0.3,0.1l-0.3-0.4V6.4c0.5-0.3,1.1-0.5,1.7-0.5V6h0.2c0.2,0,0.2-0.1,0.2-0.2V5.7h-0.3
	V5.4C51.1,5.3,51.8,5.2,52.5,5.2z"/>
<path class="st0" d="M148.7,31.3v1c0,0.2,0.1,0.3,0.3,0.3h0.3c1.6,0,3.8-1.4,6.5-4.2c1.7-1.9,2.5-3.3,2.5-4.4v-0.1
	c0-1.2-0.4-1.8-1.2-1.8c-2.1,0.8-4.5,2.6-6.9,5.5C149.4,28.8,148.9,30,148.7,31.3z M157.3,20.1c1.2,0.2,2.3,0.8,3,1.8
	c1.2,0,1.7,0.4,1.7,1.3c0.1,0,0.1,0,0.1,0.1c-1.1,1.9-1.7,4.1-1.9,6.3V30c0.2,0.9,0.4,1.3,0.7,1.3h0.8c1.3,0,3.3-1.9,6.3-5.5
	c0-0.3,0.6-0.8,1.9-1.7c0.1-0.6,0.5-1.2,1.1-1.6h0.1c0,0.3,0.1,0.6,0.3,0.9c-0.5,1.7-1.3,3.3-2.4,4.7c-3,4.2-5.4,6.3-7.5,6.3
	c-1.8,0-3.2-1.2-4.1-3.5v-0.3h-0.4c-3.2,3-5.8,4.5-7.6,4.5h-0.4c-1.7,0-2.8-1-3.3-3v-0.3c0-2.7,1.8-5.4,5.5-8.3l3.7-2.6
	C154.9,20.5,155.7,20.3,157.3,20.1L157.3,20.1z M143.8,18.1c0.5,0,0.9,0.6,1.4,1.9c0,1-1.2,3.5-3.6,7.5c-0.7,1.4-1.1,3-1.2,4.6
	c0,0.4,0.2,0.6,0.7,0.6h0.6c2-0.7,5.1-3.5,9.2-8.4c0.6-0.1,1.1-0.6,1-1.2c0-0.2,0.1-0.3,0.2-0.3h0.1c0.1,0,0.2,0.1,0.3,0.4v0.4
	c-0.2,0.8-0.7,1.6-1.2,2.2c-0.3,1.1-1.8,3.1-4.4,5.8c-1.5,1.5-3.3,2.8-5.2,3.6h-0.4c-1.6,0.1-3-0.8-3.5-2.4c0-0.3,0-0.4-0.1-0.4
	c0.1-0.3,0.1-0.5,0.2-0.5l-0.1-0.3v-0.9c0.2-1.6,1.3-3.7,3.2-6.4c0.3-0.6,0.6-1.2,1.1-1.7c0.3-0.6,0.6-1.2,0.7-1.9v-0.1h-0.5
	c-1.4,1-3.1,1.5-4.9,1.6h-0.1c-0.7,0.8-1.3,1.6-1.8,2.5c-0.2,0.1-0.4,0.2-0.7,0.2h-0.1c-0.4,0-0.7-0.3-1-1c0.1-0.6,0.5-1.1,1-1.4
	c0-0.2,0.1-0.4,0.2-0.6l-0.8-1v-0.1c0-0.5,0.3-1,0.8-1.2h0.8l1.8-0.4l0.8,0.6c1.6-0.4,3.2-0.9,4.8-1.6
	C143.2,18.2,143.5,18.1,143.8,18.1L143.8,18.1z M116.3,22c0.5,0,1,0.2,1.3,0.6c-0.6,1.6-1.4,3.2-2.3,4.6c-0.5,1.3-0.7,2.7-0.8,4.1
	c0.2,0.4,0.4,0.7,0.5,0.7c0.9,0,2.7-1.2,5.3-3.6c1.4-1.5,3-3.4,4.8-5.8c0.5-0.2,1-0.3,1.6-0.3h0.4c0.1,0,0.3,0.3,0.5,0.7
	c-0.4,0.8-1,1.6-1.6,2.3c-0.6,1.1-1,2.3-1.3,3.5v1.3c0,0.1,0.2,0.4,0.7,0.7c1.3,0,4-2.2,7.9-6.7c0.5-0.8,1.2-1.5,2-2h0.1
	c0.1,0,0.3,0.1,0.3,0.3c0,0,0,0,0,0c-0.7,2.3-2.5,5.1-5.4,8.6c-1.7,1.6-3.3,2.5-4.9,2.5h-0.1c-1.6,0-2.8-1.2-3.6-3.6
	c-2.8,3-4.6,4.5-5.5,4.5c-0.5,0.2-1,0.3-1.6,0.3c-1.5,0-2.4-1.1-2.8-3.2v-0.1c0-2.9,1.2-5.9,3.6-9C115.8,22.2,116.1,22.1,116.3,22z
	 M104.8,20.9c1.1,0.4,1.7,1,1.7,1.9c-0.8,2.3-1.3,4.7-1.4,7.1l0.1,0.7c0,0.6,0.3,0.9,0.7,0.9h0.2c1.5-0.1,3.6-1.7,6.5-4.9
	c1-1.2,1.9-2.5,2.6-3.9l0.1,0.3c0.1,0.6-0.1,1.3-0.3,1.9v0.3h0.5c-1,1.8-2.2,3.5-3.5,5.1c-2.2,2.7-4,4-5.4,4c-1.5,0-2.7-0.9-3.4-2.6
	c-0.1-0.5-0.2-1.1-0.2-1.6v-0.7c0.3-1.8,0.7-3.5,1.3-5.2c-0.1-0.1-0.2-0.1-0.4-0.1c-2.1,1.3-4,3.8-6,7.7c-0.3,0.3-0.6,0.5-1,0.6
	h-0.2c-0.4,0-0.7-0.3-1-0.9V31c0-0.8,0.5-1.9,1.8-3.2c0.1-0.8,0.4-1.6,0.7-2.3l-0.1-1.8c0-0.2-0.3-0.4-1-0.4
	c-2.6,0.9-6,4.4-10.3,10.5c-0.7,2.3-1.4,3.5-2,3.5h-0.2c-0.7-0.1-1.3-0.7-1.3-1.5c1.9-3,3.2-6.4,3.7-9.9c-0.4-2-0.3-3.3,0.2-3.7h1.3
	l0.8,1.2c-0.2,2.2-0.2,3.5-0.2,3.7v0.1h0.2c1.2-1.8,2.7-3.3,4.4-4.5c0-0.2,0.9-0.7,2.8-1.5h0.7c1.3,0,2.4,0.9,3.1,2.6h0.1
	C102.6,21.9,104.1,20.9,104.8,20.9L104.8,20.9z M65.2,31.3v1c0,0.2,0.1,0.3,0.3,0.3h0.3c1.6,0,3.8-1.4,6.5-4.2
	c1.7-1.9,2.5-3.3,2.5-4.4v-0.1c0-1.2-0.4-1.8-1.2-1.8c-2.1,0.8-4.4,2.6-6.9,5.5C65.9,28.8,65.4,30,65.2,31.3L65.2,31.3z M73.8,20.1
	c1.2,0.2,2.3,0.8,3.1,1.8c1.2,0,1.7,0.4,1.7,1.3c0.1,0,0.1,0,0.1,0.1c-1.1,1.9-1.7,4.1-1.9,6.3V30c0.2,0.9,0.4,1.3,0.7,1.3h0.8
	c1.3,0,3.3-1.9,6.3-5.5c0-0.3,0.6-0.8,1.9-1.7c0.1-0.6,0.5-1.2,1.1-1.6h0.1c0,0.3,0.1,0.6,0.3,0.9c-0.5,1.7-1.3,3.3-2.4,4.7
	c-3,4.2-5.4,6.3-7.5,6.3c-1.8,0-3.2-1.2-4.1-3.5v-0.3h-0.4c-3.2,3-5.8,4.5-7.6,4.5h-0.4c-1.7,0-2.8-1-3.3-3v-0.3
	c0-2.7,1.8-5.4,5.5-8.3l3.7-2.6C71.4,20.5,72.2,20.3,73.8,20.1L73.8,20.1z"/>
<path class="st1" d="M148.7,31.3v1c0,0.2,0.1,0.3,0.3,0.3h0.3c1.6,0,3.8-1.4,6.5-4.2c1.7-1.9,2.5-3.3,2.5-4.4v-0.1
	c0-1.2-0.4-1.8-1.2-1.8c-2.1,0.8-4.5,2.6-6.9,5.5C149.4,28.8,148.9,30,148.7,31.3z M157.3,20.1c1.2,0.2,2.3,0.8,3,1.8
	c1.2,0,1.7,0.4,1.7,1.3c0.1,0,0.1,0,0.1,0.1c-1.1,1.9-1.7,4.1-1.9,6.3V30c0.2,0.9,0.4,1.3,0.7,1.3h0.8c1.3,0,3.3-1.9,6.3-5.5
	c0-0.3,0.6-0.8,1.9-1.7c0.1-0.6,0.5-1.2,1.1-1.6h0.1c0,0.3,0.1,0.6,0.3,0.9c-0.5,1.7-1.3,3.3-2.4,4.7c-3,4.2-5.4,6.3-7.5,6.3
	c-1.8,0-3.2-1.2-4.1-3.5v-0.3h-0.4c-3.2,3-5.8,4.5-7.6,4.5h-0.4c-1.7,0-2.8-1-3.3-3v-0.3c0-2.7,1.8-5.4,5.5-8.3l3.7-2.6
	C154.9,20.5,155.7,20.3,157.3,20.1L157.3,20.1z M143.8,18.1c0.5,0,0.9,0.6,1.4,1.9c0,1-1.2,3.5-3.6,7.5c-0.7,1.4-1.1,3-1.2,4.6
	c0,0.4,0.2,0.6,0.7,0.6h0.6c2-0.7,5.1-3.5,9.2-8.4c0.6-0.1,1.1-0.6,1-1.2c0-0.2,0.1-0.3,0.2-0.3h0.1c0.1,0,0.2,0.1,0.3,0.4v0.4
	c-0.2,0.8-0.7,1.6-1.2,2.2c-0.3,1.1-1.8,3.1-4.4,5.8c-1.5,1.5-3.3,2.8-5.2,3.6h-0.4c-1.6,0.1-3-0.8-3.5-2.4c0-0.3,0-0.4-0.1-0.4
	c0.1-0.3,0.1-0.5,0.2-0.5l-0.1-0.3v-0.9c0.2-1.6,1.3-3.7,3.2-6.4c0.3-0.6,0.6-1.2,1.1-1.7c0.3-0.6,0.6-1.2,0.7-1.9v-0.1h-0.5
	c-1.4,1-3.1,1.5-4.9,1.6h-0.1c-0.7,0.8-1.3,1.6-1.8,2.5c-0.2,0.1-0.4,0.2-0.7,0.2h-0.1c-0.4,0-0.7-0.3-1-1c0.1-0.6,0.5-1.1,1-1.4
	c0-0.2,0.1-0.4,0.2-0.6l-0.8-1v-0.1c0-0.5,0.3-1,0.8-1.2h0.8l1.8-0.4l0.8,0.6c1.6-0.4,3.2-0.9,4.8-1.6
	C143.2,18.2,143.5,18.1,143.8,18.1L143.8,18.1z M116.3,22c0.5,0,1,0.2,1.3,0.6c-0.6,1.6-1.4,3.2-2.3,4.6c-0.5,1.3-0.7,2.7-0.8,4.1
	c0.2,0.4,0.4,0.7,0.5,0.7c0.9,0,2.7-1.2,5.3-3.6c1.4-1.5,3-3.4,4.8-5.8c0.5-0.2,1-0.3,1.6-0.3h0.4c0.1,0,0.3,0.3,0.5,0.7
	c-0.4,0.8-1,1.6-1.6,2.3c-0.6,1.1-1,2.3-1.3,3.5v1.3c0,0.1,0.2,0.4,0.7,0.7c1.3,0,4-2.2,7.9-6.7c0.5-0.8,1.2-1.5,2-2h0.1
	c0.1,0,0.3,0.1,0.3,0.3c0,0,0,0,0,0c-0.7,2.3-2.5,5.1-5.4,8.6c-1.7,1.6-3.3,2.5-4.9,2.5h-0.1c-1.6,0-2.8-1.2-3.6-3.6
	c-2.8,3-4.6,4.5-5.5,4.5c-0.5,0.2-1,0.3-1.6,0.3c-1.5,0-2.4-1.1-2.8-3.2v-0.1c0-2.9,1.2-5.9,3.6-9C115.8,22.2,116.1,22.1,116.3,22z
	 M104.8,20.9c1.1,0.4,1.7,1,1.7,1.9c-0.8,2.3-1.3,4.7-1.4,7.1l0.1,0.7c0,0.6,0.3,0.9,0.7,0.9h0.2c1.5-0.1,3.6-1.7,6.5-4.9
	c1-1.2,1.9-2.5,2.6-3.9l0.1,0.3c0.1,0.6-0.1,1.3-0.3,1.9v0.3h0.5c-1,1.8-2.2,3.5-3.5,5.1c-2.2,2.7-4,4-5.4,4c-1.5,0-2.7-0.9-3.4-2.6
	c-0.1-0.5-0.2-1.1-0.2-1.6v-0.7c0.3-1.8,0.7-3.5,1.3-5.2c-0.1-0.1-0.2-0.1-0.4-0.1c-2.1,1.3-4,3.8-6,7.7c-0.3,0.3-0.6,0.5-1,0.6
	h-0.2c-0.4,0-0.7-0.3-1-0.9V31c0-0.8,0.5-1.9,1.8-3.2c0.1-0.8,0.4-1.6,0.7-2.3l-0.1-1.8c0-0.2-0.3-0.4-1-0.4
	c-2.6,0.9-6,4.4-10.3,10.5c-0.7,2.3-1.4,3.5-2,3.5h-0.2c-0.7-0.1-1.3-0.7-1.3-1.5c1.9-3,3.2-6.4,3.7-9.9c-0.4-2-0.3-3.3,0.2-3.7h1.3
	l0.8,1.2c-0.2,2.2-0.2,3.5-0.2,3.7v0.1h0.2c1.2-1.8,2.7-3.3,4.4-4.5c0-0.2,0.9-0.7,2.8-1.5h0.7c1.3,0,2.4,0.9,3.1,2.6h0.1
	C102.6,21.9,104.1,20.9,104.8,20.9L104.8,20.9z M65.2,31.3v1c0,0.2,0.1,0.3,0.3,0.3h0.3c1.6,0,3.8-1.4,6.5-4.2
	c1.7-1.9,2.5-3.3,2.5-4.4v-0.1c0-1.2-0.4-1.8-1.2-1.8c-2.1,0.8-4.4,2.6-6.9,5.5C65.9,28.8,65.4,30,65.2,31.3L65.2,31.3z M73.8,20.1
	c1.2,0.2,2.3,0.8,3.1,1.8c1.2,0,1.7,0.4,1.7,1.3c0.1,0,0.1,0,0.1,0.1c-1.1,1.9-1.7,4.1-1.9,6.3V30c0.2,0.9,0.4,1.3,0.7,1.3h0.8
	c1.3,0,3.3-1.9,6.3-5.5c0-0.3,0.6-0.8,1.9-1.7c0.1-0.6,0.5-1.2,1.1-1.6h0.1c0,0.3,0.1,0.6,0.3,0.9c-0.5,1.7-1.3,3.3-2.4,4.7
	c-3,4.2-5.4,6.3-7.5,6.3c-1.8,0-3.2-1.2-4.1-3.5v-0.3h-0.4c-3.2,3-5.8,4.5-7.6,4.5h-0.4c-1.7,0-2.8-1-3.3-3v-0.3
	c0-2.7,1.8-5.4,5.5-8.3l3.7-2.6C71.4,20.5,72.2,20.3,73.8,20.1L73.8,20.1z"/>
<path class="st0" d="M165.9,6.8l1.9,0.3v0.5c-0.4,1.3-2.4,3.1-5.9,5.4c-1.2,0.8-2.5,1.4-3.9,1.7c-1.2-0.1-1.8-0.6-1.8-1.6
	c0-0.8,1.9-2.2,5.7-4.1C163.2,8.1,164.5,7.4,165.9,6.8z"/>
<path class="st1" d="M165.9,6.8l1.9,0.3v0.5c-0.4,1.3-2.4,3.1-5.9,5.4c-1.2,0.8-2.5,1.4-3.9,1.7c-1.2-0.1-1.8-0.6-1.8-1.6
	c0-0.8,1.9-2.2,5.7-4.1C163.2,8.1,164.5,7.4,165.9,6.8z"/>
<path class="st2" d="M78.6,0.6c0.4,0.5,0.7,1,1,1.5c0.2,0.4,0.2,0.4,0.2,0.4h-0.3c-0.2,0-0.4,0-0.6,0c-0.2,0-0.2-0.1-0.5-0.3
	s-0.6-0.7-0.9-1C77.4,1,77.2,0.9,77,0.8c-0.3,0-0.6,0-0.9,0c-0.7,0-1.9,0-2.6,0c-0.3,0-0.6,0-0.9,0.1c-0.1,0-0.1,0-0.1,0.7
	s0,2,0,2.7c0,0.3,0,0.6,0.1,0.9c0,0.1,0,0.1,0.6,0.2s1.6,0,2.3,0c0.3,0,0.7,0,1-0.1c0.2-0.1,0.3-0.3,0.4-0.5
	c0.1-0.2,0.2-0.5,0.3-0.7C77.3,4,77.4,4,77.5,3.9c0.1,0,0.2-0.1,0.3-0.1c0.1,0,0.1,0.1,0.1,0.3s0,0.8,0,1.1c0,0.3,0,0.6,0,0.8
	c0,0.3,0,0.8,0,1.1s0,0.3-0.1,0.3c-0.1,0-0.2,0-0.3-0.1c-0.1,0-0.2-0.1-0.3-0.2c-0.1-0.2-0.2-0.4-0.3-0.7c-0.1-0.2-0.2-0.4-0.4-0.5
	c-0.3-0.1-0.7-0.1-1-0.1c-0.6,0-1.7,0-2.3,0s-0.5,0.1-0.6,0.2c-0.1,0.3-0.1,0.6-0.1,0.9c0,0.7,0,2,0,2.7s0,0.7,0.1,0.7
	c0.3,0.1,0.6,0.1,0.9,0.1c0.7,0,1.9,0,2.6,0c0.3,0,0.6,0,0.9,0c0.2-0.1,0.4-0.2,0.5-0.3c0.3-0.3,0.7-0.7,0.9-1S78.8,9,79,9
	c0.2,0,0.4,0,0.6,0h0.3c0,0,0.1,0-0.2,0.4c-0.3,0.5-0.6,1-1,1.5c-0.2,0.3-0.6,0.5-0.9,0.5c-0.3,0-0.8,0-2,0h-5.8
	c-0.1,0-0.2,0-0.2-0.1c0-0.1,0-0.2,0-0.3c0-0.1,0-0.1,0.1-0.2c0.2-0.1,0.3-0.2,0.4-0.4c0.1-0.1,0.2-0.3,0.2-0.5c0-0.3,0-0.7,0-1
	c0-0.7,0-2,0-2.6c0-0.4,0-0.8,0-1.3c0-0.6,0-1.9,0-2.6c0-0.3,0-0.7,0-1c0-0.2-0.1-0.3-0.2-0.5c-0.1-0.1-0.2-0.3-0.4-0.4
	c-0.1-0.1-0.1-0.1-0.1-0.2c0-0.1,0-0.2,0-0.3C69.7,0,69.8,0,69.9,0h5.8c1.3,0,1.7,0,2,0C78.1,0,78.4,0.2,78.6,0.6"/>
<path class="st2" d="M81.7,9.9c-0.4,0-0.8,0.3-0.8,0.8c0,0.4,0.3,0.8,0.8,0.8s0.8-0.3,0.8-0.8S82.1,9.9,81.7,9.9L81.7,9.9"/>
<path class="st2" d="M83.9,11.4c-0.1,0-0.1,0-0.1-0.1s0-0.2,0-0.4c0-0.1,0-0.2,0.1-0.2c0,0,0.1-0.1,0.3-0.3c0.2-0.2,0.4-0.4,0.6-0.6
	c0.1-0.2,0.1-0.3,0.1-0.3V8c0-1.4,0-4.2,0-5.6s0-1.5-0.1-1.5c-0.1-0.1-0.2-0.1-0.3-0.2c-0.1,0-0.1-0.1-0.1-0.2c0-0.1,0-0.3,0-0.4
	c0-0.1,0.1-0.1,0.1-0.1h3.3c0,0,0,0,0.6,1l2.3,3.8c0.6,0.9,0.6,0.9,1,0l1.8-3.7l0.5-0.9h3.1c0,0.6,0,1.2,0,1.7c0,1.7,0,5.2,0,7
	s0,1.8,0.1,1.8l0.2,0.1c0.1,0,0.1,0.1,0.1,0.1c0,0.1,0,0.2,0,0.4c0,0.1-0.1,0.1-0.8,0.1h-3.6c0,0-0.1,0-0.1-0.1c0-0.1,0-0.2,0-0.3
	c0-0.1,0.1-0.1,0.2-0.2c0.1-0.1,0.2-0.2,0.3-0.3c0.1-0.1,0.1-0.2,0.2-0.4c0-0.1,0.1-0.2,0.1-0.3c0-0.4,0-0.8,0-1.2V4.6
	c0-1.2,0-1.5,0-1.6s0-0.1-0.5,1.2s-1.6,4-2.1,5.3c-0.2,0.5-0.4,1-0.6,1.4c0,0,0,0-0.1,0H90c0,0,0,0-0.7-1.2s-2-3.7-2.7-4.9
	s-0.7-1.3-0.7-1.3c0,0.3,0,0.7,0,1c0,1,0,3.1,0,4.2v1.2c0,0.1,0,0.1,0.1,0.2c0.1,0.1,0.3,0.2,0.4,0.3l0.6,0.4
	c0.1,0.1,0.2,0.1,0.2,0.1c0,0.1,0,0.1,0,0.2c0,0.1,0,0.3,0,0.4s0,0.1,0,0.1H84L83.9,11.4"/>
<path class="st2" d="M99.7,9.9c-0.4,0-0.8,0.3-0.8,0.8c0,0.4,0.3,0.8,0.8,0.8c0.4,0,0.8-0.3,0.8-0.8S100.1,9.9,99.7,9.9
	C99.7,9.9,99.7,9.9,99.7,9.9"/>
</svg>
